M48
; DRILL file {KiCad 8.0.6} date 2024-11-02T14:38:16-0500
; FORMAT={-:-/ absolute / inch / decimal}
; #@! TF.CreationDate,2024-11-02T14:38:16-05:00
; #@! TF.GenerationSoftware,Kicad,Pcbnew,8.0.6
; #@! TF.FileFunction,Plated,1,2,PTH
FMAT,2
INCH
; #@! TA.AperFunction,Plated,PTH,ViaDrill
T1C0.0157
; #@! TA.AperFunction,Plated,PTH,ComponentDrill
T2C0.0315
; #@! TA.AperFunction,Plated,PTH,ComponentDrill
T3C0.0354
; #@! TA.AperFunction,Plated,PTH,ComponentDrill
T4C0.0394
; #@! TA.AperFunction,Plated,PTH,ComponentDrill
T5C0.0433
; #@! TA.AperFunction,Plated,PTH,ComponentDrill
T6C0.1260
%
G90
G05
T1
X3.5235Y-6.1822
X3.7132Y-6.7759
X3.9873Y-6.9499
X4.1068Y-6.9027
X4.1347Y-6.9973
X4.1555Y-6.815
X4.213Y-6.7756
X4.4113Y-6.4181
X4.492Y-6.3359
X4.5799Y-6.3681
X4.6699Y-6.6768
X5.3447Y-6.7468
X5.4109Y-6.2302
X5.6155Y-6.8016
X5.6199Y-6.1935
X5.8669Y-6.2494
X5.8844Y-6.6765
X5.891Y-6.4084
X6.0931Y-6.2499
X6.1205Y-6.5592
X6.4129Y-6.0958
X6.5296Y-6.699
X6.5869Y-6.7276
X6.6248Y-6.5634
X6.7404Y-6.5308
X6.9204Y-7.3255
X6.9583Y-7.357
X6.9844Y-6.1998
X7.0699Y-6.7688
X7.0999Y-6.2258
X7.2086Y-7.6116
X7.3903Y-7.3882
X7.6469Y-7.5984
X8.3149Y-7.6062
X8.421Y-6.6887
X8.6246Y-6.6633
X8.6771Y-6.6019
X9.2209Y-6.5512
X10.3383Y-6.7322
X10.7365Y-7.1973
T2
X2.2516Y-6.1024
X2.5516Y-6.1024
X3.2608Y-6.4567
X3.2707Y-5.9913
X3.2707Y-6.2913
X3.3608Y-6.4567
X3.3707Y-5.9913
X3.3707Y-6.2913
X3.4608Y-6.4567
X3.4707Y-5.9913
X3.4707Y-6.2913
X3.5608Y-6.4567
X3.5707Y-5.9913
X3.5707Y-6.2913
X3.6608Y-6.4567
X3.6707Y-5.9913
X3.6707Y-6.2913
X3.7608Y-6.4567
X3.7707Y-5.9913
X3.7707Y-6.2913
X3.8608Y-6.4567
X3.8707Y-5.9913
X3.8707Y-6.2913
X3.9608Y-6.4567
X3.9707Y-5.9913
X3.9707Y-6.2913
X4.0608Y-6.4567
X4.0707Y-5.9913
X4.0707Y-6.2913
X4.1707Y-5.9913
X4.1707Y-6.2913
X11.5928Y-6.3302
X11.5928Y-6.4302
X11.5928Y-6.5302
X11.5928Y-6.6302
X11.5928Y-6.7302
X11.5928Y-6.8302
X11.5928Y-6.9302
X11.5928Y-7.0302
X11.5928Y-7.1302
X11.5928Y-7.2302
X11.5928Y-7.3302
X11.5928Y-7.4302
X11.5928Y-7.5302
X11.5928Y-7.6302
X11.5928Y-7.7302
X11.5928Y-7.8302
X11.5928Y-7.9302
X11.5928Y-8.0302
X11.5928Y-8.1302
X11.5928Y-8.2302
X11.5928Y-8.3302
X11.5928Y-8.4302
X12.4928Y-6.3302
X12.4928Y-6.4302
X12.4928Y-6.5302
X12.4928Y-6.6302
X12.4928Y-6.7302
X12.4928Y-6.8302
X12.4928Y-6.9302
X12.4928Y-7.0302
X12.4928Y-7.1302
X12.4928Y-7.2302
X12.4928Y-7.3302
X12.4928Y-7.4302
X12.4928Y-7.5302
X12.4928Y-7.6302
X12.4928Y-7.7302
X12.4928Y-7.8302
X12.4928Y-7.9302
X12.4928Y-8.0302
X12.4928Y-8.1302
X12.493Y-8.2301
X12.493Y-8.3301
X12.493Y-8.4301
T3
X2.0079Y-6.1024
X2.1079Y-6.1024
X5.1545Y-6.8633
X5.2545Y-6.8633
X5.5445Y-6.8633
X5.6445Y-6.8633
X5.9345Y-6.8633
X6.0345Y-6.8633
X6.3245Y-6.8633
X6.4245Y-6.8633
X6.7145Y-6.8633
X6.8145Y-6.8633
X7.1045Y-6.8634
X7.2045Y-6.8634
X7.4945Y-6.8633
X7.5945Y-6.8633
X7.8845Y-6.8633
X7.9845Y-6.8633
T4
X1.533Y-6.5351
X1.533Y-6.6351
X1.533Y-6.7351
X1.533Y-6.8351
X1.533Y-6.9351
X1.533Y-7.0351
X2.4165Y-6.8268
X2.5165Y-6.8268
X2.6165Y-6.8268
X2.7165Y-6.8268
X5.0539Y-6.3546
X5.0539Y-6.4546
X5.1539Y-6.3546
X5.1539Y-6.4546
X5.2539Y-6.3546
X5.2539Y-6.4546
X5.3539Y-6.3546
X5.3539Y-6.4546
X5.4539Y-6.3546
X5.4539Y-6.4546
X5.5539Y-6.3546
X5.5539Y-6.4546
X5.6539Y-6.3546
X5.6539Y-6.4546
X5.7539Y-6.3546
X5.7539Y-6.4546
X5.8539Y-6.3546
X5.8539Y-6.4546
X5.9539Y-6.3546
X5.9539Y-6.4546
X6.0539Y-6.3546
X6.0539Y-6.4546
X6.1539Y-6.3546
X6.1539Y-6.4546
X6.2539Y-6.3546
X6.2539Y-6.4546
X6.3539Y-6.3546
X6.3539Y-6.4546
X6.4539Y-6.3546
X6.4539Y-6.4546
X6.5539Y-6.3546
X6.5539Y-6.4546
X6.6539Y-6.3546
X6.6539Y-6.4546
X6.7539Y-6.3546
X6.7539Y-6.4546
X6.8539Y-6.3546
X6.8539Y-6.4546
X6.9539Y-6.3546
X6.9539Y-6.4546
X10.038Y-6.3351
X10.138Y-6.3351
X10.238Y-6.3351
X10.338Y-6.3351
X10.438Y-6.3351
X10.538Y-6.3351
X10.638Y-6.3351
X10.738Y-6.3351
T5
X8.387Y-6.308
X8.387Y-6.4851
X8.643Y-6.308
X8.643Y-6.4851
T6
X1.5748Y-6.1024
X1.5748Y-8.8583
X12.7953Y-6.1024
X12.7953Y-8.8583
T4
G00X3.8445Y-7.5413
M15
G01X3.7933Y-7.5413
M16
G05
G00X3.8445Y-7.7165
M15
G01X3.7933Y-7.7165
M16
G05
G00X3.8445Y-7.8917
M15
G01X3.7933Y-7.8917
M16
G05
G00X4.5012Y-7.5413
M15
G01X4.45Y-7.5413
M16
G05
G00X4.5012Y-7.7165
M15
G01X4.45Y-7.7165
M16
G05
G00X4.5012Y-7.8917
M15
G01X4.45Y-7.8917
M16
G05
G00X5.158Y-7.5413
M15
G01X5.1068Y-7.5413
M16
G05
G00X5.158Y-7.7165
M15
G01X5.1068Y-7.7165
M16
G05
G00X5.158Y-7.8917
M15
G01X5.1068Y-7.8917
M16
G05
G00X5.8147Y-7.5413
M15
G01X5.7635Y-7.5413
M16
G05
G00X5.8147Y-7.7165
M15
G01X5.7635Y-7.7165
M16
G05
G00X5.8147Y-7.8917
M15
G01X5.7635Y-7.8917
M16
G05
G00X6.4714Y-7.5413
M15
G01X6.4202Y-7.5413
M16
G05
G00X6.4714Y-7.7165
M15
G01X6.4202Y-7.7165
M16
G05
G00X6.4714Y-7.8917
M15
G01X6.4202Y-7.8917
M16
G05
G00X7.1281Y-7.5413
M15
G01X7.077Y-7.5413
M16
G05
G00X7.1281Y-7.7165
M15
G01X7.077Y-7.7165
M16
G05
G00X7.1281Y-7.8917
M15
G01X7.077Y-7.8917
M16
G05
G00X7.7849Y-7.5413
M15
G01X7.7337Y-7.5413
M16
G05
G00X7.7849Y-7.7165
M15
G01X7.7337Y-7.7165
M16
G05
G00X7.7849Y-7.8917
M15
G01X7.7337Y-7.8917
M16
G05
G00X8.4416Y-7.5413
M15
G01X8.3904Y-7.5413
M16
G05
G00X8.4416Y-7.7165
M15
G01X8.3904Y-7.7165
M16
G05
G00X8.4416Y-7.8917
M15
G01X8.3904Y-7.8917
M16
G05
G00X9.0983Y-7.5413
M15
G01X9.0472Y-7.5413
M16
G05
G00X9.0983Y-7.7165
M15
G01X9.0472Y-7.7165
M16
G05
G00X9.0983Y-7.8917
M15
G01X9.0472Y-7.8917
M16
G05
G00X9.7551Y-7.5413
M15
G01X9.7039Y-7.5413
M16
G05
G00X9.7551Y-7.7165
M15
G01X9.7039Y-7.7165
M16
G05
G00X9.7551Y-7.8917
M15
G01X9.7039Y-7.8917
M16
G05
G00X10.4118Y-7.5413
M15
G01X10.3606Y-7.5413
M16
G05
G00X10.4118Y-7.7165
M15
G01X10.3606Y-7.7165
M16
G05
G00X10.4118Y-7.8917
M15
G01X10.3606Y-7.8917
M16
G05
G00X11.0685Y-7.5413
M15
G01X11.0174Y-7.5413
M16
G05
G00X11.0685Y-7.7165
M15
G01X11.0174Y-7.7165
M16
G05
G00X11.0685Y-7.8917
M15
G01X11.0174Y-7.8917
M16
G05
M30
