%TF.GenerationSoftware,KiCad,Pcbnew,8.0.6*%
%TF.CreationDate,2024-11-02T14:39:29-05:00*%
%TF.ProjectId,front-panel.processor,66726f6e-742d-4706-916e-656c2e70726f,rev?*%
%TF.SameCoordinates,Original*%
%TF.FileFunction,Drillmap*%
%TF.FilePolarity,Positive*%
%FSLAX45Y45*%
G04 Gerber Fmt 4.5, Leading zero omitted, Abs format (unit mm)*
G04 Created by KiCad (PCBNEW 8.0.6) date 2024-11-02 14:39:29*
%MOMM*%
%LPD*%
G01*
G04 APERTURE LIST*
%ADD10C,0.050000*%
%ADD11C,0.200000*%
G04 APERTURE END LIST*
D10*
X4000000Y-23000000D02*
X32500000Y-23000000D01*
X3500000Y-15500000D02*
X3500000Y-22500000D01*
X32500000Y-15000000D02*
X4000000Y-15000000D01*
X33000000Y-22500000D02*
X33000000Y-15500000D01*
X32500000Y-15000000D02*
G75*
G02*
X33000000Y-15500000I0J-500000D01*
G01*
X4000000Y-23000000D02*
G75*
G02*
X3500000Y-22500000I0J500000D01*
G01*
X3500000Y-15500000D02*
G75*
G02*
X4000000Y-15000000I500000J0D01*
G01*
X33000000Y-22500000D02*
G75*
G02*
X32500000Y-23000000I-500000J0D01*
G01*
D11*
X3758277Y-23313984D02*
X3758277Y-23113984D01*
X3758277Y-23113984D02*
X3805896Y-23113984D01*
X3805896Y-23113984D02*
X3834467Y-23123508D01*
X3834467Y-23123508D02*
X3853515Y-23142555D01*
X3853515Y-23142555D02*
X3863039Y-23161603D01*
X3863039Y-23161603D02*
X3872562Y-23199698D01*
X3872562Y-23199698D02*
X3872562Y-23228269D01*
X3872562Y-23228269D02*
X3863039Y-23266365D01*
X3863039Y-23266365D02*
X3853515Y-23285412D01*
X3853515Y-23285412D02*
X3834467Y-23304460D01*
X3834467Y-23304460D02*
X3805896Y-23313984D01*
X3805896Y-23313984D02*
X3758277Y-23313984D01*
X3958277Y-23313984D02*
X3958277Y-23180650D01*
X3958277Y-23218746D02*
X3967801Y-23199698D01*
X3967801Y-23199698D02*
X3977324Y-23190174D01*
X3977324Y-23190174D02*
X3996372Y-23180650D01*
X3996372Y-23180650D02*
X4015420Y-23180650D01*
X4082086Y-23313984D02*
X4082086Y-23180650D01*
X4082086Y-23113984D02*
X4072562Y-23123508D01*
X4072562Y-23123508D02*
X4082086Y-23133031D01*
X4082086Y-23133031D02*
X4091610Y-23123508D01*
X4091610Y-23123508D02*
X4082086Y-23113984D01*
X4082086Y-23113984D02*
X4082086Y-23133031D01*
X4205896Y-23313984D02*
X4186848Y-23304460D01*
X4186848Y-23304460D02*
X4177324Y-23285412D01*
X4177324Y-23285412D02*
X4177324Y-23113984D01*
X4310658Y-23313984D02*
X4291610Y-23304460D01*
X4291610Y-23304460D02*
X4282086Y-23285412D01*
X4282086Y-23285412D02*
X4282086Y-23113984D01*
X4539229Y-23313984D02*
X4539229Y-23113984D01*
X4539229Y-23113984D02*
X4605896Y-23256841D01*
X4605896Y-23256841D02*
X4672563Y-23113984D01*
X4672563Y-23113984D02*
X4672563Y-23313984D01*
X4853515Y-23313984D02*
X4853515Y-23209222D01*
X4853515Y-23209222D02*
X4843991Y-23190174D01*
X4843991Y-23190174D02*
X4824944Y-23180650D01*
X4824944Y-23180650D02*
X4786848Y-23180650D01*
X4786848Y-23180650D02*
X4767801Y-23190174D01*
X4853515Y-23304460D02*
X4834467Y-23313984D01*
X4834467Y-23313984D02*
X4786848Y-23313984D01*
X4786848Y-23313984D02*
X4767801Y-23304460D01*
X4767801Y-23304460D02*
X4758277Y-23285412D01*
X4758277Y-23285412D02*
X4758277Y-23266365D01*
X4758277Y-23266365D02*
X4767801Y-23247317D01*
X4767801Y-23247317D02*
X4786848Y-23237793D01*
X4786848Y-23237793D02*
X4834467Y-23237793D01*
X4834467Y-23237793D02*
X4853515Y-23228269D01*
X4948753Y-23180650D02*
X4948753Y-23380650D01*
X4948753Y-23190174D02*
X4967801Y-23180650D01*
X4967801Y-23180650D02*
X5005896Y-23180650D01*
X5005896Y-23180650D02*
X5024944Y-23190174D01*
X5024944Y-23190174D02*
X5034467Y-23199698D01*
X5034467Y-23199698D02*
X5043991Y-23218746D01*
X5043991Y-23218746D02*
X5043991Y-23275888D01*
X5043991Y-23275888D02*
X5034467Y-23294936D01*
X5034467Y-23294936D02*
X5024944Y-23304460D01*
X5024944Y-23304460D02*
X5005896Y-23313984D01*
X5005896Y-23313984D02*
X4967801Y-23313984D01*
X4967801Y-23313984D02*
X4948753Y-23304460D01*
X5129705Y-23294936D02*
X5139229Y-23304460D01*
X5139229Y-23304460D02*
X5129705Y-23313984D01*
X5129705Y-23313984D02*
X5120182Y-23304460D01*
X5120182Y-23304460D02*
X5129705Y-23294936D01*
X5129705Y-23294936D02*
X5129705Y-23313984D01*
X5129705Y-23190174D02*
X5139229Y-23199698D01*
X5139229Y-23199698D02*
X5129705Y-23209222D01*
X5129705Y-23209222D02*
X5120182Y-23199698D01*
X5120182Y-23199698D02*
X5129705Y-23190174D01*
X5129705Y-23190174D02*
X5129705Y-23209222D01*
M02*
