%TF.GenerationSoftware,KiCad,Pcbnew,8.0.6*%
%TF.CreationDate,2024-11-02T14:39:31-05:00*%
%TF.ProjectId,front-panel.processor,66726f6e-742d-4706-916e-656c2e70726f,rev?*%
%TF.SameCoordinates,Original*%
%TF.FileFunction,Legend,Bot*%
%TF.FilePolarity,Positive*%
%FSLAX46Y46*%
G04 Gerber Fmt 4.6, Leading zero omitted, Abs format (unit mm)*
G04 Created by KiCad (PCBNEW 8.0.6) date 2024-11-02 14:39:31*
%MOMM*%
%LPD*%
G01*
G04 APERTURE LIST*
%ADD10C,0.150000*%
%ADD11C,0.120000*%
G04 APERTURE END LIST*
D10*
X152833333Y-154572319D02*
X152833333Y-155286604D01*
X152833333Y-155286604D02*
X152880952Y-155429461D01*
X152880952Y-155429461D02*
X152976190Y-155524700D01*
X152976190Y-155524700D02*
X153119047Y-155572319D01*
X153119047Y-155572319D02*
X153214285Y-155572319D01*
X151833333Y-155572319D02*
X152404761Y-155572319D01*
X152119047Y-155572319D02*
X152119047Y-154572319D01*
X152119047Y-154572319D02*
X152214285Y-154715176D01*
X152214285Y-154715176D02*
X152309523Y-154810414D01*
X152309523Y-154810414D02*
X152404761Y-154858033D01*
X39270333Y-181296819D02*
X39270333Y-182011104D01*
X39270333Y-182011104D02*
X39317952Y-182153961D01*
X39317952Y-182153961D02*
X39413190Y-182249200D01*
X39413190Y-182249200D02*
X39556047Y-182296819D01*
X39556047Y-182296819D02*
X39651285Y-182296819D01*
X38841761Y-181392057D02*
X38794142Y-181344438D01*
X38794142Y-181344438D02*
X38698904Y-181296819D01*
X38698904Y-181296819D02*
X38460809Y-181296819D01*
X38460809Y-181296819D02*
X38365571Y-181344438D01*
X38365571Y-181344438D02*
X38317952Y-181392057D01*
X38317952Y-181392057D02*
X38270333Y-181487295D01*
X38270333Y-181487295D02*
X38270333Y-181582533D01*
X38270333Y-181582533D02*
X38317952Y-181725390D01*
X38317952Y-181725390D02*
X38889380Y-182296819D01*
X38889380Y-182296819D02*
X38270333Y-182296819D01*
X44761904Y-157954819D02*
X44761904Y-156954819D01*
X44761904Y-157431009D02*
X44190476Y-157431009D01*
X44190476Y-157954819D02*
X44190476Y-156954819D01*
X43190476Y-157954819D02*
X43761904Y-157954819D01*
X43476190Y-157954819D02*
X43476190Y-156954819D01*
X43476190Y-156954819D02*
X43571428Y-157097676D01*
X43571428Y-157097676D02*
X43666666Y-157192914D01*
X43666666Y-157192914D02*
X43761904Y-157240533D01*
X321761904Y-157954819D02*
X321761904Y-156954819D01*
X321761904Y-157431009D02*
X321190476Y-157431009D01*
X321190476Y-157954819D02*
X321190476Y-156954819D01*
X320761904Y-157050057D02*
X320714285Y-157002438D01*
X320714285Y-157002438D02*
X320619047Y-156954819D01*
X320619047Y-156954819D02*
X320380952Y-156954819D01*
X320380952Y-156954819D02*
X320285714Y-157002438D01*
X320285714Y-157002438D02*
X320238095Y-157050057D01*
X320238095Y-157050057D02*
X320190476Y-157145295D01*
X320190476Y-157145295D02*
X320190476Y-157240533D01*
X320190476Y-157240533D02*
X320238095Y-157383390D01*
X320238095Y-157383390D02*
X320809523Y-157954819D01*
X320809523Y-157954819D02*
X320190476Y-157954819D01*
X320761904Y-227454819D02*
X320761904Y-226454819D01*
X320761904Y-226931009D02*
X320190476Y-226931009D01*
X320190476Y-227454819D02*
X320190476Y-226454819D01*
X319809523Y-226454819D02*
X319190476Y-226454819D01*
X319190476Y-226454819D02*
X319523809Y-226835771D01*
X319523809Y-226835771D02*
X319380952Y-226835771D01*
X319380952Y-226835771D02*
X319285714Y-226883390D01*
X319285714Y-226883390D02*
X319238095Y-226931009D01*
X319238095Y-226931009D02*
X319190476Y-227026247D01*
X319190476Y-227026247D02*
X319190476Y-227264342D01*
X319190476Y-227264342D02*
X319238095Y-227359580D01*
X319238095Y-227359580D02*
X319285714Y-227407200D01*
X319285714Y-227407200D02*
X319380952Y-227454819D01*
X319380952Y-227454819D02*
X319666666Y-227454819D01*
X319666666Y-227454819D02*
X319761904Y-227407200D01*
X319761904Y-227407200D02*
X319809523Y-227359580D01*
X45261904Y-227454819D02*
X45261904Y-226454819D01*
X45261904Y-226931009D02*
X44690476Y-226931009D01*
X44690476Y-227454819D02*
X44690476Y-226454819D01*
X43785714Y-226788152D02*
X43785714Y-227454819D01*
X44023809Y-226407200D02*
X44261904Y-227121485D01*
X44261904Y-227121485D02*
X43642857Y-227121485D01*
X61166666Y-155454819D02*
X61499999Y-154978628D01*
X61738094Y-155454819D02*
X61738094Y-154454819D01*
X61738094Y-154454819D02*
X61357142Y-154454819D01*
X61357142Y-154454819D02*
X61261904Y-154502438D01*
X61261904Y-154502438D02*
X61214285Y-154550057D01*
X61214285Y-154550057D02*
X61166666Y-154645295D01*
X61166666Y-154645295D02*
X61166666Y-154788152D01*
X61166666Y-154788152D02*
X61214285Y-154883390D01*
X61214285Y-154883390D02*
X61261904Y-154931009D01*
X61261904Y-154931009D02*
X61357142Y-154978628D01*
X61357142Y-154978628D02*
X61738094Y-154978628D01*
X60309523Y-154454819D02*
X60499999Y-154454819D01*
X60499999Y-154454819D02*
X60595237Y-154502438D01*
X60595237Y-154502438D02*
X60642856Y-154550057D01*
X60642856Y-154550057D02*
X60738094Y-154692914D01*
X60738094Y-154692914D02*
X60785713Y-154883390D01*
X60785713Y-154883390D02*
X60785713Y-155264342D01*
X60785713Y-155264342D02*
X60738094Y-155359580D01*
X60738094Y-155359580D02*
X60690475Y-155407200D01*
X60690475Y-155407200D02*
X60595237Y-155454819D01*
X60595237Y-155454819D02*
X60404761Y-155454819D01*
X60404761Y-155454819D02*
X60309523Y-155407200D01*
X60309523Y-155407200D02*
X60261904Y-155359580D01*
X60261904Y-155359580D02*
X60214285Y-155264342D01*
X60214285Y-155264342D02*
X60214285Y-155026247D01*
X60214285Y-155026247D02*
X60261904Y-154931009D01*
X60261904Y-154931009D02*
X60309523Y-154883390D01*
X60309523Y-154883390D02*
X60404761Y-154835771D01*
X60404761Y-154835771D02*
X60595237Y-154835771D01*
X60595237Y-154835771D02*
X60690475Y-154883390D01*
X60690475Y-154883390D02*
X60738094Y-154931009D01*
X60738094Y-154931009D02*
X60785713Y-155026247D01*
X217614332Y-162879200D02*
X217471475Y-162926819D01*
X217471475Y-162926819D02*
X217233380Y-162926819D01*
X217233380Y-162926819D02*
X217138142Y-162879200D01*
X217138142Y-162879200D02*
X217090523Y-162831580D01*
X217090523Y-162831580D02*
X217042904Y-162736342D01*
X217042904Y-162736342D02*
X217042904Y-162641104D01*
X217042904Y-162641104D02*
X217090523Y-162545866D01*
X217090523Y-162545866D02*
X217138142Y-162498247D01*
X217138142Y-162498247D02*
X217233380Y-162450628D01*
X217233380Y-162450628D02*
X217423856Y-162403009D01*
X217423856Y-162403009D02*
X217519094Y-162355390D01*
X217519094Y-162355390D02*
X217566713Y-162307771D01*
X217566713Y-162307771D02*
X217614332Y-162212533D01*
X217614332Y-162212533D02*
X217614332Y-162117295D01*
X217614332Y-162117295D02*
X217566713Y-162022057D01*
X217566713Y-162022057D02*
X217519094Y-161974438D01*
X217519094Y-161974438D02*
X217423856Y-161926819D01*
X217423856Y-161926819D02*
X217185761Y-161926819D01*
X217185761Y-161926819D02*
X217042904Y-161974438D01*
X216709570Y-161926819D02*
X216471475Y-162926819D01*
X216471475Y-162926819D02*
X216280999Y-162212533D01*
X216280999Y-162212533D02*
X216090523Y-162926819D01*
X216090523Y-162926819D02*
X215852428Y-161926819D01*
X215423856Y-162926819D02*
X215233380Y-162926819D01*
X215233380Y-162926819D02*
X215138142Y-162879200D01*
X215138142Y-162879200D02*
X215090523Y-162831580D01*
X215090523Y-162831580D02*
X214995285Y-162688723D01*
X214995285Y-162688723D02*
X214947666Y-162498247D01*
X214947666Y-162498247D02*
X214947666Y-162117295D01*
X214947666Y-162117295D02*
X214995285Y-162022057D01*
X214995285Y-162022057D02*
X215042904Y-161974438D01*
X215042904Y-161974438D02*
X215138142Y-161926819D01*
X215138142Y-161926819D02*
X215328618Y-161926819D01*
X215328618Y-161926819D02*
X215423856Y-161974438D01*
X215423856Y-161974438D02*
X215471475Y-162022057D01*
X215471475Y-162022057D02*
X215519094Y-162117295D01*
X215519094Y-162117295D02*
X215519094Y-162355390D01*
X215519094Y-162355390D02*
X215471475Y-162450628D01*
X215471475Y-162450628D02*
X215423856Y-162498247D01*
X215423856Y-162498247D02*
X215328618Y-162545866D01*
X215328618Y-162545866D02*
X215138142Y-162545866D01*
X215138142Y-162545866D02*
X215042904Y-162498247D01*
X215042904Y-162498247D02*
X214995285Y-162450628D01*
X214995285Y-162450628D02*
X214947666Y-162355390D01*
X93959819Y-155228095D02*
X94769342Y-155228095D01*
X94769342Y-155228095D02*
X94864580Y-155275714D01*
X94864580Y-155275714D02*
X94912200Y-155323333D01*
X94912200Y-155323333D02*
X94959819Y-155418571D01*
X94959819Y-155418571D02*
X94959819Y-155609047D01*
X94959819Y-155609047D02*
X94912200Y-155704285D01*
X94912200Y-155704285D02*
X94864580Y-155751904D01*
X94864580Y-155751904D02*
X94769342Y-155799523D01*
X94769342Y-155799523D02*
X93959819Y-155799523D01*
X94959819Y-156799523D02*
X94959819Y-156228095D01*
X94959819Y-156513809D02*
X93959819Y-156513809D01*
X93959819Y-156513809D02*
X94102676Y-156418571D01*
X94102676Y-156418571D02*
X94197914Y-156323333D01*
X94197914Y-156323333D02*
X94245533Y-156228095D01*
X106454819Y-163309523D02*
X105978628Y-162976190D01*
X106454819Y-162738095D02*
X105454819Y-162738095D01*
X105454819Y-162738095D02*
X105454819Y-163119047D01*
X105454819Y-163119047D02*
X105502438Y-163214285D01*
X105502438Y-163214285D02*
X105550057Y-163261904D01*
X105550057Y-163261904D02*
X105645295Y-163309523D01*
X105645295Y-163309523D02*
X105788152Y-163309523D01*
X105788152Y-163309523D02*
X105883390Y-163261904D01*
X105883390Y-163261904D02*
X105931009Y-163214285D01*
X105931009Y-163214285D02*
X105978628Y-163119047D01*
X105978628Y-163119047D02*
X105978628Y-162738095D01*
X106454819Y-163738095D02*
X105454819Y-163738095D01*
X105454819Y-163738095D02*
X106454819Y-164309523D01*
X106454819Y-164309523D02*
X105454819Y-164309523D01*
X106454819Y-165309523D02*
X106454819Y-164738095D01*
X106454819Y-165023809D02*
X105454819Y-165023809D01*
X105454819Y-165023809D02*
X105597676Y-164928571D01*
X105597676Y-164928571D02*
X105692914Y-164833333D01*
X105692914Y-164833333D02*
X105740533Y-164738095D01*
X66166666Y-184185009D02*
X66023809Y-184232628D01*
X66023809Y-184232628D02*
X65976190Y-184280247D01*
X65976190Y-184280247D02*
X65928571Y-184375485D01*
X65928571Y-184375485D02*
X65928571Y-184518342D01*
X65928571Y-184518342D02*
X65976190Y-184613580D01*
X65976190Y-184613580D02*
X66023809Y-184661200D01*
X66023809Y-184661200D02*
X66119047Y-184708819D01*
X66119047Y-184708819D02*
X66499999Y-184708819D01*
X66499999Y-184708819D02*
X66499999Y-183708819D01*
X66499999Y-183708819D02*
X66166666Y-183708819D01*
X66166666Y-183708819D02*
X66071428Y-183756438D01*
X66071428Y-183756438D02*
X66023809Y-183804057D01*
X66023809Y-183804057D02*
X65976190Y-183899295D01*
X65976190Y-183899295D02*
X65976190Y-183994533D01*
X65976190Y-183994533D02*
X66023809Y-184089771D01*
X66023809Y-184089771D02*
X66071428Y-184137390D01*
X66071428Y-184137390D02*
X66166666Y-184185009D01*
X66166666Y-184185009D02*
X66499999Y-184185009D01*
X65499999Y-184708819D02*
X65499999Y-184042152D01*
X65499999Y-184232628D02*
X65452380Y-184137390D01*
X65452380Y-184137390D02*
X65404761Y-184089771D01*
X65404761Y-184089771D02*
X65309523Y-184042152D01*
X65309523Y-184042152D02*
X65214285Y-184042152D01*
X64452380Y-184708819D02*
X64452380Y-183708819D01*
X64452380Y-184661200D02*
X64547618Y-184708819D01*
X64547618Y-184708819D02*
X64738094Y-184708819D01*
X64738094Y-184708819D02*
X64833332Y-184661200D01*
X64833332Y-184661200D02*
X64880951Y-184613580D01*
X64880951Y-184613580D02*
X64928570Y-184518342D01*
X64928570Y-184518342D02*
X64928570Y-184232628D01*
X64928570Y-184232628D02*
X64880951Y-184137390D01*
X64880951Y-184137390D02*
X64833332Y-184089771D01*
X64833332Y-184089771D02*
X64738094Y-184042152D01*
X64738094Y-184042152D02*
X64547618Y-184042152D01*
X64547618Y-184042152D02*
X64452380Y-184089771D01*
X63452380Y-184708819D02*
X64023808Y-184708819D01*
X63738094Y-184708819D02*
X63738094Y-183708819D01*
X63738094Y-183708819D02*
X63833332Y-183851676D01*
X63833332Y-183851676D02*
X63928570Y-183946914D01*
X63928570Y-183946914D02*
X64023808Y-183994533D01*
X60419666Y-176787200D02*
X60276809Y-176834819D01*
X60276809Y-176834819D02*
X60038714Y-176834819D01*
X60038714Y-176834819D02*
X59943476Y-176787200D01*
X59943476Y-176787200D02*
X59895857Y-176739580D01*
X59895857Y-176739580D02*
X59848238Y-176644342D01*
X59848238Y-176644342D02*
X59848238Y-176549104D01*
X59848238Y-176549104D02*
X59895857Y-176453866D01*
X59895857Y-176453866D02*
X59943476Y-176406247D01*
X59943476Y-176406247D02*
X60038714Y-176358628D01*
X60038714Y-176358628D02*
X60229190Y-176311009D01*
X60229190Y-176311009D02*
X60324428Y-176263390D01*
X60324428Y-176263390D02*
X60372047Y-176215771D01*
X60372047Y-176215771D02*
X60419666Y-176120533D01*
X60419666Y-176120533D02*
X60419666Y-176025295D01*
X60419666Y-176025295D02*
X60372047Y-175930057D01*
X60372047Y-175930057D02*
X60324428Y-175882438D01*
X60324428Y-175882438D02*
X60229190Y-175834819D01*
X60229190Y-175834819D02*
X59991095Y-175834819D01*
X59991095Y-175834819D02*
X59848238Y-175882438D01*
X59467285Y-176787200D02*
X59324428Y-176834819D01*
X59324428Y-176834819D02*
X59086333Y-176834819D01*
X59086333Y-176834819D02*
X58991095Y-176787200D01*
X58991095Y-176787200D02*
X58943476Y-176739580D01*
X58943476Y-176739580D02*
X58895857Y-176644342D01*
X58895857Y-176644342D02*
X58895857Y-176549104D01*
X58895857Y-176549104D02*
X58943476Y-176453866D01*
X58943476Y-176453866D02*
X58991095Y-176406247D01*
X58991095Y-176406247D02*
X59086333Y-176358628D01*
X59086333Y-176358628D02*
X59276809Y-176311009D01*
X59276809Y-176311009D02*
X59372047Y-176263390D01*
X59372047Y-176263390D02*
X59419666Y-176215771D01*
X59419666Y-176215771D02*
X59467285Y-176120533D01*
X59467285Y-176120533D02*
X59467285Y-176025295D01*
X59467285Y-176025295D02*
X59419666Y-175930057D01*
X59419666Y-175930057D02*
X59372047Y-175882438D01*
X59372047Y-175882438D02*
X59276809Y-175834819D01*
X59276809Y-175834819D02*
X59038714Y-175834819D01*
X59038714Y-175834819D02*
X58895857Y-175882438D01*
X58467285Y-176834819D02*
X58467285Y-175834819D01*
X58467285Y-175834819D02*
X58229190Y-175834819D01*
X58229190Y-175834819D02*
X58086333Y-175882438D01*
X58086333Y-175882438D02*
X57991095Y-175977676D01*
X57991095Y-175977676D02*
X57943476Y-176072914D01*
X57943476Y-176072914D02*
X57895857Y-176263390D01*
X57895857Y-176263390D02*
X57895857Y-176406247D01*
X57895857Y-176406247D02*
X57943476Y-176596723D01*
X57943476Y-176596723D02*
X57991095Y-176691961D01*
X57991095Y-176691961D02*
X58086333Y-176787200D01*
X58086333Y-176787200D02*
X58229190Y-176834819D01*
X58229190Y-176834819D02*
X58467285Y-176834819D01*
X56943476Y-176834819D02*
X57514904Y-176834819D01*
X57229190Y-176834819D02*
X57229190Y-175834819D01*
X57229190Y-175834819D02*
X57324428Y-175977676D01*
X57324428Y-175977676D02*
X57419666Y-176072914D01*
X57419666Y-176072914D02*
X57514904Y-176120533D01*
X56610142Y-175834819D02*
X55991095Y-175834819D01*
X55991095Y-175834819D02*
X56324428Y-176215771D01*
X56324428Y-176215771D02*
X56181571Y-176215771D01*
X56181571Y-176215771D02*
X56086333Y-176263390D01*
X56086333Y-176263390D02*
X56038714Y-176311009D01*
X56038714Y-176311009D02*
X55991095Y-176406247D01*
X55991095Y-176406247D02*
X55991095Y-176644342D01*
X55991095Y-176644342D02*
X56038714Y-176739580D01*
X56038714Y-176739580D02*
X56086333Y-176787200D01*
X56086333Y-176787200D02*
X56181571Y-176834819D01*
X56181571Y-176834819D02*
X56467285Y-176834819D01*
X56467285Y-176834819D02*
X56562523Y-176787200D01*
X56562523Y-176787200D02*
X56610142Y-176739580D01*
X55372047Y-175834819D02*
X55276809Y-175834819D01*
X55276809Y-175834819D02*
X55181571Y-175882438D01*
X55181571Y-175882438D02*
X55133952Y-175930057D01*
X55133952Y-175930057D02*
X55086333Y-176025295D01*
X55086333Y-176025295D02*
X55038714Y-176215771D01*
X55038714Y-176215771D02*
X55038714Y-176453866D01*
X55038714Y-176453866D02*
X55086333Y-176644342D01*
X55086333Y-176644342D02*
X55133952Y-176739580D01*
X55133952Y-176739580D02*
X55181571Y-176787200D01*
X55181571Y-176787200D02*
X55276809Y-176834819D01*
X55276809Y-176834819D02*
X55372047Y-176834819D01*
X55372047Y-176834819D02*
X55467285Y-176787200D01*
X55467285Y-176787200D02*
X55514904Y-176739580D01*
X55514904Y-176739580D02*
X55562523Y-176644342D01*
X55562523Y-176644342D02*
X55610142Y-176453866D01*
X55610142Y-176453866D02*
X55610142Y-176215771D01*
X55610142Y-176215771D02*
X55562523Y-176025295D01*
X55562523Y-176025295D02*
X55514904Y-175930057D01*
X55514904Y-175930057D02*
X55467285Y-175882438D01*
X55467285Y-175882438D02*
X55372047Y-175834819D01*
X54181571Y-175834819D02*
X54372047Y-175834819D01*
X54372047Y-175834819D02*
X54467285Y-175882438D01*
X54467285Y-175882438D02*
X54514904Y-175930057D01*
X54514904Y-175930057D02*
X54610142Y-176072914D01*
X54610142Y-176072914D02*
X54657761Y-176263390D01*
X54657761Y-176263390D02*
X54657761Y-176644342D01*
X54657761Y-176644342D02*
X54610142Y-176739580D01*
X54610142Y-176739580D02*
X54562523Y-176787200D01*
X54562523Y-176787200D02*
X54467285Y-176834819D01*
X54467285Y-176834819D02*
X54276809Y-176834819D01*
X54276809Y-176834819D02*
X54181571Y-176787200D01*
X54181571Y-176787200D02*
X54133952Y-176739580D01*
X54133952Y-176739580D02*
X54086333Y-176644342D01*
X54086333Y-176644342D02*
X54086333Y-176406247D01*
X54086333Y-176406247D02*
X54133952Y-176311009D01*
X54133952Y-176311009D02*
X54181571Y-176263390D01*
X54181571Y-176263390D02*
X54276809Y-176215771D01*
X54276809Y-176215771D02*
X54467285Y-176215771D01*
X54467285Y-176215771D02*
X54562523Y-176263390D01*
X54562523Y-176263390D02*
X54610142Y-176311009D01*
X54610142Y-176311009D02*
X54657761Y-176406247D01*
X274968819Y-160578666D02*
X275683104Y-160578666D01*
X275683104Y-160578666D02*
X275825961Y-160531047D01*
X275825961Y-160531047D02*
X275921200Y-160435809D01*
X275921200Y-160435809D02*
X275968819Y-160292952D01*
X275968819Y-160292952D02*
X275968819Y-160197714D01*
X274968819Y-160959619D02*
X274968819Y-161578666D01*
X274968819Y-161578666D02*
X275349771Y-161245333D01*
X275349771Y-161245333D02*
X275349771Y-161388190D01*
X275349771Y-161388190D02*
X275397390Y-161483428D01*
X275397390Y-161483428D02*
X275445009Y-161531047D01*
X275445009Y-161531047D02*
X275540247Y-161578666D01*
X275540247Y-161578666D02*
X275778342Y-161578666D01*
X275778342Y-161578666D02*
X275873580Y-161531047D01*
X275873580Y-161531047D02*
X275921200Y-161483428D01*
X275921200Y-161483428D02*
X275968819Y-161388190D01*
X275968819Y-161388190D02*
X275968819Y-161102476D01*
X275968819Y-161102476D02*
X275921200Y-161007238D01*
X275921200Y-161007238D02*
X275873580Y-160959619D01*
X269630904Y-164366819D02*
X269630904Y-163366819D01*
X269630904Y-163366819D02*
X269297571Y-164081104D01*
X269297571Y-164081104D02*
X268964238Y-163366819D01*
X268964238Y-163366819D02*
X268964238Y-164366819D01*
X268488047Y-164366819D02*
X268488047Y-163366819D01*
X267440429Y-164271580D02*
X267488048Y-164319200D01*
X267488048Y-164319200D02*
X267630905Y-164366819D01*
X267630905Y-164366819D02*
X267726143Y-164366819D01*
X267726143Y-164366819D02*
X267869000Y-164319200D01*
X267869000Y-164319200D02*
X267964238Y-164223961D01*
X267964238Y-164223961D02*
X268011857Y-164128723D01*
X268011857Y-164128723D02*
X268059476Y-163938247D01*
X268059476Y-163938247D02*
X268059476Y-163795390D01*
X268059476Y-163795390D02*
X268011857Y-163604914D01*
X268011857Y-163604914D02*
X267964238Y-163509676D01*
X267964238Y-163509676D02*
X267869000Y-163414438D01*
X267869000Y-163414438D02*
X267726143Y-163366819D01*
X267726143Y-163366819D02*
X267630905Y-163366819D01*
X267630905Y-163366819D02*
X267488048Y-163414438D01*
X267488048Y-163414438D02*
X267440429Y-163462057D01*
X266440429Y-164366819D02*
X266773762Y-163890628D01*
X267011857Y-164366819D02*
X267011857Y-163366819D01*
X267011857Y-163366819D02*
X266630905Y-163366819D01*
X266630905Y-163366819D02*
X266535667Y-163414438D01*
X266535667Y-163414438D02*
X266488048Y-163462057D01*
X266488048Y-163462057D02*
X266440429Y-163557295D01*
X266440429Y-163557295D02*
X266440429Y-163700152D01*
X266440429Y-163700152D02*
X266488048Y-163795390D01*
X266488048Y-163795390D02*
X266535667Y-163843009D01*
X266535667Y-163843009D02*
X266630905Y-163890628D01*
X266630905Y-163890628D02*
X267011857Y-163890628D01*
X265821381Y-163366819D02*
X265630905Y-163366819D01*
X265630905Y-163366819D02*
X265535667Y-163414438D01*
X265535667Y-163414438D02*
X265440429Y-163509676D01*
X265440429Y-163509676D02*
X265392810Y-163700152D01*
X265392810Y-163700152D02*
X265392810Y-164033485D01*
X265392810Y-164033485D02*
X265440429Y-164223961D01*
X265440429Y-164223961D02*
X265535667Y-164319200D01*
X265535667Y-164319200D02*
X265630905Y-164366819D01*
X265630905Y-164366819D02*
X265821381Y-164366819D01*
X265821381Y-164366819D02*
X265916619Y-164319200D01*
X265916619Y-164319200D02*
X266011857Y-164223961D01*
X266011857Y-164223961D02*
X266059476Y-164033485D01*
X266059476Y-164033485D02*
X266059476Y-163700152D01*
X266059476Y-163700152D02*
X266011857Y-163509676D01*
X266011857Y-163509676D02*
X265916619Y-163414438D01*
X265916619Y-163414438D02*
X265821381Y-163366819D01*
X264249952Y-164319200D02*
X264107095Y-164366819D01*
X264107095Y-164366819D02*
X263869000Y-164366819D01*
X263869000Y-164366819D02*
X263773762Y-164319200D01*
X263773762Y-164319200D02*
X263726143Y-164271580D01*
X263726143Y-164271580D02*
X263678524Y-164176342D01*
X263678524Y-164176342D02*
X263678524Y-164081104D01*
X263678524Y-164081104D02*
X263726143Y-163985866D01*
X263726143Y-163985866D02*
X263773762Y-163938247D01*
X263773762Y-163938247D02*
X263869000Y-163890628D01*
X263869000Y-163890628D02*
X264059476Y-163843009D01*
X264059476Y-163843009D02*
X264154714Y-163795390D01*
X264154714Y-163795390D02*
X264202333Y-163747771D01*
X264202333Y-163747771D02*
X264249952Y-163652533D01*
X264249952Y-163652533D02*
X264249952Y-163557295D01*
X264249952Y-163557295D02*
X264202333Y-163462057D01*
X264202333Y-163462057D02*
X264154714Y-163414438D01*
X264154714Y-163414438D02*
X264059476Y-163366819D01*
X264059476Y-163366819D02*
X263821381Y-163366819D01*
X263821381Y-163366819D02*
X263678524Y-163414438D01*
X263249952Y-164366819D02*
X263249952Y-163366819D01*
X263249952Y-163366819D02*
X263011857Y-163366819D01*
X263011857Y-163366819D02*
X262869000Y-163414438D01*
X262869000Y-163414438D02*
X262773762Y-163509676D01*
X262773762Y-163509676D02*
X262726143Y-163604914D01*
X262726143Y-163604914D02*
X262678524Y-163795390D01*
X262678524Y-163795390D02*
X262678524Y-163938247D01*
X262678524Y-163938247D02*
X262726143Y-164128723D01*
X262726143Y-164128723D02*
X262773762Y-164223961D01*
X262773762Y-164223961D02*
X262869000Y-164319200D01*
X262869000Y-164319200D02*
X263011857Y-164366819D01*
X263011857Y-164366819D02*
X263249952Y-164366819D01*
X260916619Y-164271580D02*
X260964238Y-164319200D01*
X260964238Y-164319200D02*
X261107095Y-164366819D01*
X261107095Y-164366819D02*
X261202333Y-164366819D01*
X261202333Y-164366819D02*
X261345190Y-164319200D01*
X261345190Y-164319200D02*
X261440428Y-164223961D01*
X261440428Y-164223961D02*
X261488047Y-164128723D01*
X261488047Y-164128723D02*
X261535666Y-163938247D01*
X261535666Y-163938247D02*
X261535666Y-163795390D01*
X261535666Y-163795390D02*
X261488047Y-163604914D01*
X261488047Y-163604914D02*
X261440428Y-163509676D01*
X261440428Y-163509676D02*
X261345190Y-163414438D01*
X261345190Y-163414438D02*
X261202333Y-163366819D01*
X261202333Y-163366819D02*
X261107095Y-163366819D01*
X261107095Y-163366819D02*
X260964238Y-163414438D01*
X260964238Y-163414438D02*
X260916619Y-163462057D01*
X260535666Y-164081104D02*
X260059476Y-164081104D01*
X260630904Y-164366819D02*
X260297571Y-163366819D01*
X260297571Y-163366819D02*
X259964238Y-164366819D01*
X259059476Y-164366819D02*
X259392809Y-163890628D01*
X259630904Y-164366819D02*
X259630904Y-163366819D01*
X259630904Y-163366819D02*
X259249952Y-163366819D01*
X259249952Y-163366819D02*
X259154714Y-163414438D01*
X259154714Y-163414438D02*
X259107095Y-163462057D01*
X259107095Y-163462057D02*
X259059476Y-163557295D01*
X259059476Y-163557295D02*
X259059476Y-163700152D01*
X259059476Y-163700152D02*
X259107095Y-163795390D01*
X259107095Y-163795390D02*
X259154714Y-163843009D01*
X259154714Y-163843009D02*
X259249952Y-163890628D01*
X259249952Y-163890628D02*
X259630904Y-163890628D01*
X258630904Y-164366819D02*
X258630904Y-163366819D01*
X258630904Y-163366819D02*
X258392809Y-163366819D01*
X258392809Y-163366819D02*
X258249952Y-163414438D01*
X258249952Y-163414438D02*
X258154714Y-163509676D01*
X258154714Y-163509676D02*
X258107095Y-163604914D01*
X258107095Y-163604914D02*
X258059476Y-163795390D01*
X258059476Y-163795390D02*
X258059476Y-163938247D01*
X258059476Y-163938247D02*
X258107095Y-164128723D01*
X258107095Y-164128723D02*
X258154714Y-164223961D01*
X258154714Y-164223961D02*
X258249952Y-164319200D01*
X258249952Y-164319200D02*
X258392809Y-164366819D01*
X258392809Y-164366819D02*
X258630904Y-164366819D01*
X305379204Y-158142519D02*
X305379204Y-158952042D01*
X305379204Y-158952042D02*
X305331585Y-159047280D01*
X305331585Y-159047280D02*
X305283966Y-159094900D01*
X305283966Y-159094900D02*
X305188728Y-159142519D01*
X305188728Y-159142519D02*
X304998252Y-159142519D01*
X304998252Y-159142519D02*
X304903014Y-159094900D01*
X304903014Y-159094900D02*
X304855395Y-159047280D01*
X304855395Y-159047280D02*
X304807776Y-158952042D01*
X304807776Y-158952042D02*
X304807776Y-158142519D01*
X304379204Y-158237757D02*
X304331585Y-158190138D01*
X304331585Y-158190138D02*
X304236347Y-158142519D01*
X304236347Y-158142519D02*
X303998252Y-158142519D01*
X303998252Y-158142519D02*
X303903014Y-158190138D01*
X303903014Y-158190138D02*
X303855395Y-158237757D01*
X303855395Y-158237757D02*
X303807776Y-158332995D01*
X303807776Y-158332995D02*
X303807776Y-158428233D01*
X303807776Y-158428233D02*
X303855395Y-158571090D01*
X303855395Y-158571090D02*
X304426823Y-159142519D01*
X304426823Y-159142519D02*
X303807776Y-159142519D01*
X305821989Y-183082313D02*
X305821989Y-183415646D01*
X306345799Y-183558503D02*
X306345799Y-183082313D01*
X306345799Y-183082313D02*
X305345799Y-183082313D01*
X305345799Y-183082313D02*
X305345799Y-183558503D01*
X306298180Y-183939456D02*
X306345799Y-184082313D01*
X306345799Y-184082313D02*
X306345799Y-184320408D01*
X306345799Y-184320408D02*
X306298180Y-184415646D01*
X306298180Y-184415646D02*
X306250560Y-184463265D01*
X306250560Y-184463265D02*
X306155322Y-184510884D01*
X306155322Y-184510884D02*
X306060084Y-184510884D01*
X306060084Y-184510884D02*
X305964846Y-184463265D01*
X305964846Y-184463265D02*
X305917227Y-184415646D01*
X305917227Y-184415646D02*
X305869608Y-184320408D01*
X305869608Y-184320408D02*
X305821989Y-184129932D01*
X305821989Y-184129932D02*
X305774370Y-184034694D01*
X305774370Y-184034694D02*
X305726751Y-183987075D01*
X305726751Y-183987075D02*
X305631513Y-183939456D01*
X305631513Y-183939456D02*
X305536275Y-183939456D01*
X305536275Y-183939456D02*
X305441037Y-183987075D01*
X305441037Y-183987075D02*
X305393418Y-184034694D01*
X305393418Y-184034694D02*
X305345799Y-184129932D01*
X305345799Y-184129932D02*
X305345799Y-184368027D01*
X305345799Y-184368027D02*
X305393418Y-184510884D01*
X306345799Y-184939456D02*
X305345799Y-184939456D01*
X305345799Y-184939456D02*
X305345799Y-185320408D01*
X305345799Y-185320408D02*
X305393418Y-185415646D01*
X305393418Y-185415646D02*
X305441037Y-185463265D01*
X305441037Y-185463265D02*
X305536275Y-185510884D01*
X305536275Y-185510884D02*
X305679132Y-185510884D01*
X305679132Y-185510884D02*
X305774370Y-185463265D01*
X305774370Y-185463265D02*
X305821989Y-185415646D01*
X305821989Y-185415646D02*
X305869608Y-185320408D01*
X305869608Y-185320408D02*
X305869608Y-184939456D01*
X305345799Y-185844218D02*
X305345799Y-186463265D01*
X305345799Y-186463265D02*
X305726751Y-186129932D01*
X305726751Y-186129932D02*
X305726751Y-186272789D01*
X305726751Y-186272789D02*
X305774370Y-186368027D01*
X305774370Y-186368027D02*
X305821989Y-186415646D01*
X305821989Y-186415646D02*
X305917227Y-186463265D01*
X305917227Y-186463265D02*
X306155322Y-186463265D01*
X306155322Y-186463265D02*
X306250560Y-186415646D01*
X306250560Y-186415646D02*
X306298180Y-186368027D01*
X306298180Y-186368027D02*
X306345799Y-186272789D01*
X306345799Y-186272789D02*
X306345799Y-185987075D01*
X306345799Y-185987075D02*
X306298180Y-185891837D01*
X306298180Y-185891837D02*
X306250560Y-185844218D01*
X305441037Y-186844218D02*
X305393418Y-186891837D01*
X305393418Y-186891837D02*
X305345799Y-186987075D01*
X305345799Y-186987075D02*
X305345799Y-187225170D01*
X305345799Y-187225170D02*
X305393418Y-187320408D01*
X305393418Y-187320408D02*
X305441037Y-187368027D01*
X305441037Y-187368027D02*
X305536275Y-187415646D01*
X305536275Y-187415646D02*
X305631513Y-187415646D01*
X305631513Y-187415646D02*
X305774370Y-187368027D01*
X305774370Y-187368027D02*
X306345799Y-186796599D01*
X306345799Y-186796599D02*
X306345799Y-187415646D01*
X305964846Y-187844218D02*
X305964846Y-188606123D01*
X306298180Y-189034694D02*
X306345799Y-189177551D01*
X306345799Y-189177551D02*
X306345799Y-189415646D01*
X306345799Y-189415646D02*
X306298180Y-189510884D01*
X306298180Y-189510884D02*
X306250560Y-189558503D01*
X306250560Y-189558503D02*
X306155322Y-189606122D01*
X306155322Y-189606122D02*
X306060084Y-189606122D01*
X306060084Y-189606122D02*
X305964846Y-189558503D01*
X305964846Y-189558503D02*
X305917227Y-189510884D01*
X305917227Y-189510884D02*
X305869608Y-189415646D01*
X305869608Y-189415646D02*
X305821989Y-189225170D01*
X305821989Y-189225170D02*
X305774370Y-189129932D01*
X305774370Y-189129932D02*
X305726751Y-189082313D01*
X305726751Y-189082313D02*
X305631513Y-189034694D01*
X305631513Y-189034694D02*
X305536275Y-189034694D01*
X305536275Y-189034694D02*
X305441037Y-189082313D01*
X305441037Y-189082313D02*
X305393418Y-189129932D01*
X305393418Y-189129932D02*
X305345799Y-189225170D01*
X305345799Y-189225170D02*
X305345799Y-189463265D01*
X305345799Y-189463265D02*
X305393418Y-189606122D01*
X305345799Y-189939456D02*
X305345799Y-190558503D01*
X305345799Y-190558503D02*
X305726751Y-190225170D01*
X305726751Y-190225170D02*
X305726751Y-190368027D01*
X305726751Y-190368027D02*
X305774370Y-190463265D01*
X305774370Y-190463265D02*
X305821989Y-190510884D01*
X305821989Y-190510884D02*
X305917227Y-190558503D01*
X305917227Y-190558503D02*
X306155322Y-190558503D01*
X306155322Y-190558503D02*
X306250560Y-190510884D01*
X306250560Y-190510884D02*
X306298180Y-190463265D01*
X306298180Y-190463265D02*
X306345799Y-190368027D01*
X306345799Y-190368027D02*
X306345799Y-190082313D01*
X306345799Y-190082313D02*
X306298180Y-189987075D01*
X306298180Y-189987075D02*
X306250560Y-189939456D01*
X305964846Y-190987075D02*
X305964846Y-191748980D01*
X306345799Y-192225170D02*
X305345799Y-192225170D01*
X305345799Y-192225170D02*
X305345799Y-192463265D01*
X305345799Y-192463265D02*
X305393418Y-192606122D01*
X305393418Y-192606122D02*
X305488656Y-192701360D01*
X305488656Y-192701360D02*
X305583894Y-192748979D01*
X305583894Y-192748979D02*
X305774370Y-192796598D01*
X305774370Y-192796598D02*
X305917227Y-192796598D01*
X305917227Y-192796598D02*
X306107703Y-192748979D01*
X306107703Y-192748979D02*
X306202941Y-192701360D01*
X306202941Y-192701360D02*
X306298180Y-192606122D01*
X306298180Y-192606122D02*
X306345799Y-192463265D01*
X306345799Y-192463265D02*
X306345799Y-192225170D01*
X306298180Y-193606122D02*
X306345799Y-193510884D01*
X306345799Y-193510884D02*
X306345799Y-193320408D01*
X306345799Y-193320408D02*
X306298180Y-193225170D01*
X306298180Y-193225170D02*
X306202941Y-193177551D01*
X306202941Y-193177551D02*
X305821989Y-193177551D01*
X305821989Y-193177551D02*
X305726751Y-193225170D01*
X305726751Y-193225170D02*
X305679132Y-193320408D01*
X305679132Y-193320408D02*
X305679132Y-193510884D01*
X305679132Y-193510884D02*
X305726751Y-193606122D01*
X305726751Y-193606122D02*
X305821989Y-193653741D01*
X305821989Y-193653741D02*
X305917227Y-193653741D01*
X305917227Y-193653741D02*
X306012465Y-193177551D01*
X305679132Y-193987075D02*
X306345799Y-194225170D01*
X306345799Y-194225170D02*
X305679132Y-194463265D01*
X306345799Y-194844218D02*
X305345799Y-194844218D01*
X306345799Y-195415646D02*
X305774370Y-194987075D01*
X305345799Y-195415646D02*
X305917227Y-194844218D01*
X306345799Y-195844218D02*
X305679132Y-195844218D01*
X305345799Y-195844218D02*
X305393418Y-195796599D01*
X305393418Y-195796599D02*
X305441037Y-195844218D01*
X305441037Y-195844218D02*
X305393418Y-195891837D01*
X305393418Y-195891837D02*
X305345799Y-195844218D01*
X305345799Y-195844218D02*
X305441037Y-195844218D01*
X305679132Y-196177551D02*
X305679132Y-196558503D01*
X305345799Y-196320408D02*
X306202941Y-196320408D01*
X306202941Y-196320408D02*
X306298180Y-196368027D01*
X306298180Y-196368027D02*
X306345799Y-196463265D01*
X306345799Y-196463265D02*
X306345799Y-196558503D01*
X306250560Y-197463265D02*
X306298180Y-197415646D01*
X306298180Y-197415646D02*
X306345799Y-197272789D01*
X306345799Y-197272789D02*
X306345799Y-197177551D01*
X306345799Y-197177551D02*
X306298180Y-197034694D01*
X306298180Y-197034694D02*
X306202941Y-196939456D01*
X306202941Y-196939456D02*
X306107703Y-196891837D01*
X306107703Y-196891837D02*
X305917227Y-196844218D01*
X305917227Y-196844218D02*
X305774370Y-196844218D01*
X305774370Y-196844218D02*
X305583894Y-196891837D01*
X305583894Y-196891837D02*
X305488656Y-196939456D01*
X305488656Y-196939456D02*
X305393418Y-197034694D01*
X305393418Y-197034694D02*
X305345799Y-197177551D01*
X305345799Y-197177551D02*
X305345799Y-197272789D01*
X305345799Y-197272789D02*
X305393418Y-197415646D01*
X305393418Y-197415646D02*
X305441037Y-197463265D01*
X314936391Y-213627418D02*
X315031629Y-213579799D01*
X315031629Y-213579799D02*
X315174486Y-213579799D01*
X315174486Y-213579799D02*
X315317343Y-213627418D01*
X315317343Y-213627418D02*
X315412581Y-213722656D01*
X315412581Y-213722656D02*
X315460200Y-213817894D01*
X315460200Y-213817894D02*
X315507819Y-214008370D01*
X315507819Y-214008370D02*
X315507819Y-214151227D01*
X315507819Y-214151227D02*
X315460200Y-214341703D01*
X315460200Y-214341703D02*
X315412581Y-214436941D01*
X315412581Y-214436941D02*
X315317343Y-214532180D01*
X315317343Y-214532180D02*
X315174486Y-214579799D01*
X315174486Y-214579799D02*
X315079248Y-214579799D01*
X315079248Y-214579799D02*
X314936391Y-214532180D01*
X314936391Y-214532180D02*
X314888772Y-214484560D01*
X314888772Y-214484560D02*
X314888772Y-214151227D01*
X314888772Y-214151227D02*
X315079248Y-214151227D01*
X314460200Y-214579799D02*
X314460200Y-213579799D01*
X314460200Y-213579799D02*
X313888772Y-214579799D01*
X313888772Y-214579799D02*
X313888772Y-213579799D01*
X313412581Y-214579799D02*
X313412581Y-213579799D01*
X313412581Y-213579799D02*
X313174486Y-213579799D01*
X313174486Y-213579799D02*
X313031629Y-213627418D01*
X313031629Y-213627418D02*
X312936391Y-213722656D01*
X312936391Y-213722656D02*
X312888772Y-213817894D01*
X312888772Y-213817894D02*
X312841153Y-214008370D01*
X312841153Y-214008370D02*
X312841153Y-214151227D01*
X312841153Y-214151227D02*
X312888772Y-214341703D01*
X312888772Y-214341703D02*
X312936391Y-214436941D01*
X312936391Y-214436941D02*
X313031629Y-214532180D01*
X313031629Y-214532180D02*
X313174486Y-214579799D01*
X313174486Y-214579799D02*
X313412581Y-214579799D01*
X300492650Y-190770138D02*
X300587888Y-190722519D01*
X300587888Y-190722519D02*
X300730745Y-190722519D01*
X300730745Y-190722519D02*
X300873602Y-190770138D01*
X300873602Y-190770138D02*
X300968840Y-190865376D01*
X300968840Y-190865376D02*
X301016459Y-190960614D01*
X301016459Y-190960614D02*
X301064078Y-191151090D01*
X301064078Y-191151090D02*
X301064078Y-191293947D01*
X301064078Y-191293947D02*
X301016459Y-191484423D01*
X301016459Y-191484423D02*
X300968840Y-191579661D01*
X300968840Y-191579661D02*
X300873602Y-191674900D01*
X300873602Y-191674900D02*
X300730745Y-191722519D01*
X300730745Y-191722519D02*
X300635507Y-191722519D01*
X300635507Y-191722519D02*
X300492650Y-191674900D01*
X300492650Y-191674900D02*
X300445031Y-191627280D01*
X300445031Y-191627280D02*
X300445031Y-191293947D01*
X300445031Y-191293947D02*
X300635507Y-191293947D01*
X300016459Y-191722519D02*
X300016459Y-190722519D01*
X300016459Y-190722519D02*
X299635507Y-190722519D01*
X299635507Y-190722519D02*
X299540269Y-190770138D01*
X299540269Y-190770138D02*
X299492650Y-190817757D01*
X299492650Y-190817757D02*
X299445031Y-190912995D01*
X299445031Y-190912995D02*
X299445031Y-191055852D01*
X299445031Y-191055852D02*
X299492650Y-191151090D01*
X299492650Y-191151090D02*
X299540269Y-191198709D01*
X299540269Y-191198709D02*
X299635507Y-191246328D01*
X299635507Y-191246328D02*
X300016459Y-191246328D01*
X299016459Y-191722519D02*
X299016459Y-190722519D01*
X298349793Y-190722519D02*
X298159317Y-190722519D01*
X298159317Y-190722519D02*
X298064079Y-190770138D01*
X298064079Y-190770138D02*
X297968841Y-190865376D01*
X297968841Y-190865376D02*
X297921222Y-191055852D01*
X297921222Y-191055852D02*
X297921222Y-191389185D01*
X297921222Y-191389185D02*
X297968841Y-191579661D01*
X297968841Y-191579661D02*
X298064079Y-191674900D01*
X298064079Y-191674900D02*
X298159317Y-191722519D01*
X298159317Y-191722519D02*
X298349793Y-191722519D01*
X298349793Y-191722519D02*
X298445031Y-191674900D01*
X298445031Y-191674900D02*
X298540269Y-191579661D01*
X298540269Y-191579661D02*
X298587888Y-191389185D01*
X298587888Y-191389185D02*
X298587888Y-191055852D01*
X298587888Y-191055852D02*
X298540269Y-190865376D01*
X298540269Y-190865376D02*
X298445031Y-190770138D01*
X298445031Y-190770138D02*
X298349793Y-190722519D01*
X297587888Y-190722519D02*
X296968841Y-190722519D01*
X296968841Y-190722519D02*
X297302174Y-191103471D01*
X297302174Y-191103471D02*
X297159317Y-191103471D01*
X297159317Y-191103471D02*
X297064079Y-191151090D01*
X297064079Y-191151090D02*
X297016460Y-191198709D01*
X297016460Y-191198709D02*
X296968841Y-191293947D01*
X296968841Y-191293947D02*
X296968841Y-191532042D01*
X296968841Y-191532042D02*
X297016460Y-191627280D01*
X297016460Y-191627280D02*
X297064079Y-191674900D01*
X297064079Y-191674900D02*
X297159317Y-191722519D01*
X297159317Y-191722519D02*
X297445031Y-191722519D01*
X297445031Y-191722519D02*
X297540269Y-191674900D01*
X297540269Y-191674900D02*
X297587888Y-191627280D01*
X296064079Y-190722519D02*
X296540269Y-190722519D01*
X296540269Y-190722519D02*
X296587888Y-191198709D01*
X296587888Y-191198709D02*
X296540269Y-191151090D01*
X296540269Y-191151090D02*
X296445031Y-191103471D01*
X296445031Y-191103471D02*
X296206936Y-191103471D01*
X296206936Y-191103471D02*
X296111698Y-191151090D01*
X296111698Y-191151090D02*
X296064079Y-191198709D01*
X296064079Y-191198709D02*
X296016460Y-191293947D01*
X296016460Y-191293947D02*
X296016460Y-191532042D01*
X296016460Y-191532042D02*
X296064079Y-191627280D01*
X296064079Y-191627280D02*
X296111698Y-191674900D01*
X296111698Y-191674900D02*
X296206936Y-191722519D01*
X296206936Y-191722519D02*
X296445031Y-191722519D01*
X296445031Y-191722519D02*
X296540269Y-191674900D01*
X296540269Y-191674900D02*
X296587888Y-191627280D01*
X315186711Y-190770138D02*
X315281949Y-190722519D01*
X315281949Y-190722519D02*
X315424806Y-190722519D01*
X315424806Y-190722519D02*
X315567663Y-190770138D01*
X315567663Y-190770138D02*
X315662901Y-190865376D01*
X315662901Y-190865376D02*
X315710520Y-190960614D01*
X315710520Y-190960614D02*
X315758139Y-191151090D01*
X315758139Y-191151090D02*
X315758139Y-191293947D01*
X315758139Y-191293947D02*
X315710520Y-191484423D01*
X315710520Y-191484423D02*
X315662901Y-191579661D01*
X315662901Y-191579661D02*
X315567663Y-191674900D01*
X315567663Y-191674900D02*
X315424806Y-191722519D01*
X315424806Y-191722519D02*
X315329568Y-191722519D01*
X315329568Y-191722519D02*
X315186711Y-191674900D01*
X315186711Y-191674900D02*
X315139092Y-191627280D01*
X315139092Y-191627280D02*
X315139092Y-191293947D01*
X315139092Y-191293947D02*
X315329568Y-191293947D01*
X314710520Y-191722519D02*
X314710520Y-190722519D01*
X314710520Y-190722519D02*
X314329568Y-190722519D01*
X314329568Y-190722519D02*
X314234330Y-190770138D01*
X314234330Y-190770138D02*
X314186711Y-190817757D01*
X314186711Y-190817757D02*
X314139092Y-190912995D01*
X314139092Y-190912995D02*
X314139092Y-191055852D01*
X314139092Y-191055852D02*
X314186711Y-191151090D01*
X314186711Y-191151090D02*
X314234330Y-191198709D01*
X314234330Y-191198709D02*
X314329568Y-191246328D01*
X314329568Y-191246328D02*
X314710520Y-191246328D01*
X313710520Y-191722519D02*
X313710520Y-190722519D01*
X313043854Y-190722519D02*
X312853378Y-190722519D01*
X312853378Y-190722519D02*
X312758140Y-190770138D01*
X312758140Y-190770138D02*
X312662902Y-190865376D01*
X312662902Y-190865376D02*
X312615283Y-191055852D01*
X312615283Y-191055852D02*
X312615283Y-191389185D01*
X312615283Y-191389185D02*
X312662902Y-191579661D01*
X312662902Y-191579661D02*
X312758140Y-191674900D01*
X312758140Y-191674900D02*
X312853378Y-191722519D01*
X312853378Y-191722519D02*
X313043854Y-191722519D01*
X313043854Y-191722519D02*
X313139092Y-191674900D01*
X313139092Y-191674900D02*
X313234330Y-191579661D01*
X313234330Y-191579661D02*
X313281949Y-191389185D01*
X313281949Y-191389185D02*
X313281949Y-191055852D01*
X313281949Y-191055852D02*
X313234330Y-190865376D01*
X313234330Y-190865376D02*
X313139092Y-190770138D01*
X313139092Y-190770138D02*
X313043854Y-190722519D01*
X312281949Y-190722519D02*
X311662902Y-190722519D01*
X311662902Y-190722519D02*
X311996235Y-191103471D01*
X311996235Y-191103471D02*
X311853378Y-191103471D01*
X311853378Y-191103471D02*
X311758140Y-191151090D01*
X311758140Y-191151090D02*
X311710521Y-191198709D01*
X311710521Y-191198709D02*
X311662902Y-191293947D01*
X311662902Y-191293947D02*
X311662902Y-191532042D01*
X311662902Y-191532042D02*
X311710521Y-191627280D01*
X311710521Y-191627280D02*
X311758140Y-191674900D01*
X311758140Y-191674900D02*
X311853378Y-191722519D01*
X311853378Y-191722519D02*
X312139092Y-191722519D01*
X312139092Y-191722519D02*
X312234330Y-191674900D01*
X312234330Y-191674900D02*
X312281949Y-191627280D01*
X305540269Y-172990138D02*
X305635507Y-172942519D01*
X305635507Y-172942519D02*
X305778364Y-172942519D01*
X305778364Y-172942519D02*
X305921221Y-172990138D01*
X305921221Y-172990138D02*
X306016459Y-173085376D01*
X306016459Y-173085376D02*
X306064078Y-173180614D01*
X306064078Y-173180614D02*
X306111697Y-173371090D01*
X306111697Y-173371090D02*
X306111697Y-173513947D01*
X306111697Y-173513947D02*
X306064078Y-173704423D01*
X306064078Y-173704423D02*
X306016459Y-173799661D01*
X306016459Y-173799661D02*
X305921221Y-173894900D01*
X305921221Y-173894900D02*
X305778364Y-173942519D01*
X305778364Y-173942519D02*
X305683126Y-173942519D01*
X305683126Y-173942519D02*
X305540269Y-173894900D01*
X305540269Y-173894900D02*
X305492650Y-173847280D01*
X305492650Y-173847280D02*
X305492650Y-173513947D01*
X305492650Y-173513947D02*
X305683126Y-173513947D01*
X305064078Y-173942519D02*
X305064078Y-172942519D01*
X305064078Y-172942519D02*
X304683126Y-172942519D01*
X304683126Y-172942519D02*
X304587888Y-172990138D01*
X304587888Y-172990138D02*
X304540269Y-173037757D01*
X304540269Y-173037757D02*
X304492650Y-173132995D01*
X304492650Y-173132995D02*
X304492650Y-173275852D01*
X304492650Y-173275852D02*
X304540269Y-173371090D01*
X304540269Y-173371090D02*
X304587888Y-173418709D01*
X304587888Y-173418709D02*
X304683126Y-173466328D01*
X304683126Y-173466328D02*
X305064078Y-173466328D01*
X304064078Y-173942519D02*
X304064078Y-172942519D01*
X303397412Y-172942519D02*
X303206936Y-172942519D01*
X303206936Y-172942519D02*
X303111698Y-172990138D01*
X303111698Y-172990138D02*
X303016460Y-173085376D01*
X303016460Y-173085376D02*
X302968841Y-173275852D01*
X302968841Y-173275852D02*
X302968841Y-173609185D01*
X302968841Y-173609185D02*
X303016460Y-173799661D01*
X303016460Y-173799661D02*
X303111698Y-173894900D01*
X303111698Y-173894900D02*
X303206936Y-173942519D01*
X303206936Y-173942519D02*
X303397412Y-173942519D01*
X303397412Y-173942519D02*
X303492650Y-173894900D01*
X303492650Y-173894900D02*
X303587888Y-173799661D01*
X303587888Y-173799661D02*
X303635507Y-173609185D01*
X303635507Y-173609185D02*
X303635507Y-173275852D01*
X303635507Y-173275852D02*
X303587888Y-173085376D01*
X303587888Y-173085376D02*
X303492650Y-172990138D01*
X303492650Y-172990138D02*
X303397412Y-172942519D01*
X302111698Y-173275852D02*
X302111698Y-173942519D01*
X302349793Y-172894900D02*
X302587888Y-173609185D01*
X302587888Y-173609185D02*
X301968841Y-173609185D01*
X301635507Y-173037757D02*
X301587888Y-172990138D01*
X301587888Y-172990138D02*
X301492650Y-172942519D01*
X301492650Y-172942519D02*
X301254555Y-172942519D01*
X301254555Y-172942519D02*
X301159317Y-172990138D01*
X301159317Y-172990138D02*
X301111698Y-173037757D01*
X301111698Y-173037757D02*
X301064079Y-173132995D01*
X301064079Y-173132995D02*
X301064079Y-173228233D01*
X301064079Y-173228233D02*
X301111698Y-173371090D01*
X301111698Y-173371090D02*
X301683126Y-173942519D01*
X301683126Y-173942519D02*
X301064079Y-173942519D01*
X299921222Y-172894900D02*
X300778364Y-174180614D01*
X299587888Y-173942519D02*
X299587888Y-172942519D01*
X299587888Y-172942519D02*
X299254555Y-173656804D01*
X299254555Y-173656804D02*
X298921222Y-172942519D01*
X298921222Y-172942519D02*
X298921222Y-173942519D01*
X298587888Y-172942519D02*
X298016460Y-172942519D01*
X298302174Y-173942519D02*
X298302174Y-172942519D01*
X297683126Y-173942519D02*
X297683126Y-172942519D01*
X297683126Y-172942519D02*
X297349793Y-173656804D01*
X297349793Y-173656804D02*
X297016460Y-172942519D01*
X297016460Y-172942519D02*
X297016460Y-173942519D01*
X296587888Y-173894900D02*
X296445031Y-173942519D01*
X296445031Y-173942519D02*
X296206936Y-173942519D01*
X296206936Y-173942519D02*
X296111698Y-173894900D01*
X296111698Y-173894900D02*
X296064079Y-173847280D01*
X296064079Y-173847280D02*
X296016460Y-173752042D01*
X296016460Y-173752042D02*
X296016460Y-173656804D01*
X296016460Y-173656804D02*
X296064079Y-173561566D01*
X296064079Y-173561566D02*
X296111698Y-173513947D01*
X296111698Y-173513947D02*
X296206936Y-173466328D01*
X296206936Y-173466328D02*
X296397412Y-173418709D01*
X296397412Y-173418709D02*
X296492650Y-173371090D01*
X296492650Y-173371090D02*
X296540269Y-173323471D01*
X296540269Y-173323471D02*
X296587888Y-173228233D01*
X296587888Y-173228233D02*
X296587888Y-173132995D01*
X296587888Y-173132995D02*
X296540269Y-173037757D01*
X296540269Y-173037757D02*
X296492650Y-172990138D01*
X296492650Y-172990138D02*
X296397412Y-172942519D01*
X296397412Y-172942519D02*
X296159317Y-172942519D01*
X296159317Y-172942519D02*
X296016460Y-172990138D01*
X315186711Y-208550138D02*
X315281949Y-208502519D01*
X315281949Y-208502519D02*
X315424806Y-208502519D01*
X315424806Y-208502519D02*
X315567663Y-208550138D01*
X315567663Y-208550138D02*
X315662901Y-208645376D01*
X315662901Y-208645376D02*
X315710520Y-208740614D01*
X315710520Y-208740614D02*
X315758139Y-208931090D01*
X315758139Y-208931090D02*
X315758139Y-209073947D01*
X315758139Y-209073947D02*
X315710520Y-209264423D01*
X315710520Y-209264423D02*
X315662901Y-209359661D01*
X315662901Y-209359661D02*
X315567663Y-209454900D01*
X315567663Y-209454900D02*
X315424806Y-209502519D01*
X315424806Y-209502519D02*
X315329568Y-209502519D01*
X315329568Y-209502519D02*
X315186711Y-209454900D01*
X315186711Y-209454900D02*
X315139092Y-209407280D01*
X315139092Y-209407280D02*
X315139092Y-209073947D01*
X315139092Y-209073947D02*
X315329568Y-209073947D01*
X314710520Y-209502519D02*
X314710520Y-208502519D01*
X314710520Y-208502519D02*
X314329568Y-208502519D01*
X314329568Y-208502519D02*
X314234330Y-208550138D01*
X314234330Y-208550138D02*
X314186711Y-208597757D01*
X314186711Y-208597757D02*
X314139092Y-208692995D01*
X314139092Y-208692995D02*
X314139092Y-208835852D01*
X314139092Y-208835852D02*
X314186711Y-208931090D01*
X314186711Y-208931090D02*
X314234330Y-208978709D01*
X314234330Y-208978709D02*
X314329568Y-209026328D01*
X314329568Y-209026328D02*
X314710520Y-209026328D01*
X313710520Y-209502519D02*
X313710520Y-208502519D01*
X313043854Y-208502519D02*
X312853378Y-208502519D01*
X312853378Y-208502519D02*
X312758140Y-208550138D01*
X312758140Y-208550138D02*
X312662902Y-208645376D01*
X312662902Y-208645376D02*
X312615283Y-208835852D01*
X312615283Y-208835852D02*
X312615283Y-209169185D01*
X312615283Y-209169185D02*
X312662902Y-209359661D01*
X312662902Y-209359661D02*
X312758140Y-209454900D01*
X312758140Y-209454900D02*
X312853378Y-209502519D01*
X312853378Y-209502519D02*
X313043854Y-209502519D01*
X313043854Y-209502519D02*
X313139092Y-209454900D01*
X313139092Y-209454900D02*
X313234330Y-209359661D01*
X313234330Y-209359661D02*
X313281949Y-209169185D01*
X313281949Y-209169185D02*
X313281949Y-208835852D01*
X313281949Y-208835852D02*
X313234330Y-208645376D01*
X313234330Y-208645376D02*
X313139092Y-208550138D01*
X313139092Y-208550138D02*
X313043854Y-208502519D01*
X311662902Y-209502519D02*
X312234330Y-209502519D01*
X311948616Y-209502519D02*
X311948616Y-208502519D01*
X311948616Y-208502519D02*
X312043854Y-208645376D01*
X312043854Y-208645376D02*
X312139092Y-208740614D01*
X312139092Y-208740614D02*
X312234330Y-208788233D01*
X310805759Y-208835852D02*
X310805759Y-209502519D01*
X311043854Y-208454900D02*
X311281949Y-209169185D01*
X311281949Y-209169185D02*
X310662902Y-209169185D01*
X315186711Y-203470138D02*
X315281949Y-203422519D01*
X315281949Y-203422519D02*
X315424806Y-203422519D01*
X315424806Y-203422519D02*
X315567663Y-203470138D01*
X315567663Y-203470138D02*
X315662901Y-203565376D01*
X315662901Y-203565376D02*
X315710520Y-203660614D01*
X315710520Y-203660614D02*
X315758139Y-203851090D01*
X315758139Y-203851090D02*
X315758139Y-203993947D01*
X315758139Y-203993947D02*
X315710520Y-204184423D01*
X315710520Y-204184423D02*
X315662901Y-204279661D01*
X315662901Y-204279661D02*
X315567663Y-204374900D01*
X315567663Y-204374900D02*
X315424806Y-204422519D01*
X315424806Y-204422519D02*
X315329568Y-204422519D01*
X315329568Y-204422519D02*
X315186711Y-204374900D01*
X315186711Y-204374900D02*
X315139092Y-204327280D01*
X315139092Y-204327280D02*
X315139092Y-203993947D01*
X315139092Y-203993947D02*
X315329568Y-203993947D01*
X314710520Y-204422519D02*
X314710520Y-203422519D01*
X314710520Y-203422519D02*
X314329568Y-203422519D01*
X314329568Y-203422519D02*
X314234330Y-203470138D01*
X314234330Y-203470138D02*
X314186711Y-203517757D01*
X314186711Y-203517757D02*
X314139092Y-203612995D01*
X314139092Y-203612995D02*
X314139092Y-203755852D01*
X314139092Y-203755852D02*
X314186711Y-203851090D01*
X314186711Y-203851090D02*
X314234330Y-203898709D01*
X314234330Y-203898709D02*
X314329568Y-203946328D01*
X314329568Y-203946328D02*
X314710520Y-203946328D01*
X313710520Y-204422519D02*
X313710520Y-203422519D01*
X313043854Y-203422519D02*
X312853378Y-203422519D01*
X312853378Y-203422519D02*
X312758140Y-203470138D01*
X312758140Y-203470138D02*
X312662902Y-203565376D01*
X312662902Y-203565376D02*
X312615283Y-203755852D01*
X312615283Y-203755852D02*
X312615283Y-204089185D01*
X312615283Y-204089185D02*
X312662902Y-204279661D01*
X312662902Y-204279661D02*
X312758140Y-204374900D01*
X312758140Y-204374900D02*
X312853378Y-204422519D01*
X312853378Y-204422519D02*
X313043854Y-204422519D01*
X313043854Y-204422519D02*
X313139092Y-204374900D01*
X313139092Y-204374900D02*
X313234330Y-204279661D01*
X313234330Y-204279661D02*
X313281949Y-204089185D01*
X313281949Y-204089185D02*
X313281949Y-203755852D01*
X313281949Y-203755852D02*
X313234330Y-203565376D01*
X313234330Y-203565376D02*
X313139092Y-203470138D01*
X313139092Y-203470138D02*
X313043854Y-203422519D01*
X311662902Y-204422519D02*
X312234330Y-204422519D01*
X311948616Y-204422519D02*
X311948616Y-203422519D01*
X311948616Y-203422519D02*
X312043854Y-203565376D01*
X312043854Y-203565376D02*
X312139092Y-203660614D01*
X312139092Y-203660614D02*
X312234330Y-203708233D01*
X311281949Y-203517757D02*
X311234330Y-203470138D01*
X311234330Y-203470138D02*
X311139092Y-203422519D01*
X311139092Y-203422519D02*
X310900997Y-203422519D01*
X310900997Y-203422519D02*
X310805759Y-203470138D01*
X310805759Y-203470138D02*
X310758140Y-203517757D01*
X310758140Y-203517757D02*
X310710521Y-203612995D01*
X310710521Y-203612995D02*
X310710521Y-203708233D01*
X310710521Y-203708233D02*
X310758140Y-203851090D01*
X310758140Y-203851090D02*
X311329568Y-204422519D01*
X311329568Y-204422519D02*
X310710521Y-204422519D01*
X300492650Y-185690138D02*
X300587888Y-185642519D01*
X300587888Y-185642519D02*
X300730745Y-185642519D01*
X300730745Y-185642519D02*
X300873602Y-185690138D01*
X300873602Y-185690138D02*
X300968840Y-185785376D01*
X300968840Y-185785376D02*
X301016459Y-185880614D01*
X301016459Y-185880614D02*
X301064078Y-186071090D01*
X301064078Y-186071090D02*
X301064078Y-186213947D01*
X301064078Y-186213947D02*
X301016459Y-186404423D01*
X301016459Y-186404423D02*
X300968840Y-186499661D01*
X300968840Y-186499661D02*
X300873602Y-186594900D01*
X300873602Y-186594900D02*
X300730745Y-186642519D01*
X300730745Y-186642519D02*
X300635507Y-186642519D01*
X300635507Y-186642519D02*
X300492650Y-186594900D01*
X300492650Y-186594900D02*
X300445031Y-186547280D01*
X300445031Y-186547280D02*
X300445031Y-186213947D01*
X300445031Y-186213947D02*
X300635507Y-186213947D01*
X300016459Y-186642519D02*
X300016459Y-185642519D01*
X300016459Y-185642519D02*
X299635507Y-185642519D01*
X299635507Y-185642519D02*
X299540269Y-185690138D01*
X299540269Y-185690138D02*
X299492650Y-185737757D01*
X299492650Y-185737757D02*
X299445031Y-185832995D01*
X299445031Y-185832995D02*
X299445031Y-185975852D01*
X299445031Y-185975852D02*
X299492650Y-186071090D01*
X299492650Y-186071090D02*
X299540269Y-186118709D01*
X299540269Y-186118709D02*
X299635507Y-186166328D01*
X299635507Y-186166328D02*
X300016459Y-186166328D01*
X299016459Y-186642519D02*
X299016459Y-185642519D01*
X298349793Y-185642519D02*
X298159317Y-185642519D01*
X298159317Y-185642519D02*
X298064079Y-185690138D01*
X298064079Y-185690138D02*
X297968841Y-185785376D01*
X297968841Y-185785376D02*
X297921222Y-185975852D01*
X297921222Y-185975852D02*
X297921222Y-186309185D01*
X297921222Y-186309185D02*
X297968841Y-186499661D01*
X297968841Y-186499661D02*
X298064079Y-186594900D01*
X298064079Y-186594900D02*
X298159317Y-186642519D01*
X298159317Y-186642519D02*
X298349793Y-186642519D01*
X298349793Y-186642519D02*
X298445031Y-186594900D01*
X298445031Y-186594900D02*
X298540269Y-186499661D01*
X298540269Y-186499661D02*
X298587888Y-186309185D01*
X298587888Y-186309185D02*
X298587888Y-185975852D01*
X298587888Y-185975852D02*
X298540269Y-185785376D01*
X298540269Y-185785376D02*
X298445031Y-185690138D01*
X298445031Y-185690138D02*
X298349793Y-185642519D01*
X297587888Y-185642519D02*
X296968841Y-185642519D01*
X296968841Y-185642519D02*
X297302174Y-186023471D01*
X297302174Y-186023471D02*
X297159317Y-186023471D01*
X297159317Y-186023471D02*
X297064079Y-186071090D01*
X297064079Y-186071090D02*
X297016460Y-186118709D01*
X297016460Y-186118709D02*
X296968841Y-186213947D01*
X296968841Y-186213947D02*
X296968841Y-186452042D01*
X296968841Y-186452042D02*
X297016460Y-186547280D01*
X297016460Y-186547280D02*
X297064079Y-186594900D01*
X297064079Y-186594900D02*
X297159317Y-186642519D01*
X297159317Y-186642519D02*
X297445031Y-186642519D01*
X297445031Y-186642519D02*
X297540269Y-186594900D01*
X297540269Y-186594900D02*
X297587888Y-186547280D01*
X296635507Y-185642519D02*
X295968841Y-185642519D01*
X295968841Y-185642519D02*
X296397412Y-186642519D01*
X300492650Y-200930138D02*
X300587888Y-200882519D01*
X300587888Y-200882519D02*
X300730745Y-200882519D01*
X300730745Y-200882519D02*
X300873602Y-200930138D01*
X300873602Y-200930138D02*
X300968840Y-201025376D01*
X300968840Y-201025376D02*
X301016459Y-201120614D01*
X301016459Y-201120614D02*
X301064078Y-201311090D01*
X301064078Y-201311090D02*
X301064078Y-201453947D01*
X301064078Y-201453947D02*
X301016459Y-201644423D01*
X301016459Y-201644423D02*
X300968840Y-201739661D01*
X300968840Y-201739661D02*
X300873602Y-201834900D01*
X300873602Y-201834900D02*
X300730745Y-201882519D01*
X300730745Y-201882519D02*
X300635507Y-201882519D01*
X300635507Y-201882519D02*
X300492650Y-201834900D01*
X300492650Y-201834900D02*
X300445031Y-201787280D01*
X300445031Y-201787280D02*
X300445031Y-201453947D01*
X300445031Y-201453947D02*
X300635507Y-201453947D01*
X300016459Y-201882519D02*
X300016459Y-200882519D01*
X300016459Y-200882519D02*
X299635507Y-200882519D01*
X299635507Y-200882519D02*
X299540269Y-200930138D01*
X299540269Y-200930138D02*
X299492650Y-200977757D01*
X299492650Y-200977757D02*
X299445031Y-201072995D01*
X299445031Y-201072995D02*
X299445031Y-201215852D01*
X299445031Y-201215852D02*
X299492650Y-201311090D01*
X299492650Y-201311090D02*
X299540269Y-201358709D01*
X299540269Y-201358709D02*
X299635507Y-201406328D01*
X299635507Y-201406328D02*
X300016459Y-201406328D01*
X299016459Y-201882519D02*
X299016459Y-200882519D01*
X298349793Y-200882519D02*
X298159317Y-200882519D01*
X298159317Y-200882519D02*
X298064079Y-200930138D01*
X298064079Y-200930138D02*
X297968841Y-201025376D01*
X297968841Y-201025376D02*
X297921222Y-201215852D01*
X297921222Y-201215852D02*
X297921222Y-201549185D01*
X297921222Y-201549185D02*
X297968841Y-201739661D01*
X297968841Y-201739661D02*
X298064079Y-201834900D01*
X298064079Y-201834900D02*
X298159317Y-201882519D01*
X298159317Y-201882519D02*
X298349793Y-201882519D01*
X298349793Y-201882519D02*
X298445031Y-201834900D01*
X298445031Y-201834900D02*
X298540269Y-201739661D01*
X298540269Y-201739661D02*
X298587888Y-201549185D01*
X298587888Y-201549185D02*
X298587888Y-201215852D01*
X298587888Y-201215852D02*
X298540269Y-201025376D01*
X298540269Y-201025376D02*
X298445031Y-200930138D01*
X298445031Y-200930138D02*
X298349793Y-200882519D01*
X297064079Y-201215852D02*
X297064079Y-201882519D01*
X297302174Y-200834900D02*
X297540269Y-201549185D01*
X297540269Y-201549185D02*
X296921222Y-201549185D01*
X296635507Y-200882519D02*
X295968841Y-200882519D01*
X295968841Y-200882519D02*
X296397412Y-201882519D01*
X315186711Y-193310138D02*
X315281949Y-193262519D01*
X315281949Y-193262519D02*
X315424806Y-193262519D01*
X315424806Y-193262519D02*
X315567663Y-193310138D01*
X315567663Y-193310138D02*
X315662901Y-193405376D01*
X315662901Y-193405376D02*
X315710520Y-193500614D01*
X315710520Y-193500614D02*
X315758139Y-193691090D01*
X315758139Y-193691090D02*
X315758139Y-193833947D01*
X315758139Y-193833947D02*
X315710520Y-194024423D01*
X315710520Y-194024423D02*
X315662901Y-194119661D01*
X315662901Y-194119661D02*
X315567663Y-194214900D01*
X315567663Y-194214900D02*
X315424806Y-194262519D01*
X315424806Y-194262519D02*
X315329568Y-194262519D01*
X315329568Y-194262519D02*
X315186711Y-194214900D01*
X315186711Y-194214900D02*
X315139092Y-194167280D01*
X315139092Y-194167280D02*
X315139092Y-193833947D01*
X315139092Y-193833947D02*
X315329568Y-193833947D01*
X314710520Y-194262519D02*
X314710520Y-193262519D01*
X314710520Y-193262519D02*
X314329568Y-193262519D01*
X314329568Y-193262519D02*
X314234330Y-193310138D01*
X314234330Y-193310138D02*
X314186711Y-193357757D01*
X314186711Y-193357757D02*
X314139092Y-193452995D01*
X314139092Y-193452995D02*
X314139092Y-193595852D01*
X314139092Y-193595852D02*
X314186711Y-193691090D01*
X314186711Y-193691090D02*
X314234330Y-193738709D01*
X314234330Y-193738709D02*
X314329568Y-193786328D01*
X314329568Y-193786328D02*
X314710520Y-193786328D01*
X313710520Y-194262519D02*
X313710520Y-193262519D01*
X313043854Y-193262519D02*
X312853378Y-193262519D01*
X312853378Y-193262519D02*
X312758140Y-193310138D01*
X312758140Y-193310138D02*
X312662902Y-193405376D01*
X312662902Y-193405376D02*
X312615283Y-193595852D01*
X312615283Y-193595852D02*
X312615283Y-193929185D01*
X312615283Y-193929185D02*
X312662902Y-194119661D01*
X312662902Y-194119661D02*
X312758140Y-194214900D01*
X312758140Y-194214900D02*
X312853378Y-194262519D01*
X312853378Y-194262519D02*
X313043854Y-194262519D01*
X313043854Y-194262519D02*
X313139092Y-194214900D01*
X313139092Y-194214900D02*
X313234330Y-194119661D01*
X313234330Y-194119661D02*
X313281949Y-193929185D01*
X313281949Y-193929185D02*
X313281949Y-193595852D01*
X313281949Y-193595852D02*
X313234330Y-193405376D01*
X313234330Y-193405376D02*
X313139092Y-193310138D01*
X313139092Y-193310138D02*
X313043854Y-193262519D01*
X311758140Y-193595852D02*
X311758140Y-194262519D01*
X311996235Y-193214900D02*
X312234330Y-193929185D01*
X312234330Y-193929185D02*
X311615283Y-193929185D01*
X310805759Y-193262519D02*
X310996235Y-193262519D01*
X310996235Y-193262519D02*
X311091473Y-193310138D01*
X311091473Y-193310138D02*
X311139092Y-193357757D01*
X311139092Y-193357757D02*
X311234330Y-193500614D01*
X311234330Y-193500614D02*
X311281949Y-193691090D01*
X311281949Y-193691090D02*
X311281949Y-194072042D01*
X311281949Y-194072042D02*
X311234330Y-194167280D01*
X311234330Y-194167280D02*
X311186711Y-194214900D01*
X311186711Y-194214900D02*
X311091473Y-194262519D01*
X311091473Y-194262519D02*
X310900997Y-194262519D01*
X310900997Y-194262519D02*
X310805759Y-194214900D01*
X310805759Y-194214900D02*
X310758140Y-194167280D01*
X310758140Y-194167280D02*
X310710521Y-194072042D01*
X310710521Y-194072042D02*
X310710521Y-193833947D01*
X310710521Y-193833947D02*
X310758140Y-193738709D01*
X310758140Y-193738709D02*
X310805759Y-193691090D01*
X310805759Y-193691090D02*
X310900997Y-193643471D01*
X310900997Y-193643471D02*
X311091473Y-193643471D01*
X311091473Y-193643471D02*
X311186711Y-193691090D01*
X311186711Y-193691090D02*
X311234330Y-193738709D01*
X311234330Y-193738709D02*
X311281949Y-193833947D01*
X305492650Y-178070138D02*
X305587888Y-178022519D01*
X305587888Y-178022519D02*
X305730745Y-178022519D01*
X305730745Y-178022519D02*
X305873602Y-178070138D01*
X305873602Y-178070138D02*
X305968840Y-178165376D01*
X305968840Y-178165376D02*
X306016459Y-178260614D01*
X306016459Y-178260614D02*
X306064078Y-178451090D01*
X306064078Y-178451090D02*
X306064078Y-178593947D01*
X306064078Y-178593947D02*
X306016459Y-178784423D01*
X306016459Y-178784423D02*
X305968840Y-178879661D01*
X305968840Y-178879661D02*
X305873602Y-178974900D01*
X305873602Y-178974900D02*
X305730745Y-179022519D01*
X305730745Y-179022519D02*
X305635507Y-179022519D01*
X305635507Y-179022519D02*
X305492650Y-178974900D01*
X305492650Y-178974900D02*
X305445031Y-178927280D01*
X305445031Y-178927280D02*
X305445031Y-178593947D01*
X305445031Y-178593947D02*
X305635507Y-178593947D01*
X305016459Y-179022519D02*
X305016459Y-178022519D01*
X305016459Y-178022519D02*
X304635507Y-178022519D01*
X304635507Y-178022519D02*
X304540269Y-178070138D01*
X304540269Y-178070138D02*
X304492650Y-178117757D01*
X304492650Y-178117757D02*
X304445031Y-178212995D01*
X304445031Y-178212995D02*
X304445031Y-178355852D01*
X304445031Y-178355852D02*
X304492650Y-178451090D01*
X304492650Y-178451090D02*
X304540269Y-178498709D01*
X304540269Y-178498709D02*
X304635507Y-178546328D01*
X304635507Y-178546328D02*
X305016459Y-178546328D01*
X304016459Y-179022519D02*
X304016459Y-178022519D01*
X303349793Y-178022519D02*
X303159317Y-178022519D01*
X303159317Y-178022519D02*
X303064079Y-178070138D01*
X303064079Y-178070138D02*
X302968841Y-178165376D01*
X302968841Y-178165376D02*
X302921222Y-178355852D01*
X302921222Y-178355852D02*
X302921222Y-178689185D01*
X302921222Y-178689185D02*
X302968841Y-178879661D01*
X302968841Y-178879661D02*
X303064079Y-178974900D01*
X303064079Y-178974900D02*
X303159317Y-179022519D01*
X303159317Y-179022519D02*
X303349793Y-179022519D01*
X303349793Y-179022519D02*
X303445031Y-178974900D01*
X303445031Y-178974900D02*
X303540269Y-178879661D01*
X303540269Y-178879661D02*
X303587888Y-178689185D01*
X303587888Y-178689185D02*
X303587888Y-178355852D01*
X303587888Y-178355852D02*
X303540269Y-178165376D01*
X303540269Y-178165376D02*
X303445031Y-178070138D01*
X303445031Y-178070138D02*
X303349793Y-178022519D01*
X302064079Y-178355852D02*
X302064079Y-179022519D01*
X302302174Y-177974900D02*
X302540269Y-178689185D01*
X302540269Y-178689185D02*
X301921222Y-178689185D01*
X301349793Y-178022519D02*
X301254555Y-178022519D01*
X301254555Y-178022519D02*
X301159317Y-178070138D01*
X301159317Y-178070138D02*
X301111698Y-178117757D01*
X301111698Y-178117757D02*
X301064079Y-178212995D01*
X301064079Y-178212995D02*
X301016460Y-178403471D01*
X301016460Y-178403471D02*
X301016460Y-178641566D01*
X301016460Y-178641566D02*
X301064079Y-178832042D01*
X301064079Y-178832042D02*
X301111698Y-178927280D01*
X301111698Y-178927280D02*
X301159317Y-178974900D01*
X301159317Y-178974900D02*
X301254555Y-179022519D01*
X301254555Y-179022519D02*
X301349793Y-179022519D01*
X301349793Y-179022519D02*
X301445031Y-178974900D01*
X301445031Y-178974900D02*
X301492650Y-178927280D01*
X301492650Y-178927280D02*
X301540269Y-178832042D01*
X301540269Y-178832042D02*
X301587888Y-178641566D01*
X301587888Y-178641566D02*
X301587888Y-178403471D01*
X301587888Y-178403471D02*
X301540269Y-178212995D01*
X301540269Y-178212995D02*
X301492650Y-178117757D01*
X301492650Y-178117757D02*
X301445031Y-178070138D01*
X301445031Y-178070138D02*
X301349793Y-178022519D01*
X299873603Y-177974900D02*
X300730745Y-179260614D01*
X299540269Y-179022519D02*
X299540269Y-178022519D01*
X299540269Y-178022519D02*
X299206936Y-178736804D01*
X299206936Y-178736804D02*
X298873603Y-178022519D01*
X298873603Y-178022519D02*
X298873603Y-179022519D01*
X298540269Y-178022519D02*
X297968841Y-178022519D01*
X298254555Y-179022519D02*
X298254555Y-178022519D01*
X297635507Y-179022519D02*
X297635507Y-178022519D01*
X297635507Y-178022519D02*
X297397412Y-178022519D01*
X297397412Y-178022519D02*
X297254555Y-178070138D01*
X297254555Y-178070138D02*
X297159317Y-178165376D01*
X297159317Y-178165376D02*
X297111698Y-178260614D01*
X297111698Y-178260614D02*
X297064079Y-178451090D01*
X297064079Y-178451090D02*
X297064079Y-178593947D01*
X297064079Y-178593947D02*
X297111698Y-178784423D01*
X297111698Y-178784423D02*
X297159317Y-178879661D01*
X297159317Y-178879661D02*
X297254555Y-178974900D01*
X297254555Y-178974900D02*
X297397412Y-179022519D01*
X297397412Y-179022519D02*
X297635507Y-179022519D01*
X296445031Y-178022519D02*
X296254555Y-178022519D01*
X296254555Y-178022519D02*
X296159317Y-178070138D01*
X296159317Y-178070138D02*
X296064079Y-178165376D01*
X296064079Y-178165376D02*
X296016460Y-178355852D01*
X296016460Y-178355852D02*
X296016460Y-178689185D01*
X296016460Y-178689185D02*
X296064079Y-178879661D01*
X296064079Y-178879661D02*
X296159317Y-178974900D01*
X296159317Y-178974900D02*
X296254555Y-179022519D01*
X296254555Y-179022519D02*
X296445031Y-179022519D01*
X296445031Y-179022519D02*
X296540269Y-178974900D01*
X296540269Y-178974900D02*
X296635507Y-178879661D01*
X296635507Y-178879661D02*
X296683126Y-178689185D01*
X296683126Y-178689185D02*
X296683126Y-178355852D01*
X296683126Y-178355852D02*
X296635507Y-178165376D01*
X296635507Y-178165376D02*
X296540269Y-178070138D01*
X296540269Y-178070138D02*
X296445031Y-178022519D01*
X315186711Y-188230138D02*
X315281949Y-188182519D01*
X315281949Y-188182519D02*
X315424806Y-188182519D01*
X315424806Y-188182519D02*
X315567663Y-188230138D01*
X315567663Y-188230138D02*
X315662901Y-188325376D01*
X315662901Y-188325376D02*
X315710520Y-188420614D01*
X315710520Y-188420614D02*
X315758139Y-188611090D01*
X315758139Y-188611090D02*
X315758139Y-188753947D01*
X315758139Y-188753947D02*
X315710520Y-188944423D01*
X315710520Y-188944423D02*
X315662901Y-189039661D01*
X315662901Y-189039661D02*
X315567663Y-189134900D01*
X315567663Y-189134900D02*
X315424806Y-189182519D01*
X315424806Y-189182519D02*
X315329568Y-189182519D01*
X315329568Y-189182519D02*
X315186711Y-189134900D01*
X315186711Y-189134900D02*
X315139092Y-189087280D01*
X315139092Y-189087280D02*
X315139092Y-188753947D01*
X315139092Y-188753947D02*
X315329568Y-188753947D01*
X314710520Y-189182519D02*
X314710520Y-188182519D01*
X314710520Y-188182519D02*
X314329568Y-188182519D01*
X314329568Y-188182519D02*
X314234330Y-188230138D01*
X314234330Y-188230138D02*
X314186711Y-188277757D01*
X314186711Y-188277757D02*
X314139092Y-188372995D01*
X314139092Y-188372995D02*
X314139092Y-188515852D01*
X314139092Y-188515852D02*
X314186711Y-188611090D01*
X314186711Y-188611090D02*
X314234330Y-188658709D01*
X314234330Y-188658709D02*
X314329568Y-188706328D01*
X314329568Y-188706328D02*
X314710520Y-188706328D01*
X313710520Y-189182519D02*
X313710520Y-188182519D01*
X313043854Y-188182519D02*
X312853378Y-188182519D01*
X312853378Y-188182519D02*
X312758140Y-188230138D01*
X312758140Y-188230138D02*
X312662902Y-188325376D01*
X312662902Y-188325376D02*
X312615283Y-188515852D01*
X312615283Y-188515852D02*
X312615283Y-188849185D01*
X312615283Y-188849185D02*
X312662902Y-189039661D01*
X312662902Y-189039661D02*
X312758140Y-189134900D01*
X312758140Y-189134900D02*
X312853378Y-189182519D01*
X312853378Y-189182519D02*
X313043854Y-189182519D01*
X313043854Y-189182519D02*
X313139092Y-189134900D01*
X313139092Y-189134900D02*
X313234330Y-189039661D01*
X313234330Y-189039661D02*
X313281949Y-188849185D01*
X313281949Y-188849185D02*
X313281949Y-188515852D01*
X313281949Y-188515852D02*
X313234330Y-188325376D01*
X313234330Y-188325376D02*
X313139092Y-188230138D01*
X313139092Y-188230138D02*
X313043854Y-188182519D01*
X312043854Y-188611090D02*
X312139092Y-188563471D01*
X312139092Y-188563471D02*
X312186711Y-188515852D01*
X312186711Y-188515852D02*
X312234330Y-188420614D01*
X312234330Y-188420614D02*
X312234330Y-188372995D01*
X312234330Y-188372995D02*
X312186711Y-188277757D01*
X312186711Y-188277757D02*
X312139092Y-188230138D01*
X312139092Y-188230138D02*
X312043854Y-188182519D01*
X312043854Y-188182519D02*
X311853378Y-188182519D01*
X311853378Y-188182519D02*
X311758140Y-188230138D01*
X311758140Y-188230138D02*
X311710521Y-188277757D01*
X311710521Y-188277757D02*
X311662902Y-188372995D01*
X311662902Y-188372995D02*
X311662902Y-188420614D01*
X311662902Y-188420614D02*
X311710521Y-188515852D01*
X311710521Y-188515852D02*
X311758140Y-188563471D01*
X311758140Y-188563471D02*
X311853378Y-188611090D01*
X311853378Y-188611090D02*
X312043854Y-188611090D01*
X312043854Y-188611090D02*
X312139092Y-188658709D01*
X312139092Y-188658709D02*
X312186711Y-188706328D01*
X312186711Y-188706328D02*
X312234330Y-188801566D01*
X312234330Y-188801566D02*
X312234330Y-188992042D01*
X312234330Y-188992042D02*
X312186711Y-189087280D01*
X312186711Y-189087280D02*
X312139092Y-189134900D01*
X312139092Y-189134900D02*
X312043854Y-189182519D01*
X312043854Y-189182519D02*
X311853378Y-189182519D01*
X311853378Y-189182519D02*
X311758140Y-189134900D01*
X311758140Y-189134900D02*
X311710521Y-189087280D01*
X311710521Y-189087280D02*
X311662902Y-188992042D01*
X311662902Y-188992042D02*
X311662902Y-188801566D01*
X311662902Y-188801566D02*
X311710521Y-188706328D01*
X311710521Y-188706328D02*
X311758140Y-188658709D01*
X311758140Y-188658709D02*
X311853378Y-188611090D01*
X306492650Y-165370138D02*
X306587888Y-165322519D01*
X306587888Y-165322519D02*
X306730745Y-165322519D01*
X306730745Y-165322519D02*
X306873602Y-165370138D01*
X306873602Y-165370138D02*
X306968840Y-165465376D01*
X306968840Y-165465376D02*
X307016459Y-165560614D01*
X307016459Y-165560614D02*
X307064078Y-165751090D01*
X307064078Y-165751090D02*
X307064078Y-165893947D01*
X307064078Y-165893947D02*
X307016459Y-166084423D01*
X307016459Y-166084423D02*
X306968840Y-166179661D01*
X306968840Y-166179661D02*
X306873602Y-166274900D01*
X306873602Y-166274900D02*
X306730745Y-166322519D01*
X306730745Y-166322519D02*
X306635507Y-166322519D01*
X306635507Y-166322519D02*
X306492650Y-166274900D01*
X306492650Y-166274900D02*
X306445031Y-166227280D01*
X306445031Y-166227280D02*
X306445031Y-165893947D01*
X306445031Y-165893947D02*
X306635507Y-165893947D01*
X306016459Y-166322519D02*
X306016459Y-165322519D01*
X306016459Y-165322519D02*
X305635507Y-165322519D01*
X305635507Y-165322519D02*
X305540269Y-165370138D01*
X305540269Y-165370138D02*
X305492650Y-165417757D01*
X305492650Y-165417757D02*
X305445031Y-165512995D01*
X305445031Y-165512995D02*
X305445031Y-165655852D01*
X305445031Y-165655852D02*
X305492650Y-165751090D01*
X305492650Y-165751090D02*
X305540269Y-165798709D01*
X305540269Y-165798709D02*
X305635507Y-165846328D01*
X305635507Y-165846328D02*
X306016459Y-165846328D01*
X305016459Y-166322519D02*
X305016459Y-165322519D01*
X304349793Y-165322519D02*
X304159317Y-165322519D01*
X304159317Y-165322519D02*
X304064079Y-165370138D01*
X304064079Y-165370138D02*
X303968841Y-165465376D01*
X303968841Y-165465376D02*
X303921222Y-165655852D01*
X303921222Y-165655852D02*
X303921222Y-165989185D01*
X303921222Y-165989185D02*
X303968841Y-166179661D01*
X303968841Y-166179661D02*
X304064079Y-166274900D01*
X304064079Y-166274900D02*
X304159317Y-166322519D01*
X304159317Y-166322519D02*
X304349793Y-166322519D01*
X304349793Y-166322519D02*
X304445031Y-166274900D01*
X304445031Y-166274900D02*
X304540269Y-166179661D01*
X304540269Y-166179661D02*
X304587888Y-165989185D01*
X304587888Y-165989185D02*
X304587888Y-165655852D01*
X304587888Y-165655852D02*
X304540269Y-165465376D01*
X304540269Y-165465376D02*
X304445031Y-165370138D01*
X304445031Y-165370138D02*
X304349793Y-165322519D01*
X303064079Y-165655852D02*
X303064079Y-166322519D01*
X303302174Y-165274900D02*
X303540269Y-165989185D01*
X303540269Y-165989185D02*
X302921222Y-165989185D01*
X302111698Y-165655852D02*
X302111698Y-166322519D01*
X302349793Y-165274900D02*
X302587888Y-165989185D01*
X302587888Y-165989185D02*
X301968841Y-165989185D01*
X300873603Y-165274900D02*
X301730745Y-166560614D01*
X300540269Y-165322519D02*
X300540269Y-166132042D01*
X300540269Y-166132042D02*
X300492650Y-166227280D01*
X300492650Y-166227280D02*
X300445031Y-166274900D01*
X300445031Y-166274900D02*
X300349793Y-166322519D01*
X300349793Y-166322519D02*
X300159317Y-166322519D01*
X300159317Y-166322519D02*
X300064079Y-166274900D01*
X300064079Y-166274900D02*
X300016460Y-166227280D01*
X300016460Y-166227280D02*
X299968841Y-166132042D01*
X299968841Y-166132042D02*
X299968841Y-165322519D01*
X299302174Y-165322519D02*
X299206936Y-165322519D01*
X299206936Y-165322519D02*
X299111698Y-165370138D01*
X299111698Y-165370138D02*
X299064079Y-165417757D01*
X299064079Y-165417757D02*
X299016460Y-165512995D01*
X299016460Y-165512995D02*
X298968841Y-165703471D01*
X298968841Y-165703471D02*
X298968841Y-165941566D01*
X298968841Y-165941566D02*
X299016460Y-166132042D01*
X299016460Y-166132042D02*
X299064079Y-166227280D01*
X299064079Y-166227280D02*
X299111698Y-166274900D01*
X299111698Y-166274900D02*
X299206936Y-166322519D01*
X299206936Y-166322519D02*
X299302174Y-166322519D01*
X299302174Y-166322519D02*
X299397412Y-166274900D01*
X299397412Y-166274900D02*
X299445031Y-166227280D01*
X299445031Y-166227280D02*
X299492650Y-166132042D01*
X299492650Y-166132042D02*
X299540269Y-165941566D01*
X299540269Y-165941566D02*
X299540269Y-165703471D01*
X299540269Y-165703471D02*
X299492650Y-165512995D01*
X299492650Y-165512995D02*
X299445031Y-165417757D01*
X299445031Y-165417757D02*
X299397412Y-165370138D01*
X299397412Y-165370138D02*
X299302174Y-165322519D01*
X297968841Y-166322519D02*
X298302174Y-165846328D01*
X298540269Y-166322519D02*
X298540269Y-165322519D01*
X298540269Y-165322519D02*
X298159317Y-165322519D01*
X298159317Y-165322519D02*
X298064079Y-165370138D01*
X298064079Y-165370138D02*
X298016460Y-165417757D01*
X298016460Y-165417757D02*
X297968841Y-165512995D01*
X297968841Y-165512995D02*
X297968841Y-165655852D01*
X297968841Y-165655852D02*
X298016460Y-165751090D01*
X298016460Y-165751090D02*
X298064079Y-165798709D01*
X298064079Y-165798709D02*
X298159317Y-165846328D01*
X298159317Y-165846328D02*
X298540269Y-165846328D01*
X297635507Y-165322519D02*
X296968841Y-166322519D01*
X296968841Y-165322519D02*
X297635507Y-166322519D01*
X296587888Y-166322519D02*
X296587888Y-165322519D01*
X296587888Y-165322519D02*
X296349793Y-165322519D01*
X296349793Y-165322519D02*
X296206936Y-165370138D01*
X296206936Y-165370138D02*
X296111698Y-165465376D01*
X296111698Y-165465376D02*
X296064079Y-165560614D01*
X296064079Y-165560614D02*
X296016460Y-165751090D01*
X296016460Y-165751090D02*
X296016460Y-165893947D01*
X296016460Y-165893947D02*
X296064079Y-166084423D01*
X296064079Y-166084423D02*
X296111698Y-166179661D01*
X296111698Y-166179661D02*
X296206936Y-166274900D01*
X296206936Y-166274900D02*
X296349793Y-166322519D01*
X296349793Y-166322519D02*
X296587888Y-166322519D01*
X315186711Y-185690138D02*
X315281949Y-185642519D01*
X315281949Y-185642519D02*
X315424806Y-185642519D01*
X315424806Y-185642519D02*
X315567663Y-185690138D01*
X315567663Y-185690138D02*
X315662901Y-185785376D01*
X315662901Y-185785376D02*
X315710520Y-185880614D01*
X315710520Y-185880614D02*
X315758139Y-186071090D01*
X315758139Y-186071090D02*
X315758139Y-186213947D01*
X315758139Y-186213947D02*
X315710520Y-186404423D01*
X315710520Y-186404423D02*
X315662901Y-186499661D01*
X315662901Y-186499661D02*
X315567663Y-186594900D01*
X315567663Y-186594900D02*
X315424806Y-186642519D01*
X315424806Y-186642519D02*
X315329568Y-186642519D01*
X315329568Y-186642519D02*
X315186711Y-186594900D01*
X315186711Y-186594900D02*
X315139092Y-186547280D01*
X315139092Y-186547280D02*
X315139092Y-186213947D01*
X315139092Y-186213947D02*
X315329568Y-186213947D01*
X314710520Y-186642519D02*
X314710520Y-185642519D01*
X314710520Y-185642519D02*
X314329568Y-185642519D01*
X314329568Y-185642519D02*
X314234330Y-185690138D01*
X314234330Y-185690138D02*
X314186711Y-185737757D01*
X314186711Y-185737757D02*
X314139092Y-185832995D01*
X314139092Y-185832995D02*
X314139092Y-185975852D01*
X314139092Y-185975852D02*
X314186711Y-186071090D01*
X314186711Y-186071090D02*
X314234330Y-186118709D01*
X314234330Y-186118709D02*
X314329568Y-186166328D01*
X314329568Y-186166328D02*
X314710520Y-186166328D01*
X313710520Y-186642519D02*
X313710520Y-185642519D01*
X313043854Y-185642519D02*
X312853378Y-185642519D01*
X312853378Y-185642519D02*
X312758140Y-185690138D01*
X312758140Y-185690138D02*
X312662902Y-185785376D01*
X312662902Y-185785376D02*
X312615283Y-185975852D01*
X312615283Y-185975852D02*
X312615283Y-186309185D01*
X312615283Y-186309185D02*
X312662902Y-186499661D01*
X312662902Y-186499661D02*
X312758140Y-186594900D01*
X312758140Y-186594900D02*
X312853378Y-186642519D01*
X312853378Y-186642519D02*
X313043854Y-186642519D01*
X313043854Y-186642519D02*
X313139092Y-186594900D01*
X313139092Y-186594900D02*
X313234330Y-186499661D01*
X313234330Y-186499661D02*
X313281949Y-186309185D01*
X313281949Y-186309185D02*
X313281949Y-185975852D01*
X313281949Y-185975852D02*
X313234330Y-185785376D01*
X313234330Y-185785376D02*
X313139092Y-185690138D01*
X313139092Y-185690138D02*
X313043854Y-185642519D01*
X311662902Y-186642519D02*
X312234330Y-186642519D01*
X311948616Y-186642519D02*
X311948616Y-185642519D01*
X311948616Y-185642519D02*
X312043854Y-185785376D01*
X312043854Y-185785376D02*
X312139092Y-185880614D01*
X312139092Y-185880614D02*
X312234330Y-185928233D01*
X311091473Y-186071090D02*
X311186711Y-186023471D01*
X311186711Y-186023471D02*
X311234330Y-185975852D01*
X311234330Y-185975852D02*
X311281949Y-185880614D01*
X311281949Y-185880614D02*
X311281949Y-185832995D01*
X311281949Y-185832995D02*
X311234330Y-185737757D01*
X311234330Y-185737757D02*
X311186711Y-185690138D01*
X311186711Y-185690138D02*
X311091473Y-185642519D01*
X311091473Y-185642519D02*
X310900997Y-185642519D01*
X310900997Y-185642519D02*
X310805759Y-185690138D01*
X310805759Y-185690138D02*
X310758140Y-185737757D01*
X310758140Y-185737757D02*
X310710521Y-185832995D01*
X310710521Y-185832995D02*
X310710521Y-185880614D01*
X310710521Y-185880614D02*
X310758140Y-185975852D01*
X310758140Y-185975852D02*
X310805759Y-186023471D01*
X310805759Y-186023471D02*
X310900997Y-186071090D01*
X310900997Y-186071090D02*
X311091473Y-186071090D01*
X311091473Y-186071090D02*
X311186711Y-186118709D01*
X311186711Y-186118709D02*
X311234330Y-186166328D01*
X311234330Y-186166328D02*
X311281949Y-186261566D01*
X311281949Y-186261566D02*
X311281949Y-186452042D01*
X311281949Y-186452042D02*
X311234330Y-186547280D01*
X311234330Y-186547280D02*
X311186711Y-186594900D01*
X311186711Y-186594900D02*
X311091473Y-186642519D01*
X311091473Y-186642519D02*
X310900997Y-186642519D01*
X310900997Y-186642519D02*
X310805759Y-186594900D01*
X310805759Y-186594900D02*
X310758140Y-186547280D01*
X310758140Y-186547280D02*
X310710521Y-186452042D01*
X310710521Y-186452042D02*
X310710521Y-186261566D01*
X310710521Y-186261566D02*
X310758140Y-186166328D01*
X310758140Y-186166328D02*
X310805759Y-186118709D01*
X310805759Y-186118709D02*
X310900997Y-186071090D01*
X315186711Y-183150138D02*
X315281949Y-183102519D01*
X315281949Y-183102519D02*
X315424806Y-183102519D01*
X315424806Y-183102519D02*
X315567663Y-183150138D01*
X315567663Y-183150138D02*
X315662901Y-183245376D01*
X315662901Y-183245376D02*
X315710520Y-183340614D01*
X315710520Y-183340614D02*
X315758139Y-183531090D01*
X315758139Y-183531090D02*
X315758139Y-183673947D01*
X315758139Y-183673947D02*
X315710520Y-183864423D01*
X315710520Y-183864423D02*
X315662901Y-183959661D01*
X315662901Y-183959661D02*
X315567663Y-184054900D01*
X315567663Y-184054900D02*
X315424806Y-184102519D01*
X315424806Y-184102519D02*
X315329568Y-184102519D01*
X315329568Y-184102519D02*
X315186711Y-184054900D01*
X315186711Y-184054900D02*
X315139092Y-184007280D01*
X315139092Y-184007280D02*
X315139092Y-183673947D01*
X315139092Y-183673947D02*
X315329568Y-183673947D01*
X314710520Y-184102519D02*
X314710520Y-183102519D01*
X314710520Y-183102519D02*
X314329568Y-183102519D01*
X314329568Y-183102519D02*
X314234330Y-183150138D01*
X314234330Y-183150138D02*
X314186711Y-183197757D01*
X314186711Y-183197757D02*
X314139092Y-183292995D01*
X314139092Y-183292995D02*
X314139092Y-183435852D01*
X314139092Y-183435852D02*
X314186711Y-183531090D01*
X314186711Y-183531090D02*
X314234330Y-183578709D01*
X314234330Y-183578709D02*
X314329568Y-183626328D01*
X314329568Y-183626328D02*
X314710520Y-183626328D01*
X313710520Y-184102519D02*
X313710520Y-183102519D01*
X313043854Y-183102519D02*
X312853378Y-183102519D01*
X312853378Y-183102519D02*
X312758140Y-183150138D01*
X312758140Y-183150138D02*
X312662902Y-183245376D01*
X312662902Y-183245376D02*
X312615283Y-183435852D01*
X312615283Y-183435852D02*
X312615283Y-183769185D01*
X312615283Y-183769185D02*
X312662902Y-183959661D01*
X312662902Y-183959661D02*
X312758140Y-184054900D01*
X312758140Y-184054900D02*
X312853378Y-184102519D01*
X312853378Y-184102519D02*
X313043854Y-184102519D01*
X313043854Y-184102519D02*
X313139092Y-184054900D01*
X313139092Y-184054900D02*
X313234330Y-183959661D01*
X313234330Y-183959661D02*
X313281949Y-183769185D01*
X313281949Y-183769185D02*
X313281949Y-183435852D01*
X313281949Y-183435852D02*
X313234330Y-183245376D01*
X313234330Y-183245376D02*
X313139092Y-183150138D01*
X313139092Y-183150138D02*
X313043854Y-183102519D01*
X311662902Y-184102519D02*
X312234330Y-184102519D01*
X311948616Y-184102519D02*
X311948616Y-183102519D01*
X311948616Y-183102519D02*
X312043854Y-183245376D01*
X312043854Y-183245376D02*
X312139092Y-183340614D01*
X312139092Y-183340614D02*
X312234330Y-183388233D01*
X311329568Y-183102519D02*
X310662902Y-183102519D01*
X310662902Y-183102519D02*
X311091473Y-184102519D01*
X315186711Y-200930138D02*
X315281949Y-200882519D01*
X315281949Y-200882519D02*
X315424806Y-200882519D01*
X315424806Y-200882519D02*
X315567663Y-200930138D01*
X315567663Y-200930138D02*
X315662901Y-201025376D01*
X315662901Y-201025376D02*
X315710520Y-201120614D01*
X315710520Y-201120614D02*
X315758139Y-201311090D01*
X315758139Y-201311090D02*
X315758139Y-201453947D01*
X315758139Y-201453947D02*
X315710520Y-201644423D01*
X315710520Y-201644423D02*
X315662901Y-201739661D01*
X315662901Y-201739661D02*
X315567663Y-201834900D01*
X315567663Y-201834900D02*
X315424806Y-201882519D01*
X315424806Y-201882519D02*
X315329568Y-201882519D01*
X315329568Y-201882519D02*
X315186711Y-201834900D01*
X315186711Y-201834900D02*
X315139092Y-201787280D01*
X315139092Y-201787280D02*
X315139092Y-201453947D01*
X315139092Y-201453947D02*
X315329568Y-201453947D01*
X314710520Y-201882519D02*
X314710520Y-200882519D01*
X314710520Y-200882519D02*
X314329568Y-200882519D01*
X314329568Y-200882519D02*
X314234330Y-200930138D01*
X314234330Y-200930138D02*
X314186711Y-200977757D01*
X314186711Y-200977757D02*
X314139092Y-201072995D01*
X314139092Y-201072995D02*
X314139092Y-201215852D01*
X314139092Y-201215852D02*
X314186711Y-201311090D01*
X314186711Y-201311090D02*
X314234330Y-201358709D01*
X314234330Y-201358709D02*
X314329568Y-201406328D01*
X314329568Y-201406328D02*
X314710520Y-201406328D01*
X313710520Y-201882519D02*
X313710520Y-200882519D01*
X313043854Y-200882519D02*
X312853378Y-200882519D01*
X312853378Y-200882519D02*
X312758140Y-200930138D01*
X312758140Y-200930138D02*
X312662902Y-201025376D01*
X312662902Y-201025376D02*
X312615283Y-201215852D01*
X312615283Y-201215852D02*
X312615283Y-201549185D01*
X312615283Y-201549185D02*
X312662902Y-201739661D01*
X312662902Y-201739661D02*
X312758140Y-201834900D01*
X312758140Y-201834900D02*
X312853378Y-201882519D01*
X312853378Y-201882519D02*
X313043854Y-201882519D01*
X313043854Y-201882519D02*
X313139092Y-201834900D01*
X313139092Y-201834900D02*
X313234330Y-201739661D01*
X313234330Y-201739661D02*
X313281949Y-201549185D01*
X313281949Y-201549185D02*
X313281949Y-201215852D01*
X313281949Y-201215852D02*
X313234330Y-201025376D01*
X313234330Y-201025376D02*
X313139092Y-200930138D01*
X313139092Y-200930138D02*
X313043854Y-200882519D01*
X311662902Y-201882519D02*
X312234330Y-201882519D01*
X311948616Y-201882519D02*
X311948616Y-200882519D01*
X311948616Y-200882519D02*
X312043854Y-201025376D01*
X312043854Y-201025376D02*
X312139092Y-201120614D01*
X312139092Y-201120614D02*
X312234330Y-201168233D01*
X310710521Y-201882519D02*
X311281949Y-201882519D01*
X310996235Y-201882519D02*
X310996235Y-200882519D01*
X310996235Y-200882519D02*
X311091473Y-201025376D01*
X311091473Y-201025376D02*
X311186711Y-201120614D01*
X311186711Y-201120614D02*
X311281949Y-201168233D01*
X300492650Y-208550138D02*
X300587888Y-208502519D01*
X300587888Y-208502519D02*
X300730745Y-208502519D01*
X300730745Y-208502519D02*
X300873602Y-208550138D01*
X300873602Y-208550138D02*
X300968840Y-208645376D01*
X300968840Y-208645376D02*
X301016459Y-208740614D01*
X301016459Y-208740614D02*
X301064078Y-208931090D01*
X301064078Y-208931090D02*
X301064078Y-209073947D01*
X301064078Y-209073947D02*
X301016459Y-209264423D01*
X301016459Y-209264423D02*
X300968840Y-209359661D01*
X300968840Y-209359661D02*
X300873602Y-209454900D01*
X300873602Y-209454900D02*
X300730745Y-209502519D01*
X300730745Y-209502519D02*
X300635507Y-209502519D01*
X300635507Y-209502519D02*
X300492650Y-209454900D01*
X300492650Y-209454900D02*
X300445031Y-209407280D01*
X300445031Y-209407280D02*
X300445031Y-209073947D01*
X300445031Y-209073947D02*
X300635507Y-209073947D01*
X300016459Y-209502519D02*
X300016459Y-208502519D01*
X300016459Y-208502519D02*
X299635507Y-208502519D01*
X299635507Y-208502519D02*
X299540269Y-208550138D01*
X299540269Y-208550138D02*
X299492650Y-208597757D01*
X299492650Y-208597757D02*
X299445031Y-208692995D01*
X299445031Y-208692995D02*
X299445031Y-208835852D01*
X299445031Y-208835852D02*
X299492650Y-208931090D01*
X299492650Y-208931090D02*
X299540269Y-208978709D01*
X299540269Y-208978709D02*
X299635507Y-209026328D01*
X299635507Y-209026328D02*
X300016459Y-209026328D01*
X299016459Y-209502519D02*
X299016459Y-208502519D01*
X298349793Y-208502519D02*
X298159317Y-208502519D01*
X298159317Y-208502519D02*
X298064079Y-208550138D01*
X298064079Y-208550138D02*
X297968841Y-208645376D01*
X297968841Y-208645376D02*
X297921222Y-208835852D01*
X297921222Y-208835852D02*
X297921222Y-209169185D01*
X297921222Y-209169185D02*
X297968841Y-209359661D01*
X297968841Y-209359661D02*
X298064079Y-209454900D01*
X298064079Y-209454900D02*
X298159317Y-209502519D01*
X298159317Y-209502519D02*
X298349793Y-209502519D01*
X298349793Y-209502519D02*
X298445031Y-209454900D01*
X298445031Y-209454900D02*
X298540269Y-209359661D01*
X298540269Y-209359661D02*
X298587888Y-209169185D01*
X298587888Y-209169185D02*
X298587888Y-208835852D01*
X298587888Y-208835852D02*
X298540269Y-208645376D01*
X298540269Y-208645376D02*
X298445031Y-208550138D01*
X298445031Y-208550138D02*
X298349793Y-208502519D01*
X296968841Y-209502519D02*
X297540269Y-209502519D01*
X297254555Y-209502519D02*
X297254555Y-208502519D01*
X297254555Y-208502519D02*
X297349793Y-208645376D01*
X297349793Y-208645376D02*
X297445031Y-208740614D01*
X297445031Y-208740614D02*
X297540269Y-208788233D01*
X296492650Y-209502519D02*
X296302174Y-209502519D01*
X296302174Y-209502519D02*
X296206936Y-209454900D01*
X296206936Y-209454900D02*
X296159317Y-209407280D01*
X296159317Y-209407280D02*
X296064079Y-209264423D01*
X296064079Y-209264423D02*
X296016460Y-209073947D01*
X296016460Y-209073947D02*
X296016460Y-208692995D01*
X296016460Y-208692995D02*
X296064079Y-208597757D01*
X296064079Y-208597757D02*
X296111698Y-208550138D01*
X296111698Y-208550138D02*
X296206936Y-208502519D01*
X296206936Y-208502519D02*
X296397412Y-208502519D01*
X296397412Y-208502519D02*
X296492650Y-208550138D01*
X296492650Y-208550138D02*
X296540269Y-208597757D01*
X296540269Y-208597757D02*
X296587888Y-208692995D01*
X296587888Y-208692995D02*
X296587888Y-208931090D01*
X296587888Y-208931090D02*
X296540269Y-209026328D01*
X296540269Y-209026328D02*
X296492650Y-209073947D01*
X296492650Y-209073947D02*
X296397412Y-209121566D01*
X296397412Y-209121566D02*
X296206936Y-209121566D01*
X296206936Y-209121566D02*
X296111698Y-209073947D01*
X296111698Y-209073947D02*
X296064079Y-209026328D01*
X296064079Y-209026328D02*
X296016460Y-208931090D01*
X315815378Y-165795989D02*
X315482045Y-165795989D01*
X315339188Y-166319799D02*
X315815378Y-166319799D01*
X315815378Y-166319799D02*
X315815378Y-165319799D01*
X315815378Y-165319799D02*
X315339188Y-165319799D01*
X314910616Y-166319799D02*
X314910616Y-165319799D01*
X314910616Y-165319799D02*
X314339188Y-166319799D01*
X314339188Y-166319799D02*
X314339188Y-165319799D01*
X313148712Y-165272180D02*
X314005854Y-166557894D01*
X312243950Y-166319799D02*
X312577283Y-165843608D01*
X312815378Y-166319799D02*
X312815378Y-165319799D01*
X312815378Y-165319799D02*
X312434426Y-165319799D01*
X312434426Y-165319799D02*
X312339188Y-165367418D01*
X312339188Y-165367418D02*
X312291569Y-165415037D01*
X312291569Y-165415037D02*
X312243950Y-165510275D01*
X312243950Y-165510275D02*
X312243950Y-165653132D01*
X312243950Y-165653132D02*
X312291569Y-165748370D01*
X312291569Y-165748370D02*
X312339188Y-165795989D01*
X312339188Y-165795989D02*
X312434426Y-165843608D01*
X312434426Y-165843608D02*
X312815378Y-165843608D01*
X311815378Y-165795989D02*
X311482045Y-165795989D01*
X311339188Y-166319799D02*
X311815378Y-166319799D01*
X311815378Y-166319799D02*
X311815378Y-165319799D01*
X311815378Y-165319799D02*
X311339188Y-165319799D01*
X310958235Y-166272180D02*
X310815378Y-166319799D01*
X310815378Y-166319799D02*
X310577283Y-166319799D01*
X310577283Y-166319799D02*
X310482045Y-166272180D01*
X310482045Y-166272180D02*
X310434426Y-166224560D01*
X310434426Y-166224560D02*
X310386807Y-166129322D01*
X310386807Y-166129322D02*
X310386807Y-166034084D01*
X310386807Y-166034084D02*
X310434426Y-165938846D01*
X310434426Y-165938846D02*
X310482045Y-165891227D01*
X310482045Y-165891227D02*
X310577283Y-165843608D01*
X310577283Y-165843608D02*
X310767759Y-165795989D01*
X310767759Y-165795989D02*
X310862997Y-165748370D01*
X310862997Y-165748370D02*
X310910616Y-165700751D01*
X310910616Y-165700751D02*
X310958235Y-165605513D01*
X310958235Y-165605513D02*
X310958235Y-165510275D01*
X310958235Y-165510275D02*
X310910616Y-165415037D01*
X310910616Y-165415037D02*
X310862997Y-165367418D01*
X310862997Y-165367418D02*
X310767759Y-165319799D01*
X310767759Y-165319799D02*
X310529664Y-165319799D01*
X310529664Y-165319799D02*
X310386807Y-165367418D01*
X309958235Y-165795989D02*
X309624902Y-165795989D01*
X309482045Y-166319799D02*
X309958235Y-166319799D01*
X309958235Y-166319799D02*
X309958235Y-165319799D01*
X309958235Y-165319799D02*
X309482045Y-165319799D01*
X309196330Y-165319799D02*
X308624902Y-165319799D01*
X308910616Y-166319799D02*
X308910616Y-165319799D01*
X304921221Y-175530138D02*
X305016459Y-175482519D01*
X305016459Y-175482519D02*
X305159316Y-175482519D01*
X305159316Y-175482519D02*
X305302173Y-175530138D01*
X305302173Y-175530138D02*
X305397411Y-175625376D01*
X305397411Y-175625376D02*
X305445030Y-175720614D01*
X305445030Y-175720614D02*
X305492649Y-175911090D01*
X305492649Y-175911090D02*
X305492649Y-176053947D01*
X305492649Y-176053947D02*
X305445030Y-176244423D01*
X305445030Y-176244423D02*
X305397411Y-176339661D01*
X305397411Y-176339661D02*
X305302173Y-176434900D01*
X305302173Y-176434900D02*
X305159316Y-176482519D01*
X305159316Y-176482519D02*
X305064078Y-176482519D01*
X305064078Y-176482519D02*
X304921221Y-176434900D01*
X304921221Y-176434900D02*
X304873602Y-176387280D01*
X304873602Y-176387280D02*
X304873602Y-176053947D01*
X304873602Y-176053947D02*
X305064078Y-176053947D01*
X304445030Y-176482519D02*
X304445030Y-175482519D01*
X304445030Y-175482519D02*
X304064078Y-175482519D01*
X304064078Y-175482519D02*
X303968840Y-175530138D01*
X303968840Y-175530138D02*
X303921221Y-175577757D01*
X303921221Y-175577757D02*
X303873602Y-175672995D01*
X303873602Y-175672995D02*
X303873602Y-175815852D01*
X303873602Y-175815852D02*
X303921221Y-175911090D01*
X303921221Y-175911090D02*
X303968840Y-175958709D01*
X303968840Y-175958709D02*
X304064078Y-176006328D01*
X304064078Y-176006328D02*
X304445030Y-176006328D01*
X303445030Y-176482519D02*
X303445030Y-175482519D01*
X302778364Y-175482519D02*
X302587888Y-175482519D01*
X302587888Y-175482519D02*
X302492650Y-175530138D01*
X302492650Y-175530138D02*
X302397412Y-175625376D01*
X302397412Y-175625376D02*
X302349793Y-175815852D01*
X302349793Y-175815852D02*
X302349793Y-176149185D01*
X302349793Y-176149185D02*
X302397412Y-176339661D01*
X302397412Y-176339661D02*
X302492650Y-176434900D01*
X302492650Y-176434900D02*
X302587888Y-176482519D01*
X302587888Y-176482519D02*
X302778364Y-176482519D01*
X302778364Y-176482519D02*
X302873602Y-176434900D01*
X302873602Y-176434900D02*
X302968840Y-176339661D01*
X302968840Y-176339661D02*
X303016459Y-176149185D01*
X303016459Y-176149185D02*
X303016459Y-175815852D01*
X303016459Y-175815852D02*
X302968840Y-175625376D01*
X302968840Y-175625376D02*
X302873602Y-175530138D01*
X302873602Y-175530138D02*
X302778364Y-175482519D01*
X301492650Y-175815852D02*
X301492650Y-176482519D01*
X301730745Y-175434900D02*
X301968840Y-176149185D01*
X301968840Y-176149185D02*
X301349793Y-176149185D01*
X300445031Y-176482519D02*
X301016459Y-176482519D01*
X300730745Y-176482519D02*
X300730745Y-175482519D01*
X300730745Y-175482519D02*
X300825983Y-175625376D01*
X300825983Y-175625376D02*
X300921221Y-175720614D01*
X300921221Y-175720614D02*
X301016459Y-175768233D01*
X299302174Y-175434900D02*
X300159316Y-176720614D01*
X298968840Y-176482519D02*
X298968840Y-175482519D01*
X298968840Y-175482519D02*
X298635507Y-176196804D01*
X298635507Y-176196804D02*
X298302174Y-175482519D01*
X298302174Y-175482519D02*
X298302174Y-176482519D01*
X297968840Y-175482519D02*
X297397412Y-175482519D01*
X297683126Y-176482519D02*
X297683126Y-175482519D01*
X297064078Y-176482519D02*
X297064078Y-175482519D01*
X297064078Y-175482519D02*
X296825983Y-175482519D01*
X296825983Y-175482519D02*
X296683126Y-175530138D01*
X296683126Y-175530138D02*
X296587888Y-175625376D01*
X296587888Y-175625376D02*
X296540269Y-175720614D01*
X296540269Y-175720614D02*
X296492650Y-175911090D01*
X296492650Y-175911090D02*
X296492650Y-176053947D01*
X296492650Y-176053947D02*
X296540269Y-176244423D01*
X296540269Y-176244423D02*
X296587888Y-176339661D01*
X296587888Y-176339661D02*
X296683126Y-176434900D01*
X296683126Y-176434900D02*
X296825983Y-176482519D01*
X296825983Y-176482519D02*
X297064078Y-176482519D01*
X296064078Y-176482519D02*
X296064078Y-175482519D01*
X300492650Y-203470138D02*
X300587888Y-203422519D01*
X300587888Y-203422519D02*
X300730745Y-203422519D01*
X300730745Y-203422519D02*
X300873602Y-203470138D01*
X300873602Y-203470138D02*
X300968840Y-203565376D01*
X300968840Y-203565376D02*
X301016459Y-203660614D01*
X301016459Y-203660614D02*
X301064078Y-203851090D01*
X301064078Y-203851090D02*
X301064078Y-203993947D01*
X301064078Y-203993947D02*
X301016459Y-204184423D01*
X301016459Y-204184423D02*
X300968840Y-204279661D01*
X300968840Y-204279661D02*
X300873602Y-204374900D01*
X300873602Y-204374900D02*
X300730745Y-204422519D01*
X300730745Y-204422519D02*
X300635507Y-204422519D01*
X300635507Y-204422519D02*
X300492650Y-204374900D01*
X300492650Y-204374900D02*
X300445031Y-204327280D01*
X300445031Y-204327280D02*
X300445031Y-203993947D01*
X300445031Y-203993947D02*
X300635507Y-203993947D01*
X300016459Y-204422519D02*
X300016459Y-203422519D01*
X300016459Y-203422519D02*
X299635507Y-203422519D01*
X299635507Y-203422519D02*
X299540269Y-203470138D01*
X299540269Y-203470138D02*
X299492650Y-203517757D01*
X299492650Y-203517757D02*
X299445031Y-203612995D01*
X299445031Y-203612995D02*
X299445031Y-203755852D01*
X299445031Y-203755852D02*
X299492650Y-203851090D01*
X299492650Y-203851090D02*
X299540269Y-203898709D01*
X299540269Y-203898709D02*
X299635507Y-203946328D01*
X299635507Y-203946328D02*
X300016459Y-203946328D01*
X299016459Y-204422519D02*
X299016459Y-203422519D01*
X298349793Y-203422519D02*
X298159317Y-203422519D01*
X298159317Y-203422519D02*
X298064079Y-203470138D01*
X298064079Y-203470138D02*
X297968841Y-203565376D01*
X297968841Y-203565376D02*
X297921222Y-203755852D01*
X297921222Y-203755852D02*
X297921222Y-204089185D01*
X297921222Y-204089185D02*
X297968841Y-204279661D01*
X297968841Y-204279661D02*
X298064079Y-204374900D01*
X298064079Y-204374900D02*
X298159317Y-204422519D01*
X298159317Y-204422519D02*
X298349793Y-204422519D01*
X298349793Y-204422519D02*
X298445031Y-204374900D01*
X298445031Y-204374900D02*
X298540269Y-204279661D01*
X298540269Y-204279661D02*
X298587888Y-204089185D01*
X298587888Y-204089185D02*
X298587888Y-203755852D01*
X298587888Y-203755852D02*
X298540269Y-203565376D01*
X298540269Y-203565376D02*
X298445031Y-203470138D01*
X298445031Y-203470138D02*
X298349793Y-203422519D01*
X297540269Y-203517757D02*
X297492650Y-203470138D01*
X297492650Y-203470138D02*
X297397412Y-203422519D01*
X297397412Y-203422519D02*
X297159317Y-203422519D01*
X297159317Y-203422519D02*
X297064079Y-203470138D01*
X297064079Y-203470138D02*
X297016460Y-203517757D01*
X297016460Y-203517757D02*
X296968841Y-203612995D01*
X296968841Y-203612995D02*
X296968841Y-203708233D01*
X296968841Y-203708233D02*
X297016460Y-203851090D01*
X297016460Y-203851090D02*
X297587888Y-204422519D01*
X297587888Y-204422519D02*
X296968841Y-204422519D01*
X296016460Y-204422519D02*
X296587888Y-204422519D01*
X296302174Y-204422519D02*
X296302174Y-203422519D01*
X296302174Y-203422519D02*
X296397412Y-203565376D01*
X296397412Y-203565376D02*
X296492650Y-203660614D01*
X296492650Y-203660614D02*
X296587888Y-203708233D01*
X315186711Y-198390138D02*
X315281949Y-198342519D01*
X315281949Y-198342519D02*
X315424806Y-198342519D01*
X315424806Y-198342519D02*
X315567663Y-198390138D01*
X315567663Y-198390138D02*
X315662901Y-198485376D01*
X315662901Y-198485376D02*
X315710520Y-198580614D01*
X315710520Y-198580614D02*
X315758139Y-198771090D01*
X315758139Y-198771090D02*
X315758139Y-198913947D01*
X315758139Y-198913947D02*
X315710520Y-199104423D01*
X315710520Y-199104423D02*
X315662901Y-199199661D01*
X315662901Y-199199661D02*
X315567663Y-199294900D01*
X315567663Y-199294900D02*
X315424806Y-199342519D01*
X315424806Y-199342519D02*
X315329568Y-199342519D01*
X315329568Y-199342519D02*
X315186711Y-199294900D01*
X315186711Y-199294900D02*
X315139092Y-199247280D01*
X315139092Y-199247280D02*
X315139092Y-198913947D01*
X315139092Y-198913947D02*
X315329568Y-198913947D01*
X314710520Y-199342519D02*
X314710520Y-198342519D01*
X314710520Y-198342519D02*
X314329568Y-198342519D01*
X314329568Y-198342519D02*
X314234330Y-198390138D01*
X314234330Y-198390138D02*
X314186711Y-198437757D01*
X314186711Y-198437757D02*
X314139092Y-198532995D01*
X314139092Y-198532995D02*
X314139092Y-198675852D01*
X314139092Y-198675852D02*
X314186711Y-198771090D01*
X314186711Y-198771090D02*
X314234330Y-198818709D01*
X314234330Y-198818709D02*
X314329568Y-198866328D01*
X314329568Y-198866328D02*
X314710520Y-198866328D01*
X313710520Y-199342519D02*
X313710520Y-198342519D01*
X313043854Y-198342519D02*
X312853378Y-198342519D01*
X312853378Y-198342519D02*
X312758140Y-198390138D01*
X312758140Y-198390138D02*
X312662902Y-198485376D01*
X312662902Y-198485376D02*
X312615283Y-198675852D01*
X312615283Y-198675852D02*
X312615283Y-199009185D01*
X312615283Y-199009185D02*
X312662902Y-199199661D01*
X312662902Y-199199661D02*
X312758140Y-199294900D01*
X312758140Y-199294900D02*
X312853378Y-199342519D01*
X312853378Y-199342519D02*
X313043854Y-199342519D01*
X313043854Y-199342519D02*
X313139092Y-199294900D01*
X313139092Y-199294900D02*
X313234330Y-199199661D01*
X313234330Y-199199661D02*
X313281949Y-199009185D01*
X313281949Y-199009185D02*
X313281949Y-198675852D01*
X313281949Y-198675852D02*
X313234330Y-198485376D01*
X313234330Y-198485376D02*
X313139092Y-198390138D01*
X313139092Y-198390138D02*
X313043854Y-198342519D01*
X311662902Y-199342519D02*
X312234330Y-199342519D01*
X311948616Y-199342519D02*
X311948616Y-198342519D01*
X311948616Y-198342519D02*
X312043854Y-198485376D01*
X312043854Y-198485376D02*
X312139092Y-198580614D01*
X312139092Y-198580614D02*
X312234330Y-198628233D01*
X311043854Y-198342519D02*
X310948616Y-198342519D01*
X310948616Y-198342519D02*
X310853378Y-198390138D01*
X310853378Y-198390138D02*
X310805759Y-198437757D01*
X310805759Y-198437757D02*
X310758140Y-198532995D01*
X310758140Y-198532995D02*
X310710521Y-198723471D01*
X310710521Y-198723471D02*
X310710521Y-198961566D01*
X310710521Y-198961566D02*
X310758140Y-199152042D01*
X310758140Y-199152042D02*
X310805759Y-199247280D01*
X310805759Y-199247280D02*
X310853378Y-199294900D01*
X310853378Y-199294900D02*
X310948616Y-199342519D01*
X310948616Y-199342519D02*
X311043854Y-199342519D01*
X311043854Y-199342519D02*
X311139092Y-199294900D01*
X311139092Y-199294900D02*
X311186711Y-199247280D01*
X311186711Y-199247280D02*
X311234330Y-199152042D01*
X311234330Y-199152042D02*
X311281949Y-198961566D01*
X311281949Y-198961566D02*
X311281949Y-198723471D01*
X311281949Y-198723471D02*
X311234330Y-198532995D01*
X311234330Y-198532995D02*
X311186711Y-198437757D01*
X311186711Y-198437757D02*
X311139092Y-198390138D01*
X311139092Y-198390138D02*
X311043854Y-198342519D01*
X300492650Y-195850138D02*
X300587888Y-195802519D01*
X300587888Y-195802519D02*
X300730745Y-195802519D01*
X300730745Y-195802519D02*
X300873602Y-195850138D01*
X300873602Y-195850138D02*
X300968840Y-195945376D01*
X300968840Y-195945376D02*
X301016459Y-196040614D01*
X301016459Y-196040614D02*
X301064078Y-196231090D01*
X301064078Y-196231090D02*
X301064078Y-196373947D01*
X301064078Y-196373947D02*
X301016459Y-196564423D01*
X301016459Y-196564423D02*
X300968840Y-196659661D01*
X300968840Y-196659661D02*
X300873602Y-196754900D01*
X300873602Y-196754900D02*
X300730745Y-196802519D01*
X300730745Y-196802519D02*
X300635507Y-196802519D01*
X300635507Y-196802519D02*
X300492650Y-196754900D01*
X300492650Y-196754900D02*
X300445031Y-196707280D01*
X300445031Y-196707280D02*
X300445031Y-196373947D01*
X300445031Y-196373947D02*
X300635507Y-196373947D01*
X300016459Y-196802519D02*
X300016459Y-195802519D01*
X300016459Y-195802519D02*
X299635507Y-195802519D01*
X299635507Y-195802519D02*
X299540269Y-195850138D01*
X299540269Y-195850138D02*
X299492650Y-195897757D01*
X299492650Y-195897757D02*
X299445031Y-195992995D01*
X299445031Y-195992995D02*
X299445031Y-196135852D01*
X299445031Y-196135852D02*
X299492650Y-196231090D01*
X299492650Y-196231090D02*
X299540269Y-196278709D01*
X299540269Y-196278709D02*
X299635507Y-196326328D01*
X299635507Y-196326328D02*
X300016459Y-196326328D01*
X299016459Y-196802519D02*
X299016459Y-195802519D01*
X298349793Y-195802519D02*
X298159317Y-195802519D01*
X298159317Y-195802519D02*
X298064079Y-195850138D01*
X298064079Y-195850138D02*
X297968841Y-195945376D01*
X297968841Y-195945376D02*
X297921222Y-196135852D01*
X297921222Y-196135852D02*
X297921222Y-196469185D01*
X297921222Y-196469185D02*
X297968841Y-196659661D01*
X297968841Y-196659661D02*
X298064079Y-196754900D01*
X298064079Y-196754900D02*
X298159317Y-196802519D01*
X298159317Y-196802519D02*
X298349793Y-196802519D01*
X298349793Y-196802519D02*
X298445031Y-196754900D01*
X298445031Y-196754900D02*
X298540269Y-196659661D01*
X298540269Y-196659661D02*
X298587888Y-196469185D01*
X298587888Y-196469185D02*
X298587888Y-196135852D01*
X298587888Y-196135852D02*
X298540269Y-195945376D01*
X298540269Y-195945376D02*
X298445031Y-195850138D01*
X298445031Y-195850138D02*
X298349793Y-195802519D01*
X297064079Y-196135852D02*
X297064079Y-196802519D01*
X297302174Y-195754900D02*
X297540269Y-196469185D01*
X297540269Y-196469185D02*
X296921222Y-196469185D01*
X296064079Y-195802519D02*
X296540269Y-195802519D01*
X296540269Y-195802519D02*
X296587888Y-196278709D01*
X296587888Y-196278709D02*
X296540269Y-196231090D01*
X296540269Y-196231090D02*
X296445031Y-196183471D01*
X296445031Y-196183471D02*
X296206936Y-196183471D01*
X296206936Y-196183471D02*
X296111698Y-196231090D01*
X296111698Y-196231090D02*
X296064079Y-196278709D01*
X296064079Y-196278709D02*
X296016460Y-196373947D01*
X296016460Y-196373947D02*
X296016460Y-196612042D01*
X296016460Y-196612042D02*
X296064079Y-196707280D01*
X296064079Y-196707280D02*
X296111698Y-196754900D01*
X296111698Y-196754900D02*
X296206936Y-196802519D01*
X296206936Y-196802519D02*
X296445031Y-196802519D01*
X296445031Y-196802519D02*
X296540269Y-196754900D01*
X296540269Y-196754900D02*
X296587888Y-196707280D01*
X315186711Y-167910138D02*
X315281949Y-167862519D01*
X315281949Y-167862519D02*
X315424806Y-167862519D01*
X315424806Y-167862519D02*
X315567663Y-167910138D01*
X315567663Y-167910138D02*
X315662901Y-168005376D01*
X315662901Y-168005376D02*
X315710520Y-168100614D01*
X315710520Y-168100614D02*
X315758139Y-168291090D01*
X315758139Y-168291090D02*
X315758139Y-168433947D01*
X315758139Y-168433947D02*
X315710520Y-168624423D01*
X315710520Y-168624423D02*
X315662901Y-168719661D01*
X315662901Y-168719661D02*
X315567663Y-168814900D01*
X315567663Y-168814900D02*
X315424806Y-168862519D01*
X315424806Y-168862519D02*
X315329568Y-168862519D01*
X315329568Y-168862519D02*
X315186711Y-168814900D01*
X315186711Y-168814900D02*
X315139092Y-168767280D01*
X315139092Y-168767280D02*
X315139092Y-168433947D01*
X315139092Y-168433947D02*
X315329568Y-168433947D01*
X314710520Y-168862519D02*
X314710520Y-167862519D01*
X314710520Y-167862519D02*
X314329568Y-167862519D01*
X314329568Y-167862519D02*
X314234330Y-167910138D01*
X314234330Y-167910138D02*
X314186711Y-167957757D01*
X314186711Y-167957757D02*
X314139092Y-168052995D01*
X314139092Y-168052995D02*
X314139092Y-168195852D01*
X314139092Y-168195852D02*
X314186711Y-168291090D01*
X314186711Y-168291090D02*
X314234330Y-168338709D01*
X314234330Y-168338709D02*
X314329568Y-168386328D01*
X314329568Y-168386328D02*
X314710520Y-168386328D01*
X313710520Y-168862519D02*
X313710520Y-167862519D01*
X313043854Y-167862519D02*
X312853378Y-167862519D01*
X312853378Y-167862519D02*
X312758140Y-167910138D01*
X312758140Y-167910138D02*
X312662902Y-168005376D01*
X312662902Y-168005376D02*
X312615283Y-168195852D01*
X312615283Y-168195852D02*
X312615283Y-168529185D01*
X312615283Y-168529185D02*
X312662902Y-168719661D01*
X312662902Y-168719661D02*
X312758140Y-168814900D01*
X312758140Y-168814900D02*
X312853378Y-168862519D01*
X312853378Y-168862519D02*
X313043854Y-168862519D01*
X313043854Y-168862519D02*
X313139092Y-168814900D01*
X313139092Y-168814900D02*
X313234330Y-168719661D01*
X313234330Y-168719661D02*
X313281949Y-168529185D01*
X313281949Y-168529185D02*
X313281949Y-168195852D01*
X313281949Y-168195852D02*
X313234330Y-168005376D01*
X313234330Y-168005376D02*
X313139092Y-167910138D01*
X313139092Y-167910138D02*
X313043854Y-167862519D01*
X311758140Y-168195852D02*
X311758140Y-168862519D01*
X311996235Y-167814900D02*
X312234330Y-168529185D01*
X312234330Y-168529185D02*
X311615283Y-168529185D01*
X315186711Y-170450138D02*
X315281949Y-170402519D01*
X315281949Y-170402519D02*
X315424806Y-170402519D01*
X315424806Y-170402519D02*
X315567663Y-170450138D01*
X315567663Y-170450138D02*
X315662901Y-170545376D01*
X315662901Y-170545376D02*
X315710520Y-170640614D01*
X315710520Y-170640614D02*
X315758139Y-170831090D01*
X315758139Y-170831090D02*
X315758139Y-170973947D01*
X315758139Y-170973947D02*
X315710520Y-171164423D01*
X315710520Y-171164423D02*
X315662901Y-171259661D01*
X315662901Y-171259661D02*
X315567663Y-171354900D01*
X315567663Y-171354900D02*
X315424806Y-171402519D01*
X315424806Y-171402519D02*
X315329568Y-171402519D01*
X315329568Y-171402519D02*
X315186711Y-171354900D01*
X315186711Y-171354900D02*
X315139092Y-171307280D01*
X315139092Y-171307280D02*
X315139092Y-170973947D01*
X315139092Y-170973947D02*
X315329568Y-170973947D01*
X314710520Y-171402519D02*
X314710520Y-170402519D01*
X314710520Y-170402519D02*
X314329568Y-170402519D01*
X314329568Y-170402519D02*
X314234330Y-170450138D01*
X314234330Y-170450138D02*
X314186711Y-170497757D01*
X314186711Y-170497757D02*
X314139092Y-170592995D01*
X314139092Y-170592995D02*
X314139092Y-170735852D01*
X314139092Y-170735852D02*
X314186711Y-170831090D01*
X314186711Y-170831090D02*
X314234330Y-170878709D01*
X314234330Y-170878709D02*
X314329568Y-170926328D01*
X314329568Y-170926328D02*
X314710520Y-170926328D01*
X313710520Y-171402519D02*
X313710520Y-170402519D01*
X313043854Y-170402519D02*
X312853378Y-170402519D01*
X312853378Y-170402519D02*
X312758140Y-170450138D01*
X312758140Y-170450138D02*
X312662902Y-170545376D01*
X312662902Y-170545376D02*
X312615283Y-170735852D01*
X312615283Y-170735852D02*
X312615283Y-171069185D01*
X312615283Y-171069185D02*
X312662902Y-171259661D01*
X312662902Y-171259661D02*
X312758140Y-171354900D01*
X312758140Y-171354900D02*
X312853378Y-171402519D01*
X312853378Y-171402519D02*
X313043854Y-171402519D01*
X313043854Y-171402519D02*
X313139092Y-171354900D01*
X313139092Y-171354900D02*
X313234330Y-171259661D01*
X313234330Y-171259661D02*
X313281949Y-171069185D01*
X313281949Y-171069185D02*
X313281949Y-170735852D01*
X313281949Y-170735852D02*
X313234330Y-170545376D01*
X313234330Y-170545376D02*
X313139092Y-170450138D01*
X313139092Y-170450138D02*
X313043854Y-170402519D01*
X311710521Y-170402519D02*
X312186711Y-170402519D01*
X312186711Y-170402519D02*
X312234330Y-170878709D01*
X312234330Y-170878709D02*
X312186711Y-170831090D01*
X312186711Y-170831090D02*
X312091473Y-170783471D01*
X312091473Y-170783471D02*
X311853378Y-170783471D01*
X311853378Y-170783471D02*
X311758140Y-170831090D01*
X311758140Y-170831090D02*
X311710521Y-170878709D01*
X311710521Y-170878709D02*
X311662902Y-170973947D01*
X311662902Y-170973947D02*
X311662902Y-171212042D01*
X311662902Y-171212042D02*
X311710521Y-171307280D01*
X311710521Y-171307280D02*
X311758140Y-171354900D01*
X311758140Y-171354900D02*
X311853378Y-171402519D01*
X311853378Y-171402519D02*
X312091473Y-171402519D01*
X312091473Y-171402519D02*
X312186711Y-171354900D01*
X312186711Y-171354900D02*
X312234330Y-171307280D01*
X315805758Y-162782519D02*
X315186711Y-162782519D01*
X315186711Y-162782519D02*
X315520044Y-163163471D01*
X315520044Y-163163471D02*
X315377187Y-163163471D01*
X315377187Y-163163471D02*
X315281949Y-163211090D01*
X315281949Y-163211090D02*
X315234330Y-163258709D01*
X315234330Y-163258709D02*
X315186711Y-163353947D01*
X315186711Y-163353947D02*
X315186711Y-163592042D01*
X315186711Y-163592042D02*
X315234330Y-163687280D01*
X315234330Y-163687280D02*
X315281949Y-163734900D01*
X315281949Y-163734900D02*
X315377187Y-163782519D01*
X315377187Y-163782519D02*
X315662901Y-163782519D01*
X315662901Y-163782519D02*
X315758139Y-163734900D01*
X315758139Y-163734900D02*
X315805758Y-163687280D01*
X314900996Y-162782519D02*
X314567663Y-163782519D01*
X314567663Y-163782519D02*
X314234330Y-162782519D01*
X313996234Y-162782519D02*
X313377187Y-162782519D01*
X313377187Y-162782519D02*
X313710520Y-163163471D01*
X313710520Y-163163471D02*
X313567663Y-163163471D01*
X313567663Y-163163471D02*
X313472425Y-163211090D01*
X313472425Y-163211090D02*
X313424806Y-163258709D01*
X313424806Y-163258709D02*
X313377187Y-163353947D01*
X313377187Y-163353947D02*
X313377187Y-163592042D01*
X313377187Y-163592042D02*
X313424806Y-163687280D01*
X313424806Y-163687280D02*
X313472425Y-163734900D01*
X313472425Y-163734900D02*
X313567663Y-163782519D01*
X313567663Y-163782519D02*
X313853377Y-163782519D01*
X313853377Y-163782519D02*
X313948615Y-163734900D01*
X313948615Y-163734900D02*
X313996234Y-163687280D01*
X298111698Y-213630138D02*
X298206936Y-213582519D01*
X298206936Y-213582519D02*
X298349793Y-213582519D01*
X298349793Y-213582519D02*
X298492650Y-213630138D01*
X298492650Y-213630138D02*
X298587888Y-213725376D01*
X298587888Y-213725376D02*
X298635507Y-213820614D01*
X298635507Y-213820614D02*
X298683126Y-214011090D01*
X298683126Y-214011090D02*
X298683126Y-214153947D01*
X298683126Y-214153947D02*
X298635507Y-214344423D01*
X298635507Y-214344423D02*
X298587888Y-214439661D01*
X298587888Y-214439661D02*
X298492650Y-214534900D01*
X298492650Y-214534900D02*
X298349793Y-214582519D01*
X298349793Y-214582519D02*
X298254555Y-214582519D01*
X298254555Y-214582519D02*
X298111698Y-214534900D01*
X298111698Y-214534900D02*
X298064079Y-214487280D01*
X298064079Y-214487280D02*
X298064079Y-214153947D01*
X298064079Y-214153947D02*
X298254555Y-214153947D01*
X297635507Y-214582519D02*
X297635507Y-213582519D01*
X297635507Y-213582519D02*
X297064079Y-214582519D01*
X297064079Y-214582519D02*
X297064079Y-213582519D01*
X296587888Y-214582519D02*
X296587888Y-213582519D01*
X296587888Y-213582519D02*
X296349793Y-213582519D01*
X296349793Y-213582519D02*
X296206936Y-213630138D01*
X296206936Y-213630138D02*
X296111698Y-213725376D01*
X296111698Y-213725376D02*
X296064079Y-213820614D01*
X296064079Y-213820614D02*
X296016460Y-214011090D01*
X296016460Y-214011090D02*
X296016460Y-214153947D01*
X296016460Y-214153947D02*
X296064079Y-214344423D01*
X296064079Y-214344423D02*
X296111698Y-214439661D01*
X296111698Y-214439661D02*
X296206936Y-214534900D01*
X296206936Y-214534900D02*
X296349793Y-214582519D01*
X296349793Y-214582519D02*
X296587888Y-214582519D01*
X300492650Y-206010138D02*
X300587888Y-205962519D01*
X300587888Y-205962519D02*
X300730745Y-205962519D01*
X300730745Y-205962519D02*
X300873602Y-206010138D01*
X300873602Y-206010138D02*
X300968840Y-206105376D01*
X300968840Y-206105376D02*
X301016459Y-206200614D01*
X301016459Y-206200614D02*
X301064078Y-206391090D01*
X301064078Y-206391090D02*
X301064078Y-206533947D01*
X301064078Y-206533947D02*
X301016459Y-206724423D01*
X301016459Y-206724423D02*
X300968840Y-206819661D01*
X300968840Y-206819661D02*
X300873602Y-206914900D01*
X300873602Y-206914900D02*
X300730745Y-206962519D01*
X300730745Y-206962519D02*
X300635507Y-206962519D01*
X300635507Y-206962519D02*
X300492650Y-206914900D01*
X300492650Y-206914900D02*
X300445031Y-206867280D01*
X300445031Y-206867280D02*
X300445031Y-206533947D01*
X300445031Y-206533947D02*
X300635507Y-206533947D01*
X300016459Y-206962519D02*
X300016459Y-205962519D01*
X300016459Y-205962519D02*
X299635507Y-205962519D01*
X299635507Y-205962519D02*
X299540269Y-206010138D01*
X299540269Y-206010138D02*
X299492650Y-206057757D01*
X299492650Y-206057757D02*
X299445031Y-206152995D01*
X299445031Y-206152995D02*
X299445031Y-206295852D01*
X299445031Y-206295852D02*
X299492650Y-206391090D01*
X299492650Y-206391090D02*
X299540269Y-206438709D01*
X299540269Y-206438709D02*
X299635507Y-206486328D01*
X299635507Y-206486328D02*
X300016459Y-206486328D01*
X299016459Y-206962519D02*
X299016459Y-205962519D01*
X298349793Y-205962519D02*
X298159317Y-205962519D01*
X298159317Y-205962519D02*
X298064079Y-206010138D01*
X298064079Y-206010138D02*
X297968841Y-206105376D01*
X297968841Y-206105376D02*
X297921222Y-206295852D01*
X297921222Y-206295852D02*
X297921222Y-206629185D01*
X297921222Y-206629185D02*
X297968841Y-206819661D01*
X297968841Y-206819661D02*
X298064079Y-206914900D01*
X298064079Y-206914900D02*
X298159317Y-206962519D01*
X298159317Y-206962519D02*
X298349793Y-206962519D01*
X298349793Y-206962519D02*
X298445031Y-206914900D01*
X298445031Y-206914900D02*
X298540269Y-206819661D01*
X298540269Y-206819661D02*
X298587888Y-206629185D01*
X298587888Y-206629185D02*
X298587888Y-206295852D01*
X298587888Y-206295852D02*
X298540269Y-206105376D01*
X298540269Y-206105376D02*
X298445031Y-206010138D01*
X298445031Y-206010138D02*
X298349793Y-205962519D01*
X297540269Y-206057757D02*
X297492650Y-206010138D01*
X297492650Y-206010138D02*
X297397412Y-205962519D01*
X297397412Y-205962519D02*
X297159317Y-205962519D01*
X297159317Y-205962519D02*
X297064079Y-206010138D01*
X297064079Y-206010138D02*
X297016460Y-206057757D01*
X297016460Y-206057757D02*
X296968841Y-206152995D01*
X296968841Y-206152995D02*
X296968841Y-206248233D01*
X296968841Y-206248233D02*
X297016460Y-206391090D01*
X297016460Y-206391090D02*
X297587888Y-206962519D01*
X297587888Y-206962519D02*
X296968841Y-206962519D01*
X296349793Y-205962519D02*
X296254555Y-205962519D01*
X296254555Y-205962519D02*
X296159317Y-206010138D01*
X296159317Y-206010138D02*
X296111698Y-206057757D01*
X296111698Y-206057757D02*
X296064079Y-206152995D01*
X296064079Y-206152995D02*
X296016460Y-206343471D01*
X296016460Y-206343471D02*
X296016460Y-206581566D01*
X296016460Y-206581566D02*
X296064079Y-206772042D01*
X296064079Y-206772042D02*
X296111698Y-206867280D01*
X296111698Y-206867280D02*
X296159317Y-206914900D01*
X296159317Y-206914900D02*
X296254555Y-206962519D01*
X296254555Y-206962519D02*
X296349793Y-206962519D01*
X296349793Y-206962519D02*
X296445031Y-206914900D01*
X296445031Y-206914900D02*
X296492650Y-206867280D01*
X296492650Y-206867280D02*
X296540269Y-206772042D01*
X296540269Y-206772042D02*
X296587888Y-206581566D01*
X296587888Y-206581566D02*
X296587888Y-206343471D01*
X296587888Y-206343471D02*
X296540269Y-206152995D01*
X296540269Y-206152995D02*
X296492650Y-206057757D01*
X296492650Y-206057757D02*
X296445031Y-206010138D01*
X296445031Y-206010138D02*
X296349793Y-205962519D01*
X315186711Y-180610138D02*
X315281949Y-180562519D01*
X315281949Y-180562519D02*
X315424806Y-180562519D01*
X315424806Y-180562519D02*
X315567663Y-180610138D01*
X315567663Y-180610138D02*
X315662901Y-180705376D01*
X315662901Y-180705376D02*
X315710520Y-180800614D01*
X315710520Y-180800614D02*
X315758139Y-180991090D01*
X315758139Y-180991090D02*
X315758139Y-181133947D01*
X315758139Y-181133947D02*
X315710520Y-181324423D01*
X315710520Y-181324423D02*
X315662901Y-181419661D01*
X315662901Y-181419661D02*
X315567663Y-181514900D01*
X315567663Y-181514900D02*
X315424806Y-181562519D01*
X315424806Y-181562519D02*
X315329568Y-181562519D01*
X315329568Y-181562519D02*
X315186711Y-181514900D01*
X315186711Y-181514900D02*
X315139092Y-181467280D01*
X315139092Y-181467280D02*
X315139092Y-181133947D01*
X315139092Y-181133947D02*
X315329568Y-181133947D01*
X314710520Y-181562519D02*
X314710520Y-180562519D01*
X314710520Y-180562519D02*
X314329568Y-180562519D01*
X314329568Y-180562519D02*
X314234330Y-180610138D01*
X314234330Y-180610138D02*
X314186711Y-180657757D01*
X314186711Y-180657757D02*
X314139092Y-180752995D01*
X314139092Y-180752995D02*
X314139092Y-180895852D01*
X314139092Y-180895852D02*
X314186711Y-180991090D01*
X314186711Y-180991090D02*
X314234330Y-181038709D01*
X314234330Y-181038709D02*
X314329568Y-181086328D01*
X314329568Y-181086328D02*
X314710520Y-181086328D01*
X313710520Y-181562519D02*
X313710520Y-180562519D01*
X313043854Y-180562519D02*
X312853378Y-180562519D01*
X312853378Y-180562519D02*
X312758140Y-180610138D01*
X312758140Y-180610138D02*
X312662902Y-180705376D01*
X312662902Y-180705376D02*
X312615283Y-180895852D01*
X312615283Y-180895852D02*
X312615283Y-181229185D01*
X312615283Y-181229185D02*
X312662902Y-181419661D01*
X312662902Y-181419661D02*
X312758140Y-181514900D01*
X312758140Y-181514900D02*
X312853378Y-181562519D01*
X312853378Y-181562519D02*
X313043854Y-181562519D01*
X313043854Y-181562519D02*
X313139092Y-181514900D01*
X313139092Y-181514900D02*
X313234330Y-181419661D01*
X313234330Y-181419661D02*
X313281949Y-181229185D01*
X313281949Y-181229185D02*
X313281949Y-180895852D01*
X313281949Y-180895852D02*
X313234330Y-180705376D01*
X313234330Y-180705376D02*
X313139092Y-180610138D01*
X313139092Y-180610138D02*
X313043854Y-180562519D01*
X311662902Y-181562519D02*
X312234330Y-181562519D01*
X311948616Y-181562519D02*
X311948616Y-180562519D01*
X311948616Y-180562519D02*
X312043854Y-180705376D01*
X312043854Y-180705376D02*
X312139092Y-180800614D01*
X312139092Y-180800614D02*
X312234330Y-180848233D01*
X310805759Y-180562519D02*
X310996235Y-180562519D01*
X310996235Y-180562519D02*
X311091473Y-180610138D01*
X311091473Y-180610138D02*
X311139092Y-180657757D01*
X311139092Y-180657757D02*
X311234330Y-180800614D01*
X311234330Y-180800614D02*
X311281949Y-180991090D01*
X311281949Y-180991090D02*
X311281949Y-181372042D01*
X311281949Y-181372042D02*
X311234330Y-181467280D01*
X311234330Y-181467280D02*
X311186711Y-181514900D01*
X311186711Y-181514900D02*
X311091473Y-181562519D01*
X311091473Y-181562519D02*
X310900997Y-181562519D01*
X310900997Y-181562519D02*
X310805759Y-181514900D01*
X310805759Y-181514900D02*
X310758140Y-181467280D01*
X310758140Y-181467280D02*
X310710521Y-181372042D01*
X310710521Y-181372042D02*
X310710521Y-181133947D01*
X310710521Y-181133947D02*
X310758140Y-181038709D01*
X310758140Y-181038709D02*
X310805759Y-180991090D01*
X310805759Y-180991090D02*
X310900997Y-180943471D01*
X310900997Y-180943471D02*
X311091473Y-180943471D01*
X311091473Y-180943471D02*
X311186711Y-180991090D01*
X311186711Y-180991090D02*
X311234330Y-181038709D01*
X311234330Y-181038709D02*
X311281949Y-181133947D01*
X299540269Y-170450138D02*
X299635507Y-170402519D01*
X299635507Y-170402519D02*
X299778364Y-170402519D01*
X299778364Y-170402519D02*
X299921221Y-170450138D01*
X299921221Y-170450138D02*
X300016459Y-170545376D01*
X300016459Y-170545376D02*
X300064078Y-170640614D01*
X300064078Y-170640614D02*
X300111697Y-170831090D01*
X300111697Y-170831090D02*
X300111697Y-170973947D01*
X300111697Y-170973947D02*
X300064078Y-171164423D01*
X300064078Y-171164423D02*
X300016459Y-171259661D01*
X300016459Y-171259661D02*
X299921221Y-171354900D01*
X299921221Y-171354900D02*
X299778364Y-171402519D01*
X299778364Y-171402519D02*
X299683126Y-171402519D01*
X299683126Y-171402519D02*
X299540269Y-171354900D01*
X299540269Y-171354900D02*
X299492650Y-171307280D01*
X299492650Y-171307280D02*
X299492650Y-170973947D01*
X299492650Y-170973947D02*
X299683126Y-170973947D01*
X299064078Y-171402519D02*
X299064078Y-170402519D01*
X299064078Y-170402519D02*
X298683126Y-170402519D01*
X298683126Y-170402519D02*
X298587888Y-170450138D01*
X298587888Y-170450138D02*
X298540269Y-170497757D01*
X298540269Y-170497757D02*
X298492650Y-170592995D01*
X298492650Y-170592995D02*
X298492650Y-170735852D01*
X298492650Y-170735852D02*
X298540269Y-170831090D01*
X298540269Y-170831090D02*
X298587888Y-170878709D01*
X298587888Y-170878709D02*
X298683126Y-170926328D01*
X298683126Y-170926328D02*
X299064078Y-170926328D01*
X298064078Y-171402519D02*
X298064078Y-170402519D01*
X297397412Y-170402519D02*
X297206936Y-170402519D01*
X297206936Y-170402519D02*
X297111698Y-170450138D01*
X297111698Y-170450138D02*
X297016460Y-170545376D01*
X297016460Y-170545376D02*
X296968841Y-170735852D01*
X296968841Y-170735852D02*
X296968841Y-171069185D01*
X296968841Y-171069185D02*
X297016460Y-171259661D01*
X297016460Y-171259661D02*
X297111698Y-171354900D01*
X297111698Y-171354900D02*
X297206936Y-171402519D01*
X297206936Y-171402519D02*
X297397412Y-171402519D01*
X297397412Y-171402519D02*
X297492650Y-171354900D01*
X297492650Y-171354900D02*
X297587888Y-171259661D01*
X297587888Y-171259661D02*
X297635507Y-171069185D01*
X297635507Y-171069185D02*
X297635507Y-170735852D01*
X297635507Y-170735852D02*
X297587888Y-170545376D01*
X297587888Y-170545376D02*
X297492650Y-170450138D01*
X297492650Y-170450138D02*
X297397412Y-170402519D01*
X296587888Y-170497757D02*
X296540269Y-170450138D01*
X296540269Y-170450138D02*
X296445031Y-170402519D01*
X296445031Y-170402519D02*
X296206936Y-170402519D01*
X296206936Y-170402519D02*
X296111698Y-170450138D01*
X296111698Y-170450138D02*
X296064079Y-170497757D01*
X296064079Y-170497757D02*
X296016460Y-170592995D01*
X296016460Y-170592995D02*
X296016460Y-170688233D01*
X296016460Y-170688233D02*
X296064079Y-170831090D01*
X296064079Y-170831090D02*
X296635507Y-171402519D01*
X296635507Y-171402519D02*
X296016460Y-171402519D01*
X315186711Y-195850138D02*
X315281949Y-195802519D01*
X315281949Y-195802519D02*
X315424806Y-195802519D01*
X315424806Y-195802519D02*
X315567663Y-195850138D01*
X315567663Y-195850138D02*
X315662901Y-195945376D01*
X315662901Y-195945376D02*
X315710520Y-196040614D01*
X315710520Y-196040614D02*
X315758139Y-196231090D01*
X315758139Y-196231090D02*
X315758139Y-196373947D01*
X315758139Y-196373947D02*
X315710520Y-196564423D01*
X315710520Y-196564423D02*
X315662901Y-196659661D01*
X315662901Y-196659661D02*
X315567663Y-196754900D01*
X315567663Y-196754900D02*
X315424806Y-196802519D01*
X315424806Y-196802519D02*
X315329568Y-196802519D01*
X315329568Y-196802519D02*
X315186711Y-196754900D01*
X315186711Y-196754900D02*
X315139092Y-196707280D01*
X315139092Y-196707280D02*
X315139092Y-196373947D01*
X315139092Y-196373947D02*
X315329568Y-196373947D01*
X314710520Y-196802519D02*
X314710520Y-195802519D01*
X314710520Y-195802519D02*
X314329568Y-195802519D01*
X314329568Y-195802519D02*
X314234330Y-195850138D01*
X314234330Y-195850138D02*
X314186711Y-195897757D01*
X314186711Y-195897757D02*
X314139092Y-195992995D01*
X314139092Y-195992995D02*
X314139092Y-196135852D01*
X314139092Y-196135852D02*
X314186711Y-196231090D01*
X314186711Y-196231090D02*
X314234330Y-196278709D01*
X314234330Y-196278709D02*
X314329568Y-196326328D01*
X314329568Y-196326328D02*
X314710520Y-196326328D01*
X313710520Y-196802519D02*
X313710520Y-195802519D01*
X313043854Y-195802519D02*
X312853378Y-195802519D01*
X312853378Y-195802519D02*
X312758140Y-195850138D01*
X312758140Y-195850138D02*
X312662902Y-195945376D01*
X312662902Y-195945376D02*
X312615283Y-196135852D01*
X312615283Y-196135852D02*
X312615283Y-196469185D01*
X312615283Y-196469185D02*
X312662902Y-196659661D01*
X312662902Y-196659661D02*
X312758140Y-196754900D01*
X312758140Y-196754900D02*
X312853378Y-196802519D01*
X312853378Y-196802519D02*
X313043854Y-196802519D01*
X313043854Y-196802519D02*
X313139092Y-196754900D01*
X313139092Y-196754900D02*
X313234330Y-196659661D01*
X313234330Y-196659661D02*
X313281949Y-196469185D01*
X313281949Y-196469185D02*
X313281949Y-196135852D01*
X313281949Y-196135852D02*
X313234330Y-195945376D01*
X313234330Y-195945376D02*
X313139092Y-195850138D01*
X313139092Y-195850138D02*
X313043854Y-195802519D01*
X312139092Y-196802519D02*
X311948616Y-196802519D01*
X311948616Y-196802519D02*
X311853378Y-196754900D01*
X311853378Y-196754900D02*
X311805759Y-196707280D01*
X311805759Y-196707280D02*
X311710521Y-196564423D01*
X311710521Y-196564423D02*
X311662902Y-196373947D01*
X311662902Y-196373947D02*
X311662902Y-195992995D01*
X311662902Y-195992995D02*
X311710521Y-195897757D01*
X311710521Y-195897757D02*
X311758140Y-195850138D01*
X311758140Y-195850138D02*
X311853378Y-195802519D01*
X311853378Y-195802519D02*
X312043854Y-195802519D01*
X312043854Y-195802519D02*
X312139092Y-195850138D01*
X312139092Y-195850138D02*
X312186711Y-195897757D01*
X312186711Y-195897757D02*
X312234330Y-195992995D01*
X312234330Y-195992995D02*
X312234330Y-196231090D01*
X312234330Y-196231090D02*
X312186711Y-196326328D01*
X312186711Y-196326328D02*
X312139092Y-196373947D01*
X312139092Y-196373947D02*
X312043854Y-196421566D01*
X312043854Y-196421566D02*
X311853378Y-196421566D01*
X311853378Y-196421566D02*
X311758140Y-196373947D01*
X311758140Y-196373947D02*
X311710521Y-196326328D01*
X311710521Y-196326328D02*
X311662902Y-196231090D01*
X300492650Y-183150138D02*
X300587888Y-183102519D01*
X300587888Y-183102519D02*
X300730745Y-183102519D01*
X300730745Y-183102519D02*
X300873602Y-183150138D01*
X300873602Y-183150138D02*
X300968840Y-183245376D01*
X300968840Y-183245376D02*
X301016459Y-183340614D01*
X301016459Y-183340614D02*
X301064078Y-183531090D01*
X301064078Y-183531090D02*
X301064078Y-183673947D01*
X301064078Y-183673947D02*
X301016459Y-183864423D01*
X301016459Y-183864423D02*
X300968840Y-183959661D01*
X300968840Y-183959661D02*
X300873602Y-184054900D01*
X300873602Y-184054900D02*
X300730745Y-184102519D01*
X300730745Y-184102519D02*
X300635507Y-184102519D01*
X300635507Y-184102519D02*
X300492650Y-184054900D01*
X300492650Y-184054900D02*
X300445031Y-184007280D01*
X300445031Y-184007280D02*
X300445031Y-183673947D01*
X300445031Y-183673947D02*
X300635507Y-183673947D01*
X300016459Y-184102519D02*
X300016459Y-183102519D01*
X300016459Y-183102519D02*
X299635507Y-183102519D01*
X299635507Y-183102519D02*
X299540269Y-183150138D01*
X299540269Y-183150138D02*
X299492650Y-183197757D01*
X299492650Y-183197757D02*
X299445031Y-183292995D01*
X299445031Y-183292995D02*
X299445031Y-183435852D01*
X299445031Y-183435852D02*
X299492650Y-183531090D01*
X299492650Y-183531090D02*
X299540269Y-183578709D01*
X299540269Y-183578709D02*
X299635507Y-183626328D01*
X299635507Y-183626328D02*
X300016459Y-183626328D01*
X299016459Y-184102519D02*
X299016459Y-183102519D01*
X298349793Y-183102519D02*
X298159317Y-183102519D01*
X298159317Y-183102519D02*
X298064079Y-183150138D01*
X298064079Y-183150138D02*
X297968841Y-183245376D01*
X297968841Y-183245376D02*
X297921222Y-183435852D01*
X297921222Y-183435852D02*
X297921222Y-183769185D01*
X297921222Y-183769185D02*
X297968841Y-183959661D01*
X297968841Y-183959661D02*
X298064079Y-184054900D01*
X298064079Y-184054900D02*
X298159317Y-184102519D01*
X298159317Y-184102519D02*
X298349793Y-184102519D01*
X298349793Y-184102519D02*
X298445031Y-184054900D01*
X298445031Y-184054900D02*
X298540269Y-183959661D01*
X298540269Y-183959661D02*
X298587888Y-183769185D01*
X298587888Y-183769185D02*
X298587888Y-183435852D01*
X298587888Y-183435852D02*
X298540269Y-183245376D01*
X298540269Y-183245376D02*
X298445031Y-183150138D01*
X298445031Y-183150138D02*
X298349793Y-183102519D01*
X297587888Y-183102519D02*
X296968841Y-183102519D01*
X296968841Y-183102519D02*
X297302174Y-183483471D01*
X297302174Y-183483471D02*
X297159317Y-183483471D01*
X297159317Y-183483471D02*
X297064079Y-183531090D01*
X297064079Y-183531090D02*
X297016460Y-183578709D01*
X297016460Y-183578709D02*
X296968841Y-183673947D01*
X296968841Y-183673947D02*
X296968841Y-183912042D01*
X296968841Y-183912042D02*
X297016460Y-184007280D01*
X297016460Y-184007280D02*
X297064079Y-184054900D01*
X297064079Y-184054900D02*
X297159317Y-184102519D01*
X297159317Y-184102519D02*
X297445031Y-184102519D01*
X297445031Y-184102519D02*
X297540269Y-184054900D01*
X297540269Y-184054900D02*
X297587888Y-184007280D01*
X296397412Y-183531090D02*
X296492650Y-183483471D01*
X296492650Y-183483471D02*
X296540269Y-183435852D01*
X296540269Y-183435852D02*
X296587888Y-183340614D01*
X296587888Y-183340614D02*
X296587888Y-183292995D01*
X296587888Y-183292995D02*
X296540269Y-183197757D01*
X296540269Y-183197757D02*
X296492650Y-183150138D01*
X296492650Y-183150138D02*
X296397412Y-183102519D01*
X296397412Y-183102519D02*
X296206936Y-183102519D01*
X296206936Y-183102519D02*
X296111698Y-183150138D01*
X296111698Y-183150138D02*
X296064079Y-183197757D01*
X296064079Y-183197757D02*
X296016460Y-183292995D01*
X296016460Y-183292995D02*
X296016460Y-183340614D01*
X296016460Y-183340614D02*
X296064079Y-183435852D01*
X296064079Y-183435852D02*
X296111698Y-183483471D01*
X296111698Y-183483471D02*
X296206936Y-183531090D01*
X296206936Y-183531090D02*
X296397412Y-183531090D01*
X296397412Y-183531090D02*
X296492650Y-183578709D01*
X296492650Y-183578709D02*
X296540269Y-183626328D01*
X296540269Y-183626328D02*
X296587888Y-183721566D01*
X296587888Y-183721566D02*
X296587888Y-183912042D01*
X296587888Y-183912042D02*
X296540269Y-184007280D01*
X296540269Y-184007280D02*
X296492650Y-184054900D01*
X296492650Y-184054900D02*
X296397412Y-184102519D01*
X296397412Y-184102519D02*
X296206936Y-184102519D01*
X296206936Y-184102519D02*
X296111698Y-184054900D01*
X296111698Y-184054900D02*
X296064079Y-184007280D01*
X296064079Y-184007280D02*
X296016460Y-183912042D01*
X296016460Y-183912042D02*
X296016460Y-183721566D01*
X296016460Y-183721566D02*
X296064079Y-183626328D01*
X296064079Y-183626328D02*
X296111698Y-183578709D01*
X296111698Y-183578709D02*
X296206936Y-183531090D01*
X299540269Y-193310138D02*
X299635507Y-193262519D01*
X299635507Y-193262519D02*
X299778364Y-193262519D01*
X299778364Y-193262519D02*
X299921221Y-193310138D01*
X299921221Y-193310138D02*
X300016459Y-193405376D01*
X300016459Y-193405376D02*
X300064078Y-193500614D01*
X300064078Y-193500614D02*
X300111697Y-193691090D01*
X300111697Y-193691090D02*
X300111697Y-193833947D01*
X300111697Y-193833947D02*
X300064078Y-194024423D01*
X300064078Y-194024423D02*
X300016459Y-194119661D01*
X300016459Y-194119661D02*
X299921221Y-194214900D01*
X299921221Y-194214900D02*
X299778364Y-194262519D01*
X299778364Y-194262519D02*
X299683126Y-194262519D01*
X299683126Y-194262519D02*
X299540269Y-194214900D01*
X299540269Y-194214900D02*
X299492650Y-194167280D01*
X299492650Y-194167280D02*
X299492650Y-193833947D01*
X299492650Y-193833947D02*
X299683126Y-193833947D01*
X299064078Y-194262519D02*
X299064078Y-193262519D01*
X299064078Y-193262519D02*
X298683126Y-193262519D01*
X298683126Y-193262519D02*
X298587888Y-193310138D01*
X298587888Y-193310138D02*
X298540269Y-193357757D01*
X298540269Y-193357757D02*
X298492650Y-193452995D01*
X298492650Y-193452995D02*
X298492650Y-193595852D01*
X298492650Y-193595852D02*
X298540269Y-193691090D01*
X298540269Y-193691090D02*
X298587888Y-193738709D01*
X298587888Y-193738709D02*
X298683126Y-193786328D01*
X298683126Y-193786328D02*
X299064078Y-193786328D01*
X298064078Y-194262519D02*
X298064078Y-193262519D01*
X297397412Y-193262519D02*
X297206936Y-193262519D01*
X297206936Y-193262519D02*
X297111698Y-193310138D01*
X297111698Y-193310138D02*
X297016460Y-193405376D01*
X297016460Y-193405376D02*
X296968841Y-193595852D01*
X296968841Y-193595852D02*
X296968841Y-193929185D01*
X296968841Y-193929185D02*
X297016460Y-194119661D01*
X297016460Y-194119661D02*
X297111698Y-194214900D01*
X297111698Y-194214900D02*
X297206936Y-194262519D01*
X297206936Y-194262519D02*
X297397412Y-194262519D01*
X297397412Y-194262519D02*
X297492650Y-194214900D01*
X297492650Y-194214900D02*
X297587888Y-194119661D01*
X297587888Y-194119661D02*
X297635507Y-193929185D01*
X297635507Y-193929185D02*
X297635507Y-193595852D01*
X297635507Y-193595852D02*
X297587888Y-193405376D01*
X297587888Y-193405376D02*
X297492650Y-193310138D01*
X297492650Y-193310138D02*
X297397412Y-193262519D01*
X296349793Y-193262519D02*
X296254555Y-193262519D01*
X296254555Y-193262519D02*
X296159317Y-193310138D01*
X296159317Y-193310138D02*
X296111698Y-193357757D01*
X296111698Y-193357757D02*
X296064079Y-193452995D01*
X296064079Y-193452995D02*
X296016460Y-193643471D01*
X296016460Y-193643471D02*
X296016460Y-193881566D01*
X296016460Y-193881566D02*
X296064079Y-194072042D01*
X296064079Y-194072042D02*
X296111698Y-194167280D01*
X296111698Y-194167280D02*
X296159317Y-194214900D01*
X296159317Y-194214900D02*
X296254555Y-194262519D01*
X296254555Y-194262519D02*
X296349793Y-194262519D01*
X296349793Y-194262519D02*
X296445031Y-194214900D01*
X296445031Y-194214900D02*
X296492650Y-194167280D01*
X296492650Y-194167280D02*
X296540269Y-194072042D01*
X296540269Y-194072042D02*
X296587888Y-193881566D01*
X296587888Y-193881566D02*
X296587888Y-193643471D01*
X296587888Y-193643471D02*
X296540269Y-193452995D01*
X296540269Y-193452995D02*
X296492650Y-193357757D01*
X296492650Y-193357757D02*
X296445031Y-193310138D01*
X296445031Y-193310138D02*
X296349793Y-193262519D01*
X315805758Y-160242519D02*
X315186711Y-160242519D01*
X315186711Y-160242519D02*
X315520044Y-160623471D01*
X315520044Y-160623471D02*
X315377187Y-160623471D01*
X315377187Y-160623471D02*
X315281949Y-160671090D01*
X315281949Y-160671090D02*
X315234330Y-160718709D01*
X315234330Y-160718709D02*
X315186711Y-160813947D01*
X315186711Y-160813947D02*
X315186711Y-161052042D01*
X315186711Y-161052042D02*
X315234330Y-161147280D01*
X315234330Y-161147280D02*
X315281949Y-161194900D01*
X315281949Y-161194900D02*
X315377187Y-161242519D01*
X315377187Y-161242519D02*
X315662901Y-161242519D01*
X315662901Y-161242519D02*
X315758139Y-161194900D01*
X315758139Y-161194900D02*
X315805758Y-161147280D01*
X314900996Y-160242519D02*
X314567663Y-161242519D01*
X314567663Y-161242519D02*
X314234330Y-160242519D01*
X313996234Y-160242519D02*
X313377187Y-160242519D01*
X313377187Y-160242519D02*
X313710520Y-160623471D01*
X313710520Y-160623471D02*
X313567663Y-160623471D01*
X313567663Y-160623471D02*
X313472425Y-160671090D01*
X313472425Y-160671090D02*
X313424806Y-160718709D01*
X313424806Y-160718709D02*
X313377187Y-160813947D01*
X313377187Y-160813947D02*
X313377187Y-161052042D01*
X313377187Y-161052042D02*
X313424806Y-161147280D01*
X313424806Y-161147280D02*
X313472425Y-161194900D01*
X313472425Y-161194900D02*
X313567663Y-161242519D01*
X313567663Y-161242519D02*
X313853377Y-161242519D01*
X313853377Y-161242519D02*
X313948615Y-161194900D01*
X313948615Y-161194900D02*
X313996234Y-161147280D01*
X300492650Y-198390138D02*
X300587888Y-198342519D01*
X300587888Y-198342519D02*
X300730745Y-198342519D01*
X300730745Y-198342519D02*
X300873602Y-198390138D01*
X300873602Y-198390138D02*
X300968840Y-198485376D01*
X300968840Y-198485376D02*
X301016459Y-198580614D01*
X301016459Y-198580614D02*
X301064078Y-198771090D01*
X301064078Y-198771090D02*
X301064078Y-198913947D01*
X301064078Y-198913947D02*
X301016459Y-199104423D01*
X301016459Y-199104423D02*
X300968840Y-199199661D01*
X300968840Y-199199661D02*
X300873602Y-199294900D01*
X300873602Y-199294900D02*
X300730745Y-199342519D01*
X300730745Y-199342519D02*
X300635507Y-199342519D01*
X300635507Y-199342519D02*
X300492650Y-199294900D01*
X300492650Y-199294900D02*
X300445031Y-199247280D01*
X300445031Y-199247280D02*
X300445031Y-198913947D01*
X300445031Y-198913947D02*
X300635507Y-198913947D01*
X300016459Y-199342519D02*
X300016459Y-198342519D01*
X300016459Y-198342519D02*
X299635507Y-198342519D01*
X299635507Y-198342519D02*
X299540269Y-198390138D01*
X299540269Y-198390138D02*
X299492650Y-198437757D01*
X299492650Y-198437757D02*
X299445031Y-198532995D01*
X299445031Y-198532995D02*
X299445031Y-198675852D01*
X299445031Y-198675852D02*
X299492650Y-198771090D01*
X299492650Y-198771090D02*
X299540269Y-198818709D01*
X299540269Y-198818709D02*
X299635507Y-198866328D01*
X299635507Y-198866328D02*
X300016459Y-198866328D01*
X299016459Y-199342519D02*
X299016459Y-198342519D01*
X298349793Y-198342519D02*
X298159317Y-198342519D01*
X298159317Y-198342519D02*
X298064079Y-198390138D01*
X298064079Y-198390138D02*
X297968841Y-198485376D01*
X297968841Y-198485376D02*
X297921222Y-198675852D01*
X297921222Y-198675852D02*
X297921222Y-199009185D01*
X297921222Y-199009185D02*
X297968841Y-199199661D01*
X297968841Y-199199661D02*
X298064079Y-199294900D01*
X298064079Y-199294900D02*
X298159317Y-199342519D01*
X298159317Y-199342519D02*
X298349793Y-199342519D01*
X298349793Y-199342519D02*
X298445031Y-199294900D01*
X298445031Y-199294900D02*
X298540269Y-199199661D01*
X298540269Y-199199661D02*
X298587888Y-199009185D01*
X298587888Y-199009185D02*
X298587888Y-198675852D01*
X298587888Y-198675852D02*
X298540269Y-198485376D01*
X298540269Y-198485376D02*
X298445031Y-198390138D01*
X298445031Y-198390138D02*
X298349793Y-198342519D01*
X297064079Y-198675852D02*
X297064079Y-199342519D01*
X297302174Y-198294900D02*
X297540269Y-199009185D01*
X297540269Y-199009185D02*
X296921222Y-199009185D01*
X296397412Y-198771090D02*
X296492650Y-198723471D01*
X296492650Y-198723471D02*
X296540269Y-198675852D01*
X296540269Y-198675852D02*
X296587888Y-198580614D01*
X296587888Y-198580614D02*
X296587888Y-198532995D01*
X296587888Y-198532995D02*
X296540269Y-198437757D01*
X296540269Y-198437757D02*
X296492650Y-198390138D01*
X296492650Y-198390138D02*
X296397412Y-198342519D01*
X296397412Y-198342519D02*
X296206936Y-198342519D01*
X296206936Y-198342519D02*
X296111698Y-198390138D01*
X296111698Y-198390138D02*
X296064079Y-198437757D01*
X296064079Y-198437757D02*
X296016460Y-198532995D01*
X296016460Y-198532995D02*
X296016460Y-198580614D01*
X296016460Y-198580614D02*
X296064079Y-198675852D01*
X296064079Y-198675852D02*
X296111698Y-198723471D01*
X296111698Y-198723471D02*
X296206936Y-198771090D01*
X296206936Y-198771090D02*
X296397412Y-198771090D01*
X296397412Y-198771090D02*
X296492650Y-198818709D01*
X296492650Y-198818709D02*
X296540269Y-198866328D01*
X296540269Y-198866328D02*
X296587888Y-198961566D01*
X296587888Y-198961566D02*
X296587888Y-199152042D01*
X296587888Y-199152042D02*
X296540269Y-199247280D01*
X296540269Y-199247280D02*
X296492650Y-199294900D01*
X296492650Y-199294900D02*
X296397412Y-199342519D01*
X296397412Y-199342519D02*
X296206936Y-199342519D01*
X296206936Y-199342519D02*
X296111698Y-199294900D01*
X296111698Y-199294900D02*
X296064079Y-199247280D01*
X296064079Y-199247280D02*
X296016460Y-199152042D01*
X296016460Y-199152042D02*
X296016460Y-198961566D01*
X296016460Y-198961566D02*
X296064079Y-198866328D01*
X296064079Y-198866328D02*
X296111698Y-198818709D01*
X296111698Y-198818709D02*
X296206936Y-198771090D01*
X298111698Y-211090138D02*
X298206936Y-211042519D01*
X298206936Y-211042519D02*
X298349793Y-211042519D01*
X298349793Y-211042519D02*
X298492650Y-211090138D01*
X298492650Y-211090138D02*
X298587888Y-211185376D01*
X298587888Y-211185376D02*
X298635507Y-211280614D01*
X298635507Y-211280614D02*
X298683126Y-211471090D01*
X298683126Y-211471090D02*
X298683126Y-211613947D01*
X298683126Y-211613947D02*
X298635507Y-211804423D01*
X298635507Y-211804423D02*
X298587888Y-211899661D01*
X298587888Y-211899661D02*
X298492650Y-211994900D01*
X298492650Y-211994900D02*
X298349793Y-212042519D01*
X298349793Y-212042519D02*
X298254555Y-212042519D01*
X298254555Y-212042519D02*
X298111698Y-211994900D01*
X298111698Y-211994900D02*
X298064079Y-211947280D01*
X298064079Y-211947280D02*
X298064079Y-211613947D01*
X298064079Y-211613947D02*
X298254555Y-211613947D01*
X297635507Y-212042519D02*
X297635507Y-211042519D01*
X297635507Y-211042519D02*
X297064079Y-212042519D01*
X297064079Y-212042519D02*
X297064079Y-211042519D01*
X296587888Y-212042519D02*
X296587888Y-211042519D01*
X296587888Y-211042519D02*
X296349793Y-211042519D01*
X296349793Y-211042519D02*
X296206936Y-211090138D01*
X296206936Y-211090138D02*
X296111698Y-211185376D01*
X296111698Y-211185376D02*
X296064079Y-211280614D01*
X296064079Y-211280614D02*
X296016460Y-211471090D01*
X296016460Y-211471090D02*
X296016460Y-211613947D01*
X296016460Y-211613947D02*
X296064079Y-211804423D01*
X296064079Y-211804423D02*
X296111698Y-211899661D01*
X296111698Y-211899661D02*
X296206936Y-211994900D01*
X296206936Y-211994900D02*
X296349793Y-212042519D01*
X296349793Y-212042519D02*
X296587888Y-212042519D01*
X305445031Y-180610138D02*
X305540269Y-180562519D01*
X305540269Y-180562519D02*
X305683126Y-180562519D01*
X305683126Y-180562519D02*
X305825983Y-180610138D01*
X305825983Y-180610138D02*
X305921221Y-180705376D01*
X305921221Y-180705376D02*
X305968840Y-180800614D01*
X305968840Y-180800614D02*
X306016459Y-180991090D01*
X306016459Y-180991090D02*
X306016459Y-181133947D01*
X306016459Y-181133947D02*
X305968840Y-181324423D01*
X305968840Y-181324423D02*
X305921221Y-181419661D01*
X305921221Y-181419661D02*
X305825983Y-181514900D01*
X305825983Y-181514900D02*
X305683126Y-181562519D01*
X305683126Y-181562519D02*
X305587888Y-181562519D01*
X305587888Y-181562519D02*
X305445031Y-181514900D01*
X305445031Y-181514900D02*
X305397412Y-181467280D01*
X305397412Y-181467280D02*
X305397412Y-181133947D01*
X305397412Y-181133947D02*
X305587888Y-181133947D01*
X304968840Y-181562519D02*
X304968840Y-180562519D01*
X304968840Y-180562519D02*
X304587888Y-180562519D01*
X304587888Y-180562519D02*
X304492650Y-180610138D01*
X304492650Y-180610138D02*
X304445031Y-180657757D01*
X304445031Y-180657757D02*
X304397412Y-180752995D01*
X304397412Y-180752995D02*
X304397412Y-180895852D01*
X304397412Y-180895852D02*
X304445031Y-180991090D01*
X304445031Y-180991090D02*
X304492650Y-181038709D01*
X304492650Y-181038709D02*
X304587888Y-181086328D01*
X304587888Y-181086328D02*
X304968840Y-181086328D01*
X303968840Y-181562519D02*
X303968840Y-180562519D01*
X303302174Y-180562519D02*
X303111698Y-180562519D01*
X303111698Y-180562519D02*
X303016460Y-180610138D01*
X303016460Y-180610138D02*
X302921222Y-180705376D01*
X302921222Y-180705376D02*
X302873603Y-180895852D01*
X302873603Y-180895852D02*
X302873603Y-181229185D01*
X302873603Y-181229185D02*
X302921222Y-181419661D01*
X302921222Y-181419661D02*
X303016460Y-181514900D01*
X303016460Y-181514900D02*
X303111698Y-181562519D01*
X303111698Y-181562519D02*
X303302174Y-181562519D01*
X303302174Y-181562519D02*
X303397412Y-181514900D01*
X303397412Y-181514900D02*
X303492650Y-181419661D01*
X303492650Y-181419661D02*
X303540269Y-181229185D01*
X303540269Y-181229185D02*
X303540269Y-180895852D01*
X303540269Y-180895852D02*
X303492650Y-180705376D01*
X303492650Y-180705376D02*
X303397412Y-180610138D01*
X303397412Y-180610138D02*
X303302174Y-180562519D01*
X302540269Y-180562519D02*
X301921222Y-180562519D01*
X301921222Y-180562519D02*
X302254555Y-180943471D01*
X302254555Y-180943471D02*
X302111698Y-180943471D01*
X302111698Y-180943471D02*
X302016460Y-180991090D01*
X302016460Y-180991090D02*
X301968841Y-181038709D01*
X301968841Y-181038709D02*
X301921222Y-181133947D01*
X301921222Y-181133947D02*
X301921222Y-181372042D01*
X301921222Y-181372042D02*
X301968841Y-181467280D01*
X301968841Y-181467280D02*
X302016460Y-181514900D01*
X302016460Y-181514900D02*
X302111698Y-181562519D01*
X302111698Y-181562519D02*
X302397412Y-181562519D01*
X302397412Y-181562519D02*
X302492650Y-181514900D01*
X302492650Y-181514900D02*
X302540269Y-181467280D01*
X301445031Y-181562519D02*
X301254555Y-181562519D01*
X301254555Y-181562519D02*
X301159317Y-181514900D01*
X301159317Y-181514900D02*
X301111698Y-181467280D01*
X301111698Y-181467280D02*
X301016460Y-181324423D01*
X301016460Y-181324423D02*
X300968841Y-181133947D01*
X300968841Y-181133947D02*
X300968841Y-180752995D01*
X300968841Y-180752995D02*
X301016460Y-180657757D01*
X301016460Y-180657757D02*
X301064079Y-180610138D01*
X301064079Y-180610138D02*
X301159317Y-180562519D01*
X301159317Y-180562519D02*
X301349793Y-180562519D01*
X301349793Y-180562519D02*
X301445031Y-180610138D01*
X301445031Y-180610138D02*
X301492650Y-180657757D01*
X301492650Y-180657757D02*
X301540269Y-180752995D01*
X301540269Y-180752995D02*
X301540269Y-180991090D01*
X301540269Y-180991090D02*
X301492650Y-181086328D01*
X301492650Y-181086328D02*
X301445031Y-181133947D01*
X301445031Y-181133947D02*
X301349793Y-181181566D01*
X301349793Y-181181566D02*
X301159317Y-181181566D01*
X301159317Y-181181566D02*
X301064079Y-181133947D01*
X301064079Y-181133947D02*
X301016460Y-181086328D01*
X301016460Y-181086328D02*
X300968841Y-180991090D01*
X299825984Y-180514900D02*
X300683126Y-181800614D01*
X299492650Y-181562519D02*
X299492650Y-180562519D01*
X299492650Y-180562519D02*
X299159317Y-181276804D01*
X299159317Y-181276804D02*
X298825984Y-180562519D01*
X298825984Y-180562519D02*
X298825984Y-181562519D01*
X298492650Y-180562519D02*
X297921222Y-180562519D01*
X298206936Y-181562519D02*
X298206936Y-180562519D01*
X297016460Y-181467280D02*
X297064079Y-181514900D01*
X297064079Y-181514900D02*
X297206936Y-181562519D01*
X297206936Y-181562519D02*
X297302174Y-181562519D01*
X297302174Y-181562519D02*
X297445031Y-181514900D01*
X297445031Y-181514900D02*
X297540269Y-181419661D01*
X297540269Y-181419661D02*
X297587888Y-181324423D01*
X297587888Y-181324423D02*
X297635507Y-181133947D01*
X297635507Y-181133947D02*
X297635507Y-180991090D01*
X297635507Y-180991090D02*
X297587888Y-180800614D01*
X297587888Y-180800614D02*
X297540269Y-180705376D01*
X297540269Y-180705376D02*
X297445031Y-180610138D01*
X297445031Y-180610138D02*
X297302174Y-180562519D01*
X297302174Y-180562519D02*
X297206936Y-180562519D01*
X297206936Y-180562519D02*
X297064079Y-180610138D01*
X297064079Y-180610138D02*
X297016460Y-180657757D01*
X296587888Y-181562519D02*
X296587888Y-180562519D01*
X296016460Y-181562519D02*
X296445031Y-180991090D01*
X296016460Y-180562519D02*
X296587888Y-181133947D01*
X299540269Y-167910138D02*
X299635507Y-167862519D01*
X299635507Y-167862519D02*
X299778364Y-167862519D01*
X299778364Y-167862519D02*
X299921221Y-167910138D01*
X299921221Y-167910138D02*
X300016459Y-168005376D01*
X300016459Y-168005376D02*
X300064078Y-168100614D01*
X300064078Y-168100614D02*
X300111697Y-168291090D01*
X300111697Y-168291090D02*
X300111697Y-168433947D01*
X300111697Y-168433947D02*
X300064078Y-168624423D01*
X300064078Y-168624423D02*
X300016459Y-168719661D01*
X300016459Y-168719661D02*
X299921221Y-168814900D01*
X299921221Y-168814900D02*
X299778364Y-168862519D01*
X299778364Y-168862519D02*
X299683126Y-168862519D01*
X299683126Y-168862519D02*
X299540269Y-168814900D01*
X299540269Y-168814900D02*
X299492650Y-168767280D01*
X299492650Y-168767280D02*
X299492650Y-168433947D01*
X299492650Y-168433947D02*
X299683126Y-168433947D01*
X299064078Y-168862519D02*
X299064078Y-167862519D01*
X299064078Y-167862519D02*
X298683126Y-167862519D01*
X298683126Y-167862519D02*
X298587888Y-167910138D01*
X298587888Y-167910138D02*
X298540269Y-167957757D01*
X298540269Y-167957757D02*
X298492650Y-168052995D01*
X298492650Y-168052995D02*
X298492650Y-168195852D01*
X298492650Y-168195852D02*
X298540269Y-168291090D01*
X298540269Y-168291090D02*
X298587888Y-168338709D01*
X298587888Y-168338709D02*
X298683126Y-168386328D01*
X298683126Y-168386328D02*
X299064078Y-168386328D01*
X298064078Y-168862519D02*
X298064078Y-167862519D01*
X297397412Y-167862519D02*
X297206936Y-167862519D01*
X297206936Y-167862519D02*
X297111698Y-167910138D01*
X297111698Y-167910138D02*
X297016460Y-168005376D01*
X297016460Y-168005376D02*
X296968841Y-168195852D01*
X296968841Y-168195852D02*
X296968841Y-168529185D01*
X296968841Y-168529185D02*
X297016460Y-168719661D01*
X297016460Y-168719661D02*
X297111698Y-168814900D01*
X297111698Y-168814900D02*
X297206936Y-168862519D01*
X297206936Y-168862519D02*
X297397412Y-168862519D01*
X297397412Y-168862519D02*
X297492650Y-168814900D01*
X297492650Y-168814900D02*
X297587888Y-168719661D01*
X297587888Y-168719661D02*
X297635507Y-168529185D01*
X297635507Y-168529185D02*
X297635507Y-168195852D01*
X297635507Y-168195852D02*
X297587888Y-168005376D01*
X297587888Y-168005376D02*
X297492650Y-167910138D01*
X297492650Y-167910138D02*
X297397412Y-167862519D01*
X296016460Y-168862519D02*
X296587888Y-168862519D01*
X296302174Y-168862519D02*
X296302174Y-167862519D01*
X296302174Y-167862519D02*
X296397412Y-168005376D01*
X296397412Y-168005376D02*
X296492650Y-168100614D01*
X296492650Y-168100614D02*
X296587888Y-168148233D01*
X315186711Y-178070138D02*
X315281949Y-178022519D01*
X315281949Y-178022519D02*
X315424806Y-178022519D01*
X315424806Y-178022519D02*
X315567663Y-178070138D01*
X315567663Y-178070138D02*
X315662901Y-178165376D01*
X315662901Y-178165376D02*
X315710520Y-178260614D01*
X315710520Y-178260614D02*
X315758139Y-178451090D01*
X315758139Y-178451090D02*
X315758139Y-178593947D01*
X315758139Y-178593947D02*
X315710520Y-178784423D01*
X315710520Y-178784423D02*
X315662901Y-178879661D01*
X315662901Y-178879661D02*
X315567663Y-178974900D01*
X315567663Y-178974900D02*
X315424806Y-179022519D01*
X315424806Y-179022519D02*
X315329568Y-179022519D01*
X315329568Y-179022519D02*
X315186711Y-178974900D01*
X315186711Y-178974900D02*
X315139092Y-178927280D01*
X315139092Y-178927280D02*
X315139092Y-178593947D01*
X315139092Y-178593947D02*
X315329568Y-178593947D01*
X314710520Y-179022519D02*
X314710520Y-178022519D01*
X314710520Y-178022519D02*
X314329568Y-178022519D01*
X314329568Y-178022519D02*
X314234330Y-178070138D01*
X314234330Y-178070138D02*
X314186711Y-178117757D01*
X314186711Y-178117757D02*
X314139092Y-178212995D01*
X314139092Y-178212995D02*
X314139092Y-178355852D01*
X314139092Y-178355852D02*
X314186711Y-178451090D01*
X314186711Y-178451090D02*
X314234330Y-178498709D01*
X314234330Y-178498709D02*
X314329568Y-178546328D01*
X314329568Y-178546328D02*
X314710520Y-178546328D01*
X313710520Y-179022519D02*
X313710520Y-178022519D01*
X313043854Y-178022519D02*
X312853378Y-178022519D01*
X312853378Y-178022519D02*
X312758140Y-178070138D01*
X312758140Y-178070138D02*
X312662902Y-178165376D01*
X312662902Y-178165376D02*
X312615283Y-178355852D01*
X312615283Y-178355852D02*
X312615283Y-178689185D01*
X312615283Y-178689185D02*
X312662902Y-178879661D01*
X312662902Y-178879661D02*
X312758140Y-178974900D01*
X312758140Y-178974900D02*
X312853378Y-179022519D01*
X312853378Y-179022519D02*
X313043854Y-179022519D01*
X313043854Y-179022519D02*
X313139092Y-178974900D01*
X313139092Y-178974900D02*
X313234330Y-178879661D01*
X313234330Y-178879661D02*
X313281949Y-178689185D01*
X313281949Y-178689185D02*
X313281949Y-178355852D01*
X313281949Y-178355852D02*
X313234330Y-178165376D01*
X313234330Y-178165376D02*
X313139092Y-178070138D01*
X313139092Y-178070138D02*
X313043854Y-178022519D01*
X311662902Y-179022519D02*
X312234330Y-179022519D01*
X311948616Y-179022519D02*
X311948616Y-178022519D01*
X311948616Y-178022519D02*
X312043854Y-178165376D01*
X312043854Y-178165376D02*
X312139092Y-178260614D01*
X312139092Y-178260614D02*
X312234330Y-178308233D01*
X310758140Y-178022519D02*
X311234330Y-178022519D01*
X311234330Y-178022519D02*
X311281949Y-178498709D01*
X311281949Y-178498709D02*
X311234330Y-178451090D01*
X311234330Y-178451090D02*
X311139092Y-178403471D01*
X311139092Y-178403471D02*
X310900997Y-178403471D01*
X310900997Y-178403471D02*
X310805759Y-178451090D01*
X310805759Y-178451090D02*
X310758140Y-178498709D01*
X310758140Y-178498709D02*
X310710521Y-178593947D01*
X310710521Y-178593947D02*
X310710521Y-178832042D01*
X310710521Y-178832042D02*
X310758140Y-178927280D01*
X310758140Y-178927280D02*
X310805759Y-178974900D01*
X310805759Y-178974900D02*
X310900997Y-179022519D01*
X310900997Y-179022519D02*
X311139092Y-179022519D01*
X311139092Y-179022519D02*
X311234330Y-178974900D01*
X311234330Y-178974900D02*
X311281949Y-178927280D01*
X315186711Y-206010138D02*
X315281949Y-205962519D01*
X315281949Y-205962519D02*
X315424806Y-205962519D01*
X315424806Y-205962519D02*
X315567663Y-206010138D01*
X315567663Y-206010138D02*
X315662901Y-206105376D01*
X315662901Y-206105376D02*
X315710520Y-206200614D01*
X315710520Y-206200614D02*
X315758139Y-206391090D01*
X315758139Y-206391090D02*
X315758139Y-206533947D01*
X315758139Y-206533947D02*
X315710520Y-206724423D01*
X315710520Y-206724423D02*
X315662901Y-206819661D01*
X315662901Y-206819661D02*
X315567663Y-206914900D01*
X315567663Y-206914900D02*
X315424806Y-206962519D01*
X315424806Y-206962519D02*
X315329568Y-206962519D01*
X315329568Y-206962519D02*
X315186711Y-206914900D01*
X315186711Y-206914900D02*
X315139092Y-206867280D01*
X315139092Y-206867280D02*
X315139092Y-206533947D01*
X315139092Y-206533947D02*
X315329568Y-206533947D01*
X314710520Y-206962519D02*
X314710520Y-205962519D01*
X314710520Y-205962519D02*
X314329568Y-205962519D01*
X314329568Y-205962519D02*
X314234330Y-206010138D01*
X314234330Y-206010138D02*
X314186711Y-206057757D01*
X314186711Y-206057757D02*
X314139092Y-206152995D01*
X314139092Y-206152995D02*
X314139092Y-206295852D01*
X314139092Y-206295852D02*
X314186711Y-206391090D01*
X314186711Y-206391090D02*
X314234330Y-206438709D01*
X314234330Y-206438709D02*
X314329568Y-206486328D01*
X314329568Y-206486328D02*
X314710520Y-206486328D01*
X313710520Y-206962519D02*
X313710520Y-205962519D01*
X313043854Y-205962519D02*
X312853378Y-205962519D01*
X312853378Y-205962519D02*
X312758140Y-206010138D01*
X312758140Y-206010138D02*
X312662902Y-206105376D01*
X312662902Y-206105376D02*
X312615283Y-206295852D01*
X312615283Y-206295852D02*
X312615283Y-206629185D01*
X312615283Y-206629185D02*
X312662902Y-206819661D01*
X312662902Y-206819661D02*
X312758140Y-206914900D01*
X312758140Y-206914900D02*
X312853378Y-206962519D01*
X312853378Y-206962519D02*
X313043854Y-206962519D01*
X313043854Y-206962519D02*
X313139092Y-206914900D01*
X313139092Y-206914900D02*
X313234330Y-206819661D01*
X313234330Y-206819661D02*
X313281949Y-206629185D01*
X313281949Y-206629185D02*
X313281949Y-206295852D01*
X313281949Y-206295852D02*
X313234330Y-206105376D01*
X313234330Y-206105376D02*
X313139092Y-206010138D01*
X313139092Y-206010138D02*
X313043854Y-205962519D01*
X311662902Y-206962519D02*
X312234330Y-206962519D01*
X311948616Y-206962519D02*
X311948616Y-205962519D01*
X311948616Y-205962519D02*
X312043854Y-206105376D01*
X312043854Y-206105376D02*
X312139092Y-206200614D01*
X312139092Y-206200614D02*
X312234330Y-206248233D01*
X311329568Y-205962519D02*
X310710521Y-205962519D01*
X310710521Y-205962519D02*
X311043854Y-206343471D01*
X311043854Y-206343471D02*
X310900997Y-206343471D01*
X310900997Y-206343471D02*
X310805759Y-206391090D01*
X310805759Y-206391090D02*
X310758140Y-206438709D01*
X310758140Y-206438709D02*
X310710521Y-206533947D01*
X310710521Y-206533947D02*
X310710521Y-206772042D01*
X310710521Y-206772042D02*
X310758140Y-206867280D01*
X310758140Y-206867280D02*
X310805759Y-206914900D01*
X310805759Y-206914900D02*
X310900997Y-206962519D01*
X310900997Y-206962519D02*
X311186711Y-206962519D01*
X311186711Y-206962519D02*
X311281949Y-206914900D01*
X311281949Y-206914900D02*
X311329568Y-206867280D01*
X315186711Y-172990138D02*
X315281949Y-172942519D01*
X315281949Y-172942519D02*
X315424806Y-172942519D01*
X315424806Y-172942519D02*
X315567663Y-172990138D01*
X315567663Y-172990138D02*
X315662901Y-173085376D01*
X315662901Y-173085376D02*
X315710520Y-173180614D01*
X315710520Y-173180614D02*
X315758139Y-173371090D01*
X315758139Y-173371090D02*
X315758139Y-173513947D01*
X315758139Y-173513947D02*
X315710520Y-173704423D01*
X315710520Y-173704423D02*
X315662901Y-173799661D01*
X315662901Y-173799661D02*
X315567663Y-173894900D01*
X315567663Y-173894900D02*
X315424806Y-173942519D01*
X315424806Y-173942519D02*
X315329568Y-173942519D01*
X315329568Y-173942519D02*
X315186711Y-173894900D01*
X315186711Y-173894900D02*
X315139092Y-173847280D01*
X315139092Y-173847280D02*
X315139092Y-173513947D01*
X315139092Y-173513947D02*
X315329568Y-173513947D01*
X314710520Y-173942519D02*
X314710520Y-172942519D01*
X314710520Y-172942519D02*
X314329568Y-172942519D01*
X314329568Y-172942519D02*
X314234330Y-172990138D01*
X314234330Y-172990138D02*
X314186711Y-173037757D01*
X314186711Y-173037757D02*
X314139092Y-173132995D01*
X314139092Y-173132995D02*
X314139092Y-173275852D01*
X314139092Y-173275852D02*
X314186711Y-173371090D01*
X314186711Y-173371090D02*
X314234330Y-173418709D01*
X314234330Y-173418709D02*
X314329568Y-173466328D01*
X314329568Y-173466328D02*
X314710520Y-173466328D01*
X313710520Y-173942519D02*
X313710520Y-172942519D01*
X313043854Y-172942519D02*
X312853378Y-172942519D01*
X312853378Y-172942519D02*
X312758140Y-172990138D01*
X312758140Y-172990138D02*
X312662902Y-173085376D01*
X312662902Y-173085376D02*
X312615283Y-173275852D01*
X312615283Y-173275852D02*
X312615283Y-173609185D01*
X312615283Y-173609185D02*
X312662902Y-173799661D01*
X312662902Y-173799661D02*
X312758140Y-173894900D01*
X312758140Y-173894900D02*
X312853378Y-173942519D01*
X312853378Y-173942519D02*
X313043854Y-173942519D01*
X313043854Y-173942519D02*
X313139092Y-173894900D01*
X313139092Y-173894900D02*
X313234330Y-173799661D01*
X313234330Y-173799661D02*
X313281949Y-173609185D01*
X313281949Y-173609185D02*
X313281949Y-173275852D01*
X313281949Y-173275852D02*
X313234330Y-173085376D01*
X313234330Y-173085376D02*
X313139092Y-172990138D01*
X313139092Y-172990138D02*
X313043854Y-172942519D01*
X311758140Y-172942519D02*
X311948616Y-172942519D01*
X311948616Y-172942519D02*
X312043854Y-172990138D01*
X312043854Y-172990138D02*
X312091473Y-173037757D01*
X312091473Y-173037757D02*
X312186711Y-173180614D01*
X312186711Y-173180614D02*
X312234330Y-173371090D01*
X312234330Y-173371090D02*
X312234330Y-173752042D01*
X312234330Y-173752042D02*
X312186711Y-173847280D01*
X312186711Y-173847280D02*
X312139092Y-173894900D01*
X312139092Y-173894900D02*
X312043854Y-173942519D01*
X312043854Y-173942519D02*
X311853378Y-173942519D01*
X311853378Y-173942519D02*
X311758140Y-173894900D01*
X311758140Y-173894900D02*
X311710521Y-173847280D01*
X311710521Y-173847280D02*
X311662902Y-173752042D01*
X311662902Y-173752042D02*
X311662902Y-173513947D01*
X311662902Y-173513947D02*
X311710521Y-173418709D01*
X311710521Y-173418709D02*
X311758140Y-173371090D01*
X311758140Y-173371090D02*
X311853378Y-173323471D01*
X311853378Y-173323471D02*
X312043854Y-173323471D01*
X312043854Y-173323471D02*
X312139092Y-173371090D01*
X312139092Y-173371090D02*
X312186711Y-173418709D01*
X312186711Y-173418709D02*
X312234330Y-173513947D01*
X306254555Y-162830138D02*
X306349793Y-162782519D01*
X306349793Y-162782519D02*
X306492650Y-162782519D01*
X306492650Y-162782519D02*
X306635507Y-162830138D01*
X306635507Y-162830138D02*
X306730745Y-162925376D01*
X306730745Y-162925376D02*
X306778364Y-163020614D01*
X306778364Y-163020614D02*
X306825983Y-163211090D01*
X306825983Y-163211090D02*
X306825983Y-163353947D01*
X306825983Y-163353947D02*
X306778364Y-163544423D01*
X306778364Y-163544423D02*
X306730745Y-163639661D01*
X306730745Y-163639661D02*
X306635507Y-163734900D01*
X306635507Y-163734900D02*
X306492650Y-163782519D01*
X306492650Y-163782519D02*
X306397412Y-163782519D01*
X306397412Y-163782519D02*
X306254555Y-163734900D01*
X306254555Y-163734900D02*
X306206936Y-163687280D01*
X306206936Y-163687280D02*
X306206936Y-163353947D01*
X306206936Y-163353947D02*
X306397412Y-163353947D01*
X305778364Y-163782519D02*
X305778364Y-162782519D01*
X305778364Y-162782519D02*
X305397412Y-162782519D01*
X305397412Y-162782519D02*
X305302174Y-162830138D01*
X305302174Y-162830138D02*
X305254555Y-162877757D01*
X305254555Y-162877757D02*
X305206936Y-162972995D01*
X305206936Y-162972995D02*
X305206936Y-163115852D01*
X305206936Y-163115852D02*
X305254555Y-163211090D01*
X305254555Y-163211090D02*
X305302174Y-163258709D01*
X305302174Y-163258709D02*
X305397412Y-163306328D01*
X305397412Y-163306328D02*
X305778364Y-163306328D01*
X304778364Y-163782519D02*
X304778364Y-162782519D01*
X304111698Y-162782519D02*
X303921222Y-162782519D01*
X303921222Y-162782519D02*
X303825984Y-162830138D01*
X303825984Y-162830138D02*
X303730746Y-162925376D01*
X303730746Y-162925376D02*
X303683127Y-163115852D01*
X303683127Y-163115852D02*
X303683127Y-163449185D01*
X303683127Y-163449185D02*
X303730746Y-163639661D01*
X303730746Y-163639661D02*
X303825984Y-163734900D01*
X303825984Y-163734900D02*
X303921222Y-163782519D01*
X303921222Y-163782519D02*
X304111698Y-163782519D01*
X304111698Y-163782519D02*
X304206936Y-163734900D01*
X304206936Y-163734900D02*
X304302174Y-163639661D01*
X304302174Y-163639661D02*
X304349793Y-163449185D01*
X304349793Y-163449185D02*
X304349793Y-163115852D01*
X304349793Y-163115852D02*
X304302174Y-162925376D01*
X304302174Y-162925376D02*
X304206936Y-162830138D01*
X304206936Y-162830138D02*
X304111698Y-162782519D01*
X302825984Y-163115852D02*
X302825984Y-163782519D01*
X303064079Y-162734900D02*
X303302174Y-163449185D01*
X303302174Y-163449185D02*
X302683127Y-163449185D01*
X302397412Y-162782519D02*
X301778365Y-162782519D01*
X301778365Y-162782519D02*
X302111698Y-163163471D01*
X302111698Y-163163471D02*
X301968841Y-163163471D01*
X301968841Y-163163471D02*
X301873603Y-163211090D01*
X301873603Y-163211090D02*
X301825984Y-163258709D01*
X301825984Y-163258709D02*
X301778365Y-163353947D01*
X301778365Y-163353947D02*
X301778365Y-163592042D01*
X301778365Y-163592042D02*
X301825984Y-163687280D01*
X301825984Y-163687280D02*
X301873603Y-163734900D01*
X301873603Y-163734900D02*
X301968841Y-163782519D01*
X301968841Y-163782519D02*
X302254555Y-163782519D01*
X302254555Y-163782519D02*
X302349793Y-163734900D01*
X302349793Y-163734900D02*
X302397412Y-163687280D01*
X300635508Y-162734900D02*
X301492650Y-164020614D01*
X300302174Y-162782519D02*
X300302174Y-163592042D01*
X300302174Y-163592042D02*
X300254555Y-163687280D01*
X300254555Y-163687280D02*
X300206936Y-163734900D01*
X300206936Y-163734900D02*
X300111698Y-163782519D01*
X300111698Y-163782519D02*
X299921222Y-163782519D01*
X299921222Y-163782519D02*
X299825984Y-163734900D01*
X299825984Y-163734900D02*
X299778365Y-163687280D01*
X299778365Y-163687280D02*
X299730746Y-163592042D01*
X299730746Y-163592042D02*
X299730746Y-162782519D01*
X299064079Y-162782519D02*
X298968841Y-162782519D01*
X298968841Y-162782519D02*
X298873603Y-162830138D01*
X298873603Y-162830138D02*
X298825984Y-162877757D01*
X298825984Y-162877757D02*
X298778365Y-162972995D01*
X298778365Y-162972995D02*
X298730746Y-163163471D01*
X298730746Y-163163471D02*
X298730746Y-163401566D01*
X298730746Y-163401566D02*
X298778365Y-163592042D01*
X298778365Y-163592042D02*
X298825984Y-163687280D01*
X298825984Y-163687280D02*
X298873603Y-163734900D01*
X298873603Y-163734900D02*
X298968841Y-163782519D01*
X298968841Y-163782519D02*
X299064079Y-163782519D01*
X299064079Y-163782519D02*
X299159317Y-163734900D01*
X299159317Y-163734900D02*
X299206936Y-163687280D01*
X299206936Y-163687280D02*
X299254555Y-163592042D01*
X299254555Y-163592042D02*
X299302174Y-163401566D01*
X299302174Y-163401566D02*
X299302174Y-163163471D01*
X299302174Y-163163471D02*
X299254555Y-162972995D01*
X299254555Y-162972995D02*
X299206936Y-162877757D01*
X299206936Y-162877757D02*
X299159317Y-162830138D01*
X299159317Y-162830138D02*
X299064079Y-162782519D01*
X298445031Y-162782519D02*
X297873603Y-162782519D01*
X298159317Y-163782519D02*
X298159317Y-162782519D01*
X297635507Y-162782519D02*
X296968841Y-163782519D01*
X296968841Y-162782519D02*
X297635507Y-163782519D01*
X296587888Y-163782519D02*
X296587888Y-162782519D01*
X296587888Y-162782519D02*
X296349793Y-162782519D01*
X296349793Y-162782519D02*
X296206936Y-162830138D01*
X296206936Y-162830138D02*
X296111698Y-162925376D01*
X296111698Y-162925376D02*
X296064079Y-163020614D01*
X296064079Y-163020614D02*
X296016460Y-163211090D01*
X296016460Y-163211090D02*
X296016460Y-163353947D01*
X296016460Y-163353947D02*
X296064079Y-163544423D01*
X296064079Y-163544423D02*
X296111698Y-163639661D01*
X296111698Y-163639661D02*
X296206936Y-163734900D01*
X296206936Y-163734900D02*
X296349793Y-163782519D01*
X296349793Y-163782519D02*
X296587888Y-163782519D01*
X298111698Y-160290138D02*
X298206936Y-160242519D01*
X298206936Y-160242519D02*
X298349793Y-160242519D01*
X298349793Y-160242519D02*
X298492650Y-160290138D01*
X298492650Y-160290138D02*
X298587888Y-160385376D01*
X298587888Y-160385376D02*
X298635507Y-160480614D01*
X298635507Y-160480614D02*
X298683126Y-160671090D01*
X298683126Y-160671090D02*
X298683126Y-160813947D01*
X298683126Y-160813947D02*
X298635507Y-161004423D01*
X298635507Y-161004423D02*
X298587888Y-161099661D01*
X298587888Y-161099661D02*
X298492650Y-161194900D01*
X298492650Y-161194900D02*
X298349793Y-161242519D01*
X298349793Y-161242519D02*
X298254555Y-161242519D01*
X298254555Y-161242519D02*
X298111698Y-161194900D01*
X298111698Y-161194900D02*
X298064079Y-161147280D01*
X298064079Y-161147280D02*
X298064079Y-160813947D01*
X298064079Y-160813947D02*
X298254555Y-160813947D01*
X297635507Y-161242519D02*
X297635507Y-160242519D01*
X297635507Y-160242519D02*
X297064079Y-161242519D01*
X297064079Y-161242519D02*
X297064079Y-160242519D01*
X296587888Y-161242519D02*
X296587888Y-160242519D01*
X296587888Y-160242519D02*
X296349793Y-160242519D01*
X296349793Y-160242519D02*
X296206936Y-160290138D01*
X296206936Y-160290138D02*
X296111698Y-160385376D01*
X296111698Y-160385376D02*
X296064079Y-160480614D01*
X296064079Y-160480614D02*
X296016460Y-160671090D01*
X296016460Y-160671090D02*
X296016460Y-160813947D01*
X296016460Y-160813947D02*
X296064079Y-161004423D01*
X296064079Y-161004423D02*
X296111698Y-161099661D01*
X296111698Y-161099661D02*
X296206936Y-161194900D01*
X296206936Y-161194900D02*
X296349793Y-161242519D01*
X296349793Y-161242519D02*
X296587888Y-161242519D01*
X315186711Y-175530138D02*
X315281949Y-175482519D01*
X315281949Y-175482519D02*
X315424806Y-175482519D01*
X315424806Y-175482519D02*
X315567663Y-175530138D01*
X315567663Y-175530138D02*
X315662901Y-175625376D01*
X315662901Y-175625376D02*
X315710520Y-175720614D01*
X315710520Y-175720614D02*
X315758139Y-175911090D01*
X315758139Y-175911090D02*
X315758139Y-176053947D01*
X315758139Y-176053947D02*
X315710520Y-176244423D01*
X315710520Y-176244423D02*
X315662901Y-176339661D01*
X315662901Y-176339661D02*
X315567663Y-176434900D01*
X315567663Y-176434900D02*
X315424806Y-176482519D01*
X315424806Y-176482519D02*
X315329568Y-176482519D01*
X315329568Y-176482519D02*
X315186711Y-176434900D01*
X315186711Y-176434900D02*
X315139092Y-176387280D01*
X315139092Y-176387280D02*
X315139092Y-176053947D01*
X315139092Y-176053947D02*
X315329568Y-176053947D01*
X314710520Y-176482519D02*
X314710520Y-175482519D01*
X314710520Y-175482519D02*
X314329568Y-175482519D01*
X314329568Y-175482519D02*
X314234330Y-175530138D01*
X314234330Y-175530138D02*
X314186711Y-175577757D01*
X314186711Y-175577757D02*
X314139092Y-175672995D01*
X314139092Y-175672995D02*
X314139092Y-175815852D01*
X314139092Y-175815852D02*
X314186711Y-175911090D01*
X314186711Y-175911090D02*
X314234330Y-175958709D01*
X314234330Y-175958709D02*
X314329568Y-176006328D01*
X314329568Y-176006328D02*
X314710520Y-176006328D01*
X313710520Y-176482519D02*
X313710520Y-175482519D01*
X313043854Y-175482519D02*
X312853378Y-175482519D01*
X312853378Y-175482519D02*
X312758140Y-175530138D01*
X312758140Y-175530138D02*
X312662902Y-175625376D01*
X312662902Y-175625376D02*
X312615283Y-175815852D01*
X312615283Y-175815852D02*
X312615283Y-176149185D01*
X312615283Y-176149185D02*
X312662902Y-176339661D01*
X312662902Y-176339661D02*
X312758140Y-176434900D01*
X312758140Y-176434900D02*
X312853378Y-176482519D01*
X312853378Y-176482519D02*
X313043854Y-176482519D01*
X313043854Y-176482519D02*
X313139092Y-176434900D01*
X313139092Y-176434900D02*
X313234330Y-176339661D01*
X313234330Y-176339661D02*
X313281949Y-176149185D01*
X313281949Y-176149185D02*
X313281949Y-175815852D01*
X313281949Y-175815852D02*
X313234330Y-175625376D01*
X313234330Y-175625376D02*
X313139092Y-175530138D01*
X313139092Y-175530138D02*
X313043854Y-175482519D01*
X312281949Y-175482519D02*
X311615283Y-175482519D01*
X311615283Y-175482519D02*
X312043854Y-176482519D01*
X300492650Y-188230138D02*
X300587888Y-188182519D01*
X300587888Y-188182519D02*
X300730745Y-188182519D01*
X300730745Y-188182519D02*
X300873602Y-188230138D01*
X300873602Y-188230138D02*
X300968840Y-188325376D01*
X300968840Y-188325376D02*
X301016459Y-188420614D01*
X301016459Y-188420614D02*
X301064078Y-188611090D01*
X301064078Y-188611090D02*
X301064078Y-188753947D01*
X301064078Y-188753947D02*
X301016459Y-188944423D01*
X301016459Y-188944423D02*
X300968840Y-189039661D01*
X300968840Y-189039661D02*
X300873602Y-189134900D01*
X300873602Y-189134900D02*
X300730745Y-189182519D01*
X300730745Y-189182519D02*
X300635507Y-189182519D01*
X300635507Y-189182519D02*
X300492650Y-189134900D01*
X300492650Y-189134900D02*
X300445031Y-189087280D01*
X300445031Y-189087280D02*
X300445031Y-188753947D01*
X300445031Y-188753947D02*
X300635507Y-188753947D01*
X300016459Y-189182519D02*
X300016459Y-188182519D01*
X300016459Y-188182519D02*
X299635507Y-188182519D01*
X299635507Y-188182519D02*
X299540269Y-188230138D01*
X299540269Y-188230138D02*
X299492650Y-188277757D01*
X299492650Y-188277757D02*
X299445031Y-188372995D01*
X299445031Y-188372995D02*
X299445031Y-188515852D01*
X299445031Y-188515852D02*
X299492650Y-188611090D01*
X299492650Y-188611090D02*
X299540269Y-188658709D01*
X299540269Y-188658709D02*
X299635507Y-188706328D01*
X299635507Y-188706328D02*
X300016459Y-188706328D01*
X299016459Y-189182519D02*
X299016459Y-188182519D01*
X298349793Y-188182519D02*
X298159317Y-188182519D01*
X298159317Y-188182519D02*
X298064079Y-188230138D01*
X298064079Y-188230138D02*
X297968841Y-188325376D01*
X297968841Y-188325376D02*
X297921222Y-188515852D01*
X297921222Y-188515852D02*
X297921222Y-188849185D01*
X297921222Y-188849185D02*
X297968841Y-189039661D01*
X297968841Y-189039661D02*
X298064079Y-189134900D01*
X298064079Y-189134900D02*
X298159317Y-189182519D01*
X298159317Y-189182519D02*
X298349793Y-189182519D01*
X298349793Y-189182519D02*
X298445031Y-189134900D01*
X298445031Y-189134900D02*
X298540269Y-189039661D01*
X298540269Y-189039661D02*
X298587888Y-188849185D01*
X298587888Y-188849185D02*
X298587888Y-188515852D01*
X298587888Y-188515852D02*
X298540269Y-188325376D01*
X298540269Y-188325376D02*
X298445031Y-188230138D01*
X298445031Y-188230138D02*
X298349793Y-188182519D01*
X297587888Y-188182519D02*
X296968841Y-188182519D01*
X296968841Y-188182519D02*
X297302174Y-188563471D01*
X297302174Y-188563471D02*
X297159317Y-188563471D01*
X297159317Y-188563471D02*
X297064079Y-188611090D01*
X297064079Y-188611090D02*
X297016460Y-188658709D01*
X297016460Y-188658709D02*
X296968841Y-188753947D01*
X296968841Y-188753947D02*
X296968841Y-188992042D01*
X296968841Y-188992042D02*
X297016460Y-189087280D01*
X297016460Y-189087280D02*
X297064079Y-189134900D01*
X297064079Y-189134900D02*
X297159317Y-189182519D01*
X297159317Y-189182519D02*
X297445031Y-189182519D01*
X297445031Y-189182519D02*
X297540269Y-189134900D01*
X297540269Y-189134900D02*
X297587888Y-189087280D01*
X296111698Y-188182519D02*
X296302174Y-188182519D01*
X296302174Y-188182519D02*
X296397412Y-188230138D01*
X296397412Y-188230138D02*
X296445031Y-188277757D01*
X296445031Y-188277757D02*
X296540269Y-188420614D01*
X296540269Y-188420614D02*
X296587888Y-188611090D01*
X296587888Y-188611090D02*
X296587888Y-188992042D01*
X296587888Y-188992042D02*
X296540269Y-189087280D01*
X296540269Y-189087280D02*
X296492650Y-189134900D01*
X296492650Y-189134900D02*
X296397412Y-189182519D01*
X296397412Y-189182519D02*
X296206936Y-189182519D01*
X296206936Y-189182519D02*
X296111698Y-189134900D01*
X296111698Y-189134900D02*
X296064079Y-189087280D01*
X296064079Y-189087280D02*
X296016460Y-188992042D01*
X296016460Y-188992042D02*
X296016460Y-188753947D01*
X296016460Y-188753947D02*
X296064079Y-188658709D01*
X296064079Y-188658709D02*
X296111698Y-188611090D01*
X296111698Y-188611090D02*
X296206936Y-188563471D01*
X296206936Y-188563471D02*
X296397412Y-188563471D01*
X296397412Y-188563471D02*
X296492650Y-188611090D01*
X296492650Y-188611090D02*
X296540269Y-188658709D01*
X296540269Y-188658709D02*
X296587888Y-188753947D01*
X314984010Y-211039799D02*
X315460200Y-211039799D01*
X315460200Y-211039799D02*
X315507819Y-211515989D01*
X315507819Y-211515989D02*
X315460200Y-211468370D01*
X315460200Y-211468370D02*
X315364962Y-211420751D01*
X315364962Y-211420751D02*
X315126867Y-211420751D01*
X315126867Y-211420751D02*
X315031629Y-211468370D01*
X315031629Y-211468370D02*
X314984010Y-211515989D01*
X314984010Y-211515989D02*
X314936391Y-211611227D01*
X314936391Y-211611227D02*
X314936391Y-211849322D01*
X314936391Y-211849322D02*
X314984010Y-211944560D01*
X314984010Y-211944560D02*
X315031629Y-211992180D01*
X315031629Y-211992180D02*
X315126867Y-212039799D01*
X315126867Y-212039799D02*
X315364962Y-212039799D01*
X315364962Y-212039799D02*
X315460200Y-211992180D01*
X315460200Y-211992180D02*
X315507819Y-211944560D01*
X314650676Y-211039799D02*
X314317343Y-212039799D01*
X314317343Y-212039799D02*
X313984010Y-211039799D01*
D11*
%TO.C,J3*%
X253634000Y-159582000D02*
X253634000Y-162242000D01*
X253634000Y-159582000D02*
X271474000Y-159582000D01*
X253634000Y-162242000D02*
X271474000Y-162242000D01*
X271474000Y-159582000D02*
X271474000Y-162242000D01*
X272744000Y-159582000D02*
X274074000Y-159582000D01*
X274074000Y-159582000D02*
X274074000Y-160912000D01*
%TO.C,U2*%
X292957300Y-159687700D02*
X292957301Y-223584980D01*
X292957301Y-223584980D02*
X318817300Y-223584980D01*
X296873980Y-153774580D02*
X314857180Y-153774580D01*
X296873980Y-159667380D02*
X296873980Y-153774580D01*
X314857180Y-153774580D02*
X314857180Y-159667380D01*
X318817299Y-159687700D02*
X292957300Y-159687700D01*
X318817300Y-223584980D02*
X318817299Y-159687700D01*
%TD*%
M02*
