%TF.GenerationSoftware,KiCad,Pcbnew,8.0.6*%
%TF.CreationDate,2024-11-02T14:39:28-05:00*%
%TF.ProjectId,front-panel.processor,66726f6e-742d-4706-916e-656c2e70726f,rev?*%
%TF.SameCoordinates,Original*%
%TF.FileFunction,Drillmap*%
%TF.FilePolarity,Positive*%
%FSLAX45Y45*%
G04 Gerber Fmt 4.5, Leading zero omitted, Abs format (unit mm)*
G04 Created by KiCad (PCBNEW 8.0.6) date 2024-11-02 14:39:28*
%MOMM*%
%LPD*%
G01*
G04 APERTURE LIST*
%ADD10C,0.050000*%
%ADD11C,0.200000*%
%ADD12C,0.100000*%
%ADD13C,0.110000*%
%ADD14C,0.320000*%
G04 APERTURE END LIST*
D10*
X4000000Y-23000000D02*
X32500000Y-23000000D01*
X3500000Y-15500000D02*
X3500000Y-22500000D01*
X32500000Y-15000000D02*
X4000000Y-15000000D01*
X33000000Y-22500000D02*
X33000000Y-15500000D01*
X32500000Y-15000000D02*
G75*
G02*
X33000000Y-15500000I0J-500000D01*
G01*
X4000000Y-23000000D02*
G75*
G02*
X3500000Y-22500000I0J500000D01*
G01*
X3500000Y-15500000D02*
G75*
G02*
X4000000Y-15000000I500000J0D01*
G01*
X33000000Y-22500000D02*
G75*
G02*
X32500000Y-23000000I-500000J0D01*
G01*
D11*
D12*
X8929780Y-15682710D02*
X8969780Y-15722710D01*
X8969780Y-15682710D02*
X8929780Y-15722710D01*
X9411540Y-17190660D02*
X9451540Y-17230660D01*
X9451540Y-17190660D02*
X9411540Y-17230660D01*
X10107690Y-17632820D02*
X10147690Y-17672820D01*
X10147690Y-17632820D02*
X10107690Y-17672820D01*
X10411390Y-17512890D02*
X10451390Y-17552890D01*
X10451390Y-17512890D02*
X10411390Y-17552890D01*
X10482070Y-17753190D02*
X10522070Y-17793190D01*
X10522070Y-17753190D02*
X10482070Y-17793190D01*
X10534960Y-17290190D02*
X10574960Y-17330190D01*
X10574960Y-17290190D02*
X10534960Y-17330190D01*
X10680920Y-17190040D02*
X10720920Y-17230040D01*
X10720920Y-17190040D02*
X10680920Y-17230040D01*
X11184580Y-16281980D02*
X11224580Y-16321980D01*
X11224580Y-16281980D02*
X11184580Y-16321980D01*
X11389630Y-16073210D02*
X11429630Y-16113210D01*
X11429630Y-16073210D02*
X11389630Y-16113210D01*
X11612900Y-16155080D02*
X11652900Y-16195080D01*
X11652900Y-16155080D02*
X11612900Y-16195080D01*
X11841630Y-16939040D02*
X11881630Y-16979040D01*
X11881630Y-16939040D02*
X11841630Y-16979040D01*
X13555490Y-17116970D02*
X13595490Y-17156970D01*
X13595490Y-17116970D02*
X13555490Y-17156970D01*
X13723710Y-15804780D02*
X13763710Y-15844780D01*
X13763710Y-15804780D02*
X13723710Y-15844780D01*
X14243300Y-17256190D02*
X14283300Y-17296190D01*
X14283300Y-17256190D02*
X14243300Y-17296190D01*
X14254590Y-15711370D02*
X14294590Y-15751370D01*
X14294590Y-15711370D02*
X14254590Y-15751370D01*
X14881820Y-15853510D02*
X14921820Y-15893510D01*
X14921820Y-15853510D02*
X14881820Y-15893510D01*
X14926280Y-16938240D02*
X14966280Y-16978240D01*
X14966280Y-16938240D02*
X14926280Y-16978240D01*
X14943040Y-16257230D02*
X14983040Y-16297230D01*
X14983040Y-16257230D02*
X14943040Y-16297230D01*
X15456580Y-15854630D02*
X15496580Y-15894630D01*
X15496580Y-15854630D02*
X15456580Y-15894630D01*
X15525970Y-16640360D02*
X15565970Y-16680360D01*
X15565970Y-16640360D02*
X15525970Y-16680360D01*
X16268840Y-15463260D02*
X16308840Y-15503260D01*
X16308840Y-15463260D02*
X16268840Y-15503260D01*
X16565140Y-16995540D02*
X16605140Y-17035540D01*
X16605140Y-16995540D02*
X16565140Y-17035540D01*
X16710630Y-17068210D02*
X16750630Y-17108210D01*
X16750630Y-17068210D02*
X16710630Y-17108210D01*
X16806920Y-16651070D02*
X16846920Y-16691070D01*
X16846920Y-16651070D02*
X16806920Y-16691070D01*
X17100700Y-16568180D02*
X17140700Y-16608180D01*
X17140700Y-16568180D02*
X17100700Y-16608180D01*
X17557800Y-18586690D02*
X17597800Y-18626690D01*
X17597800Y-18586690D02*
X17557800Y-18626690D01*
X17654040Y-18666890D02*
X17694040Y-18706890D01*
X17694040Y-18666890D02*
X17654040Y-18706890D01*
X17720260Y-15727380D02*
X17760260Y-15767380D01*
X17760260Y-15727380D02*
X17720260Y-15767380D01*
X17937670Y-17172650D02*
X17977670Y-17212650D01*
X17977670Y-17172650D02*
X17937670Y-17212650D01*
X18013680Y-15793480D02*
X18053680Y-15833480D01*
X18053680Y-15793480D02*
X18013680Y-15833480D01*
X18289920Y-19313530D02*
X18329920Y-19353530D01*
X18329920Y-19313530D02*
X18289920Y-19353530D01*
X18751470Y-18746040D02*
X18791470Y-18786040D01*
X18791470Y-18746040D02*
X18751470Y-18786040D01*
X19403180Y-19279990D02*
X19443180Y-19319990D01*
X19443180Y-19279990D02*
X19403180Y-19319990D01*
X21099740Y-19299850D02*
X21139740Y-19339850D01*
X21139740Y-19299850D02*
X21099740Y-19339850D01*
X21369320Y-16969380D02*
X21409320Y-17009380D01*
X21409320Y-16969380D02*
X21369320Y-17009380D01*
X21886450Y-16904890D02*
X21926450Y-16944890D01*
X21926450Y-16904890D02*
X21886450Y-16944890D01*
X22019780Y-16748710D02*
X22059780Y-16788710D01*
X22059780Y-16748710D02*
X22019780Y-16788710D01*
X23401100Y-16620030D02*
X23441100Y-16660030D01*
X23441100Y-16620030D02*
X23401100Y-16660030D01*
X26239320Y-17079890D02*
X26279320Y-17119890D01*
X26279320Y-17079890D02*
X26239320Y-17119890D01*
X27250790Y-18261090D02*
X27290790Y-18301090D01*
X27290790Y-18261090D02*
X27250790Y-18301090D01*
X5759000Y-15500000D02*
G75*
G02*
X5679000Y-15500000I-40000J0D01*
G01*
X5679000Y-15500000D02*
G75*
G02*
X5759000Y-15500000I40000J0D01*
G01*
X6521000Y-15500000D02*
G75*
G02*
X6441000Y-15500000I-40000J0D01*
G01*
X6441000Y-15500000D02*
G75*
G02*
X6521000Y-15500000I40000J0D01*
G01*
X8322500Y-16400000D02*
G75*
G02*
X8242500Y-16400000I-40000J0D01*
G01*
X8242500Y-16400000D02*
G75*
G02*
X8322500Y-16400000I40000J0D01*
G01*
X8347500Y-15218000D02*
G75*
G02*
X8267500Y-15218000I-40000J0D01*
G01*
X8267500Y-15218000D02*
G75*
G02*
X8347500Y-15218000I40000J0D01*
G01*
X8347500Y-15980000D02*
G75*
G02*
X8267500Y-15980000I-40000J0D01*
G01*
X8267500Y-15980000D02*
G75*
G02*
X8347500Y-15980000I40000J0D01*
G01*
X8576500Y-16400000D02*
G75*
G02*
X8496500Y-16400000I-40000J0D01*
G01*
X8496500Y-16400000D02*
G75*
G02*
X8576500Y-16400000I40000J0D01*
G01*
X8601500Y-15218000D02*
G75*
G02*
X8521500Y-15218000I-40000J0D01*
G01*
X8521500Y-15218000D02*
G75*
G02*
X8601500Y-15218000I40000J0D01*
G01*
X8601500Y-15980000D02*
G75*
G02*
X8521500Y-15980000I-40000J0D01*
G01*
X8521500Y-15980000D02*
G75*
G02*
X8601500Y-15980000I40000J0D01*
G01*
X8830500Y-16400000D02*
G75*
G02*
X8750500Y-16400000I-40000J0D01*
G01*
X8750500Y-16400000D02*
G75*
G02*
X8830500Y-16400000I40000J0D01*
G01*
X8855500Y-15218000D02*
G75*
G02*
X8775500Y-15218000I-40000J0D01*
G01*
X8775500Y-15218000D02*
G75*
G02*
X8855500Y-15218000I40000J0D01*
G01*
X8855500Y-15980000D02*
G75*
G02*
X8775500Y-15980000I-40000J0D01*
G01*
X8775500Y-15980000D02*
G75*
G02*
X8855500Y-15980000I40000J0D01*
G01*
X9084500Y-16400000D02*
G75*
G02*
X9004500Y-16400000I-40000J0D01*
G01*
X9004500Y-16400000D02*
G75*
G02*
X9084500Y-16400000I40000J0D01*
G01*
X9109500Y-15218000D02*
G75*
G02*
X9029500Y-15218000I-40000J0D01*
G01*
X9029500Y-15218000D02*
G75*
G02*
X9109500Y-15218000I40000J0D01*
G01*
X9109500Y-15980000D02*
G75*
G02*
X9029500Y-15980000I-40000J0D01*
G01*
X9029500Y-15980000D02*
G75*
G02*
X9109500Y-15980000I40000J0D01*
G01*
X9338500Y-16400000D02*
G75*
G02*
X9258500Y-16400000I-40000J0D01*
G01*
X9258500Y-16400000D02*
G75*
G02*
X9338500Y-16400000I40000J0D01*
G01*
X9363500Y-15218000D02*
G75*
G02*
X9283500Y-15218000I-40000J0D01*
G01*
X9283500Y-15218000D02*
G75*
G02*
X9363500Y-15218000I40000J0D01*
G01*
X9363500Y-15980000D02*
G75*
G02*
X9283500Y-15980000I-40000J0D01*
G01*
X9283500Y-15980000D02*
G75*
G02*
X9363500Y-15980000I40000J0D01*
G01*
X9592500Y-16400000D02*
G75*
G02*
X9512500Y-16400000I-40000J0D01*
G01*
X9512500Y-16400000D02*
G75*
G02*
X9592500Y-16400000I40000J0D01*
G01*
X9617500Y-15218000D02*
G75*
G02*
X9537500Y-15218000I-40000J0D01*
G01*
X9537500Y-15218000D02*
G75*
G02*
X9617500Y-15218000I40000J0D01*
G01*
X9617500Y-15980000D02*
G75*
G02*
X9537500Y-15980000I-40000J0D01*
G01*
X9537500Y-15980000D02*
G75*
G02*
X9617500Y-15980000I40000J0D01*
G01*
X9846500Y-16400000D02*
G75*
G02*
X9766500Y-16400000I-40000J0D01*
G01*
X9766500Y-16400000D02*
G75*
G02*
X9846500Y-16400000I40000J0D01*
G01*
X9871500Y-15218000D02*
G75*
G02*
X9791500Y-15218000I-40000J0D01*
G01*
X9791500Y-15218000D02*
G75*
G02*
X9871500Y-15218000I40000J0D01*
G01*
X9871500Y-15980000D02*
G75*
G02*
X9791500Y-15980000I-40000J0D01*
G01*
X9791500Y-15980000D02*
G75*
G02*
X9871500Y-15980000I40000J0D01*
G01*
X10100500Y-16400000D02*
G75*
G02*
X10020500Y-16400000I-40000J0D01*
G01*
X10020500Y-16400000D02*
G75*
G02*
X10100500Y-16400000I40000J0D01*
G01*
X10125500Y-15218000D02*
G75*
G02*
X10045500Y-15218000I-40000J0D01*
G01*
X10045500Y-15218000D02*
G75*
G02*
X10125500Y-15218000I40000J0D01*
G01*
X10125500Y-15980000D02*
G75*
G02*
X10045500Y-15980000I-40000J0D01*
G01*
X10045500Y-15980000D02*
G75*
G02*
X10125500Y-15980000I40000J0D01*
G01*
X10354500Y-16400000D02*
G75*
G02*
X10274500Y-16400000I-40000J0D01*
G01*
X10274500Y-16400000D02*
G75*
G02*
X10354500Y-16400000I40000J0D01*
G01*
X10379500Y-15218000D02*
G75*
G02*
X10299500Y-15218000I-40000J0D01*
G01*
X10299500Y-15218000D02*
G75*
G02*
X10379500Y-15218000I40000J0D01*
G01*
X10379500Y-15980000D02*
G75*
G02*
X10299500Y-15980000I-40000J0D01*
G01*
X10299500Y-15980000D02*
G75*
G02*
X10379500Y-15980000I40000J0D01*
G01*
X10633500Y-15218000D02*
G75*
G02*
X10553500Y-15218000I-40000J0D01*
G01*
X10553500Y-15218000D02*
G75*
G02*
X10633500Y-15218000I40000J0D01*
G01*
X10633500Y-15980000D02*
G75*
G02*
X10553500Y-15980000I-40000J0D01*
G01*
X10553500Y-15980000D02*
G75*
G02*
X10633500Y-15980000I40000J0D01*
G01*
X29485730Y-16078770D02*
G75*
G02*
X29405730Y-16078770I-40000J0D01*
G01*
X29405730Y-16078770D02*
G75*
G02*
X29485730Y-16078770I40000J0D01*
G01*
X29485730Y-16332770D02*
G75*
G02*
X29405730Y-16332770I-40000J0D01*
G01*
X29405730Y-16332770D02*
G75*
G02*
X29485730Y-16332770I40000J0D01*
G01*
X29485730Y-16586770D02*
G75*
G02*
X29405730Y-16586770I-40000J0D01*
G01*
X29405730Y-16586770D02*
G75*
G02*
X29485730Y-16586770I40000J0D01*
G01*
X29485730Y-16840770D02*
G75*
G02*
X29405730Y-16840770I-40000J0D01*
G01*
X29405730Y-16840770D02*
G75*
G02*
X29485730Y-16840770I40000J0D01*
G01*
X29485730Y-17094770D02*
G75*
G02*
X29405730Y-17094770I-40000J0D01*
G01*
X29405730Y-17094770D02*
G75*
G02*
X29485730Y-17094770I40000J0D01*
G01*
X29485730Y-17348770D02*
G75*
G02*
X29405730Y-17348770I-40000J0D01*
G01*
X29405730Y-17348770D02*
G75*
G02*
X29485730Y-17348770I40000J0D01*
G01*
X29485730Y-17602770D02*
G75*
G02*
X29405730Y-17602770I-40000J0D01*
G01*
X29405730Y-17602770D02*
G75*
G02*
X29485730Y-17602770I40000J0D01*
G01*
X29485730Y-17856770D02*
G75*
G02*
X29405730Y-17856770I-40000J0D01*
G01*
X29405730Y-17856770D02*
G75*
G02*
X29485730Y-17856770I40000J0D01*
G01*
X29485730Y-18110770D02*
G75*
G02*
X29405730Y-18110770I-40000J0D01*
G01*
X29405730Y-18110770D02*
G75*
G02*
X29485730Y-18110770I40000J0D01*
G01*
X29485730Y-18364770D02*
G75*
G02*
X29405730Y-18364770I-40000J0D01*
G01*
X29405730Y-18364770D02*
G75*
G02*
X29485730Y-18364770I40000J0D01*
G01*
X29485730Y-18618770D02*
G75*
G02*
X29405730Y-18618770I-40000J0D01*
G01*
X29405730Y-18618770D02*
G75*
G02*
X29485730Y-18618770I40000J0D01*
G01*
X29485730Y-18872770D02*
G75*
G02*
X29405730Y-18872770I-40000J0D01*
G01*
X29405730Y-18872770D02*
G75*
G02*
X29485730Y-18872770I40000J0D01*
G01*
X29485730Y-19126770D02*
G75*
G02*
X29405730Y-19126770I-40000J0D01*
G01*
X29405730Y-19126770D02*
G75*
G02*
X29485730Y-19126770I40000J0D01*
G01*
X29485730Y-19380770D02*
G75*
G02*
X29405730Y-19380770I-40000J0D01*
G01*
X29405730Y-19380770D02*
G75*
G02*
X29485730Y-19380770I40000J0D01*
G01*
X29485730Y-19634770D02*
G75*
G02*
X29405730Y-19634770I-40000J0D01*
G01*
X29405730Y-19634770D02*
G75*
G02*
X29485730Y-19634770I40000J0D01*
G01*
X29485730Y-19888770D02*
G75*
G02*
X29405730Y-19888770I-40000J0D01*
G01*
X29405730Y-19888770D02*
G75*
G02*
X29485730Y-19888770I40000J0D01*
G01*
X29485730Y-20142770D02*
G75*
G02*
X29405730Y-20142770I-40000J0D01*
G01*
X29405730Y-20142770D02*
G75*
G02*
X29485730Y-20142770I40000J0D01*
G01*
X29485730Y-20396770D02*
G75*
G02*
X29405730Y-20396770I-40000J0D01*
G01*
X29405730Y-20396770D02*
G75*
G02*
X29485730Y-20396770I40000J0D01*
G01*
X29485730Y-20650770D02*
G75*
G02*
X29405730Y-20650770I-40000J0D01*
G01*
X29405730Y-20650770D02*
G75*
G02*
X29485730Y-20650770I40000J0D01*
G01*
X29485730Y-20904770D02*
G75*
G02*
X29405730Y-20904770I-40000J0D01*
G01*
X29405730Y-20904770D02*
G75*
G02*
X29485730Y-20904770I40000J0D01*
G01*
X29485730Y-21158770D02*
G75*
G02*
X29405730Y-21158770I-40000J0D01*
G01*
X29405730Y-21158770D02*
G75*
G02*
X29485730Y-21158770I40000J0D01*
G01*
X29485730Y-21412770D02*
G75*
G02*
X29405730Y-21412770I-40000J0D01*
G01*
X29405730Y-21412770D02*
G75*
G02*
X29485730Y-21412770I40000J0D01*
G01*
X31771730Y-16078770D02*
G75*
G02*
X31691730Y-16078770I-40000J0D01*
G01*
X31691730Y-16078770D02*
G75*
G02*
X31771730Y-16078770I40000J0D01*
G01*
X31771730Y-16332770D02*
G75*
G02*
X31691730Y-16332770I-40000J0D01*
G01*
X31691730Y-16332770D02*
G75*
G02*
X31771730Y-16332770I40000J0D01*
G01*
X31771730Y-16586770D02*
G75*
G02*
X31691730Y-16586770I-40000J0D01*
G01*
X31691730Y-16586770D02*
G75*
G02*
X31771730Y-16586770I40000J0D01*
G01*
X31771730Y-16840770D02*
G75*
G02*
X31691730Y-16840770I-40000J0D01*
G01*
X31691730Y-16840770D02*
G75*
G02*
X31771730Y-16840770I40000J0D01*
G01*
X31771730Y-17094770D02*
G75*
G02*
X31691730Y-17094770I-40000J0D01*
G01*
X31691730Y-17094770D02*
G75*
G02*
X31771730Y-17094770I40000J0D01*
G01*
X31771730Y-17348770D02*
G75*
G02*
X31691730Y-17348770I-40000J0D01*
G01*
X31691730Y-17348770D02*
G75*
G02*
X31771730Y-17348770I40000J0D01*
G01*
X31771730Y-17602770D02*
G75*
G02*
X31691730Y-17602770I-40000J0D01*
G01*
X31691730Y-17602770D02*
G75*
G02*
X31771730Y-17602770I40000J0D01*
G01*
X31771730Y-17856770D02*
G75*
G02*
X31691730Y-17856770I-40000J0D01*
G01*
X31691730Y-17856770D02*
G75*
G02*
X31771730Y-17856770I40000J0D01*
G01*
X31771730Y-18110770D02*
G75*
G02*
X31691730Y-18110770I-40000J0D01*
G01*
X31691730Y-18110770D02*
G75*
G02*
X31771730Y-18110770I40000J0D01*
G01*
X31771730Y-18364770D02*
G75*
G02*
X31691730Y-18364770I-40000J0D01*
G01*
X31691730Y-18364770D02*
G75*
G02*
X31771730Y-18364770I40000J0D01*
G01*
X31771730Y-18618770D02*
G75*
G02*
X31691730Y-18618770I-40000J0D01*
G01*
X31691730Y-18618770D02*
G75*
G02*
X31771730Y-18618770I40000J0D01*
G01*
X31771730Y-18872770D02*
G75*
G02*
X31691730Y-18872770I-40000J0D01*
G01*
X31691730Y-18872770D02*
G75*
G02*
X31771730Y-18872770I40000J0D01*
G01*
X31771730Y-19126770D02*
G75*
G02*
X31691730Y-19126770I-40000J0D01*
G01*
X31691730Y-19126770D02*
G75*
G02*
X31771730Y-19126770I40000J0D01*
G01*
X31771730Y-19380770D02*
G75*
G02*
X31691730Y-19380770I-40000J0D01*
G01*
X31691730Y-19380770D02*
G75*
G02*
X31771730Y-19380770I40000J0D01*
G01*
X31771730Y-19634770D02*
G75*
G02*
X31691730Y-19634770I-40000J0D01*
G01*
X31691730Y-19634770D02*
G75*
G02*
X31771730Y-19634770I40000J0D01*
G01*
X31771730Y-19888770D02*
G75*
G02*
X31691730Y-19888770I-40000J0D01*
G01*
X31691730Y-19888770D02*
G75*
G02*
X31771730Y-19888770I40000J0D01*
G01*
X31771730Y-20142770D02*
G75*
G02*
X31691730Y-20142770I-40000J0D01*
G01*
X31691730Y-20142770D02*
G75*
G02*
X31771730Y-20142770I40000J0D01*
G01*
X31771730Y-20396770D02*
G75*
G02*
X31691730Y-20396770I-40000J0D01*
G01*
X31691730Y-20396770D02*
G75*
G02*
X31771730Y-20396770I40000J0D01*
G01*
X31771730Y-20650770D02*
G75*
G02*
X31691730Y-20650770I-40000J0D01*
G01*
X31691730Y-20650770D02*
G75*
G02*
X31771730Y-20650770I40000J0D01*
G01*
X31772098Y-20904498D02*
G75*
G02*
X31692098Y-20904498I-40000J0D01*
G01*
X31692098Y-20904498D02*
G75*
G02*
X31772098Y-20904498I40000J0D01*
G01*
X31772098Y-21158498D02*
G75*
G02*
X31692098Y-21158498I-40000J0D01*
G01*
X31692098Y-21158498D02*
G75*
G02*
X31772098Y-21158498I40000J0D01*
G01*
X31772098Y-21412498D02*
G75*
G02*
X31692098Y-21412498I-40000J0D01*
G01*
X31692098Y-21412498D02*
G75*
G02*
X31772098Y-21412498I40000J0D01*
G01*
X5100000Y-15455000D02*
X5100000Y-15545000D01*
X5055000Y-15500000D02*
X5145000Y-15500000D01*
X5354000Y-15455000D02*
X5354000Y-15545000D01*
X5309000Y-15500000D02*
X5399000Y-15500000D01*
X13092550Y-17387700D02*
X13092550Y-17477700D01*
X13047550Y-17432700D02*
X13137550Y-17432700D01*
X13346550Y-17387700D02*
X13346550Y-17477700D01*
X13301550Y-17432700D02*
X13391550Y-17432700D01*
X14083140Y-17387700D02*
X14083140Y-17477700D01*
X14038140Y-17432700D02*
X14128140Y-17432700D01*
X14337140Y-17387700D02*
X14337140Y-17477700D01*
X14292140Y-17432700D02*
X14382140Y-17432700D01*
X15073730Y-17387880D02*
X15073730Y-17477880D01*
X15028730Y-17432880D02*
X15118730Y-17432880D01*
X15327730Y-17387880D02*
X15327730Y-17477880D01*
X15282730Y-17432880D02*
X15372730Y-17432880D01*
X16064310Y-17387700D02*
X16064310Y-17477700D01*
X16019310Y-17432700D02*
X16109310Y-17432700D01*
X16318310Y-17387700D02*
X16318310Y-17477700D01*
X16273310Y-17432700D02*
X16363310Y-17432700D01*
X17054900Y-17387700D02*
X17054900Y-17477700D01*
X17009900Y-17432700D02*
X17099900Y-17432700D01*
X17308900Y-17387700D02*
X17308900Y-17477700D01*
X17263900Y-17432700D02*
X17353900Y-17432700D01*
X18045490Y-17387930D02*
X18045490Y-17477930D01*
X18000490Y-17432930D02*
X18090490Y-17432930D01*
X18299490Y-17387930D02*
X18299490Y-17477930D01*
X18254490Y-17432930D02*
X18344490Y-17432930D01*
X19036080Y-17387880D02*
X19036080Y-17477880D01*
X18991080Y-17432880D02*
X19081080Y-17432880D01*
X19290080Y-17387880D02*
X19290080Y-17477880D01*
X19245080Y-17432880D02*
X19335080Y-17432880D01*
X20026660Y-17387700D02*
X20026660Y-17477700D01*
X19981660Y-17432700D02*
X20071660Y-17432700D01*
X20280660Y-17387700D02*
X20280660Y-17477700D01*
X20235660Y-17432700D02*
X20325660Y-17432700D01*
X3929056Y-16634556D02*
X3929056Y-16563844D01*
X3858344Y-16563844D01*
X3858344Y-16634556D01*
X3929056Y-16634556D01*
X3929056Y-16888556D02*
X3929056Y-16817844D01*
X3858344Y-16817844D01*
X3858344Y-16888556D01*
X3929056Y-16888556D01*
X3929056Y-17142556D02*
X3929056Y-17071844D01*
X3858344Y-17071844D01*
X3858344Y-17142556D01*
X3929056Y-17142556D01*
X3929056Y-17396556D02*
X3929056Y-17325844D01*
X3858344Y-17325844D01*
X3858344Y-17396556D01*
X3929056Y-17396556D01*
X3929056Y-17650556D02*
X3929056Y-17579844D01*
X3858344Y-17579844D01*
X3858344Y-17650556D01*
X3929056Y-17650556D01*
X3929056Y-17904556D02*
X3929056Y-17833844D01*
X3858344Y-17833844D01*
X3858344Y-17904556D01*
X3929056Y-17904556D01*
X6173356Y-17375356D02*
X6173356Y-17304644D01*
X6102644Y-17304644D01*
X6102644Y-17375356D01*
X6173356Y-17375356D01*
X6427356Y-17375356D02*
X6427356Y-17304644D01*
X6356644Y-17304644D01*
X6356644Y-17375356D01*
X6427356Y-17375356D01*
X6681356Y-17375356D02*
X6681356Y-17304644D01*
X6610644Y-17304644D01*
X6610644Y-17375356D01*
X6681356Y-17375356D01*
X6935356Y-17375356D02*
X6935356Y-17304644D01*
X6864644Y-17304644D01*
X6864644Y-17375356D01*
X6935356Y-17375356D01*
X9735356Y-19190356D02*
X9735356Y-19119644D01*
X9664644Y-19119644D01*
X9664644Y-19190356D01*
X9735356Y-19190356D01*
X9765000Y-19105000D02*
X9635000Y-19105000D01*
X9635000Y-19205000D02*
G75*
G02*
X9635000Y-19105000I0J50000D01*
G01*
X9635000Y-19205000D02*
X9765000Y-19205000D01*
X9765000Y-19205000D02*
G75*
G03*
X9765000Y-19105000I0J50000D01*
G01*
X9735356Y-19635356D02*
X9735356Y-19564644D01*
X9664644Y-19564644D01*
X9664644Y-19635356D01*
X9735356Y-19635356D01*
X9765000Y-19550000D02*
X9635000Y-19550000D01*
X9635000Y-19650000D02*
G75*
G02*
X9635000Y-19550000I0J50000D01*
G01*
X9635000Y-19650000D02*
X9765000Y-19650000D01*
X9765000Y-19650000D02*
G75*
G03*
X9765000Y-19550000I0J50000D01*
G01*
X9735356Y-20080356D02*
X9735356Y-20009644D01*
X9664644Y-20009644D01*
X9664644Y-20080356D01*
X9735356Y-20080356D01*
X9765000Y-19995000D02*
X9635000Y-19995000D01*
X9635000Y-20095000D02*
G75*
G02*
X9635000Y-19995000I0J50000D01*
G01*
X9635000Y-20095000D02*
X9765000Y-20095000D01*
X9765000Y-20095000D02*
G75*
G03*
X9765000Y-19995000I0J50000D01*
G01*
X11403456Y-19190356D02*
X11403456Y-19119644D01*
X11332744Y-19119644D01*
X11332744Y-19190356D01*
X11403456Y-19190356D01*
X11433100Y-19105000D02*
X11303100Y-19105000D01*
X11303100Y-19205000D02*
G75*
G02*
X11303100Y-19105000I0J50000D01*
G01*
X11303100Y-19205000D02*
X11433100Y-19205000D01*
X11433100Y-19205000D02*
G75*
G03*
X11433100Y-19105000I0J50000D01*
G01*
X11403456Y-19635356D02*
X11403456Y-19564644D01*
X11332744Y-19564644D01*
X11332744Y-19635356D01*
X11403456Y-19635356D01*
X11433100Y-19550000D02*
X11303100Y-19550000D01*
X11303100Y-19650000D02*
G75*
G02*
X11303100Y-19550000I0J50000D01*
G01*
X11303100Y-19650000D02*
X11433100Y-19650000D01*
X11433100Y-19650000D02*
G75*
G03*
X11433100Y-19550000I0J50000D01*
G01*
X11403456Y-20080356D02*
X11403456Y-20009644D01*
X11332744Y-20009644D01*
X11332744Y-20080356D01*
X11403456Y-20080356D01*
X11433100Y-19995000D02*
X11303100Y-19995000D01*
X11303100Y-20095000D02*
G75*
G02*
X11303100Y-19995000I0J50000D01*
G01*
X11303100Y-20095000D02*
X11433100Y-20095000D01*
X11433100Y-20095000D02*
G75*
G03*
X11433100Y-19995000I0J50000D01*
G01*
X12872356Y-16176106D02*
X12872356Y-16105394D01*
X12801644Y-16105394D01*
X12801644Y-16176106D01*
X12872356Y-16176106D01*
X12872356Y-16430106D02*
X12872356Y-16359394D01*
X12801644Y-16359394D01*
X12801644Y-16430106D01*
X12872356Y-16430106D01*
X13071556Y-19190356D02*
X13071556Y-19119644D01*
X13000844Y-19119644D01*
X13000844Y-19190356D01*
X13071556Y-19190356D01*
X13101200Y-19105000D02*
X12971200Y-19105000D01*
X12971200Y-19205000D02*
G75*
G02*
X12971200Y-19105000I0J50000D01*
G01*
X12971200Y-19205000D02*
X13101200Y-19205000D01*
X13101200Y-19205000D02*
G75*
G03*
X13101200Y-19105000I0J50000D01*
G01*
X13071556Y-19635356D02*
X13071556Y-19564644D01*
X13000844Y-19564644D01*
X13000844Y-19635356D01*
X13071556Y-19635356D01*
X13101200Y-19550000D02*
X12971200Y-19550000D01*
X12971200Y-19650000D02*
G75*
G02*
X12971200Y-19550000I0J50000D01*
G01*
X12971200Y-19650000D02*
X13101200Y-19650000D01*
X13101200Y-19650000D02*
G75*
G03*
X13101200Y-19550000I0J50000D01*
G01*
X13071556Y-20080356D02*
X13071556Y-20009644D01*
X13000844Y-20009644D01*
X13000844Y-20080356D01*
X13071556Y-20080356D01*
X13101200Y-19995000D02*
X12971200Y-19995000D01*
X12971200Y-20095000D02*
G75*
G02*
X12971200Y-19995000I0J50000D01*
G01*
X12971200Y-20095000D02*
X13101200Y-20095000D01*
X13101200Y-20095000D02*
G75*
G03*
X13101200Y-19995000I0J50000D01*
G01*
X13126356Y-16176106D02*
X13126356Y-16105394D01*
X13055644Y-16105394D01*
X13055644Y-16176106D01*
X13126356Y-16176106D01*
X13126356Y-16430106D02*
X13126356Y-16359394D01*
X13055644Y-16359394D01*
X13055644Y-16430106D01*
X13126356Y-16430106D01*
X13380356Y-16176106D02*
X13380356Y-16105394D01*
X13309644Y-16105394D01*
X13309644Y-16176106D01*
X13380356Y-16176106D01*
X13380356Y-16430106D02*
X13380356Y-16359394D01*
X13309644Y-16359394D01*
X13309644Y-16430106D01*
X13380356Y-16430106D01*
X13634356Y-16176106D02*
X13634356Y-16105394D01*
X13563644Y-16105394D01*
X13563644Y-16176106D01*
X13634356Y-16176106D01*
X13634356Y-16430106D02*
X13634356Y-16359394D01*
X13563644Y-16359394D01*
X13563644Y-16430106D01*
X13634356Y-16430106D01*
X13888356Y-16176106D02*
X13888356Y-16105394D01*
X13817644Y-16105394D01*
X13817644Y-16176106D01*
X13888356Y-16176106D01*
X13888356Y-16430106D02*
X13888356Y-16359394D01*
X13817644Y-16359394D01*
X13817644Y-16430106D01*
X13888356Y-16430106D01*
X14142356Y-16176106D02*
X14142356Y-16105394D01*
X14071644Y-16105394D01*
X14071644Y-16176106D01*
X14142356Y-16176106D01*
X14142356Y-16430106D02*
X14142356Y-16359394D01*
X14071644Y-16359394D01*
X14071644Y-16430106D01*
X14142356Y-16430106D01*
X14396356Y-16176106D02*
X14396356Y-16105394D01*
X14325644Y-16105394D01*
X14325644Y-16176106D01*
X14396356Y-16176106D01*
X14396356Y-16430106D02*
X14396356Y-16359394D01*
X14325644Y-16359394D01*
X14325644Y-16430106D01*
X14396356Y-16430106D01*
X14650356Y-16176106D02*
X14650356Y-16105394D01*
X14579644Y-16105394D01*
X14579644Y-16176106D01*
X14650356Y-16176106D01*
X14650356Y-16430106D02*
X14650356Y-16359394D01*
X14579644Y-16359394D01*
X14579644Y-16430106D01*
X14650356Y-16430106D01*
X14739656Y-19190356D02*
X14739656Y-19119644D01*
X14668944Y-19119644D01*
X14668944Y-19190356D01*
X14739656Y-19190356D01*
X14769300Y-19105000D02*
X14639300Y-19105000D01*
X14639300Y-19205000D02*
G75*
G02*
X14639300Y-19105000I0J50000D01*
G01*
X14639300Y-19205000D02*
X14769300Y-19205000D01*
X14769300Y-19205000D02*
G75*
G03*
X14769300Y-19105000I0J50000D01*
G01*
X14739656Y-19635356D02*
X14739656Y-19564644D01*
X14668944Y-19564644D01*
X14668944Y-19635356D01*
X14739656Y-19635356D01*
X14769300Y-19550000D02*
X14639300Y-19550000D01*
X14639300Y-19650000D02*
G75*
G02*
X14639300Y-19550000I0J50000D01*
G01*
X14639300Y-19650000D02*
X14769300Y-19650000D01*
X14769300Y-19650000D02*
G75*
G03*
X14769300Y-19550000I0J50000D01*
G01*
X14739656Y-20080356D02*
X14739656Y-20009644D01*
X14668944Y-20009644D01*
X14668944Y-20080356D01*
X14739656Y-20080356D01*
X14769300Y-19995000D02*
X14639300Y-19995000D01*
X14639300Y-20095000D02*
G75*
G02*
X14639300Y-19995000I0J50000D01*
G01*
X14639300Y-20095000D02*
X14769300Y-20095000D01*
X14769300Y-20095000D02*
G75*
G03*
X14769300Y-19995000I0J50000D01*
G01*
X14904356Y-16176106D02*
X14904356Y-16105394D01*
X14833644Y-16105394D01*
X14833644Y-16176106D01*
X14904356Y-16176106D01*
X14904356Y-16430106D02*
X14904356Y-16359394D01*
X14833644Y-16359394D01*
X14833644Y-16430106D01*
X14904356Y-16430106D01*
X15158356Y-16176106D02*
X15158356Y-16105394D01*
X15087644Y-16105394D01*
X15087644Y-16176106D01*
X15158356Y-16176106D01*
X15158356Y-16430106D02*
X15158356Y-16359394D01*
X15087644Y-16359394D01*
X15087644Y-16430106D01*
X15158356Y-16430106D01*
X15412356Y-16176106D02*
X15412356Y-16105394D01*
X15341644Y-16105394D01*
X15341644Y-16176106D01*
X15412356Y-16176106D01*
X15412356Y-16430106D02*
X15412356Y-16359394D01*
X15341644Y-16359394D01*
X15341644Y-16430106D01*
X15412356Y-16430106D01*
X15666356Y-16176106D02*
X15666356Y-16105394D01*
X15595644Y-16105394D01*
X15595644Y-16176106D01*
X15666356Y-16176106D01*
X15666356Y-16430106D02*
X15666356Y-16359394D01*
X15595644Y-16359394D01*
X15595644Y-16430106D01*
X15666356Y-16430106D01*
X15920356Y-16176106D02*
X15920356Y-16105394D01*
X15849644Y-16105394D01*
X15849644Y-16176106D01*
X15920356Y-16176106D01*
X15920356Y-16430106D02*
X15920356Y-16359394D01*
X15849644Y-16359394D01*
X15849644Y-16430106D01*
X15920356Y-16430106D01*
X16174356Y-16176106D02*
X16174356Y-16105394D01*
X16103644Y-16105394D01*
X16103644Y-16176106D01*
X16174356Y-16176106D01*
X16174356Y-16430106D02*
X16174356Y-16359394D01*
X16103644Y-16359394D01*
X16103644Y-16430106D01*
X16174356Y-16430106D01*
X16407756Y-19190356D02*
X16407756Y-19119644D01*
X16337044Y-19119644D01*
X16337044Y-19190356D01*
X16407756Y-19190356D01*
X16437400Y-19105000D02*
X16307400Y-19105000D01*
X16307400Y-19205000D02*
G75*
G02*
X16307400Y-19105000I0J50000D01*
G01*
X16307400Y-19205000D02*
X16437400Y-19205000D01*
X16437400Y-19205000D02*
G75*
G03*
X16437400Y-19105000I0J50000D01*
G01*
X16407756Y-19635356D02*
X16407756Y-19564644D01*
X16337044Y-19564644D01*
X16337044Y-19635356D01*
X16407756Y-19635356D01*
X16437400Y-19550000D02*
X16307400Y-19550000D01*
X16307400Y-19650000D02*
G75*
G02*
X16307400Y-19550000I0J50000D01*
G01*
X16307400Y-19650000D02*
X16437400Y-19650000D01*
X16437400Y-19650000D02*
G75*
G03*
X16437400Y-19550000I0J50000D01*
G01*
X16407756Y-20080356D02*
X16407756Y-20009644D01*
X16337044Y-20009644D01*
X16337044Y-20080356D01*
X16407756Y-20080356D01*
X16437400Y-19995000D02*
X16307400Y-19995000D01*
X16307400Y-20095000D02*
G75*
G02*
X16307400Y-19995000I0J50000D01*
G01*
X16307400Y-20095000D02*
X16437400Y-20095000D01*
X16437400Y-20095000D02*
G75*
G03*
X16437400Y-19995000I0J50000D01*
G01*
X16428356Y-16176106D02*
X16428356Y-16105394D01*
X16357644Y-16105394D01*
X16357644Y-16176106D01*
X16428356Y-16176106D01*
X16428356Y-16430106D02*
X16428356Y-16359394D01*
X16357644Y-16359394D01*
X16357644Y-16430106D01*
X16428356Y-16430106D01*
X16682356Y-16176106D02*
X16682356Y-16105394D01*
X16611644Y-16105394D01*
X16611644Y-16176106D01*
X16682356Y-16176106D01*
X16682356Y-16430106D02*
X16682356Y-16359394D01*
X16611644Y-16359394D01*
X16611644Y-16430106D01*
X16682356Y-16430106D01*
X16936356Y-16176106D02*
X16936356Y-16105394D01*
X16865644Y-16105394D01*
X16865644Y-16176106D01*
X16936356Y-16176106D01*
X16936356Y-16430106D02*
X16936356Y-16359394D01*
X16865644Y-16359394D01*
X16865644Y-16430106D01*
X16936356Y-16430106D01*
X17190356Y-16176106D02*
X17190356Y-16105394D01*
X17119644Y-16105394D01*
X17119644Y-16176106D01*
X17190356Y-16176106D01*
X17190356Y-16430106D02*
X17190356Y-16359394D01*
X17119644Y-16359394D01*
X17119644Y-16430106D01*
X17190356Y-16430106D01*
X17444356Y-16176106D02*
X17444356Y-16105394D01*
X17373644Y-16105394D01*
X17373644Y-16176106D01*
X17444356Y-16176106D01*
X17444356Y-16430106D02*
X17444356Y-16359394D01*
X17373644Y-16359394D01*
X17373644Y-16430106D01*
X17444356Y-16430106D01*
X17698356Y-16176106D02*
X17698356Y-16105394D01*
X17627644Y-16105394D01*
X17627644Y-16176106D01*
X17698356Y-16176106D01*
X17698356Y-16430106D02*
X17698356Y-16359394D01*
X17627644Y-16359394D01*
X17627644Y-16430106D01*
X17698356Y-16430106D01*
X18075856Y-19190356D02*
X18075856Y-19119644D01*
X18005144Y-19119644D01*
X18005144Y-19190356D01*
X18075856Y-19190356D01*
X18105500Y-19105000D02*
X17975500Y-19105000D01*
X17975500Y-19205000D02*
G75*
G02*
X17975500Y-19105000I0J50000D01*
G01*
X17975500Y-19205000D02*
X18105500Y-19205000D01*
X18105500Y-19205000D02*
G75*
G03*
X18105500Y-19105000I0J50000D01*
G01*
X18075856Y-19635356D02*
X18075856Y-19564644D01*
X18005144Y-19564644D01*
X18005144Y-19635356D01*
X18075856Y-19635356D01*
X18105500Y-19550000D02*
X17975500Y-19550000D01*
X17975500Y-19650000D02*
G75*
G02*
X17975500Y-19550000I0J50000D01*
G01*
X17975500Y-19650000D02*
X18105500Y-19650000D01*
X18105500Y-19650000D02*
G75*
G03*
X18105500Y-19550000I0J50000D01*
G01*
X18075856Y-20080356D02*
X18075856Y-20009644D01*
X18005144Y-20009644D01*
X18005144Y-20080356D01*
X18075856Y-20080356D01*
X18105500Y-19995000D02*
X17975500Y-19995000D01*
X17975500Y-20095000D02*
G75*
G02*
X17975500Y-19995000I0J50000D01*
G01*
X17975500Y-20095000D02*
X18105500Y-20095000D01*
X18105500Y-20095000D02*
G75*
G03*
X18105500Y-19995000I0J50000D01*
G01*
X19743956Y-19190356D02*
X19743956Y-19119644D01*
X19673244Y-19119644D01*
X19673244Y-19190356D01*
X19743956Y-19190356D01*
X19773600Y-19105000D02*
X19643600Y-19105000D01*
X19643600Y-19205000D02*
G75*
G02*
X19643600Y-19105000I0J50000D01*
G01*
X19643600Y-19205000D02*
X19773600Y-19205000D01*
X19773600Y-19205000D02*
G75*
G03*
X19773600Y-19105000I0J50000D01*
G01*
X19743956Y-19635356D02*
X19743956Y-19564644D01*
X19673244Y-19564644D01*
X19673244Y-19635356D01*
X19743956Y-19635356D01*
X19773600Y-19550000D02*
X19643600Y-19550000D01*
X19643600Y-19650000D02*
G75*
G02*
X19643600Y-19550000I0J50000D01*
G01*
X19643600Y-19650000D02*
X19773600Y-19650000D01*
X19773600Y-19650000D02*
G75*
G03*
X19773600Y-19550000I0J50000D01*
G01*
X19743956Y-20080356D02*
X19743956Y-20009644D01*
X19673244Y-20009644D01*
X19673244Y-20080356D01*
X19743956Y-20080356D01*
X19773600Y-19995000D02*
X19643600Y-19995000D01*
X19643600Y-20095000D02*
G75*
G02*
X19643600Y-19995000I0J50000D01*
G01*
X19643600Y-20095000D02*
X19773600Y-20095000D01*
X19773600Y-20095000D02*
G75*
G03*
X19773600Y-19995000I0J50000D01*
G01*
X21412056Y-19190356D02*
X21412056Y-19119644D01*
X21341344Y-19119644D01*
X21341344Y-19190356D01*
X21412056Y-19190356D01*
X21441700Y-19105000D02*
X21311700Y-19105000D01*
X21311700Y-19205000D02*
G75*
G02*
X21311700Y-19105000I0J50000D01*
G01*
X21311700Y-19205000D02*
X21441700Y-19205000D01*
X21441700Y-19205000D02*
G75*
G03*
X21441700Y-19105000I0J50000D01*
G01*
X21412056Y-19635356D02*
X21412056Y-19564644D01*
X21341344Y-19564644D01*
X21341344Y-19635356D01*
X21412056Y-19635356D01*
X21441700Y-19550000D02*
X21311700Y-19550000D01*
X21311700Y-19650000D02*
G75*
G02*
X21311700Y-19550000I0J50000D01*
G01*
X21311700Y-19650000D02*
X21441700Y-19650000D01*
X21441700Y-19650000D02*
G75*
G03*
X21441700Y-19550000I0J50000D01*
G01*
X21412056Y-20080356D02*
X21412056Y-20009644D01*
X21341344Y-20009644D01*
X21341344Y-20080356D01*
X21412056Y-20080356D01*
X21441700Y-19995000D02*
X21311700Y-19995000D01*
X21311700Y-20095000D02*
G75*
G02*
X21311700Y-19995000I0J50000D01*
G01*
X21311700Y-20095000D02*
X21441700Y-20095000D01*
X21441700Y-20095000D02*
G75*
G03*
X21441700Y-19995000I0J50000D01*
G01*
X23080156Y-19190356D02*
X23080156Y-19119644D01*
X23009444Y-19119644D01*
X23009444Y-19190356D01*
X23080156Y-19190356D01*
X23109800Y-19105000D02*
X22979800Y-19105000D01*
X22979800Y-19205000D02*
G75*
G02*
X22979800Y-19105000I0J50000D01*
G01*
X22979800Y-19205000D02*
X23109800Y-19205000D01*
X23109800Y-19205000D02*
G75*
G03*
X23109800Y-19105000I0J50000D01*
G01*
X23080156Y-19635356D02*
X23080156Y-19564644D01*
X23009444Y-19564644D01*
X23009444Y-19635356D01*
X23080156Y-19635356D01*
X23109800Y-19550000D02*
X22979800Y-19550000D01*
X22979800Y-19650000D02*
G75*
G02*
X22979800Y-19550000I0J50000D01*
G01*
X22979800Y-19650000D02*
X23109800Y-19650000D01*
X23109800Y-19650000D02*
G75*
G03*
X23109800Y-19550000I0J50000D01*
G01*
X23080156Y-20080356D02*
X23080156Y-20009644D01*
X23009444Y-20009644D01*
X23009444Y-20080356D01*
X23080156Y-20080356D01*
X23109800Y-19995000D02*
X22979800Y-19995000D01*
X22979800Y-20095000D02*
G75*
G02*
X22979800Y-19995000I0J50000D01*
G01*
X22979800Y-20095000D02*
X23109800Y-20095000D01*
X23109800Y-20095000D02*
G75*
G03*
X23109800Y-19995000I0J50000D01*
G01*
X24748256Y-19190356D02*
X24748256Y-19119644D01*
X24677544Y-19119644D01*
X24677544Y-19190356D01*
X24748256Y-19190356D01*
X24777900Y-19105000D02*
X24647900Y-19105000D01*
X24647900Y-19205000D02*
G75*
G02*
X24647900Y-19105000I0J50000D01*
G01*
X24647900Y-19205000D02*
X24777900Y-19205000D01*
X24777900Y-19205000D02*
G75*
G03*
X24777900Y-19105000I0J50000D01*
G01*
X24748256Y-19635356D02*
X24748256Y-19564644D01*
X24677544Y-19564644D01*
X24677544Y-19635356D01*
X24748256Y-19635356D01*
X24777900Y-19550000D02*
X24647900Y-19550000D01*
X24647900Y-19650000D02*
G75*
G02*
X24647900Y-19550000I0J50000D01*
G01*
X24647900Y-19650000D02*
X24777900Y-19650000D01*
X24777900Y-19650000D02*
G75*
G03*
X24777900Y-19550000I0J50000D01*
G01*
X24748256Y-20080356D02*
X24748256Y-20009644D01*
X24677544Y-20009644D01*
X24677544Y-20080356D01*
X24748256Y-20080356D01*
X24777900Y-19995000D02*
X24647900Y-19995000D01*
X24647900Y-20095000D02*
G75*
G02*
X24647900Y-19995000I0J50000D01*
G01*
X24647900Y-20095000D02*
X24777900Y-20095000D01*
X24777900Y-20095000D02*
G75*
G03*
X24777900Y-19995000I0J50000D01*
G01*
X25531756Y-16126556D02*
X25531756Y-16055844D01*
X25461044Y-16055844D01*
X25461044Y-16126556D01*
X25531756Y-16126556D01*
X25785756Y-16126556D02*
X25785756Y-16055844D01*
X25715044Y-16055844D01*
X25715044Y-16126556D01*
X25785756Y-16126556D01*
X26039756Y-16126556D02*
X26039756Y-16055844D01*
X25969044Y-16055844D01*
X25969044Y-16126556D01*
X26039756Y-16126556D01*
X26293756Y-16126556D02*
X26293756Y-16055844D01*
X26223044Y-16055844D01*
X26223044Y-16126556D01*
X26293756Y-16126556D01*
X26416356Y-19190356D02*
X26416356Y-19119644D01*
X26345644Y-19119644D01*
X26345644Y-19190356D01*
X26416356Y-19190356D01*
X26446000Y-19105000D02*
X26316000Y-19105000D01*
X26316000Y-19205000D02*
G75*
G02*
X26316000Y-19105000I0J50000D01*
G01*
X26316000Y-19205000D02*
X26446000Y-19205000D01*
X26446000Y-19205000D02*
G75*
G03*
X26446000Y-19105000I0J50000D01*
G01*
X26416356Y-19635356D02*
X26416356Y-19564644D01*
X26345644Y-19564644D01*
X26345644Y-19635356D01*
X26416356Y-19635356D01*
X26446000Y-19550000D02*
X26316000Y-19550000D01*
X26316000Y-19650000D02*
G75*
G02*
X26316000Y-19550000I0J50000D01*
G01*
X26316000Y-19650000D02*
X26446000Y-19650000D01*
X26446000Y-19650000D02*
G75*
G03*
X26446000Y-19550000I0J50000D01*
G01*
X26416356Y-20080356D02*
X26416356Y-20009644D01*
X26345644Y-20009644D01*
X26345644Y-20080356D01*
X26416356Y-20080356D01*
X26446000Y-19995000D02*
X26316000Y-19995000D01*
X26316000Y-20095000D02*
G75*
G02*
X26316000Y-19995000I0J50000D01*
G01*
X26316000Y-20095000D02*
X26446000Y-20095000D01*
X26446000Y-20095000D02*
G75*
G03*
X26446000Y-19995000I0J50000D01*
G01*
X26547756Y-16126556D02*
X26547756Y-16055844D01*
X26477044Y-16055844D01*
X26477044Y-16126556D01*
X26547756Y-16126556D01*
X26801756Y-16126556D02*
X26801756Y-16055844D01*
X26731044Y-16055844D01*
X26731044Y-16126556D01*
X26801756Y-16126556D01*
X27055756Y-16126556D02*
X27055756Y-16055844D01*
X26985044Y-16055844D01*
X26985044Y-16126556D01*
X27055756Y-16126556D01*
X27309756Y-16126556D02*
X27309756Y-16055844D01*
X27239044Y-16055844D01*
X27239044Y-16126556D01*
X27309756Y-16126556D01*
X28084456Y-19190356D02*
X28084456Y-19119644D01*
X28013744Y-19119644D01*
X28013744Y-19190356D01*
X28084456Y-19190356D01*
X28114100Y-19105000D02*
X27984100Y-19105000D01*
X27984100Y-19205000D02*
G75*
G02*
X27984100Y-19105000I0J50000D01*
G01*
X27984100Y-19205000D02*
X28114100Y-19205000D01*
X28114100Y-19205000D02*
G75*
G03*
X28114100Y-19105000I0J50000D01*
G01*
X28084456Y-19635356D02*
X28084456Y-19564644D01*
X28013744Y-19564644D01*
X28013744Y-19635356D01*
X28084456Y-19635356D01*
X28114100Y-19550000D02*
X27984100Y-19550000D01*
X27984100Y-19650000D02*
G75*
G02*
X27984100Y-19550000I0J50000D01*
G01*
X27984100Y-19650000D02*
X28114100Y-19650000D01*
X28114100Y-19650000D02*
G75*
G03*
X28114100Y-19550000I0J50000D01*
G01*
X28084456Y-20080356D02*
X28084456Y-20009644D01*
X28013744Y-20009644D01*
X28013744Y-20080356D01*
X28084456Y-20080356D01*
X28114100Y-19995000D02*
X27984100Y-19995000D01*
X27984100Y-20095000D02*
G75*
G02*
X27984100Y-19995000I0J50000D01*
G01*
X27984100Y-20095000D02*
X28114100Y-20095000D01*
X28114100Y-20095000D02*
G75*
G03*
X28114100Y-19995000I0J50000D01*
G01*
D13*
X21303100Y-16077200D02*
X21358100Y-16022200D01*
X21303100Y-15967200D01*
X21248100Y-16022200D01*
X21303100Y-16077200D01*
X21303100Y-16527200D02*
X21358100Y-16472200D01*
X21303100Y-16417200D01*
X21248100Y-16472200D01*
X21303100Y-16527200D01*
X21953100Y-16077200D02*
X22008100Y-16022200D01*
X21953100Y-15967200D01*
X21898100Y-16022200D01*
X21953100Y-16077200D01*
X21953100Y-16527200D02*
X22008100Y-16472200D01*
X21953100Y-16417200D01*
X21898100Y-16472200D01*
X21953100Y-16527200D01*
D14*
X3840000Y-15340000D02*
X4160000Y-15660000D01*
X4160000Y-15340000D02*
X3840000Y-15660000D01*
X4160000Y-15500000D02*
G75*
G02*
X3840000Y-15500000I-160000J0D01*
G01*
X3840000Y-15500000D02*
G75*
G02*
X4160000Y-15500000I160000J0D01*
G01*
X3840000Y-22340000D02*
X4160000Y-22660000D01*
X4160000Y-22340000D02*
X3840000Y-22660000D01*
X4160000Y-22500000D02*
G75*
G02*
X3840000Y-22500000I-160000J0D01*
G01*
X3840000Y-22500000D02*
G75*
G02*
X4160000Y-22500000I160000J0D01*
G01*
X32340000Y-15340000D02*
X32660000Y-15660000D01*
X32660000Y-15340000D02*
X32340000Y-15660000D01*
X32660000Y-15500000D02*
G75*
G02*
X32340000Y-15500000I-160000J0D01*
G01*
X32340000Y-15500000D02*
G75*
G02*
X32660000Y-15500000I160000J0D01*
G01*
X32340000Y-22340000D02*
X32660000Y-22660000D01*
X32660000Y-22340000D02*
X32340000Y-22660000D01*
X32660000Y-22500000D02*
G75*
G02*
X32340000Y-22500000I-160000J0D01*
G01*
X32340000Y-22500000D02*
G75*
G02*
X32660000Y-22500000I160000J0D01*
G01*
D11*
X3758277Y-23313984D02*
X3758277Y-23113984D01*
X3758277Y-23113984D02*
X3805896Y-23113984D01*
X3805896Y-23113984D02*
X3834467Y-23123508D01*
X3834467Y-23123508D02*
X3853515Y-23142555D01*
X3853515Y-23142555D02*
X3863039Y-23161603D01*
X3863039Y-23161603D02*
X3872562Y-23199698D01*
X3872562Y-23199698D02*
X3872562Y-23228269D01*
X3872562Y-23228269D02*
X3863039Y-23266365D01*
X3863039Y-23266365D02*
X3853515Y-23285412D01*
X3853515Y-23285412D02*
X3834467Y-23304460D01*
X3834467Y-23304460D02*
X3805896Y-23313984D01*
X3805896Y-23313984D02*
X3758277Y-23313984D01*
X3958277Y-23313984D02*
X3958277Y-23180650D01*
X3958277Y-23218746D02*
X3967801Y-23199698D01*
X3967801Y-23199698D02*
X3977324Y-23190174D01*
X3977324Y-23190174D02*
X3996372Y-23180650D01*
X3996372Y-23180650D02*
X4015420Y-23180650D01*
X4082086Y-23313984D02*
X4082086Y-23180650D01*
X4082086Y-23113984D02*
X4072562Y-23123508D01*
X4072562Y-23123508D02*
X4082086Y-23133031D01*
X4082086Y-23133031D02*
X4091610Y-23123508D01*
X4091610Y-23123508D02*
X4082086Y-23113984D01*
X4082086Y-23113984D02*
X4082086Y-23133031D01*
X4205896Y-23313984D02*
X4186848Y-23304460D01*
X4186848Y-23304460D02*
X4177324Y-23285412D01*
X4177324Y-23285412D02*
X4177324Y-23113984D01*
X4310658Y-23313984D02*
X4291610Y-23304460D01*
X4291610Y-23304460D02*
X4282086Y-23285412D01*
X4282086Y-23285412D02*
X4282086Y-23113984D01*
X4539229Y-23313984D02*
X4539229Y-23113984D01*
X4539229Y-23113984D02*
X4605896Y-23256841D01*
X4605896Y-23256841D02*
X4672563Y-23113984D01*
X4672563Y-23113984D02*
X4672563Y-23313984D01*
X4853515Y-23313984D02*
X4853515Y-23209222D01*
X4853515Y-23209222D02*
X4843991Y-23190174D01*
X4843991Y-23190174D02*
X4824944Y-23180650D01*
X4824944Y-23180650D02*
X4786848Y-23180650D01*
X4786848Y-23180650D02*
X4767801Y-23190174D01*
X4853515Y-23304460D02*
X4834467Y-23313984D01*
X4834467Y-23313984D02*
X4786848Y-23313984D01*
X4786848Y-23313984D02*
X4767801Y-23304460D01*
X4767801Y-23304460D02*
X4758277Y-23285412D01*
X4758277Y-23285412D02*
X4758277Y-23266365D01*
X4758277Y-23266365D02*
X4767801Y-23247317D01*
X4767801Y-23247317D02*
X4786848Y-23237793D01*
X4786848Y-23237793D02*
X4834467Y-23237793D01*
X4834467Y-23237793D02*
X4853515Y-23228269D01*
X4948753Y-23180650D02*
X4948753Y-23380650D01*
X4948753Y-23190174D02*
X4967801Y-23180650D01*
X4967801Y-23180650D02*
X5005896Y-23180650D01*
X5005896Y-23180650D02*
X5024944Y-23190174D01*
X5024944Y-23190174D02*
X5034467Y-23199698D01*
X5034467Y-23199698D02*
X5043991Y-23218746D01*
X5043991Y-23218746D02*
X5043991Y-23275888D01*
X5043991Y-23275888D02*
X5034467Y-23294936D01*
X5034467Y-23294936D02*
X5024944Y-23304460D01*
X5024944Y-23304460D02*
X5005896Y-23313984D01*
X5005896Y-23313984D02*
X4967801Y-23313984D01*
X4967801Y-23313984D02*
X4948753Y-23304460D01*
X5129705Y-23294936D02*
X5139229Y-23304460D01*
X5139229Y-23304460D02*
X5129705Y-23313984D01*
X5129705Y-23313984D02*
X5120182Y-23304460D01*
X5120182Y-23304460D02*
X5129705Y-23294936D01*
X5129705Y-23294936D02*
X5129705Y-23313984D01*
X5129705Y-23190174D02*
X5139229Y-23199698D01*
X5139229Y-23199698D02*
X5129705Y-23209222D01*
X5129705Y-23209222D02*
X5120182Y-23199698D01*
X5120182Y-23199698D02*
X5129705Y-23190174D01*
X5129705Y-23190174D02*
X5129705Y-23209222D01*
D12*
X3457500Y-23622500D02*
X3497500Y-23662500D01*
X3497500Y-23622500D02*
X3457500Y-23662500D01*
D11*
X3796372Y-23533984D02*
X3815420Y-23533984D01*
X3815420Y-23533984D02*
X3834467Y-23543508D01*
X3834467Y-23543508D02*
X3843991Y-23553031D01*
X3843991Y-23553031D02*
X3853515Y-23572079D01*
X3853515Y-23572079D02*
X3863039Y-23610174D01*
X3863039Y-23610174D02*
X3863039Y-23657793D01*
X3863039Y-23657793D02*
X3853515Y-23695888D01*
X3853515Y-23695888D02*
X3843991Y-23714936D01*
X3843991Y-23714936D02*
X3834467Y-23724460D01*
X3834467Y-23724460D02*
X3815420Y-23733984D01*
X3815420Y-23733984D02*
X3796372Y-23733984D01*
X3796372Y-23733984D02*
X3777324Y-23724460D01*
X3777324Y-23724460D02*
X3767801Y-23714936D01*
X3767801Y-23714936D02*
X3758277Y-23695888D01*
X3758277Y-23695888D02*
X3748753Y-23657793D01*
X3748753Y-23657793D02*
X3748753Y-23610174D01*
X3748753Y-23610174D02*
X3758277Y-23572079D01*
X3758277Y-23572079D02*
X3767801Y-23553031D01*
X3767801Y-23553031D02*
X3777324Y-23543508D01*
X3777324Y-23543508D02*
X3796372Y-23533984D01*
X3948753Y-23714936D02*
X3958277Y-23724460D01*
X3958277Y-23724460D02*
X3948753Y-23733984D01*
X3948753Y-23733984D02*
X3939229Y-23724460D01*
X3939229Y-23724460D02*
X3948753Y-23714936D01*
X3948753Y-23714936D02*
X3948753Y-23733984D01*
X4129705Y-23600650D02*
X4129705Y-23733984D01*
X4082086Y-23524460D02*
X4034467Y-23667317D01*
X4034467Y-23667317D02*
X4158277Y-23667317D01*
X4272563Y-23533984D02*
X4291610Y-23533984D01*
X4291610Y-23533984D02*
X4310658Y-23543508D01*
X4310658Y-23543508D02*
X4320182Y-23553031D01*
X4320182Y-23553031D02*
X4329705Y-23572079D01*
X4329705Y-23572079D02*
X4339229Y-23610174D01*
X4339229Y-23610174D02*
X4339229Y-23657793D01*
X4339229Y-23657793D02*
X4329705Y-23695888D01*
X4329705Y-23695888D02*
X4320182Y-23714936D01*
X4320182Y-23714936D02*
X4310658Y-23724460D01*
X4310658Y-23724460D02*
X4291610Y-23733984D01*
X4291610Y-23733984D02*
X4272563Y-23733984D01*
X4272563Y-23733984D02*
X4253515Y-23724460D01*
X4253515Y-23724460D02*
X4243991Y-23714936D01*
X4243991Y-23714936D02*
X4234467Y-23695888D01*
X4234467Y-23695888D02*
X4224944Y-23657793D01*
X4224944Y-23657793D02*
X4224944Y-23610174D01*
X4224944Y-23610174D02*
X4234467Y-23572079D01*
X4234467Y-23572079D02*
X4243991Y-23553031D01*
X4243991Y-23553031D02*
X4253515Y-23543508D01*
X4253515Y-23543508D02*
X4272563Y-23533984D01*
X4463039Y-23533984D02*
X4482086Y-23533984D01*
X4482086Y-23533984D02*
X4501134Y-23543508D01*
X4501134Y-23543508D02*
X4510658Y-23553031D01*
X4510658Y-23553031D02*
X4520182Y-23572079D01*
X4520182Y-23572079D02*
X4529705Y-23610174D01*
X4529705Y-23610174D02*
X4529705Y-23657793D01*
X4529705Y-23657793D02*
X4520182Y-23695888D01*
X4520182Y-23695888D02*
X4510658Y-23714936D01*
X4510658Y-23714936D02*
X4501134Y-23724460D01*
X4501134Y-23724460D02*
X4482086Y-23733984D01*
X4482086Y-23733984D02*
X4463039Y-23733984D01*
X4463039Y-23733984D02*
X4443991Y-23724460D01*
X4443991Y-23724460D02*
X4434467Y-23714936D01*
X4434467Y-23714936D02*
X4424944Y-23695888D01*
X4424944Y-23695888D02*
X4415420Y-23657793D01*
X4415420Y-23657793D02*
X4415420Y-23610174D01*
X4415420Y-23610174D02*
X4424944Y-23572079D01*
X4424944Y-23572079D02*
X4434467Y-23553031D01*
X4434467Y-23553031D02*
X4443991Y-23543508D01*
X4443991Y-23543508D02*
X4463039Y-23533984D01*
X4615420Y-23733984D02*
X4615420Y-23600650D01*
X4615420Y-23619698D02*
X4624944Y-23610174D01*
X4624944Y-23610174D02*
X4643991Y-23600650D01*
X4643991Y-23600650D02*
X4672563Y-23600650D01*
X4672563Y-23600650D02*
X4691610Y-23610174D01*
X4691610Y-23610174D02*
X4701134Y-23629222D01*
X4701134Y-23629222D02*
X4701134Y-23733984D01*
X4701134Y-23629222D02*
X4710658Y-23610174D01*
X4710658Y-23610174D02*
X4729705Y-23600650D01*
X4729705Y-23600650D02*
X4758277Y-23600650D01*
X4758277Y-23600650D02*
X4777325Y-23610174D01*
X4777325Y-23610174D02*
X4786848Y-23629222D01*
X4786848Y-23629222D02*
X4786848Y-23733984D01*
X4882086Y-23733984D02*
X4882086Y-23600650D01*
X4882086Y-23619698D02*
X4891610Y-23610174D01*
X4891610Y-23610174D02*
X4910658Y-23600650D01*
X4910658Y-23600650D02*
X4939229Y-23600650D01*
X4939229Y-23600650D02*
X4958277Y-23610174D01*
X4958277Y-23610174D02*
X4967801Y-23629222D01*
X4967801Y-23629222D02*
X4967801Y-23733984D01*
X4967801Y-23629222D02*
X4977325Y-23610174D01*
X4977325Y-23610174D02*
X4996372Y-23600650D01*
X4996372Y-23600650D02*
X5024944Y-23600650D01*
X5024944Y-23600650D02*
X5043991Y-23610174D01*
X5043991Y-23610174D02*
X5053515Y-23629222D01*
X5053515Y-23629222D02*
X5053515Y-23733984D01*
X5443991Y-23524460D02*
X5272563Y-23781603D01*
X5701134Y-23533984D02*
X5720182Y-23533984D01*
X5720182Y-23533984D02*
X5739229Y-23543508D01*
X5739229Y-23543508D02*
X5748753Y-23553031D01*
X5748753Y-23553031D02*
X5758277Y-23572079D01*
X5758277Y-23572079D02*
X5767801Y-23610174D01*
X5767801Y-23610174D02*
X5767801Y-23657793D01*
X5767801Y-23657793D02*
X5758277Y-23695888D01*
X5758277Y-23695888D02*
X5748753Y-23714936D01*
X5748753Y-23714936D02*
X5739229Y-23724460D01*
X5739229Y-23724460D02*
X5720182Y-23733984D01*
X5720182Y-23733984D02*
X5701134Y-23733984D01*
X5701134Y-23733984D02*
X5682086Y-23724460D01*
X5682086Y-23724460D02*
X5672563Y-23714936D01*
X5672563Y-23714936D02*
X5663039Y-23695888D01*
X5663039Y-23695888D02*
X5653515Y-23657793D01*
X5653515Y-23657793D02*
X5653515Y-23610174D01*
X5653515Y-23610174D02*
X5663039Y-23572079D01*
X5663039Y-23572079D02*
X5672563Y-23553031D01*
X5672563Y-23553031D02*
X5682086Y-23543508D01*
X5682086Y-23543508D02*
X5701134Y-23533984D01*
X5853515Y-23714936D02*
X5863039Y-23724460D01*
X5863039Y-23724460D02*
X5853515Y-23733984D01*
X5853515Y-23733984D02*
X5843991Y-23724460D01*
X5843991Y-23724460D02*
X5853515Y-23714936D01*
X5853515Y-23714936D02*
X5853515Y-23733984D01*
X5986848Y-23533984D02*
X6005896Y-23533984D01*
X6005896Y-23533984D02*
X6024944Y-23543508D01*
X6024944Y-23543508D02*
X6034467Y-23553031D01*
X6034467Y-23553031D02*
X6043991Y-23572079D01*
X6043991Y-23572079D02*
X6053515Y-23610174D01*
X6053515Y-23610174D02*
X6053515Y-23657793D01*
X6053515Y-23657793D02*
X6043991Y-23695888D01*
X6043991Y-23695888D02*
X6034467Y-23714936D01*
X6034467Y-23714936D02*
X6024944Y-23724460D01*
X6024944Y-23724460D02*
X6005896Y-23733984D01*
X6005896Y-23733984D02*
X5986848Y-23733984D01*
X5986848Y-23733984D02*
X5967801Y-23724460D01*
X5967801Y-23724460D02*
X5958277Y-23714936D01*
X5958277Y-23714936D02*
X5948753Y-23695888D01*
X5948753Y-23695888D02*
X5939229Y-23657793D01*
X5939229Y-23657793D02*
X5939229Y-23610174D01*
X5939229Y-23610174D02*
X5948753Y-23572079D01*
X5948753Y-23572079D02*
X5958277Y-23553031D01*
X5958277Y-23553031D02*
X5967801Y-23543508D01*
X5967801Y-23543508D02*
X5986848Y-23533984D01*
X6243991Y-23733984D02*
X6129706Y-23733984D01*
X6186848Y-23733984D02*
X6186848Y-23533984D01*
X6186848Y-23533984D02*
X6167801Y-23562555D01*
X6167801Y-23562555D02*
X6148753Y-23581603D01*
X6148753Y-23581603D02*
X6129706Y-23591127D01*
X6424944Y-23533984D02*
X6329706Y-23533984D01*
X6329706Y-23533984D02*
X6320182Y-23629222D01*
X6320182Y-23629222D02*
X6329706Y-23619698D01*
X6329706Y-23619698D02*
X6348753Y-23610174D01*
X6348753Y-23610174D02*
X6396372Y-23610174D01*
X6396372Y-23610174D02*
X6415420Y-23619698D01*
X6415420Y-23619698D02*
X6424944Y-23629222D01*
X6424944Y-23629222D02*
X6434467Y-23648269D01*
X6434467Y-23648269D02*
X6434467Y-23695888D01*
X6434467Y-23695888D02*
X6424944Y-23714936D01*
X6424944Y-23714936D02*
X6415420Y-23724460D01*
X6415420Y-23724460D02*
X6396372Y-23733984D01*
X6396372Y-23733984D02*
X6348753Y-23733984D01*
X6348753Y-23733984D02*
X6329706Y-23724460D01*
X6329706Y-23724460D02*
X6320182Y-23714936D01*
X6501134Y-23533984D02*
X6634467Y-23533984D01*
X6634467Y-23533984D02*
X6548753Y-23733984D01*
X6701134Y-23533984D02*
X6701134Y-23572079D01*
X6777325Y-23533984D02*
X6777325Y-23572079D01*
X7072563Y-23810174D02*
X7063039Y-23800650D01*
X7063039Y-23800650D02*
X7043991Y-23772079D01*
X7043991Y-23772079D02*
X7034468Y-23753031D01*
X7034468Y-23753031D02*
X7024944Y-23724460D01*
X7024944Y-23724460D02*
X7015420Y-23676841D01*
X7015420Y-23676841D02*
X7015420Y-23638746D01*
X7015420Y-23638746D02*
X7024944Y-23591127D01*
X7024944Y-23591127D02*
X7034468Y-23562555D01*
X7034468Y-23562555D02*
X7043991Y-23543508D01*
X7043991Y-23543508D02*
X7063039Y-23514936D01*
X7063039Y-23514936D02*
X7072563Y-23505412D01*
X7234468Y-23600650D02*
X7234468Y-23733984D01*
X7186848Y-23524460D02*
X7139229Y-23667317D01*
X7139229Y-23667317D02*
X7263039Y-23667317D01*
X7377325Y-23533984D02*
X7396372Y-23533984D01*
X7396372Y-23533984D02*
X7415420Y-23543508D01*
X7415420Y-23543508D02*
X7424944Y-23553031D01*
X7424944Y-23553031D02*
X7434468Y-23572079D01*
X7434468Y-23572079D02*
X7443991Y-23610174D01*
X7443991Y-23610174D02*
X7443991Y-23657793D01*
X7443991Y-23657793D02*
X7434468Y-23695888D01*
X7434468Y-23695888D02*
X7424944Y-23714936D01*
X7424944Y-23714936D02*
X7415420Y-23724460D01*
X7415420Y-23724460D02*
X7396372Y-23733984D01*
X7396372Y-23733984D02*
X7377325Y-23733984D01*
X7377325Y-23733984D02*
X7358277Y-23724460D01*
X7358277Y-23724460D02*
X7348753Y-23714936D01*
X7348753Y-23714936D02*
X7339229Y-23695888D01*
X7339229Y-23695888D02*
X7329706Y-23657793D01*
X7329706Y-23657793D02*
X7329706Y-23610174D01*
X7329706Y-23610174D02*
X7339229Y-23572079D01*
X7339229Y-23572079D02*
X7348753Y-23553031D01*
X7348753Y-23553031D02*
X7358277Y-23543508D01*
X7358277Y-23543508D02*
X7377325Y-23533984D01*
X7682087Y-23733984D02*
X7682087Y-23533984D01*
X7767801Y-23733984D02*
X7767801Y-23629222D01*
X7767801Y-23629222D02*
X7758277Y-23610174D01*
X7758277Y-23610174D02*
X7739230Y-23600650D01*
X7739230Y-23600650D02*
X7710658Y-23600650D01*
X7710658Y-23600650D02*
X7691610Y-23610174D01*
X7691610Y-23610174D02*
X7682087Y-23619698D01*
X7891610Y-23733984D02*
X7872563Y-23724460D01*
X7872563Y-23724460D02*
X7863039Y-23714936D01*
X7863039Y-23714936D02*
X7853515Y-23695888D01*
X7853515Y-23695888D02*
X7853515Y-23638746D01*
X7853515Y-23638746D02*
X7863039Y-23619698D01*
X7863039Y-23619698D02*
X7872563Y-23610174D01*
X7872563Y-23610174D02*
X7891610Y-23600650D01*
X7891610Y-23600650D02*
X7920182Y-23600650D01*
X7920182Y-23600650D02*
X7939230Y-23610174D01*
X7939230Y-23610174D02*
X7948753Y-23619698D01*
X7948753Y-23619698D02*
X7958277Y-23638746D01*
X7958277Y-23638746D02*
X7958277Y-23695888D01*
X7958277Y-23695888D02*
X7948753Y-23714936D01*
X7948753Y-23714936D02*
X7939230Y-23724460D01*
X7939230Y-23724460D02*
X7920182Y-23733984D01*
X7920182Y-23733984D02*
X7891610Y-23733984D01*
X8072563Y-23733984D02*
X8053515Y-23724460D01*
X8053515Y-23724460D02*
X8043991Y-23705412D01*
X8043991Y-23705412D02*
X8043991Y-23533984D01*
X8224944Y-23724460D02*
X8205896Y-23733984D01*
X8205896Y-23733984D02*
X8167801Y-23733984D01*
X8167801Y-23733984D02*
X8148753Y-23724460D01*
X8148753Y-23724460D02*
X8139230Y-23705412D01*
X8139230Y-23705412D02*
X8139230Y-23629222D01*
X8139230Y-23629222D02*
X8148753Y-23610174D01*
X8148753Y-23610174D02*
X8167801Y-23600650D01*
X8167801Y-23600650D02*
X8205896Y-23600650D01*
X8205896Y-23600650D02*
X8224944Y-23610174D01*
X8224944Y-23610174D02*
X8234468Y-23629222D01*
X8234468Y-23629222D02*
X8234468Y-23648269D01*
X8234468Y-23648269D02*
X8139230Y-23667317D01*
X8310658Y-23724460D02*
X8329706Y-23733984D01*
X8329706Y-23733984D02*
X8367801Y-23733984D01*
X8367801Y-23733984D02*
X8386849Y-23724460D01*
X8386849Y-23724460D02*
X8396373Y-23705412D01*
X8396373Y-23705412D02*
X8396373Y-23695888D01*
X8396373Y-23695888D02*
X8386849Y-23676841D01*
X8386849Y-23676841D02*
X8367801Y-23667317D01*
X8367801Y-23667317D02*
X8339230Y-23667317D01*
X8339230Y-23667317D02*
X8320182Y-23657793D01*
X8320182Y-23657793D02*
X8310658Y-23638746D01*
X8310658Y-23638746D02*
X8310658Y-23629222D01*
X8310658Y-23629222D02*
X8320182Y-23610174D01*
X8320182Y-23610174D02*
X8339230Y-23600650D01*
X8339230Y-23600650D02*
X8367801Y-23600650D01*
X8367801Y-23600650D02*
X8386849Y-23610174D01*
X8463039Y-23810174D02*
X8472563Y-23800650D01*
X8472563Y-23800650D02*
X8491611Y-23772079D01*
X8491611Y-23772079D02*
X8501134Y-23753031D01*
X8501134Y-23753031D02*
X8510658Y-23724460D01*
X8510658Y-23724460D02*
X8520182Y-23676841D01*
X8520182Y-23676841D02*
X8520182Y-23638746D01*
X8520182Y-23638746D02*
X8510658Y-23591127D01*
X8510658Y-23591127D02*
X8501134Y-23562555D01*
X8501134Y-23562555D02*
X8491611Y-23543508D01*
X8491611Y-23543508D02*
X8472563Y-23514936D01*
X8472563Y-23514936D02*
X8463039Y-23505412D01*
D12*
X3497500Y-23906500D02*
G75*
G02*
X3417500Y-23906500I-40000J0D01*
G01*
X3417500Y-23906500D02*
G75*
G02*
X3497500Y-23906500I40000J0D01*
G01*
D11*
X3796372Y-23797984D02*
X3815420Y-23797984D01*
X3815420Y-23797984D02*
X3834467Y-23807508D01*
X3834467Y-23807508D02*
X3843991Y-23817031D01*
X3843991Y-23817031D02*
X3853515Y-23836079D01*
X3853515Y-23836079D02*
X3863039Y-23874174D01*
X3863039Y-23874174D02*
X3863039Y-23921793D01*
X3863039Y-23921793D02*
X3853515Y-23959888D01*
X3853515Y-23959888D02*
X3843991Y-23978936D01*
X3843991Y-23978936D02*
X3834467Y-23988460D01*
X3834467Y-23988460D02*
X3815420Y-23997984D01*
X3815420Y-23997984D02*
X3796372Y-23997984D01*
X3796372Y-23997984D02*
X3777324Y-23988460D01*
X3777324Y-23988460D02*
X3767801Y-23978936D01*
X3767801Y-23978936D02*
X3758277Y-23959888D01*
X3758277Y-23959888D02*
X3748753Y-23921793D01*
X3748753Y-23921793D02*
X3748753Y-23874174D01*
X3748753Y-23874174D02*
X3758277Y-23836079D01*
X3758277Y-23836079D02*
X3767801Y-23817031D01*
X3767801Y-23817031D02*
X3777324Y-23807508D01*
X3777324Y-23807508D02*
X3796372Y-23797984D01*
X3948753Y-23978936D02*
X3958277Y-23988460D01*
X3958277Y-23988460D02*
X3948753Y-23997984D01*
X3948753Y-23997984D02*
X3939229Y-23988460D01*
X3939229Y-23988460D02*
X3948753Y-23978936D01*
X3948753Y-23978936D02*
X3948753Y-23997984D01*
X4072562Y-23883698D02*
X4053515Y-23874174D01*
X4053515Y-23874174D02*
X4043991Y-23864650D01*
X4043991Y-23864650D02*
X4034467Y-23845603D01*
X4034467Y-23845603D02*
X4034467Y-23836079D01*
X4034467Y-23836079D02*
X4043991Y-23817031D01*
X4043991Y-23817031D02*
X4053515Y-23807508D01*
X4053515Y-23807508D02*
X4072562Y-23797984D01*
X4072562Y-23797984D02*
X4110658Y-23797984D01*
X4110658Y-23797984D02*
X4129705Y-23807508D01*
X4129705Y-23807508D02*
X4139229Y-23817031D01*
X4139229Y-23817031D02*
X4148753Y-23836079D01*
X4148753Y-23836079D02*
X4148753Y-23845603D01*
X4148753Y-23845603D02*
X4139229Y-23864650D01*
X4139229Y-23864650D02*
X4129705Y-23874174D01*
X4129705Y-23874174D02*
X4110658Y-23883698D01*
X4110658Y-23883698D02*
X4072562Y-23883698D01*
X4072562Y-23883698D02*
X4053515Y-23893222D01*
X4053515Y-23893222D02*
X4043991Y-23902746D01*
X4043991Y-23902746D02*
X4034467Y-23921793D01*
X4034467Y-23921793D02*
X4034467Y-23959888D01*
X4034467Y-23959888D02*
X4043991Y-23978936D01*
X4043991Y-23978936D02*
X4053515Y-23988460D01*
X4053515Y-23988460D02*
X4072562Y-23997984D01*
X4072562Y-23997984D02*
X4110658Y-23997984D01*
X4110658Y-23997984D02*
X4129705Y-23988460D01*
X4129705Y-23988460D02*
X4139229Y-23978936D01*
X4139229Y-23978936D02*
X4148753Y-23959888D01*
X4148753Y-23959888D02*
X4148753Y-23921793D01*
X4148753Y-23921793D02*
X4139229Y-23902746D01*
X4139229Y-23902746D02*
X4129705Y-23893222D01*
X4129705Y-23893222D02*
X4110658Y-23883698D01*
X4272563Y-23797984D02*
X4291610Y-23797984D01*
X4291610Y-23797984D02*
X4310658Y-23807508D01*
X4310658Y-23807508D02*
X4320182Y-23817031D01*
X4320182Y-23817031D02*
X4329705Y-23836079D01*
X4329705Y-23836079D02*
X4339229Y-23874174D01*
X4339229Y-23874174D02*
X4339229Y-23921793D01*
X4339229Y-23921793D02*
X4329705Y-23959888D01*
X4329705Y-23959888D02*
X4320182Y-23978936D01*
X4320182Y-23978936D02*
X4310658Y-23988460D01*
X4310658Y-23988460D02*
X4291610Y-23997984D01*
X4291610Y-23997984D02*
X4272563Y-23997984D01*
X4272563Y-23997984D02*
X4253515Y-23988460D01*
X4253515Y-23988460D02*
X4243991Y-23978936D01*
X4243991Y-23978936D02*
X4234467Y-23959888D01*
X4234467Y-23959888D02*
X4224944Y-23921793D01*
X4224944Y-23921793D02*
X4224944Y-23874174D01*
X4224944Y-23874174D02*
X4234467Y-23836079D01*
X4234467Y-23836079D02*
X4243991Y-23817031D01*
X4243991Y-23817031D02*
X4253515Y-23807508D01*
X4253515Y-23807508D02*
X4272563Y-23797984D01*
X4463039Y-23797984D02*
X4482086Y-23797984D01*
X4482086Y-23797984D02*
X4501134Y-23807508D01*
X4501134Y-23807508D02*
X4510658Y-23817031D01*
X4510658Y-23817031D02*
X4520182Y-23836079D01*
X4520182Y-23836079D02*
X4529705Y-23874174D01*
X4529705Y-23874174D02*
X4529705Y-23921793D01*
X4529705Y-23921793D02*
X4520182Y-23959888D01*
X4520182Y-23959888D02*
X4510658Y-23978936D01*
X4510658Y-23978936D02*
X4501134Y-23988460D01*
X4501134Y-23988460D02*
X4482086Y-23997984D01*
X4482086Y-23997984D02*
X4463039Y-23997984D01*
X4463039Y-23997984D02*
X4443991Y-23988460D01*
X4443991Y-23988460D02*
X4434467Y-23978936D01*
X4434467Y-23978936D02*
X4424944Y-23959888D01*
X4424944Y-23959888D02*
X4415420Y-23921793D01*
X4415420Y-23921793D02*
X4415420Y-23874174D01*
X4415420Y-23874174D02*
X4424944Y-23836079D01*
X4424944Y-23836079D02*
X4434467Y-23817031D01*
X4434467Y-23817031D02*
X4443991Y-23807508D01*
X4443991Y-23807508D02*
X4463039Y-23797984D01*
X4615420Y-23997984D02*
X4615420Y-23864650D01*
X4615420Y-23883698D02*
X4624944Y-23874174D01*
X4624944Y-23874174D02*
X4643991Y-23864650D01*
X4643991Y-23864650D02*
X4672563Y-23864650D01*
X4672563Y-23864650D02*
X4691610Y-23874174D01*
X4691610Y-23874174D02*
X4701134Y-23893222D01*
X4701134Y-23893222D02*
X4701134Y-23997984D01*
X4701134Y-23893222D02*
X4710658Y-23874174D01*
X4710658Y-23874174D02*
X4729705Y-23864650D01*
X4729705Y-23864650D02*
X4758277Y-23864650D01*
X4758277Y-23864650D02*
X4777325Y-23874174D01*
X4777325Y-23874174D02*
X4786848Y-23893222D01*
X4786848Y-23893222D02*
X4786848Y-23997984D01*
X4882086Y-23997984D02*
X4882086Y-23864650D01*
X4882086Y-23883698D02*
X4891610Y-23874174D01*
X4891610Y-23874174D02*
X4910658Y-23864650D01*
X4910658Y-23864650D02*
X4939229Y-23864650D01*
X4939229Y-23864650D02*
X4958277Y-23874174D01*
X4958277Y-23874174D02*
X4967801Y-23893222D01*
X4967801Y-23893222D02*
X4967801Y-23997984D01*
X4967801Y-23893222D02*
X4977325Y-23874174D01*
X4977325Y-23874174D02*
X4996372Y-23864650D01*
X4996372Y-23864650D02*
X5024944Y-23864650D01*
X5024944Y-23864650D02*
X5043991Y-23874174D01*
X5043991Y-23874174D02*
X5053515Y-23893222D01*
X5053515Y-23893222D02*
X5053515Y-23997984D01*
X5443991Y-23788460D02*
X5272563Y-24045603D01*
X5701134Y-23797984D02*
X5720182Y-23797984D01*
X5720182Y-23797984D02*
X5739229Y-23807508D01*
X5739229Y-23807508D02*
X5748753Y-23817031D01*
X5748753Y-23817031D02*
X5758277Y-23836079D01*
X5758277Y-23836079D02*
X5767801Y-23874174D01*
X5767801Y-23874174D02*
X5767801Y-23921793D01*
X5767801Y-23921793D02*
X5758277Y-23959888D01*
X5758277Y-23959888D02*
X5748753Y-23978936D01*
X5748753Y-23978936D02*
X5739229Y-23988460D01*
X5739229Y-23988460D02*
X5720182Y-23997984D01*
X5720182Y-23997984D02*
X5701134Y-23997984D01*
X5701134Y-23997984D02*
X5682086Y-23988460D01*
X5682086Y-23988460D02*
X5672563Y-23978936D01*
X5672563Y-23978936D02*
X5663039Y-23959888D01*
X5663039Y-23959888D02*
X5653515Y-23921793D01*
X5653515Y-23921793D02*
X5653515Y-23874174D01*
X5653515Y-23874174D02*
X5663039Y-23836079D01*
X5663039Y-23836079D02*
X5672563Y-23817031D01*
X5672563Y-23817031D02*
X5682086Y-23807508D01*
X5682086Y-23807508D02*
X5701134Y-23797984D01*
X5853515Y-23978936D02*
X5863039Y-23988460D01*
X5863039Y-23988460D02*
X5853515Y-23997984D01*
X5853515Y-23997984D02*
X5843991Y-23988460D01*
X5843991Y-23988460D02*
X5853515Y-23978936D01*
X5853515Y-23978936D02*
X5853515Y-23997984D01*
X5986848Y-23797984D02*
X6005896Y-23797984D01*
X6005896Y-23797984D02*
X6024944Y-23807508D01*
X6024944Y-23807508D02*
X6034467Y-23817031D01*
X6034467Y-23817031D02*
X6043991Y-23836079D01*
X6043991Y-23836079D02*
X6053515Y-23874174D01*
X6053515Y-23874174D02*
X6053515Y-23921793D01*
X6053515Y-23921793D02*
X6043991Y-23959888D01*
X6043991Y-23959888D02*
X6034467Y-23978936D01*
X6034467Y-23978936D02*
X6024944Y-23988460D01*
X6024944Y-23988460D02*
X6005896Y-23997984D01*
X6005896Y-23997984D02*
X5986848Y-23997984D01*
X5986848Y-23997984D02*
X5967801Y-23988460D01*
X5967801Y-23988460D02*
X5958277Y-23978936D01*
X5958277Y-23978936D02*
X5948753Y-23959888D01*
X5948753Y-23959888D02*
X5939229Y-23921793D01*
X5939229Y-23921793D02*
X5939229Y-23874174D01*
X5939229Y-23874174D02*
X5948753Y-23836079D01*
X5948753Y-23836079D02*
X5958277Y-23817031D01*
X5958277Y-23817031D02*
X5967801Y-23807508D01*
X5967801Y-23807508D02*
X5986848Y-23797984D01*
X6120182Y-23797984D02*
X6243991Y-23797984D01*
X6243991Y-23797984D02*
X6177325Y-23874174D01*
X6177325Y-23874174D02*
X6205896Y-23874174D01*
X6205896Y-23874174D02*
X6224944Y-23883698D01*
X6224944Y-23883698D02*
X6234467Y-23893222D01*
X6234467Y-23893222D02*
X6243991Y-23912269D01*
X6243991Y-23912269D02*
X6243991Y-23959888D01*
X6243991Y-23959888D02*
X6234467Y-23978936D01*
X6234467Y-23978936D02*
X6224944Y-23988460D01*
X6224944Y-23988460D02*
X6205896Y-23997984D01*
X6205896Y-23997984D02*
X6148753Y-23997984D01*
X6148753Y-23997984D02*
X6129706Y-23988460D01*
X6129706Y-23988460D02*
X6120182Y-23978936D01*
X6434467Y-23997984D02*
X6320182Y-23997984D01*
X6377325Y-23997984D02*
X6377325Y-23797984D01*
X6377325Y-23797984D02*
X6358277Y-23826555D01*
X6358277Y-23826555D02*
X6339229Y-23845603D01*
X6339229Y-23845603D02*
X6320182Y-23855127D01*
X6615420Y-23797984D02*
X6520182Y-23797984D01*
X6520182Y-23797984D02*
X6510658Y-23893222D01*
X6510658Y-23893222D02*
X6520182Y-23883698D01*
X6520182Y-23883698D02*
X6539229Y-23874174D01*
X6539229Y-23874174D02*
X6586848Y-23874174D01*
X6586848Y-23874174D02*
X6605896Y-23883698D01*
X6605896Y-23883698D02*
X6615420Y-23893222D01*
X6615420Y-23893222D02*
X6624944Y-23912269D01*
X6624944Y-23912269D02*
X6624944Y-23959888D01*
X6624944Y-23959888D02*
X6615420Y-23978936D01*
X6615420Y-23978936D02*
X6605896Y-23988460D01*
X6605896Y-23988460D02*
X6586848Y-23997984D01*
X6586848Y-23997984D02*
X6539229Y-23997984D01*
X6539229Y-23997984D02*
X6520182Y-23988460D01*
X6520182Y-23988460D02*
X6510658Y-23978936D01*
X6701134Y-23797984D02*
X6701134Y-23836079D01*
X6777325Y-23797984D02*
X6777325Y-23836079D01*
X7072563Y-24074174D02*
X7063039Y-24064650D01*
X7063039Y-24064650D02*
X7043991Y-24036079D01*
X7043991Y-24036079D02*
X7034468Y-24017031D01*
X7034468Y-24017031D02*
X7024944Y-23988460D01*
X7024944Y-23988460D02*
X7015420Y-23940841D01*
X7015420Y-23940841D02*
X7015420Y-23902746D01*
X7015420Y-23902746D02*
X7024944Y-23855127D01*
X7024944Y-23855127D02*
X7034468Y-23826555D01*
X7034468Y-23826555D02*
X7043991Y-23807508D01*
X7043991Y-23807508D02*
X7063039Y-23778936D01*
X7063039Y-23778936D02*
X7072563Y-23769412D01*
X7129706Y-23797984D02*
X7263039Y-23797984D01*
X7263039Y-23797984D02*
X7177325Y-23997984D01*
X7434468Y-23797984D02*
X7339229Y-23797984D01*
X7339229Y-23797984D02*
X7329706Y-23893222D01*
X7329706Y-23893222D02*
X7339229Y-23883698D01*
X7339229Y-23883698D02*
X7358277Y-23874174D01*
X7358277Y-23874174D02*
X7405896Y-23874174D01*
X7405896Y-23874174D02*
X7424944Y-23883698D01*
X7424944Y-23883698D02*
X7434468Y-23893222D01*
X7434468Y-23893222D02*
X7443991Y-23912269D01*
X7443991Y-23912269D02*
X7443991Y-23959888D01*
X7443991Y-23959888D02*
X7434468Y-23978936D01*
X7434468Y-23978936D02*
X7424944Y-23988460D01*
X7424944Y-23988460D02*
X7405896Y-23997984D01*
X7405896Y-23997984D02*
X7358277Y-23997984D01*
X7358277Y-23997984D02*
X7339229Y-23988460D01*
X7339229Y-23988460D02*
X7329706Y-23978936D01*
X7682087Y-23997984D02*
X7682087Y-23797984D01*
X7767801Y-23997984D02*
X7767801Y-23893222D01*
X7767801Y-23893222D02*
X7758277Y-23874174D01*
X7758277Y-23874174D02*
X7739230Y-23864650D01*
X7739230Y-23864650D02*
X7710658Y-23864650D01*
X7710658Y-23864650D02*
X7691610Y-23874174D01*
X7691610Y-23874174D02*
X7682087Y-23883698D01*
X7891610Y-23997984D02*
X7872563Y-23988460D01*
X7872563Y-23988460D02*
X7863039Y-23978936D01*
X7863039Y-23978936D02*
X7853515Y-23959888D01*
X7853515Y-23959888D02*
X7853515Y-23902746D01*
X7853515Y-23902746D02*
X7863039Y-23883698D01*
X7863039Y-23883698D02*
X7872563Y-23874174D01*
X7872563Y-23874174D02*
X7891610Y-23864650D01*
X7891610Y-23864650D02*
X7920182Y-23864650D01*
X7920182Y-23864650D02*
X7939230Y-23874174D01*
X7939230Y-23874174D02*
X7948753Y-23883698D01*
X7948753Y-23883698D02*
X7958277Y-23902746D01*
X7958277Y-23902746D02*
X7958277Y-23959888D01*
X7958277Y-23959888D02*
X7948753Y-23978936D01*
X7948753Y-23978936D02*
X7939230Y-23988460D01*
X7939230Y-23988460D02*
X7920182Y-23997984D01*
X7920182Y-23997984D02*
X7891610Y-23997984D01*
X8072563Y-23997984D02*
X8053515Y-23988460D01*
X8053515Y-23988460D02*
X8043991Y-23969412D01*
X8043991Y-23969412D02*
X8043991Y-23797984D01*
X8224944Y-23988460D02*
X8205896Y-23997984D01*
X8205896Y-23997984D02*
X8167801Y-23997984D01*
X8167801Y-23997984D02*
X8148753Y-23988460D01*
X8148753Y-23988460D02*
X8139230Y-23969412D01*
X8139230Y-23969412D02*
X8139230Y-23893222D01*
X8139230Y-23893222D02*
X8148753Y-23874174D01*
X8148753Y-23874174D02*
X8167801Y-23864650D01*
X8167801Y-23864650D02*
X8205896Y-23864650D01*
X8205896Y-23864650D02*
X8224944Y-23874174D01*
X8224944Y-23874174D02*
X8234468Y-23893222D01*
X8234468Y-23893222D02*
X8234468Y-23912269D01*
X8234468Y-23912269D02*
X8139230Y-23931317D01*
X8310658Y-23988460D02*
X8329706Y-23997984D01*
X8329706Y-23997984D02*
X8367801Y-23997984D01*
X8367801Y-23997984D02*
X8386849Y-23988460D01*
X8386849Y-23988460D02*
X8396373Y-23969412D01*
X8396373Y-23969412D02*
X8396373Y-23959888D01*
X8396373Y-23959888D02*
X8386849Y-23940841D01*
X8386849Y-23940841D02*
X8367801Y-23931317D01*
X8367801Y-23931317D02*
X8339230Y-23931317D01*
X8339230Y-23931317D02*
X8320182Y-23921793D01*
X8320182Y-23921793D02*
X8310658Y-23902746D01*
X8310658Y-23902746D02*
X8310658Y-23893222D01*
X8310658Y-23893222D02*
X8320182Y-23874174D01*
X8320182Y-23874174D02*
X8339230Y-23864650D01*
X8339230Y-23864650D02*
X8367801Y-23864650D01*
X8367801Y-23864650D02*
X8386849Y-23874174D01*
X8463039Y-24074174D02*
X8472563Y-24064650D01*
X8472563Y-24064650D02*
X8491611Y-24036079D01*
X8491611Y-24036079D02*
X8501134Y-24017031D01*
X8501134Y-24017031D02*
X8510658Y-23988460D01*
X8510658Y-23988460D02*
X8520182Y-23940841D01*
X8520182Y-23940841D02*
X8520182Y-23902746D01*
X8520182Y-23902746D02*
X8510658Y-23855127D01*
X8510658Y-23855127D02*
X8501134Y-23826555D01*
X8501134Y-23826555D02*
X8491611Y-23807508D01*
X8491611Y-23807508D02*
X8472563Y-23778936D01*
X8472563Y-23778936D02*
X8463039Y-23769412D01*
D12*
X3452500Y-24125500D02*
X3452500Y-24215500D01*
X3407500Y-24170500D02*
X3497500Y-24170500D01*
D11*
X3796372Y-24061984D02*
X3815420Y-24061984D01*
X3815420Y-24061984D02*
X3834467Y-24071508D01*
X3834467Y-24071508D02*
X3843991Y-24081031D01*
X3843991Y-24081031D02*
X3853515Y-24100079D01*
X3853515Y-24100079D02*
X3863039Y-24138174D01*
X3863039Y-24138174D02*
X3863039Y-24185793D01*
X3863039Y-24185793D02*
X3853515Y-24223888D01*
X3853515Y-24223888D02*
X3843991Y-24242936D01*
X3843991Y-24242936D02*
X3834467Y-24252460D01*
X3834467Y-24252460D02*
X3815420Y-24261984D01*
X3815420Y-24261984D02*
X3796372Y-24261984D01*
X3796372Y-24261984D02*
X3777324Y-24252460D01*
X3777324Y-24252460D02*
X3767801Y-24242936D01*
X3767801Y-24242936D02*
X3758277Y-24223888D01*
X3758277Y-24223888D02*
X3748753Y-24185793D01*
X3748753Y-24185793D02*
X3748753Y-24138174D01*
X3748753Y-24138174D02*
X3758277Y-24100079D01*
X3758277Y-24100079D02*
X3767801Y-24081031D01*
X3767801Y-24081031D02*
X3777324Y-24071508D01*
X3777324Y-24071508D02*
X3796372Y-24061984D01*
X3948753Y-24242936D02*
X3958277Y-24252460D01*
X3958277Y-24252460D02*
X3948753Y-24261984D01*
X3948753Y-24261984D02*
X3939229Y-24252460D01*
X3939229Y-24252460D02*
X3948753Y-24242936D01*
X3948753Y-24242936D02*
X3948753Y-24261984D01*
X4053515Y-24261984D02*
X4091610Y-24261984D01*
X4091610Y-24261984D02*
X4110658Y-24252460D01*
X4110658Y-24252460D02*
X4120182Y-24242936D01*
X4120182Y-24242936D02*
X4139229Y-24214365D01*
X4139229Y-24214365D02*
X4148753Y-24176269D01*
X4148753Y-24176269D02*
X4148753Y-24100079D01*
X4148753Y-24100079D02*
X4139229Y-24081031D01*
X4139229Y-24081031D02*
X4129705Y-24071508D01*
X4129705Y-24071508D02*
X4110658Y-24061984D01*
X4110658Y-24061984D02*
X4072562Y-24061984D01*
X4072562Y-24061984D02*
X4053515Y-24071508D01*
X4053515Y-24071508D02*
X4043991Y-24081031D01*
X4043991Y-24081031D02*
X4034467Y-24100079D01*
X4034467Y-24100079D02*
X4034467Y-24147698D01*
X4034467Y-24147698D02*
X4043991Y-24166746D01*
X4043991Y-24166746D02*
X4053515Y-24176269D01*
X4053515Y-24176269D02*
X4072562Y-24185793D01*
X4072562Y-24185793D02*
X4110658Y-24185793D01*
X4110658Y-24185793D02*
X4129705Y-24176269D01*
X4129705Y-24176269D02*
X4139229Y-24166746D01*
X4139229Y-24166746D02*
X4148753Y-24147698D01*
X4272563Y-24061984D02*
X4291610Y-24061984D01*
X4291610Y-24061984D02*
X4310658Y-24071508D01*
X4310658Y-24071508D02*
X4320182Y-24081031D01*
X4320182Y-24081031D02*
X4329705Y-24100079D01*
X4329705Y-24100079D02*
X4339229Y-24138174D01*
X4339229Y-24138174D02*
X4339229Y-24185793D01*
X4339229Y-24185793D02*
X4329705Y-24223888D01*
X4329705Y-24223888D02*
X4320182Y-24242936D01*
X4320182Y-24242936D02*
X4310658Y-24252460D01*
X4310658Y-24252460D02*
X4291610Y-24261984D01*
X4291610Y-24261984D02*
X4272563Y-24261984D01*
X4272563Y-24261984D02*
X4253515Y-24252460D01*
X4253515Y-24252460D02*
X4243991Y-24242936D01*
X4243991Y-24242936D02*
X4234467Y-24223888D01*
X4234467Y-24223888D02*
X4224944Y-24185793D01*
X4224944Y-24185793D02*
X4224944Y-24138174D01*
X4224944Y-24138174D02*
X4234467Y-24100079D01*
X4234467Y-24100079D02*
X4243991Y-24081031D01*
X4243991Y-24081031D02*
X4253515Y-24071508D01*
X4253515Y-24071508D02*
X4272563Y-24061984D01*
X4463039Y-24061984D02*
X4482086Y-24061984D01*
X4482086Y-24061984D02*
X4501134Y-24071508D01*
X4501134Y-24071508D02*
X4510658Y-24081031D01*
X4510658Y-24081031D02*
X4520182Y-24100079D01*
X4520182Y-24100079D02*
X4529705Y-24138174D01*
X4529705Y-24138174D02*
X4529705Y-24185793D01*
X4529705Y-24185793D02*
X4520182Y-24223888D01*
X4520182Y-24223888D02*
X4510658Y-24242936D01*
X4510658Y-24242936D02*
X4501134Y-24252460D01*
X4501134Y-24252460D02*
X4482086Y-24261984D01*
X4482086Y-24261984D02*
X4463039Y-24261984D01*
X4463039Y-24261984D02*
X4443991Y-24252460D01*
X4443991Y-24252460D02*
X4434467Y-24242936D01*
X4434467Y-24242936D02*
X4424944Y-24223888D01*
X4424944Y-24223888D02*
X4415420Y-24185793D01*
X4415420Y-24185793D02*
X4415420Y-24138174D01*
X4415420Y-24138174D02*
X4424944Y-24100079D01*
X4424944Y-24100079D02*
X4434467Y-24081031D01*
X4434467Y-24081031D02*
X4443991Y-24071508D01*
X4443991Y-24071508D02*
X4463039Y-24061984D01*
X4615420Y-24261984D02*
X4615420Y-24128650D01*
X4615420Y-24147698D02*
X4624944Y-24138174D01*
X4624944Y-24138174D02*
X4643991Y-24128650D01*
X4643991Y-24128650D02*
X4672563Y-24128650D01*
X4672563Y-24128650D02*
X4691610Y-24138174D01*
X4691610Y-24138174D02*
X4701134Y-24157222D01*
X4701134Y-24157222D02*
X4701134Y-24261984D01*
X4701134Y-24157222D02*
X4710658Y-24138174D01*
X4710658Y-24138174D02*
X4729705Y-24128650D01*
X4729705Y-24128650D02*
X4758277Y-24128650D01*
X4758277Y-24128650D02*
X4777325Y-24138174D01*
X4777325Y-24138174D02*
X4786848Y-24157222D01*
X4786848Y-24157222D02*
X4786848Y-24261984D01*
X4882086Y-24261984D02*
X4882086Y-24128650D01*
X4882086Y-24147698D02*
X4891610Y-24138174D01*
X4891610Y-24138174D02*
X4910658Y-24128650D01*
X4910658Y-24128650D02*
X4939229Y-24128650D01*
X4939229Y-24128650D02*
X4958277Y-24138174D01*
X4958277Y-24138174D02*
X4967801Y-24157222D01*
X4967801Y-24157222D02*
X4967801Y-24261984D01*
X4967801Y-24157222D02*
X4977325Y-24138174D01*
X4977325Y-24138174D02*
X4996372Y-24128650D01*
X4996372Y-24128650D02*
X5024944Y-24128650D01*
X5024944Y-24128650D02*
X5043991Y-24138174D01*
X5043991Y-24138174D02*
X5053515Y-24157222D01*
X5053515Y-24157222D02*
X5053515Y-24261984D01*
X5443991Y-24052460D02*
X5272563Y-24309603D01*
X5701134Y-24061984D02*
X5720182Y-24061984D01*
X5720182Y-24061984D02*
X5739229Y-24071508D01*
X5739229Y-24071508D02*
X5748753Y-24081031D01*
X5748753Y-24081031D02*
X5758277Y-24100079D01*
X5758277Y-24100079D02*
X5767801Y-24138174D01*
X5767801Y-24138174D02*
X5767801Y-24185793D01*
X5767801Y-24185793D02*
X5758277Y-24223888D01*
X5758277Y-24223888D02*
X5748753Y-24242936D01*
X5748753Y-24242936D02*
X5739229Y-24252460D01*
X5739229Y-24252460D02*
X5720182Y-24261984D01*
X5720182Y-24261984D02*
X5701134Y-24261984D01*
X5701134Y-24261984D02*
X5682086Y-24252460D01*
X5682086Y-24252460D02*
X5672563Y-24242936D01*
X5672563Y-24242936D02*
X5663039Y-24223888D01*
X5663039Y-24223888D02*
X5653515Y-24185793D01*
X5653515Y-24185793D02*
X5653515Y-24138174D01*
X5653515Y-24138174D02*
X5663039Y-24100079D01*
X5663039Y-24100079D02*
X5672563Y-24081031D01*
X5672563Y-24081031D02*
X5682086Y-24071508D01*
X5682086Y-24071508D02*
X5701134Y-24061984D01*
X5853515Y-24242936D02*
X5863039Y-24252460D01*
X5863039Y-24252460D02*
X5853515Y-24261984D01*
X5853515Y-24261984D02*
X5843991Y-24252460D01*
X5843991Y-24252460D02*
X5853515Y-24242936D01*
X5853515Y-24242936D02*
X5853515Y-24261984D01*
X5986848Y-24061984D02*
X6005896Y-24061984D01*
X6005896Y-24061984D02*
X6024944Y-24071508D01*
X6024944Y-24071508D02*
X6034467Y-24081031D01*
X6034467Y-24081031D02*
X6043991Y-24100079D01*
X6043991Y-24100079D02*
X6053515Y-24138174D01*
X6053515Y-24138174D02*
X6053515Y-24185793D01*
X6053515Y-24185793D02*
X6043991Y-24223888D01*
X6043991Y-24223888D02*
X6034467Y-24242936D01*
X6034467Y-24242936D02*
X6024944Y-24252460D01*
X6024944Y-24252460D02*
X6005896Y-24261984D01*
X6005896Y-24261984D02*
X5986848Y-24261984D01*
X5986848Y-24261984D02*
X5967801Y-24252460D01*
X5967801Y-24252460D02*
X5958277Y-24242936D01*
X5958277Y-24242936D02*
X5948753Y-24223888D01*
X5948753Y-24223888D02*
X5939229Y-24185793D01*
X5939229Y-24185793D02*
X5939229Y-24138174D01*
X5939229Y-24138174D02*
X5948753Y-24100079D01*
X5948753Y-24100079D02*
X5958277Y-24081031D01*
X5958277Y-24081031D02*
X5967801Y-24071508D01*
X5967801Y-24071508D02*
X5986848Y-24061984D01*
X6120182Y-24061984D02*
X6243991Y-24061984D01*
X6243991Y-24061984D02*
X6177325Y-24138174D01*
X6177325Y-24138174D02*
X6205896Y-24138174D01*
X6205896Y-24138174D02*
X6224944Y-24147698D01*
X6224944Y-24147698D02*
X6234467Y-24157222D01*
X6234467Y-24157222D02*
X6243991Y-24176269D01*
X6243991Y-24176269D02*
X6243991Y-24223888D01*
X6243991Y-24223888D02*
X6234467Y-24242936D01*
X6234467Y-24242936D02*
X6224944Y-24252460D01*
X6224944Y-24252460D02*
X6205896Y-24261984D01*
X6205896Y-24261984D02*
X6148753Y-24261984D01*
X6148753Y-24261984D02*
X6129706Y-24252460D01*
X6129706Y-24252460D02*
X6120182Y-24242936D01*
X6424944Y-24061984D02*
X6329706Y-24061984D01*
X6329706Y-24061984D02*
X6320182Y-24157222D01*
X6320182Y-24157222D02*
X6329706Y-24147698D01*
X6329706Y-24147698D02*
X6348753Y-24138174D01*
X6348753Y-24138174D02*
X6396372Y-24138174D01*
X6396372Y-24138174D02*
X6415420Y-24147698D01*
X6415420Y-24147698D02*
X6424944Y-24157222D01*
X6424944Y-24157222D02*
X6434467Y-24176269D01*
X6434467Y-24176269D02*
X6434467Y-24223888D01*
X6434467Y-24223888D02*
X6424944Y-24242936D01*
X6424944Y-24242936D02*
X6415420Y-24252460D01*
X6415420Y-24252460D02*
X6396372Y-24261984D01*
X6396372Y-24261984D02*
X6348753Y-24261984D01*
X6348753Y-24261984D02*
X6329706Y-24252460D01*
X6329706Y-24252460D02*
X6320182Y-24242936D01*
X6605896Y-24128650D02*
X6605896Y-24261984D01*
X6558277Y-24052460D02*
X6510658Y-24195317D01*
X6510658Y-24195317D02*
X6634467Y-24195317D01*
X6701134Y-24061984D02*
X6701134Y-24100079D01*
X6777325Y-24061984D02*
X6777325Y-24100079D01*
X7072563Y-24338174D02*
X7063039Y-24328650D01*
X7063039Y-24328650D02*
X7043991Y-24300079D01*
X7043991Y-24300079D02*
X7034468Y-24281031D01*
X7034468Y-24281031D02*
X7024944Y-24252460D01*
X7024944Y-24252460D02*
X7015420Y-24204841D01*
X7015420Y-24204841D02*
X7015420Y-24166746D01*
X7015420Y-24166746D02*
X7024944Y-24119127D01*
X7024944Y-24119127D02*
X7034468Y-24090555D01*
X7034468Y-24090555D02*
X7043991Y-24071508D01*
X7043991Y-24071508D02*
X7063039Y-24042936D01*
X7063039Y-24042936D02*
X7072563Y-24033412D01*
X7253515Y-24261984D02*
X7139229Y-24261984D01*
X7196372Y-24261984D02*
X7196372Y-24061984D01*
X7196372Y-24061984D02*
X7177325Y-24090555D01*
X7177325Y-24090555D02*
X7158277Y-24109603D01*
X7158277Y-24109603D02*
X7139229Y-24119127D01*
X7367801Y-24147698D02*
X7348753Y-24138174D01*
X7348753Y-24138174D02*
X7339229Y-24128650D01*
X7339229Y-24128650D02*
X7329706Y-24109603D01*
X7329706Y-24109603D02*
X7329706Y-24100079D01*
X7329706Y-24100079D02*
X7339229Y-24081031D01*
X7339229Y-24081031D02*
X7348753Y-24071508D01*
X7348753Y-24071508D02*
X7367801Y-24061984D01*
X7367801Y-24061984D02*
X7405896Y-24061984D01*
X7405896Y-24061984D02*
X7424944Y-24071508D01*
X7424944Y-24071508D02*
X7434468Y-24081031D01*
X7434468Y-24081031D02*
X7443991Y-24100079D01*
X7443991Y-24100079D02*
X7443991Y-24109603D01*
X7443991Y-24109603D02*
X7434468Y-24128650D01*
X7434468Y-24128650D02*
X7424944Y-24138174D01*
X7424944Y-24138174D02*
X7405896Y-24147698D01*
X7405896Y-24147698D02*
X7367801Y-24147698D01*
X7367801Y-24147698D02*
X7348753Y-24157222D01*
X7348753Y-24157222D02*
X7339229Y-24166746D01*
X7339229Y-24166746D02*
X7329706Y-24185793D01*
X7329706Y-24185793D02*
X7329706Y-24223888D01*
X7329706Y-24223888D02*
X7339229Y-24242936D01*
X7339229Y-24242936D02*
X7348753Y-24252460D01*
X7348753Y-24252460D02*
X7367801Y-24261984D01*
X7367801Y-24261984D02*
X7405896Y-24261984D01*
X7405896Y-24261984D02*
X7424944Y-24252460D01*
X7424944Y-24252460D02*
X7434468Y-24242936D01*
X7434468Y-24242936D02*
X7443991Y-24223888D01*
X7443991Y-24223888D02*
X7443991Y-24185793D01*
X7443991Y-24185793D02*
X7434468Y-24166746D01*
X7434468Y-24166746D02*
X7424944Y-24157222D01*
X7424944Y-24157222D02*
X7405896Y-24147698D01*
X7682087Y-24261984D02*
X7682087Y-24061984D01*
X7767801Y-24261984D02*
X7767801Y-24157222D01*
X7767801Y-24157222D02*
X7758277Y-24138174D01*
X7758277Y-24138174D02*
X7739230Y-24128650D01*
X7739230Y-24128650D02*
X7710658Y-24128650D01*
X7710658Y-24128650D02*
X7691610Y-24138174D01*
X7691610Y-24138174D02*
X7682087Y-24147698D01*
X7891610Y-24261984D02*
X7872563Y-24252460D01*
X7872563Y-24252460D02*
X7863039Y-24242936D01*
X7863039Y-24242936D02*
X7853515Y-24223888D01*
X7853515Y-24223888D02*
X7853515Y-24166746D01*
X7853515Y-24166746D02*
X7863039Y-24147698D01*
X7863039Y-24147698D02*
X7872563Y-24138174D01*
X7872563Y-24138174D02*
X7891610Y-24128650D01*
X7891610Y-24128650D02*
X7920182Y-24128650D01*
X7920182Y-24128650D02*
X7939230Y-24138174D01*
X7939230Y-24138174D02*
X7948753Y-24147698D01*
X7948753Y-24147698D02*
X7958277Y-24166746D01*
X7958277Y-24166746D02*
X7958277Y-24223888D01*
X7958277Y-24223888D02*
X7948753Y-24242936D01*
X7948753Y-24242936D02*
X7939230Y-24252460D01*
X7939230Y-24252460D02*
X7920182Y-24261984D01*
X7920182Y-24261984D02*
X7891610Y-24261984D01*
X8072563Y-24261984D02*
X8053515Y-24252460D01*
X8053515Y-24252460D02*
X8043991Y-24233412D01*
X8043991Y-24233412D02*
X8043991Y-24061984D01*
X8224944Y-24252460D02*
X8205896Y-24261984D01*
X8205896Y-24261984D02*
X8167801Y-24261984D01*
X8167801Y-24261984D02*
X8148753Y-24252460D01*
X8148753Y-24252460D02*
X8139230Y-24233412D01*
X8139230Y-24233412D02*
X8139230Y-24157222D01*
X8139230Y-24157222D02*
X8148753Y-24138174D01*
X8148753Y-24138174D02*
X8167801Y-24128650D01*
X8167801Y-24128650D02*
X8205896Y-24128650D01*
X8205896Y-24128650D02*
X8224944Y-24138174D01*
X8224944Y-24138174D02*
X8234468Y-24157222D01*
X8234468Y-24157222D02*
X8234468Y-24176269D01*
X8234468Y-24176269D02*
X8139230Y-24195317D01*
X8310658Y-24252460D02*
X8329706Y-24261984D01*
X8329706Y-24261984D02*
X8367801Y-24261984D01*
X8367801Y-24261984D02*
X8386849Y-24252460D01*
X8386849Y-24252460D02*
X8396373Y-24233412D01*
X8396373Y-24233412D02*
X8396373Y-24223888D01*
X8396373Y-24223888D02*
X8386849Y-24204841D01*
X8386849Y-24204841D02*
X8367801Y-24195317D01*
X8367801Y-24195317D02*
X8339230Y-24195317D01*
X8339230Y-24195317D02*
X8320182Y-24185793D01*
X8320182Y-24185793D02*
X8310658Y-24166746D01*
X8310658Y-24166746D02*
X8310658Y-24157222D01*
X8310658Y-24157222D02*
X8320182Y-24138174D01*
X8320182Y-24138174D02*
X8339230Y-24128650D01*
X8339230Y-24128650D02*
X8367801Y-24128650D01*
X8367801Y-24128650D02*
X8386849Y-24138174D01*
X8463039Y-24338174D02*
X8472563Y-24328650D01*
X8472563Y-24328650D02*
X8491611Y-24300079D01*
X8491611Y-24300079D02*
X8501134Y-24281031D01*
X8501134Y-24281031D02*
X8510658Y-24252460D01*
X8510658Y-24252460D02*
X8520182Y-24204841D01*
X8520182Y-24204841D02*
X8520182Y-24166746D01*
X8520182Y-24166746D02*
X8510658Y-24119127D01*
X8510658Y-24119127D02*
X8501134Y-24090555D01*
X8501134Y-24090555D02*
X8491611Y-24071508D01*
X8491611Y-24071508D02*
X8472563Y-24042936D01*
X8472563Y-24042936D02*
X8463039Y-24033412D01*
D12*
X3482856Y-24469856D02*
X3482856Y-24399144D01*
X3412144Y-24399144D01*
X3412144Y-24469856D01*
X3482856Y-24469856D01*
D11*
X3863039Y-24525984D02*
X3748753Y-24525984D01*
X3805896Y-24525984D02*
X3805896Y-24325984D01*
X3805896Y-24325984D02*
X3786848Y-24354555D01*
X3786848Y-24354555D02*
X3767801Y-24373603D01*
X3767801Y-24373603D02*
X3748753Y-24383127D01*
X3948753Y-24506936D02*
X3958277Y-24516460D01*
X3958277Y-24516460D02*
X3948753Y-24525984D01*
X3948753Y-24525984D02*
X3939229Y-24516460D01*
X3939229Y-24516460D02*
X3948753Y-24506936D01*
X3948753Y-24506936D02*
X3948753Y-24525984D01*
X4082086Y-24325984D02*
X4101134Y-24325984D01*
X4101134Y-24325984D02*
X4120182Y-24335508D01*
X4120182Y-24335508D02*
X4129705Y-24345031D01*
X4129705Y-24345031D02*
X4139229Y-24364079D01*
X4139229Y-24364079D02*
X4148753Y-24402174D01*
X4148753Y-24402174D02*
X4148753Y-24449793D01*
X4148753Y-24449793D02*
X4139229Y-24487888D01*
X4139229Y-24487888D02*
X4129705Y-24506936D01*
X4129705Y-24506936D02*
X4120182Y-24516460D01*
X4120182Y-24516460D02*
X4101134Y-24525984D01*
X4101134Y-24525984D02*
X4082086Y-24525984D01*
X4082086Y-24525984D02*
X4063039Y-24516460D01*
X4063039Y-24516460D02*
X4053515Y-24506936D01*
X4053515Y-24506936D02*
X4043991Y-24487888D01*
X4043991Y-24487888D02*
X4034467Y-24449793D01*
X4034467Y-24449793D02*
X4034467Y-24402174D01*
X4034467Y-24402174D02*
X4043991Y-24364079D01*
X4043991Y-24364079D02*
X4053515Y-24345031D01*
X4053515Y-24345031D02*
X4063039Y-24335508D01*
X4063039Y-24335508D02*
X4082086Y-24325984D01*
X4272563Y-24325984D02*
X4291610Y-24325984D01*
X4291610Y-24325984D02*
X4310658Y-24335508D01*
X4310658Y-24335508D02*
X4320182Y-24345031D01*
X4320182Y-24345031D02*
X4329705Y-24364079D01*
X4329705Y-24364079D02*
X4339229Y-24402174D01*
X4339229Y-24402174D02*
X4339229Y-24449793D01*
X4339229Y-24449793D02*
X4329705Y-24487888D01*
X4329705Y-24487888D02*
X4320182Y-24506936D01*
X4320182Y-24506936D02*
X4310658Y-24516460D01*
X4310658Y-24516460D02*
X4291610Y-24525984D01*
X4291610Y-24525984D02*
X4272563Y-24525984D01*
X4272563Y-24525984D02*
X4253515Y-24516460D01*
X4253515Y-24516460D02*
X4243991Y-24506936D01*
X4243991Y-24506936D02*
X4234467Y-24487888D01*
X4234467Y-24487888D02*
X4224944Y-24449793D01*
X4224944Y-24449793D02*
X4224944Y-24402174D01*
X4224944Y-24402174D02*
X4234467Y-24364079D01*
X4234467Y-24364079D02*
X4243991Y-24345031D01*
X4243991Y-24345031D02*
X4253515Y-24335508D01*
X4253515Y-24335508D02*
X4272563Y-24325984D01*
X4463039Y-24325984D02*
X4482086Y-24325984D01*
X4482086Y-24325984D02*
X4501134Y-24335508D01*
X4501134Y-24335508D02*
X4510658Y-24345031D01*
X4510658Y-24345031D02*
X4520182Y-24364079D01*
X4520182Y-24364079D02*
X4529705Y-24402174D01*
X4529705Y-24402174D02*
X4529705Y-24449793D01*
X4529705Y-24449793D02*
X4520182Y-24487888D01*
X4520182Y-24487888D02*
X4510658Y-24506936D01*
X4510658Y-24506936D02*
X4501134Y-24516460D01*
X4501134Y-24516460D02*
X4482086Y-24525984D01*
X4482086Y-24525984D02*
X4463039Y-24525984D01*
X4463039Y-24525984D02*
X4443991Y-24516460D01*
X4443991Y-24516460D02*
X4434467Y-24506936D01*
X4434467Y-24506936D02*
X4424944Y-24487888D01*
X4424944Y-24487888D02*
X4415420Y-24449793D01*
X4415420Y-24449793D02*
X4415420Y-24402174D01*
X4415420Y-24402174D02*
X4424944Y-24364079D01*
X4424944Y-24364079D02*
X4434467Y-24345031D01*
X4434467Y-24345031D02*
X4443991Y-24335508D01*
X4443991Y-24335508D02*
X4463039Y-24325984D01*
X4615420Y-24525984D02*
X4615420Y-24392650D01*
X4615420Y-24411698D02*
X4624944Y-24402174D01*
X4624944Y-24402174D02*
X4643991Y-24392650D01*
X4643991Y-24392650D02*
X4672563Y-24392650D01*
X4672563Y-24392650D02*
X4691610Y-24402174D01*
X4691610Y-24402174D02*
X4701134Y-24421222D01*
X4701134Y-24421222D02*
X4701134Y-24525984D01*
X4701134Y-24421222D02*
X4710658Y-24402174D01*
X4710658Y-24402174D02*
X4729705Y-24392650D01*
X4729705Y-24392650D02*
X4758277Y-24392650D01*
X4758277Y-24392650D02*
X4777325Y-24402174D01*
X4777325Y-24402174D02*
X4786848Y-24421222D01*
X4786848Y-24421222D02*
X4786848Y-24525984D01*
X4882086Y-24525984D02*
X4882086Y-24392650D01*
X4882086Y-24411698D02*
X4891610Y-24402174D01*
X4891610Y-24402174D02*
X4910658Y-24392650D01*
X4910658Y-24392650D02*
X4939229Y-24392650D01*
X4939229Y-24392650D02*
X4958277Y-24402174D01*
X4958277Y-24402174D02*
X4967801Y-24421222D01*
X4967801Y-24421222D02*
X4967801Y-24525984D01*
X4967801Y-24421222D02*
X4977325Y-24402174D01*
X4977325Y-24402174D02*
X4996372Y-24392650D01*
X4996372Y-24392650D02*
X5024944Y-24392650D01*
X5024944Y-24392650D02*
X5043991Y-24402174D01*
X5043991Y-24402174D02*
X5053515Y-24421222D01*
X5053515Y-24421222D02*
X5053515Y-24525984D01*
X5443991Y-24316460D02*
X5272563Y-24573603D01*
X5701134Y-24325984D02*
X5720182Y-24325984D01*
X5720182Y-24325984D02*
X5739229Y-24335508D01*
X5739229Y-24335508D02*
X5748753Y-24345031D01*
X5748753Y-24345031D02*
X5758277Y-24364079D01*
X5758277Y-24364079D02*
X5767801Y-24402174D01*
X5767801Y-24402174D02*
X5767801Y-24449793D01*
X5767801Y-24449793D02*
X5758277Y-24487888D01*
X5758277Y-24487888D02*
X5748753Y-24506936D01*
X5748753Y-24506936D02*
X5739229Y-24516460D01*
X5739229Y-24516460D02*
X5720182Y-24525984D01*
X5720182Y-24525984D02*
X5701134Y-24525984D01*
X5701134Y-24525984D02*
X5682086Y-24516460D01*
X5682086Y-24516460D02*
X5672563Y-24506936D01*
X5672563Y-24506936D02*
X5663039Y-24487888D01*
X5663039Y-24487888D02*
X5653515Y-24449793D01*
X5653515Y-24449793D02*
X5653515Y-24402174D01*
X5653515Y-24402174D02*
X5663039Y-24364079D01*
X5663039Y-24364079D02*
X5672563Y-24345031D01*
X5672563Y-24345031D02*
X5682086Y-24335508D01*
X5682086Y-24335508D02*
X5701134Y-24325984D01*
X5853515Y-24506936D02*
X5863039Y-24516460D01*
X5863039Y-24516460D02*
X5853515Y-24525984D01*
X5853515Y-24525984D02*
X5843991Y-24516460D01*
X5843991Y-24516460D02*
X5853515Y-24506936D01*
X5853515Y-24506936D02*
X5853515Y-24525984D01*
X5986848Y-24325984D02*
X6005896Y-24325984D01*
X6005896Y-24325984D02*
X6024944Y-24335508D01*
X6024944Y-24335508D02*
X6034467Y-24345031D01*
X6034467Y-24345031D02*
X6043991Y-24364079D01*
X6043991Y-24364079D02*
X6053515Y-24402174D01*
X6053515Y-24402174D02*
X6053515Y-24449793D01*
X6053515Y-24449793D02*
X6043991Y-24487888D01*
X6043991Y-24487888D02*
X6034467Y-24506936D01*
X6034467Y-24506936D02*
X6024944Y-24516460D01*
X6024944Y-24516460D02*
X6005896Y-24525984D01*
X6005896Y-24525984D02*
X5986848Y-24525984D01*
X5986848Y-24525984D02*
X5967801Y-24516460D01*
X5967801Y-24516460D02*
X5958277Y-24506936D01*
X5958277Y-24506936D02*
X5948753Y-24487888D01*
X5948753Y-24487888D02*
X5939229Y-24449793D01*
X5939229Y-24449793D02*
X5939229Y-24402174D01*
X5939229Y-24402174D02*
X5948753Y-24364079D01*
X5948753Y-24364079D02*
X5958277Y-24345031D01*
X5958277Y-24345031D02*
X5967801Y-24335508D01*
X5967801Y-24335508D02*
X5986848Y-24325984D01*
X6120182Y-24325984D02*
X6243991Y-24325984D01*
X6243991Y-24325984D02*
X6177325Y-24402174D01*
X6177325Y-24402174D02*
X6205896Y-24402174D01*
X6205896Y-24402174D02*
X6224944Y-24411698D01*
X6224944Y-24411698D02*
X6234467Y-24421222D01*
X6234467Y-24421222D02*
X6243991Y-24440269D01*
X6243991Y-24440269D02*
X6243991Y-24487888D01*
X6243991Y-24487888D02*
X6234467Y-24506936D01*
X6234467Y-24506936D02*
X6224944Y-24516460D01*
X6224944Y-24516460D02*
X6205896Y-24525984D01*
X6205896Y-24525984D02*
X6148753Y-24525984D01*
X6148753Y-24525984D02*
X6129706Y-24516460D01*
X6129706Y-24516460D02*
X6120182Y-24506936D01*
X6339229Y-24525984D02*
X6377325Y-24525984D01*
X6377325Y-24525984D02*
X6396372Y-24516460D01*
X6396372Y-24516460D02*
X6405896Y-24506936D01*
X6405896Y-24506936D02*
X6424944Y-24478365D01*
X6424944Y-24478365D02*
X6434467Y-24440269D01*
X6434467Y-24440269D02*
X6434467Y-24364079D01*
X6434467Y-24364079D02*
X6424944Y-24345031D01*
X6424944Y-24345031D02*
X6415420Y-24335508D01*
X6415420Y-24335508D02*
X6396372Y-24325984D01*
X6396372Y-24325984D02*
X6358277Y-24325984D01*
X6358277Y-24325984D02*
X6339229Y-24335508D01*
X6339229Y-24335508D02*
X6329706Y-24345031D01*
X6329706Y-24345031D02*
X6320182Y-24364079D01*
X6320182Y-24364079D02*
X6320182Y-24411698D01*
X6320182Y-24411698D02*
X6329706Y-24430746D01*
X6329706Y-24430746D02*
X6339229Y-24440269D01*
X6339229Y-24440269D02*
X6358277Y-24449793D01*
X6358277Y-24449793D02*
X6396372Y-24449793D01*
X6396372Y-24449793D02*
X6415420Y-24440269D01*
X6415420Y-24440269D02*
X6424944Y-24430746D01*
X6424944Y-24430746D02*
X6434467Y-24411698D01*
X6605896Y-24392650D02*
X6605896Y-24525984D01*
X6558277Y-24316460D02*
X6510658Y-24459317D01*
X6510658Y-24459317D02*
X6634467Y-24459317D01*
X6701134Y-24325984D02*
X6701134Y-24364079D01*
X6777325Y-24325984D02*
X6777325Y-24364079D01*
X7072563Y-24602174D02*
X7063039Y-24592650D01*
X7063039Y-24592650D02*
X7043991Y-24564079D01*
X7043991Y-24564079D02*
X7034468Y-24545031D01*
X7034468Y-24545031D02*
X7024944Y-24516460D01*
X7024944Y-24516460D02*
X7015420Y-24468841D01*
X7015420Y-24468841D02*
X7015420Y-24430746D01*
X7015420Y-24430746D02*
X7024944Y-24383127D01*
X7024944Y-24383127D02*
X7034468Y-24354555D01*
X7034468Y-24354555D02*
X7043991Y-24335508D01*
X7043991Y-24335508D02*
X7063039Y-24306936D01*
X7063039Y-24306936D02*
X7072563Y-24297412D01*
X7243991Y-24325984D02*
X7148753Y-24325984D01*
X7148753Y-24325984D02*
X7139229Y-24421222D01*
X7139229Y-24421222D02*
X7148753Y-24411698D01*
X7148753Y-24411698D02*
X7167801Y-24402174D01*
X7167801Y-24402174D02*
X7215420Y-24402174D01*
X7215420Y-24402174D02*
X7234468Y-24411698D01*
X7234468Y-24411698D02*
X7243991Y-24421222D01*
X7243991Y-24421222D02*
X7253515Y-24440269D01*
X7253515Y-24440269D02*
X7253515Y-24487888D01*
X7253515Y-24487888D02*
X7243991Y-24506936D01*
X7243991Y-24506936D02*
X7234468Y-24516460D01*
X7234468Y-24516460D02*
X7215420Y-24525984D01*
X7215420Y-24525984D02*
X7167801Y-24525984D01*
X7167801Y-24525984D02*
X7148753Y-24516460D01*
X7148753Y-24516460D02*
X7139229Y-24506936D01*
X7367801Y-24411698D02*
X7348753Y-24402174D01*
X7348753Y-24402174D02*
X7339229Y-24392650D01*
X7339229Y-24392650D02*
X7329706Y-24373603D01*
X7329706Y-24373603D02*
X7329706Y-24364079D01*
X7329706Y-24364079D02*
X7339229Y-24345031D01*
X7339229Y-24345031D02*
X7348753Y-24335508D01*
X7348753Y-24335508D02*
X7367801Y-24325984D01*
X7367801Y-24325984D02*
X7405896Y-24325984D01*
X7405896Y-24325984D02*
X7424944Y-24335508D01*
X7424944Y-24335508D02*
X7434468Y-24345031D01*
X7434468Y-24345031D02*
X7443991Y-24364079D01*
X7443991Y-24364079D02*
X7443991Y-24373603D01*
X7443991Y-24373603D02*
X7434468Y-24392650D01*
X7434468Y-24392650D02*
X7424944Y-24402174D01*
X7424944Y-24402174D02*
X7405896Y-24411698D01*
X7405896Y-24411698D02*
X7367801Y-24411698D01*
X7367801Y-24411698D02*
X7348753Y-24421222D01*
X7348753Y-24421222D02*
X7339229Y-24430746D01*
X7339229Y-24430746D02*
X7329706Y-24449793D01*
X7329706Y-24449793D02*
X7329706Y-24487888D01*
X7329706Y-24487888D02*
X7339229Y-24506936D01*
X7339229Y-24506936D02*
X7348753Y-24516460D01*
X7348753Y-24516460D02*
X7367801Y-24525984D01*
X7367801Y-24525984D02*
X7405896Y-24525984D01*
X7405896Y-24525984D02*
X7424944Y-24516460D01*
X7424944Y-24516460D02*
X7434468Y-24506936D01*
X7434468Y-24506936D02*
X7443991Y-24487888D01*
X7443991Y-24487888D02*
X7443991Y-24449793D01*
X7443991Y-24449793D02*
X7434468Y-24430746D01*
X7434468Y-24430746D02*
X7424944Y-24421222D01*
X7424944Y-24421222D02*
X7405896Y-24411698D01*
X7682087Y-24525984D02*
X7682087Y-24325984D01*
X7767801Y-24525984D02*
X7767801Y-24421222D01*
X7767801Y-24421222D02*
X7758277Y-24402174D01*
X7758277Y-24402174D02*
X7739230Y-24392650D01*
X7739230Y-24392650D02*
X7710658Y-24392650D01*
X7710658Y-24392650D02*
X7691610Y-24402174D01*
X7691610Y-24402174D02*
X7682087Y-24411698D01*
X7891610Y-24525984D02*
X7872563Y-24516460D01*
X7872563Y-24516460D02*
X7863039Y-24506936D01*
X7863039Y-24506936D02*
X7853515Y-24487888D01*
X7853515Y-24487888D02*
X7853515Y-24430746D01*
X7853515Y-24430746D02*
X7863039Y-24411698D01*
X7863039Y-24411698D02*
X7872563Y-24402174D01*
X7872563Y-24402174D02*
X7891610Y-24392650D01*
X7891610Y-24392650D02*
X7920182Y-24392650D01*
X7920182Y-24392650D02*
X7939230Y-24402174D01*
X7939230Y-24402174D02*
X7948753Y-24411698D01*
X7948753Y-24411698D02*
X7958277Y-24430746D01*
X7958277Y-24430746D02*
X7958277Y-24487888D01*
X7958277Y-24487888D02*
X7948753Y-24506936D01*
X7948753Y-24506936D02*
X7939230Y-24516460D01*
X7939230Y-24516460D02*
X7920182Y-24525984D01*
X7920182Y-24525984D02*
X7891610Y-24525984D01*
X8072563Y-24525984D02*
X8053515Y-24516460D01*
X8053515Y-24516460D02*
X8043991Y-24497412D01*
X8043991Y-24497412D02*
X8043991Y-24325984D01*
X8224944Y-24516460D02*
X8205896Y-24525984D01*
X8205896Y-24525984D02*
X8167801Y-24525984D01*
X8167801Y-24525984D02*
X8148753Y-24516460D01*
X8148753Y-24516460D02*
X8139230Y-24497412D01*
X8139230Y-24497412D02*
X8139230Y-24421222D01*
X8139230Y-24421222D02*
X8148753Y-24402174D01*
X8148753Y-24402174D02*
X8167801Y-24392650D01*
X8167801Y-24392650D02*
X8205896Y-24392650D01*
X8205896Y-24392650D02*
X8224944Y-24402174D01*
X8224944Y-24402174D02*
X8234468Y-24421222D01*
X8234468Y-24421222D02*
X8234468Y-24440269D01*
X8234468Y-24440269D02*
X8139230Y-24459317D01*
X8310658Y-24516460D02*
X8329706Y-24525984D01*
X8329706Y-24525984D02*
X8367801Y-24525984D01*
X8367801Y-24525984D02*
X8386849Y-24516460D01*
X8386849Y-24516460D02*
X8396373Y-24497412D01*
X8396373Y-24497412D02*
X8396373Y-24487888D01*
X8396373Y-24487888D02*
X8386849Y-24468841D01*
X8386849Y-24468841D02*
X8367801Y-24459317D01*
X8367801Y-24459317D02*
X8339230Y-24459317D01*
X8339230Y-24459317D02*
X8320182Y-24449793D01*
X8320182Y-24449793D02*
X8310658Y-24430746D01*
X8310658Y-24430746D02*
X8310658Y-24421222D01*
X8310658Y-24421222D02*
X8320182Y-24402174D01*
X8320182Y-24402174D02*
X8339230Y-24392650D01*
X8339230Y-24392650D02*
X8367801Y-24392650D01*
X8367801Y-24392650D02*
X8386849Y-24402174D01*
X8634468Y-24449793D02*
X8786849Y-24449793D01*
X8710658Y-24525984D02*
X8710658Y-24373603D01*
X9015420Y-24325984D02*
X9139230Y-24325984D01*
X9139230Y-24325984D02*
X9072563Y-24402174D01*
X9072563Y-24402174D02*
X9101135Y-24402174D01*
X9101135Y-24402174D02*
X9120182Y-24411698D01*
X9120182Y-24411698D02*
X9129706Y-24421222D01*
X9129706Y-24421222D02*
X9139230Y-24440269D01*
X9139230Y-24440269D02*
X9139230Y-24487888D01*
X9139230Y-24487888D02*
X9129706Y-24506936D01*
X9129706Y-24506936D02*
X9120182Y-24516460D01*
X9120182Y-24516460D02*
X9101135Y-24525984D01*
X9101135Y-24525984D02*
X9043992Y-24525984D01*
X9043992Y-24525984D02*
X9024944Y-24516460D01*
X9024944Y-24516460D02*
X9015420Y-24506936D01*
X9310658Y-24325984D02*
X9272563Y-24325984D01*
X9272563Y-24325984D02*
X9253515Y-24335508D01*
X9253515Y-24335508D02*
X9243992Y-24345031D01*
X9243992Y-24345031D02*
X9224944Y-24373603D01*
X9224944Y-24373603D02*
X9215420Y-24411698D01*
X9215420Y-24411698D02*
X9215420Y-24487888D01*
X9215420Y-24487888D02*
X9224944Y-24506936D01*
X9224944Y-24506936D02*
X9234468Y-24516460D01*
X9234468Y-24516460D02*
X9253515Y-24525984D01*
X9253515Y-24525984D02*
X9291611Y-24525984D01*
X9291611Y-24525984D02*
X9310658Y-24516460D01*
X9310658Y-24516460D02*
X9320182Y-24506936D01*
X9320182Y-24506936D02*
X9329706Y-24487888D01*
X9329706Y-24487888D02*
X9329706Y-24440269D01*
X9329706Y-24440269D02*
X9320182Y-24421222D01*
X9320182Y-24421222D02*
X9310658Y-24411698D01*
X9310658Y-24411698D02*
X9291611Y-24402174D01*
X9291611Y-24402174D02*
X9253515Y-24402174D01*
X9253515Y-24402174D02*
X9234468Y-24411698D01*
X9234468Y-24411698D02*
X9224944Y-24421222D01*
X9224944Y-24421222D02*
X9215420Y-24440269D01*
X9558277Y-24516460D02*
X9577325Y-24525984D01*
X9577325Y-24525984D02*
X9615420Y-24525984D01*
X9615420Y-24525984D02*
X9634468Y-24516460D01*
X9634468Y-24516460D02*
X9643992Y-24497412D01*
X9643992Y-24497412D02*
X9643992Y-24487888D01*
X9643992Y-24487888D02*
X9634468Y-24468841D01*
X9634468Y-24468841D02*
X9615420Y-24459317D01*
X9615420Y-24459317D02*
X9586849Y-24459317D01*
X9586849Y-24459317D02*
X9567801Y-24449793D01*
X9567801Y-24449793D02*
X9558277Y-24430746D01*
X9558277Y-24430746D02*
X9558277Y-24421222D01*
X9558277Y-24421222D02*
X9567801Y-24402174D01*
X9567801Y-24402174D02*
X9586849Y-24392650D01*
X9586849Y-24392650D02*
X9615420Y-24392650D01*
X9615420Y-24392650D02*
X9634468Y-24402174D01*
X9758277Y-24525984D02*
X9739230Y-24516460D01*
X9739230Y-24516460D02*
X9729706Y-24497412D01*
X9729706Y-24497412D02*
X9729706Y-24325984D01*
X9863039Y-24525984D02*
X9843992Y-24516460D01*
X9843992Y-24516460D02*
X9834468Y-24506936D01*
X9834468Y-24506936D02*
X9824944Y-24487888D01*
X9824944Y-24487888D02*
X9824944Y-24430746D01*
X9824944Y-24430746D02*
X9834468Y-24411698D01*
X9834468Y-24411698D02*
X9843992Y-24402174D01*
X9843992Y-24402174D02*
X9863039Y-24392650D01*
X9863039Y-24392650D02*
X9891611Y-24392650D01*
X9891611Y-24392650D02*
X9910658Y-24402174D01*
X9910658Y-24402174D02*
X9920182Y-24411698D01*
X9920182Y-24411698D02*
X9929706Y-24430746D01*
X9929706Y-24430746D02*
X9929706Y-24487888D01*
X9929706Y-24487888D02*
X9920182Y-24506936D01*
X9920182Y-24506936D02*
X9910658Y-24516460D01*
X9910658Y-24516460D02*
X9891611Y-24525984D01*
X9891611Y-24525984D02*
X9863039Y-24525984D01*
X9986849Y-24392650D02*
X10063039Y-24392650D01*
X10015420Y-24325984D02*
X10015420Y-24497412D01*
X10015420Y-24497412D02*
X10024944Y-24516460D01*
X10024944Y-24516460D02*
X10043992Y-24525984D01*
X10043992Y-24525984D02*
X10063039Y-24525984D01*
X10120182Y-24516460D02*
X10139230Y-24525984D01*
X10139230Y-24525984D02*
X10177325Y-24525984D01*
X10177325Y-24525984D02*
X10196373Y-24516460D01*
X10196373Y-24516460D02*
X10205897Y-24497412D01*
X10205897Y-24497412D02*
X10205897Y-24487888D01*
X10205897Y-24487888D02*
X10196373Y-24468841D01*
X10196373Y-24468841D02*
X10177325Y-24459317D01*
X10177325Y-24459317D02*
X10148754Y-24459317D01*
X10148754Y-24459317D02*
X10129706Y-24449793D01*
X10129706Y-24449793D02*
X10120182Y-24430746D01*
X10120182Y-24430746D02*
X10120182Y-24421222D01*
X10120182Y-24421222D02*
X10129706Y-24402174D01*
X10129706Y-24402174D02*
X10148754Y-24392650D01*
X10148754Y-24392650D02*
X10177325Y-24392650D01*
X10177325Y-24392650D02*
X10196373Y-24402174D01*
X10272563Y-24602174D02*
X10282087Y-24592650D01*
X10282087Y-24592650D02*
X10301135Y-24564079D01*
X10301135Y-24564079D02*
X10310658Y-24545031D01*
X10310658Y-24545031D02*
X10320182Y-24516460D01*
X10320182Y-24516460D02*
X10329706Y-24468841D01*
X10329706Y-24468841D02*
X10329706Y-24430746D01*
X10329706Y-24430746D02*
X10320182Y-24383127D01*
X10320182Y-24383127D02*
X10310658Y-24354555D01*
X10310658Y-24354555D02*
X10301135Y-24335508D01*
X10301135Y-24335508D02*
X10282087Y-24306936D01*
X10282087Y-24306936D02*
X10272563Y-24297412D01*
D13*
X3442500Y-24753500D02*
X3497500Y-24698500D01*
X3442500Y-24643500D01*
X3387500Y-24698500D01*
X3442500Y-24753500D01*
D11*
X3863039Y-24789984D02*
X3748753Y-24789984D01*
X3805896Y-24789984D02*
X3805896Y-24589984D01*
X3805896Y-24589984D02*
X3786848Y-24618555D01*
X3786848Y-24618555D02*
X3767801Y-24637603D01*
X3767801Y-24637603D02*
X3748753Y-24647127D01*
X3948753Y-24770936D02*
X3958277Y-24780460D01*
X3958277Y-24780460D02*
X3948753Y-24789984D01*
X3948753Y-24789984D02*
X3939229Y-24780460D01*
X3939229Y-24780460D02*
X3948753Y-24770936D01*
X3948753Y-24770936D02*
X3948753Y-24789984D01*
X4148753Y-24789984D02*
X4034467Y-24789984D01*
X4091610Y-24789984D02*
X4091610Y-24589984D01*
X4091610Y-24589984D02*
X4072562Y-24618555D01*
X4072562Y-24618555D02*
X4053515Y-24637603D01*
X4053515Y-24637603D02*
X4034467Y-24647127D01*
X4272563Y-24589984D02*
X4291610Y-24589984D01*
X4291610Y-24589984D02*
X4310658Y-24599508D01*
X4310658Y-24599508D02*
X4320182Y-24609031D01*
X4320182Y-24609031D02*
X4329705Y-24628079D01*
X4329705Y-24628079D02*
X4339229Y-24666174D01*
X4339229Y-24666174D02*
X4339229Y-24713793D01*
X4339229Y-24713793D02*
X4329705Y-24751888D01*
X4329705Y-24751888D02*
X4320182Y-24770936D01*
X4320182Y-24770936D02*
X4310658Y-24780460D01*
X4310658Y-24780460D02*
X4291610Y-24789984D01*
X4291610Y-24789984D02*
X4272563Y-24789984D01*
X4272563Y-24789984D02*
X4253515Y-24780460D01*
X4253515Y-24780460D02*
X4243991Y-24770936D01*
X4243991Y-24770936D02*
X4234467Y-24751888D01*
X4234467Y-24751888D02*
X4224944Y-24713793D01*
X4224944Y-24713793D02*
X4224944Y-24666174D01*
X4224944Y-24666174D02*
X4234467Y-24628079D01*
X4234467Y-24628079D02*
X4243991Y-24609031D01*
X4243991Y-24609031D02*
X4253515Y-24599508D01*
X4253515Y-24599508D02*
X4272563Y-24589984D01*
X4463039Y-24589984D02*
X4482086Y-24589984D01*
X4482086Y-24589984D02*
X4501134Y-24599508D01*
X4501134Y-24599508D02*
X4510658Y-24609031D01*
X4510658Y-24609031D02*
X4520182Y-24628079D01*
X4520182Y-24628079D02*
X4529705Y-24666174D01*
X4529705Y-24666174D02*
X4529705Y-24713793D01*
X4529705Y-24713793D02*
X4520182Y-24751888D01*
X4520182Y-24751888D02*
X4510658Y-24770936D01*
X4510658Y-24770936D02*
X4501134Y-24780460D01*
X4501134Y-24780460D02*
X4482086Y-24789984D01*
X4482086Y-24789984D02*
X4463039Y-24789984D01*
X4463039Y-24789984D02*
X4443991Y-24780460D01*
X4443991Y-24780460D02*
X4434467Y-24770936D01*
X4434467Y-24770936D02*
X4424944Y-24751888D01*
X4424944Y-24751888D02*
X4415420Y-24713793D01*
X4415420Y-24713793D02*
X4415420Y-24666174D01*
X4415420Y-24666174D02*
X4424944Y-24628079D01*
X4424944Y-24628079D02*
X4434467Y-24609031D01*
X4434467Y-24609031D02*
X4443991Y-24599508D01*
X4443991Y-24599508D02*
X4463039Y-24589984D01*
X4615420Y-24789984D02*
X4615420Y-24656650D01*
X4615420Y-24675698D02*
X4624944Y-24666174D01*
X4624944Y-24666174D02*
X4643991Y-24656650D01*
X4643991Y-24656650D02*
X4672563Y-24656650D01*
X4672563Y-24656650D02*
X4691610Y-24666174D01*
X4691610Y-24666174D02*
X4701134Y-24685222D01*
X4701134Y-24685222D02*
X4701134Y-24789984D01*
X4701134Y-24685222D02*
X4710658Y-24666174D01*
X4710658Y-24666174D02*
X4729705Y-24656650D01*
X4729705Y-24656650D02*
X4758277Y-24656650D01*
X4758277Y-24656650D02*
X4777325Y-24666174D01*
X4777325Y-24666174D02*
X4786848Y-24685222D01*
X4786848Y-24685222D02*
X4786848Y-24789984D01*
X4882086Y-24789984D02*
X4882086Y-24656650D01*
X4882086Y-24675698D02*
X4891610Y-24666174D01*
X4891610Y-24666174D02*
X4910658Y-24656650D01*
X4910658Y-24656650D02*
X4939229Y-24656650D01*
X4939229Y-24656650D02*
X4958277Y-24666174D01*
X4958277Y-24666174D02*
X4967801Y-24685222D01*
X4967801Y-24685222D02*
X4967801Y-24789984D01*
X4967801Y-24685222D02*
X4977325Y-24666174D01*
X4977325Y-24666174D02*
X4996372Y-24656650D01*
X4996372Y-24656650D02*
X5024944Y-24656650D01*
X5024944Y-24656650D02*
X5043991Y-24666174D01*
X5043991Y-24666174D02*
X5053515Y-24685222D01*
X5053515Y-24685222D02*
X5053515Y-24789984D01*
X5443991Y-24580460D02*
X5272563Y-24837603D01*
X5701134Y-24589984D02*
X5720182Y-24589984D01*
X5720182Y-24589984D02*
X5739229Y-24599508D01*
X5739229Y-24599508D02*
X5748753Y-24609031D01*
X5748753Y-24609031D02*
X5758277Y-24628079D01*
X5758277Y-24628079D02*
X5767801Y-24666174D01*
X5767801Y-24666174D02*
X5767801Y-24713793D01*
X5767801Y-24713793D02*
X5758277Y-24751888D01*
X5758277Y-24751888D02*
X5748753Y-24770936D01*
X5748753Y-24770936D02*
X5739229Y-24780460D01*
X5739229Y-24780460D02*
X5720182Y-24789984D01*
X5720182Y-24789984D02*
X5701134Y-24789984D01*
X5701134Y-24789984D02*
X5682086Y-24780460D01*
X5682086Y-24780460D02*
X5672563Y-24770936D01*
X5672563Y-24770936D02*
X5663039Y-24751888D01*
X5663039Y-24751888D02*
X5653515Y-24713793D01*
X5653515Y-24713793D02*
X5653515Y-24666174D01*
X5653515Y-24666174D02*
X5663039Y-24628079D01*
X5663039Y-24628079D02*
X5672563Y-24609031D01*
X5672563Y-24609031D02*
X5682086Y-24599508D01*
X5682086Y-24599508D02*
X5701134Y-24589984D01*
X5853515Y-24770936D02*
X5863039Y-24780460D01*
X5863039Y-24780460D02*
X5853515Y-24789984D01*
X5853515Y-24789984D02*
X5843991Y-24780460D01*
X5843991Y-24780460D02*
X5853515Y-24770936D01*
X5853515Y-24770936D02*
X5853515Y-24789984D01*
X5986848Y-24589984D02*
X6005896Y-24589984D01*
X6005896Y-24589984D02*
X6024944Y-24599508D01*
X6024944Y-24599508D02*
X6034467Y-24609031D01*
X6034467Y-24609031D02*
X6043991Y-24628079D01*
X6043991Y-24628079D02*
X6053515Y-24666174D01*
X6053515Y-24666174D02*
X6053515Y-24713793D01*
X6053515Y-24713793D02*
X6043991Y-24751888D01*
X6043991Y-24751888D02*
X6034467Y-24770936D01*
X6034467Y-24770936D02*
X6024944Y-24780460D01*
X6024944Y-24780460D02*
X6005896Y-24789984D01*
X6005896Y-24789984D02*
X5986848Y-24789984D01*
X5986848Y-24789984D02*
X5967801Y-24780460D01*
X5967801Y-24780460D02*
X5958277Y-24770936D01*
X5958277Y-24770936D02*
X5948753Y-24751888D01*
X5948753Y-24751888D02*
X5939229Y-24713793D01*
X5939229Y-24713793D02*
X5939229Y-24666174D01*
X5939229Y-24666174D02*
X5948753Y-24628079D01*
X5948753Y-24628079D02*
X5958277Y-24609031D01*
X5958277Y-24609031D02*
X5967801Y-24599508D01*
X5967801Y-24599508D02*
X5986848Y-24589984D01*
X6224944Y-24656650D02*
X6224944Y-24789984D01*
X6177325Y-24580460D02*
X6129706Y-24723317D01*
X6129706Y-24723317D02*
X6253515Y-24723317D01*
X6310658Y-24589984D02*
X6434467Y-24589984D01*
X6434467Y-24589984D02*
X6367801Y-24666174D01*
X6367801Y-24666174D02*
X6396372Y-24666174D01*
X6396372Y-24666174D02*
X6415420Y-24675698D01*
X6415420Y-24675698D02*
X6424944Y-24685222D01*
X6424944Y-24685222D02*
X6434467Y-24704269D01*
X6434467Y-24704269D02*
X6434467Y-24751888D01*
X6434467Y-24751888D02*
X6424944Y-24770936D01*
X6424944Y-24770936D02*
X6415420Y-24780460D01*
X6415420Y-24780460D02*
X6396372Y-24789984D01*
X6396372Y-24789984D02*
X6339229Y-24789984D01*
X6339229Y-24789984D02*
X6320182Y-24780460D01*
X6320182Y-24780460D02*
X6310658Y-24770936D01*
X6501134Y-24589984D02*
X6624944Y-24589984D01*
X6624944Y-24589984D02*
X6558277Y-24666174D01*
X6558277Y-24666174D02*
X6586848Y-24666174D01*
X6586848Y-24666174D02*
X6605896Y-24675698D01*
X6605896Y-24675698D02*
X6615420Y-24685222D01*
X6615420Y-24685222D02*
X6624944Y-24704269D01*
X6624944Y-24704269D02*
X6624944Y-24751888D01*
X6624944Y-24751888D02*
X6615420Y-24770936D01*
X6615420Y-24770936D02*
X6605896Y-24780460D01*
X6605896Y-24780460D02*
X6586848Y-24789984D01*
X6586848Y-24789984D02*
X6529706Y-24789984D01*
X6529706Y-24789984D02*
X6510658Y-24780460D01*
X6510658Y-24780460D02*
X6501134Y-24770936D01*
X6701134Y-24589984D02*
X6701134Y-24628079D01*
X6777325Y-24589984D02*
X6777325Y-24628079D01*
X7072563Y-24866174D02*
X7063039Y-24856650D01*
X7063039Y-24856650D02*
X7043991Y-24828079D01*
X7043991Y-24828079D02*
X7034468Y-24809031D01*
X7034468Y-24809031D02*
X7024944Y-24780460D01*
X7024944Y-24780460D02*
X7015420Y-24732841D01*
X7015420Y-24732841D02*
X7015420Y-24694746D01*
X7015420Y-24694746D02*
X7024944Y-24647127D01*
X7024944Y-24647127D02*
X7034468Y-24618555D01*
X7034468Y-24618555D02*
X7043991Y-24599508D01*
X7043991Y-24599508D02*
X7063039Y-24570936D01*
X7063039Y-24570936D02*
X7072563Y-24561412D01*
X7234468Y-24656650D02*
X7234468Y-24789984D01*
X7186848Y-24580460D02*
X7139229Y-24723317D01*
X7139229Y-24723317D02*
X7263039Y-24723317D01*
X7491610Y-24789984D02*
X7491610Y-24589984D01*
X7577325Y-24789984D02*
X7577325Y-24685222D01*
X7577325Y-24685222D02*
X7567801Y-24666174D01*
X7567801Y-24666174D02*
X7548753Y-24656650D01*
X7548753Y-24656650D02*
X7520182Y-24656650D01*
X7520182Y-24656650D02*
X7501134Y-24666174D01*
X7501134Y-24666174D02*
X7491610Y-24675698D01*
X7701134Y-24789984D02*
X7682087Y-24780460D01*
X7682087Y-24780460D02*
X7672563Y-24770936D01*
X7672563Y-24770936D02*
X7663039Y-24751888D01*
X7663039Y-24751888D02*
X7663039Y-24694746D01*
X7663039Y-24694746D02*
X7672563Y-24675698D01*
X7672563Y-24675698D02*
X7682087Y-24666174D01*
X7682087Y-24666174D02*
X7701134Y-24656650D01*
X7701134Y-24656650D02*
X7729706Y-24656650D01*
X7729706Y-24656650D02*
X7748753Y-24666174D01*
X7748753Y-24666174D02*
X7758277Y-24675698D01*
X7758277Y-24675698D02*
X7767801Y-24694746D01*
X7767801Y-24694746D02*
X7767801Y-24751888D01*
X7767801Y-24751888D02*
X7758277Y-24770936D01*
X7758277Y-24770936D02*
X7748753Y-24780460D01*
X7748753Y-24780460D02*
X7729706Y-24789984D01*
X7729706Y-24789984D02*
X7701134Y-24789984D01*
X7882087Y-24789984D02*
X7863039Y-24780460D01*
X7863039Y-24780460D02*
X7853515Y-24761412D01*
X7853515Y-24761412D02*
X7853515Y-24589984D01*
X8034468Y-24780460D02*
X8015420Y-24789984D01*
X8015420Y-24789984D02*
X7977325Y-24789984D01*
X7977325Y-24789984D02*
X7958277Y-24780460D01*
X7958277Y-24780460D02*
X7948753Y-24761412D01*
X7948753Y-24761412D02*
X7948753Y-24685222D01*
X7948753Y-24685222D02*
X7958277Y-24666174D01*
X7958277Y-24666174D02*
X7977325Y-24656650D01*
X7977325Y-24656650D02*
X8015420Y-24656650D01*
X8015420Y-24656650D02*
X8034468Y-24666174D01*
X8034468Y-24666174D02*
X8043991Y-24685222D01*
X8043991Y-24685222D02*
X8043991Y-24704269D01*
X8043991Y-24704269D02*
X7948753Y-24723317D01*
X8120182Y-24780460D02*
X8139230Y-24789984D01*
X8139230Y-24789984D02*
X8177325Y-24789984D01*
X8177325Y-24789984D02*
X8196372Y-24780460D01*
X8196372Y-24780460D02*
X8205896Y-24761412D01*
X8205896Y-24761412D02*
X8205896Y-24751888D01*
X8205896Y-24751888D02*
X8196372Y-24732841D01*
X8196372Y-24732841D02*
X8177325Y-24723317D01*
X8177325Y-24723317D02*
X8148753Y-24723317D01*
X8148753Y-24723317D02*
X8129706Y-24713793D01*
X8129706Y-24713793D02*
X8120182Y-24694746D01*
X8120182Y-24694746D02*
X8120182Y-24685222D01*
X8120182Y-24685222D02*
X8129706Y-24666174D01*
X8129706Y-24666174D02*
X8148753Y-24656650D01*
X8148753Y-24656650D02*
X8177325Y-24656650D01*
X8177325Y-24656650D02*
X8196372Y-24666174D01*
X8272563Y-24866174D02*
X8282087Y-24856650D01*
X8282087Y-24856650D02*
X8301134Y-24828079D01*
X8301134Y-24828079D02*
X8310658Y-24809031D01*
X8310658Y-24809031D02*
X8320182Y-24780460D01*
X8320182Y-24780460D02*
X8329706Y-24732841D01*
X8329706Y-24732841D02*
X8329706Y-24694746D01*
X8329706Y-24694746D02*
X8320182Y-24647127D01*
X8320182Y-24647127D02*
X8310658Y-24618555D01*
X8310658Y-24618555D02*
X8301134Y-24599508D01*
X8301134Y-24599508D02*
X8282087Y-24570936D01*
X8282087Y-24570936D02*
X8272563Y-24561412D01*
X3297500Y-24862500D02*
X3497500Y-25062500D01*
X3497500Y-24862500D02*
X3297500Y-25062500D01*
X3497500Y-24962500D02*
G75*
G02*
X3297500Y-24962500I-100000J0D01*
G01*
X3297500Y-24962500D02*
G75*
G02*
X3497500Y-24962500I100000J0D01*
G01*
X3739229Y-24853984D02*
X3863039Y-24853984D01*
X3863039Y-24853984D02*
X3796372Y-24930174D01*
X3796372Y-24930174D02*
X3824943Y-24930174D01*
X3824943Y-24930174D02*
X3843991Y-24939698D01*
X3843991Y-24939698D02*
X3853515Y-24949222D01*
X3853515Y-24949222D02*
X3863039Y-24968269D01*
X3863039Y-24968269D02*
X3863039Y-25015888D01*
X3863039Y-25015888D02*
X3853515Y-25034936D01*
X3853515Y-25034936D02*
X3843991Y-25044460D01*
X3843991Y-25044460D02*
X3824943Y-25053984D01*
X3824943Y-25053984D02*
X3767801Y-25053984D01*
X3767801Y-25053984D02*
X3748753Y-25044460D01*
X3748753Y-25044460D02*
X3739229Y-25034936D01*
X3948753Y-25034936D02*
X3958277Y-25044460D01*
X3958277Y-25044460D02*
X3948753Y-25053984D01*
X3948753Y-25053984D02*
X3939229Y-25044460D01*
X3939229Y-25044460D02*
X3948753Y-25034936D01*
X3948753Y-25034936D02*
X3948753Y-25053984D01*
X4034467Y-24873031D02*
X4043991Y-24863508D01*
X4043991Y-24863508D02*
X4063039Y-24853984D01*
X4063039Y-24853984D02*
X4110658Y-24853984D01*
X4110658Y-24853984D02*
X4129705Y-24863508D01*
X4129705Y-24863508D02*
X4139229Y-24873031D01*
X4139229Y-24873031D02*
X4148753Y-24892079D01*
X4148753Y-24892079D02*
X4148753Y-24911127D01*
X4148753Y-24911127D02*
X4139229Y-24939698D01*
X4139229Y-24939698D02*
X4024943Y-25053984D01*
X4024943Y-25053984D02*
X4148753Y-25053984D01*
X4272563Y-24853984D02*
X4291610Y-24853984D01*
X4291610Y-24853984D02*
X4310658Y-24863508D01*
X4310658Y-24863508D02*
X4320182Y-24873031D01*
X4320182Y-24873031D02*
X4329705Y-24892079D01*
X4329705Y-24892079D02*
X4339229Y-24930174D01*
X4339229Y-24930174D02*
X4339229Y-24977793D01*
X4339229Y-24977793D02*
X4329705Y-25015888D01*
X4329705Y-25015888D02*
X4320182Y-25034936D01*
X4320182Y-25034936D02*
X4310658Y-25044460D01*
X4310658Y-25044460D02*
X4291610Y-25053984D01*
X4291610Y-25053984D02*
X4272563Y-25053984D01*
X4272563Y-25053984D02*
X4253515Y-25044460D01*
X4253515Y-25044460D02*
X4243991Y-25034936D01*
X4243991Y-25034936D02*
X4234467Y-25015888D01*
X4234467Y-25015888D02*
X4224944Y-24977793D01*
X4224944Y-24977793D02*
X4224944Y-24930174D01*
X4224944Y-24930174D02*
X4234467Y-24892079D01*
X4234467Y-24892079D02*
X4243991Y-24873031D01*
X4243991Y-24873031D02*
X4253515Y-24863508D01*
X4253515Y-24863508D02*
X4272563Y-24853984D01*
X4463039Y-24853984D02*
X4482086Y-24853984D01*
X4482086Y-24853984D02*
X4501134Y-24863508D01*
X4501134Y-24863508D02*
X4510658Y-24873031D01*
X4510658Y-24873031D02*
X4520182Y-24892079D01*
X4520182Y-24892079D02*
X4529705Y-24930174D01*
X4529705Y-24930174D02*
X4529705Y-24977793D01*
X4529705Y-24977793D02*
X4520182Y-25015888D01*
X4520182Y-25015888D02*
X4510658Y-25034936D01*
X4510658Y-25034936D02*
X4501134Y-25044460D01*
X4501134Y-25044460D02*
X4482086Y-25053984D01*
X4482086Y-25053984D02*
X4463039Y-25053984D01*
X4463039Y-25053984D02*
X4443991Y-25044460D01*
X4443991Y-25044460D02*
X4434467Y-25034936D01*
X4434467Y-25034936D02*
X4424944Y-25015888D01*
X4424944Y-25015888D02*
X4415420Y-24977793D01*
X4415420Y-24977793D02*
X4415420Y-24930174D01*
X4415420Y-24930174D02*
X4424944Y-24892079D01*
X4424944Y-24892079D02*
X4434467Y-24873031D01*
X4434467Y-24873031D02*
X4443991Y-24863508D01*
X4443991Y-24863508D02*
X4463039Y-24853984D01*
X4615420Y-25053984D02*
X4615420Y-24920650D01*
X4615420Y-24939698D02*
X4624944Y-24930174D01*
X4624944Y-24930174D02*
X4643991Y-24920650D01*
X4643991Y-24920650D02*
X4672563Y-24920650D01*
X4672563Y-24920650D02*
X4691610Y-24930174D01*
X4691610Y-24930174D02*
X4701134Y-24949222D01*
X4701134Y-24949222D02*
X4701134Y-25053984D01*
X4701134Y-24949222D02*
X4710658Y-24930174D01*
X4710658Y-24930174D02*
X4729705Y-24920650D01*
X4729705Y-24920650D02*
X4758277Y-24920650D01*
X4758277Y-24920650D02*
X4777325Y-24930174D01*
X4777325Y-24930174D02*
X4786848Y-24949222D01*
X4786848Y-24949222D02*
X4786848Y-25053984D01*
X4882086Y-25053984D02*
X4882086Y-24920650D01*
X4882086Y-24939698D02*
X4891610Y-24930174D01*
X4891610Y-24930174D02*
X4910658Y-24920650D01*
X4910658Y-24920650D02*
X4939229Y-24920650D01*
X4939229Y-24920650D02*
X4958277Y-24930174D01*
X4958277Y-24930174D02*
X4967801Y-24949222D01*
X4967801Y-24949222D02*
X4967801Y-25053984D01*
X4967801Y-24949222D02*
X4977325Y-24930174D01*
X4977325Y-24930174D02*
X4996372Y-24920650D01*
X4996372Y-24920650D02*
X5024944Y-24920650D01*
X5024944Y-24920650D02*
X5043991Y-24930174D01*
X5043991Y-24930174D02*
X5053515Y-24949222D01*
X5053515Y-24949222D02*
X5053515Y-25053984D01*
X5443991Y-24844460D02*
X5272563Y-25101603D01*
X5701134Y-24853984D02*
X5720182Y-24853984D01*
X5720182Y-24853984D02*
X5739229Y-24863508D01*
X5739229Y-24863508D02*
X5748753Y-24873031D01*
X5748753Y-24873031D02*
X5758277Y-24892079D01*
X5758277Y-24892079D02*
X5767801Y-24930174D01*
X5767801Y-24930174D02*
X5767801Y-24977793D01*
X5767801Y-24977793D02*
X5758277Y-25015888D01*
X5758277Y-25015888D02*
X5748753Y-25034936D01*
X5748753Y-25034936D02*
X5739229Y-25044460D01*
X5739229Y-25044460D02*
X5720182Y-25053984D01*
X5720182Y-25053984D02*
X5701134Y-25053984D01*
X5701134Y-25053984D02*
X5682086Y-25044460D01*
X5682086Y-25044460D02*
X5672563Y-25034936D01*
X5672563Y-25034936D02*
X5663039Y-25015888D01*
X5663039Y-25015888D02*
X5653515Y-24977793D01*
X5653515Y-24977793D02*
X5653515Y-24930174D01*
X5653515Y-24930174D02*
X5663039Y-24892079D01*
X5663039Y-24892079D02*
X5672563Y-24873031D01*
X5672563Y-24873031D02*
X5682086Y-24863508D01*
X5682086Y-24863508D02*
X5701134Y-24853984D01*
X5853515Y-25034936D02*
X5863039Y-25044460D01*
X5863039Y-25044460D02*
X5853515Y-25053984D01*
X5853515Y-25053984D02*
X5843991Y-25044460D01*
X5843991Y-25044460D02*
X5853515Y-25034936D01*
X5853515Y-25034936D02*
X5853515Y-25053984D01*
X6053515Y-25053984D02*
X5939229Y-25053984D01*
X5996372Y-25053984D02*
X5996372Y-24853984D01*
X5996372Y-24853984D02*
X5977325Y-24882555D01*
X5977325Y-24882555D02*
X5958277Y-24901603D01*
X5958277Y-24901603D02*
X5939229Y-24911127D01*
X6129706Y-24873031D02*
X6139229Y-24863508D01*
X6139229Y-24863508D02*
X6158277Y-24853984D01*
X6158277Y-24853984D02*
X6205896Y-24853984D01*
X6205896Y-24853984D02*
X6224944Y-24863508D01*
X6224944Y-24863508D02*
X6234467Y-24873031D01*
X6234467Y-24873031D02*
X6243991Y-24892079D01*
X6243991Y-24892079D02*
X6243991Y-24911127D01*
X6243991Y-24911127D02*
X6234467Y-24939698D01*
X6234467Y-24939698D02*
X6120182Y-25053984D01*
X6120182Y-25053984D02*
X6243991Y-25053984D01*
X6415420Y-24853984D02*
X6377325Y-24853984D01*
X6377325Y-24853984D02*
X6358277Y-24863508D01*
X6358277Y-24863508D02*
X6348753Y-24873031D01*
X6348753Y-24873031D02*
X6329706Y-24901603D01*
X6329706Y-24901603D02*
X6320182Y-24939698D01*
X6320182Y-24939698D02*
X6320182Y-25015888D01*
X6320182Y-25015888D02*
X6329706Y-25034936D01*
X6329706Y-25034936D02*
X6339229Y-25044460D01*
X6339229Y-25044460D02*
X6358277Y-25053984D01*
X6358277Y-25053984D02*
X6396372Y-25053984D01*
X6396372Y-25053984D02*
X6415420Y-25044460D01*
X6415420Y-25044460D02*
X6424944Y-25034936D01*
X6424944Y-25034936D02*
X6434467Y-25015888D01*
X6434467Y-25015888D02*
X6434467Y-24968269D01*
X6434467Y-24968269D02*
X6424944Y-24949222D01*
X6424944Y-24949222D02*
X6415420Y-24939698D01*
X6415420Y-24939698D02*
X6396372Y-24930174D01*
X6396372Y-24930174D02*
X6358277Y-24930174D01*
X6358277Y-24930174D02*
X6339229Y-24939698D01*
X6339229Y-24939698D02*
X6329706Y-24949222D01*
X6329706Y-24949222D02*
X6320182Y-24968269D01*
X6558277Y-24853984D02*
X6577325Y-24853984D01*
X6577325Y-24853984D02*
X6596372Y-24863508D01*
X6596372Y-24863508D02*
X6605896Y-24873031D01*
X6605896Y-24873031D02*
X6615420Y-24892079D01*
X6615420Y-24892079D02*
X6624944Y-24930174D01*
X6624944Y-24930174D02*
X6624944Y-24977793D01*
X6624944Y-24977793D02*
X6615420Y-25015888D01*
X6615420Y-25015888D02*
X6605896Y-25034936D01*
X6605896Y-25034936D02*
X6596372Y-25044460D01*
X6596372Y-25044460D02*
X6577325Y-25053984D01*
X6577325Y-25053984D02*
X6558277Y-25053984D01*
X6558277Y-25053984D02*
X6539229Y-25044460D01*
X6539229Y-25044460D02*
X6529706Y-25034936D01*
X6529706Y-25034936D02*
X6520182Y-25015888D01*
X6520182Y-25015888D02*
X6510658Y-24977793D01*
X6510658Y-24977793D02*
X6510658Y-24930174D01*
X6510658Y-24930174D02*
X6520182Y-24892079D01*
X6520182Y-24892079D02*
X6529706Y-24873031D01*
X6529706Y-24873031D02*
X6539229Y-24863508D01*
X6539229Y-24863508D02*
X6558277Y-24853984D01*
X6701134Y-24853984D02*
X6701134Y-24892079D01*
X6777325Y-24853984D02*
X6777325Y-24892079D01*
X7072563Y-25130174D02*
X7063039Y-25120650D01*
X7063039Y-25120650D02*
X7043991Y-25092079D01*
X7043991Y-25092079D02*
X7034468Y-25073031D01*
X7034468Y-25073031D02*
X7024944Y-25044460D01*
X7024944Y-25044460D02*
X7015420Y-24996841D01*
X7015420Y-24996841D02*
X7015420Y-24958746D01*
X7015420Y-24958746D02*
X7024944Y-24911127D01*
X7024944Y-24911127D02*
X7034468Y-24882555D01*
X7034468Y-24882555D02*
X7043991Y-24863508D01*
X7043991Y-24863508D02*
X7063039Y-24834936D01*
X7063039Y-24834936D02*
X7072563Y-24825412D01*
X7234468Y-24920650D02*
X7234468Y-25053984D01*
X7186848Y-24844460D02*
X7139229Y-24987317D01*
X7139229Y-24987317D02*
X7263039Y-24987317D01*
X7491610Y-25053984D02*
X7491610Y-24853984D01*
X7577325Y-25053984D02*
X7577325Y-24949222D01*
X7577325Y-24949222D02*
X7567801Y-24930174D01*
X7567801Y-24930174D02*
X7548753Y-24920650D01*
X7548753Y-24920650D02*
X7520182Y-24920650D01*
X7520182Y-24920650D02*
X7501134Y-24930174D01*
X7501134Y-24930174D02*
X7491610Y-24939698D01*
X7701134Y-25053984D02*
X7682087Y-25044460D01*
X7682087Y-25044460D02*
X7672563Y-25034936D01*
X7672563Y-25034936D02*
X7663039Y-25015888D01*
X7663039Y-25015888D02*
X7663039Y-24958746D01*
X7663039Y-24958746D02*
X7672563Y-24939698D01*
X7672563Y-24939698D02*
X7682087Y-24930174D01*
X7682087Y-24930174D02*
X7701134Y-24920650D01*
X7701134Y-24920650D02*
X7729706Y-24920650D01*
X7729706Y-24920650D02*
X7748753Y-24930174D01*
X7748753Y-24930174D02*
X7758277Y-24939698D01*
X7758277Y-24939698D02*
X7767801Y-24958746D01*
X7767801Y-24958746D02*
X7767801Y-25015888D01*
X7767801Y-25015888D02*
X7758277Y-25034936D01*
X7758277Y-25034936D02*
X7748753Y-25044460D01*
X7748753Y-25044460D02*
X7729706Y-25053984D01*
X7729706Y-25053984D02*
X7701134Y-25053984D01*
X7882087Y-25053984D02*
X7863039Y-25044460D01*
X7863039Y-25044460D02*
X7853515Y-25025412D01*
X7853515Y-25025412D02*
X7853515Y-24853984D01*
X8034468Y-25044460D02*
X8015420Y-25053984D01*
X8015420Y-25053984D02*
X7977325Y-25053984D01*
X7977325Y-25053984D02*
X7958277Y-25044460D01*
X7958277Y-25044460D02*
X7948753Y-25025412D01*
X7948753Y-25025412D02*
X7948753Y-24949222D01*
X7948753Y-24949222D02*
X7958277Y-24930174D01*
X7958277Y-24930174D02*
X7977325Y-24920650D01*
X7977325Y-24920650D02*
X8015420Y-24920650D01*
X8015420Y-24920650D02*
X8034468Y-24930174D01*
X8034468Y-24930174D02*
X8043991Y-24949222D01*
X8043991Y-24949222D02*
X8043991Y-24968269D01*
X8043991Y-24968269D02*
X7948753Y-24987317D01*
X8120182Y-25044460D02*
X8139230Y-25053984D01*
X8139230Y-25053984D02*
X8177325Y-25053984D01*
X8177325Y-25053984D02*
X8196372Y-25044460D01*
X8196372Y-25044460D02*
X8205896Y-25025412D01*
X8205896Y-25025412D02*
X8205896Y-25015888D01*
X8205896Y-25015888D02*
X8196372Y-24996841D01*
X8196372Y-24996841D02*
X8177325Y-24987317D01*
X8177325Y-24987317D02*
X8148753Y-24987317D01*
X8148753Y-24987317D02*
X8129706Y-24977793D01*
X8129706Y-24977793D02*
X8120182Y-24958746D01*
X8120182Y-24958746D02*
X8120182Y-24949222D01*
X8120182Y-24949222D02*
X8129706Y-24930174D01*
X8129706Y-24930174D02*
X8148753Y-24920650D01*
X8148753Y-24920650D02*
X8177325Y-24920650D01*
X8177325Y-24920650D02*
X8196372Y-24930174D01*
X8272563Y-25130174D02*
X8282087Y-25120650D01*
X8282087Y-25120650D02*
X8301134Y-25092079D01*
X8301134Y-25092079D02*
X8310658Y-25073031D01*
X8310658Y-25073031D02*
X8320182Y-25044460D01*
X8320182Y-25044460D02*
X8329706Y-24996841D01*
X8329706Y-24996841D02*
X8329706Y-24958746D01*
X8329706Y-24958746D02*
X8320182Y-24911127D01*
X8320182Y-24911127D02*
X8310658Y-24882555D01*
X8310658Y-24882555D02*
X8301134Y-24863508D01*
X8301134Y-24863508D02*
X8282087Y-24834936D01*
X8282087Y-24834936D02*
X8272563Y-24825412D01*
M02*
